<?xml version="1.0" encoding="utf-8"?>
<!-- Generator: Adobe Illustrator 26.0.3, SVG Export Plug-In . SVG Version: 6.00 Build 0)  -->
<svg version="1.1" id="Layer_1" xmlns="http://www.w3.org/2000/svg" xmlns:xlink="http://www.w3.org/1999/xlink" x="0px" y="0px"
	 viewBox="0 0 1000 1000" style="enable-background:new 0 0 1000 1000;" xml:space="preserve">
<style type="text/css">
	.st0{fill:#483538;}
	.st1{fill:#82BD54;}
	.st2{opacity:0.57;fill:#45A84D;enable-background:new    ;}
	.st3{fill:#086A38;}
	.st4{fill:#079247;}
	.st5{fill:#040404;}
	.st6{fill:#45A84D;}
	.st7{opacity:0.2;fill:#040404;enable-background:new    ;}
	.st8{fill:#754E25;}
	.st9{fill:#4BAE4C;}
	.st10{opacity:0.39;fill:#040404;enable-background:new    ;}
	.st11{fill:#F9B03F;}
	.st12{fill:#525253;}
	.st13{fill:#C3C4C6;}
	.st14{fill:#97999A;}
	.st15{fill:#AFAEB1;}
	.st16{opacity:0.49;fill:#525253;enable-background:new    ;}
	.st17{fill:#48474A;}
	.st18{fill:#D5D5D6;}
	.st19{fill:#777A7E;}
	.st20{fill:#8F9194;}
	.st21{fill:none;stroke:#48474A;stroke-miterlimit:10;}
	.st22{fill:#4F4E50;}
	.st23{fill:#747577;}
	.st24{fill:#010101;}
	.st25{fill:none;}
	.st26{fill:#F3E86C;stroke:#939393;stroke-width:0.75;stroke-miterlimit:10;}
	.st27{fill:#F7D86D;}
	.st28{fill:#BBCADA;}
	.st29{fill:#E4E7ED;}
	.st30{fill:#8895A6;}
	.st31{fill:#F7E08D;}
	.st32{fill:#FEFEFE;}
</style>
<polygon id="XMLID_574_" class="st0" points="279.2,722.5 501.9,846.9 724.3,722.5 724.3,639.9 502.2,768.1 279.7,639.9 "/>
<polygon id="XMLID_569_" class="st1" points="266,610 501.7,743.7 737.8,610 492.6,479.6 "/>
<path id="XMLID_578_" class="st2" d="M628.4,694.6"/>
<path id="XMLID_575_" class="st3" d="M304.3,710.1l20.4-11.9v-30.1c0,0-14.6-29-20.4-11L304.3,710.1z"/>
<polygon id="XMLID_550_" class="st3" points="360.7,721.8 374.8,714.5 374.8,691.6 360.7,691.6 "/>
<polygon id="XMLID_579_" class="st3" points="699.2,703 680.4,693.2 679.4,646.6 703.6,640.5 "/>
<polygon id="XMLID_581_" class="st3" points="562.8,782.5 549.8,774.7 547.3,738 565.8,740.5 "/>
<ellipse id="XMLID_582_" class="st4" cx="483.4" cy="701.1" rx="10.5" ry="6"/>
<ellipse id="XMLID_585_" class="st4" cx="509.9" cy="707.1" rx="7.2" ry="4.1"/>
<path id="XMLID_691_" class="st5" d="M612.5,771.2l23.5-11.1c0,0,12.1-11.4,0-12.7l-23.5,11.9C612.5,759.4,600,773.9,612.5,771.2z"
	/>
<path id="XMLID_692_" class="st5" d="M595.1,751.3l79.6-40.1c0,0,18.5-23.8-2-16l-83.8,44.5L595.1,751.3z"/>
<path id="XMLID_693_" class="st5" d="M724.3,708.4l-66.1,39.2c0,0-13-3.3,0-14.6l66.1-37.8V708.4z"/>
<path id="XMLID_694_" class="st5" d="M522.4,789.5l20.2-13.3c0,0,8.6-7.2,0-10l-20.2,11.6C522.4,777.9,511,788.8,522.4,789.5z"/>
<ellipse id="XMLID_684_" transform="matrix(0.363 -0.9318 0.9318 0.363 -429.7415 938.9749)" class="st5" cx="471.9" cy="783.8" rx="5" ry="8.8"/>
<polygon id="XMLID_580_" class="st3" points="643.1,716 630.2,707.3 630.2,688.5 647.5,680.6 "/>
<path id="XMLID_577_" class="st6" d="M642.8,691.4l-32.3,17.4c0,0-10.8,7.1-9.2,16.3c1.6,9.1,0,33.9,0,33.9s-11.8,37-38.4,23.5
	v-32.9c0,0,9.4-26.3-62.2,20.1l12.2-26.2l129.9-67.4V691.4z"/>
<path id="XMLID_576_" class="st6" d="M737.4,632c0,0-0.8,42.3-3.8,48.7c-2.2,4.7-9.4,43.1-34.5,22.4V654c0,0-7.8-11.8-18.8,11.8
	v27.4c0,0-12.5,37.8-37.6,22.7v-40l91.5-53.3L737.4,632z"/>
<polygon id="XMLID_1_" class="st6" points="737.4,609.8 501.4,743.5 265.7,609.8 265.1,633.4 500.6,769.6 737.7,634.9 "/>
<path id="XMLID_546_" class="st6" d="M265.1,633.6v58c0,0,18.8,38.4,39.2,18.3v-52.8c0,0,4.7-18.3,20.4,10.7v34.8
	c0,0,20.4,37.9,36,19.3v-19.3c0,0,3.8-10.2,14.7-5.3s9.7-7.4,9.7-7.4l-97.6-60.2L265.1,633.6z"/>
<polyline class="st7" points="647.7,812.1 709.6,778.1 664.8,755.8 605.1,789.2 501.9,846.9 339.5,756.2 298.8,778.1 500.6,892.8 
	636.1,818.4 "/>
<g id="tree_x5F_2">
	<ellipse id="XMLID_27_" class="st4" cx="329.8" cy="605.9" rx="15.4" ry="8.6"/>
	<path id="XMLID_26_" class="st8" d="M331.6,608.2h-2.5c-2,0-3.8-1.7-3.8-3.8V588c0-2,1.7-3.8,3.8-3.8h2.5c2,0,3.8,1.7,3.8,3.8v16.5
		C335.4,606.5,333.7,608.2,331.6,608.2z"/>
	<g id="XMLID_20_">
		<path id="XMLID_25_" class="st4" d="M308.9,557.6l-5.2,11.8c0,0,1.4,1.4,3.8,3.3l5.3-12.1C311.3,559.3,309.9,558.4,308.9,557.6z"
			/>
		<path id="XMLID_24_" class="st4" d="M353.9,572c0.9-0.8,2-1.7,3-2.7l-5-11.9c-1.1,0.9-2,1.7-3.1,2.5L353.9,572z"/>
		<path id="XMLID_23_" class="st3" d="M353.9,572c-20.1,16.6-38.6,6.4-46.2,0.5l-3.8,8.8c0,0,26,26.8,53.9,0L353.9,572z"/>
		<path id="XMLID_22_" class="st4" d="M353.9,572l-5-12.1c-14.9,10.7-28.5,5.3-36,0.5l-5.3,12.1C315.3,578.4,333.8,588.6,353.9,572z
			"/>
		<path id="XMLID_21_" class="st9" d="M330.9,500.6l-24,55.2c0,0,0.6,0.8,2,1.7c0.9,0.8,2.4,1.9,3.9,2.8c7.5,4.9,21.2,10.2,36-0.5
			c1.1-0.8,2-1.6,3.1-2.5c0.6-0.5,1.3-1.1,1.9-1.7L330.9,500.6z"/>
	</g>
	<g id="XMLID_9_">
		<path id="XMLID_19_" class="st9" d="M308.9,557.6l10.5-24.3l-1.4-3.1l-11.1,25.5C306.9,555.7,307.7,556.5,308.9,557.6z"/>
		<path id="XMLID_18_" class="st4" d="M308.9,557.6l-5.2,11.8c0,0,1.4,1.4,3.8,3.3l5.3-12.1C311.3,559.3,309.9,558.4,308.9,557.6z"
			/>
		<path id="XMLID_17_" class="st10" d="M308.9,557.6l-5.2,11.8c0,0,1.4,1.4,3.8,3.3l5.3-12.1C311.3,559.3,309.9,558.4,308.9,557.6z"
			/>
		<path id="XMLID_16_" class="st9" d="M322.1,539.1l-2.7-6l-10.5,24.3c0.9,0.8,2.4,1.9,3.9,2.8L322.1,539.1z"/>
		<path id="XMLID_15_" class="st3" d="M307.5,572.5l-3.8,8.8c0,0,18.5,19.1,41.1,8.9l-4.7-10.7C325.7,584.1,313.5,577,307.5,572.5z"
			/>
		<path id="XMLID_14_" class="st10" d="M307.5,572.5l-3.8,8.8c0,0,18.5,19.1,41.1,8.9l-4.7-10.7C325.7,584.1,313.5,577,307.5,572.5z
			"/>
		<path id="XMLID_13_" class="st4" d="M340.1,579.7l-6.1-13.8c-8.8,0.9-16.3-2.4-21.2-5.5l-5.3,12.1
			C313.5,577,325.7,584.1,340.1,579.7z"/>
		<path id="XMLID_12_" class="st10" d="M340.1,579.7l-6.1-13.8c-8.8,0.9-16.3-2.4-21.2-5.5l-5.3,12.1
			C313.5,577,325.7,584.1,340.1,579.7z"/>
		<path id="XMLID_11_" class="st9" d="M334,565.9l-11.9-26.8l-9.2,21.3C317.7,563.6,325.2,567,334,565.9z"/>
		<path id="XMLID_10_" class="st10" d="M322.1,539.1l-2.7-6L318,530l-11.1,25.5c0,0,0.6,0.8,2,1.7c0.9,0.8,2.4,1.9,3.9,2.8
			c4.9,3.1,12.4,6.6,21.2,5.5L322.1,539.1z"/>
	</g>
</g>
<path id="XMLID_583_" class="st11" d="M529.9,659.3c0,0-9.1,9.9-0.8,11.8c8.3,1.9,20.7-5.3,24,1.4c3.4,6.6,11.1,34.3,18.6,30.7
	c7.4-3.6,62.2-34.6,62.2-34.6s15.4-7.1,0-8.9c-15.4-1.9-38.7-37.9-38.7-37.9L529.9,659.3z"/>
<g id="tree_x5F_2_00000149365941044083886510000000187694335942893489_">
	<ellipse id="XMLID_00000172402720782674589960000002979504094072264864_" class="st4" cx="647.9" cy="593" rx="15.4" ry="8.6"/>
	<path id="XMLID_00000058559062397089384810000009070003173947768746_" class="st8" d="M649.7,595.3h-2.5c-2,0-3.8-1.7-3.8-3.8
		v-16.5c0-2,1.7-3.8,3.8-3.8h2.5c2,0,3.8,1.7,3.8,3.8v16.5C653.5,593.6,651.8,595.3,649.7,595.3z"/>
	<g id="XMLID_00000142864990009001017320000015523116677056244393_">
		<path id="XMLID_00000176012259052514366910000015063486909542956964_" class="st4" d="M627,544.7l-5.2,11.8c0,0,1.4,1.4,3.8,3.3
			l5.3-12.1C629.4,546.4,628,545.5,627,544.7z"/>
		<path id="XMLID_00000086682247668920381130000004233160481868026520_" class="st4" d="M672,559.1c0.9-0.8,2-1.7,3-2.7l-5-11.9
			c-1.1,0.9-2,1.7-3.1,2.5L672,559.1z"/>
		<path id="XMLID_00000046321949650166586080000001171365226219915926_" class="st3" d="M672,559.1c-20.1,16.6-38.6,6.4-46.2,0.5
			l-3.8,8.8c0,0,26,26.8,53.9,0L672,559.1z"/>
		<path id="XMLID_00000153689259414301133490000015471613810245832379_" class="st4" d="M672,559.1l-5-12.1
			c-14.9,10.7-28.5,5.3-36,0.5l-5.3,12.1C633.4,565.5,651.9,575.7,672,559.1z"/>
		<path id="XMLID_00000000223638649222993340000004477010482642516390_" class="st9" d="M649,487.7l-24,55.2c0,0,0.6,0.8,2,1.7
			c0.9,0.8,2.4,1.9,3.9,2.8c7.5,4.9,21.2,10.2,36-0.5c1.1-0.8,2-1.6,3.1-2.5c0.6-0.5,1.3-1.1,1.9-1.7L649,487.7z"/>
	</g>
	<g id="XMLID_00000035507465554684147970000011323887245306799004_">
		<path id="XMLID_00000135651839899823698020000004932406127897912454_" class="st9" d="M627,544.7l10.5-24.3l-1.4-3.1L625,542.8
			C625,542.8,625.8,543.6,627,544.7z"/>
		<path id="XMLID_00000100348631489275748160000017614553607330983829_" class="st4" d="M627,544.7l-5.2,11.8c0,0,1.4,1.4,3.8,3.3
			l5.3-12.1C629.4,546.4,628,545.5,627,544.7z"/>
		<path id="XMLID_00000032639650248771446610000012190905007098038418_" class="st10" d="M627,544.7l-5.2,11.8c0,0,1.4,1.4,3.8,3.3
			l5.3-12.1C629.4,546.4,628,545.5,627,544.7z"/>
		<path id="XMLID_00000027573878298347250740000006722651653247535287_" class="st9" d="M640.2,526.2l-2.7-6L627,544.5
			c0.9,0.8,2.4,1.9,3.9,2.8L640.2,526.2z"/>
		<path id="XMLID_00000000911237482428491260000002923081142558894506_" class="st3" d="M625.6,559.6l-3.8,8.8
			c0,0,18.5,19.1,41.1,8.9l-4.7-10.7C643.8,571.2,631.6,564.1,625.6,559.6z"/>
		<path id="XMLID_00000031909823930587554710000008795316878409418132_" class="st10" d="M625.6,559.6l-3.8,8.8
			c0,0,18.5,19.1,41.1,8.9l-4.7-10.7C643.8,571.2,631.6,564.1,625.6,559.6z"/>
		<path id="XMLID_00000061432336534986595790000015397567490349238202_" class="st4" d="M658.2,566.8l-6.1-13.8
			c-8.8,0.9-16.3-2.4-21.2-5.5l-5.3,12.1C631.6,564.1,643.8,571.2,658.2,566.8z"/>
		<path id="XMLID_00000177459990921249837580000014229715391655598741_" class="st10" d="M658.2,566.8l-6.1-13.8
			c-8.8,0.9-16.3-2.4-21.2-5.5l-5.3,12.1C631.6,564.1,643.8,571.2,658.2,566.8z"/>
		<path id="XMLID_00000036219900087567444080000006574358032787265450_" class="st9" d="M652.1,553l-11.9-26.8l-9.2,21.3
			C635.8,550.7,643.3,554.1,652.1,553z"/>
		<path id="XMLID_00000179614401455338455290000016177887858177345950_" class="st10" d="M640.2,526.2l-2.7-6l-1.4-3.1L625,542.7
			c0,0,0.6,0.8,2,1.7c0.9,0.8,2.4,1.9,3.9,2.8c4.9,3.1,12.4,6.6,21.2,5.5L640.2,526.2z"/>
	</g>
</g>
<polygon class="st12" points="583.6,627.9 534.1,656.6 532.2,518.9 583.8,496 595.3,505.5 594.5,621.5 "/>
<g>
	<g id="XMLID_49_">
		<path id="XMLID_50_" class="st13" d="M507.6,440.5l0.1,231.8l26.7-15.5l-0.9-91.3c-0.4-26.7,14.9-42.3,20.4-47.1
			c1.3-1,1-1.3,2.6-1.7c27.1-8.1,27.8,23.2,27.8,23.2l-0.6,88.4l23.6-13.8l0.3-231.8L507.6,440.5z"/>
	</g>
	<path id="XMLID_570_" class="st14" d="M594.5,621.5l-10.9,6.4l0.1-89.1c0,0,0.7-28.3-28.4-22.3c0,0,11.3-5.7,22.1-5
		c8.8,0.6,15.6,8.2,15.7,17.1L594.5,621.5z"/>
	<g id="XMLID_488_">
		<polygon id="XMLID_490_" class="st15" points="407.7,612.7 507.7,672.2 507.6,439 407.3,380.9 		"/>
	</g>
	<g id="XMLID_4_">
		<polygon id="XMLID_565_" class="st16" points="444.7,505.2 444.4,505.1 440.3,507.1 461.2,518.6 464.5,516.1 		"/>
		<path id="XMLID_567_" class="st16" d="M445.8,465.2l-1.4,39.8l-4.1,2v-35.8C440.3,471.3,441.5,465.2,445.8,465.2z"/>
		<path id="XMLID_566_" class="st12" d="M444.4,505.1l20.1,10.9l0.6-34.8c0,0-6.1-18.7-20.6-15.6L444.4,505.1L444.4,505.1z"/>
		<polygon id="XMLID_64_" class="st17" points="444.4,505.1 464.5,494.8 464.5,516.1 		"/>
	</g>
	<g id="XMLID_53_">
		<polygon id="XMLID_54_" class="st14" points="507.3,551 495.2,544.2 495.2,530.6 507.1,536.8 		"/>
		<polygon id="XMLID_55_" class="st18" points="507.1,551 519.1,544.2 519.1,530.6 507.3,536.8 		"/>
		<polygon id="XMLID_56_" class="st19" points="495.2,530.6 497.4,529.6 507.1,534.6 507.1,536.8 		"/>
		<polygon id="XMLID_57_" class="st14" points="519.1,530.6 517,529.6 507.1,534.6 507.1,536.8 		"/>
	</g>
	<g id="XMLID_58_">
		<polygon id="XMLID_114_" class="st14" points="507.7,574.2 495.7,567.2 495.7,553.8 507.6,560 		"/>
		<polygon id="XMLID_113_" class="st18" points="507.6,574.2 519.6,567.2 519.6,553.8 507.7,560 		"/>
		<polygon id="XMLID_90_" class="st19" points="495.7,553.8 497.8,552.7 507.6,557.8 507.6,560 		"/>
		<polygon id="XMLID_59_" class="st14" points="519.4,553.8 517.3,552.7 507.6,557.8 507.6,560 		"/>
	</g>
	<g id="XMLID_115_">
		<polygon id="XMLID_119_" class="st14" points="507.6,596.1 495.5,589.2 495.5,575.8 507.4,582 		"/>
		<polygon id="XMLID_118_" class="st18" points="507.4,596.1 519.4,589.2 519.4,575.8 507.6,582 		"/>
		<polygon id="XMLID_117_" class="st19" points="495.5,575.8 497.7,574.8 507.4,579.8 507.4,582 		"/>
		<polygon id="XMLID_116_" class="st14" points="519.4,575.8 517.3,574.8 507.6,579.8 507.6,582 		"/>
	</g>
	<path id="XMLID_137_" class="st19" d="M415.6,504.5"/>
	<g id="XMLID_65_">
		<polygon id="XMLID_548_" class="st19" points="465,415.9 441.8,401.8 441.9,421.6 456.4,448.4 464.7,443.8 		"/>
		<polygon id="XMLID_547_" class="st14" points="456.4,448.4 441.8,401.8 429.6,395.6 445.8,442.4 		"/>
	</g>
	<g id="XMLID_66_">
		<polygon id="XMLID_68_" class="st19" points="507.6,440.5 483.8,426.4 483.9,446.3 498.4,473.1 507.6,468.1 		"/>
		<polygon id="XMLID_67_" class="st14" points="498.4,473.1 483.8,426.4 471.6,419.8 487.9,467 		"/>
	</g>
	<g id="XMLID_69_">
		<polygon id="XMLID_71_" class="st19" points="425,393 401.2,379.4 401.4,397 415.9,423.8 425,418.9 		"/>
		<polygon id="XMLID_70_" class="st14" points="415.9,423.8 401.2,379.4 389.8,372.7 405.3,417.7 		"/>
	</g>
	<g id="XMLID_72_">
		<polygon id="XMLID_120_" class="st14" points="507.6,440.5 531.2,426.4 530.9,446.3 516.5,473.1 507.6,468.1 		"/>
		<polygon id="XMLID_73_" class="st18" points="516.5,473.1 531.2,426.4 543.2,419.9 527,467 		"/>
	</g>
	<g id="XMLID_121_">
		<polygon id="XMLID_123_" class="st14" points="590.7,392.5 613.7,379.4 613.6,398.5 599.4,425.3 590.7,420.3 		"/>
		<polygon id="XMLID_122_" class="st18" points="599.1,425.3 613.7,379.4 625.8,372.4 609.5,419.2 		"/>
	</g>
	<g id="XMLID_124_">
		<polygon id="XMLID_126_" class="st14" points="550.1,415.7 573.2,402.5 573,421.6 558.8,448.4 550.1,443.5 		"/>
		<polygon id="XMLID_125_" class="st18" points="558.5,448.4 573.2,402.5 585.2,395.6 569,442.4 		"/>
	</g>
	<g>
		<polygon id="XMLID_89_" class="st20" points="483.2,281.7 403.5,326.8 422.5,339.4 451.3,323.6 503.5,293.2 		"/>
		<polygon id="XMLID_86_" class="st15" points="523.5,242.8 523.9,281.4 503.5,293.2 503.2,252.9 		"/>
		<polygon id="XMLID_85_" class="st18" points="503.2,232.6 482.9,242.8 503.2,252.9 523.5,242.8 		"/>
		<polygon id="XMLID_88_" class="st20" points="503.3,252.9 482.9,242.8 483.2,281.7 503.5,293.2 		"/>
		<g>
			<path id="XMLID_00000009549198310082237000000009346719082666874520_" class="st21" d="M491.5,291.4"/>
			<g id="XMLID_144_">
				<path id="XMLID_00000082330341990631696170000012470181771110261145_" class="st9" d="M617.3,198"/>
				<path id="XMLID_00000119119313761582527020000015398914231338641582_" class="st9" d="M617.3,156"/>
			</g>
		</g>
		<polygon id="XMLID_154_" class="st20" points="592.3,341.7 555.6,323.6 503.5,293.2 523.9,281.4 608.2,325.3 		"/>
		<polygon id="XMLID_153_" class="st17" points="422.5,339.4 503.5,293.2 602.7,346.8 507,399.2 		"/>
		<polygon id="XMLID_152_" class="st22" points="503.5,338.6 503.5,293.2 422.5,339.4 503.5,396.7 		"/>
		<path id="XMLID_147_" class="st23" d="M608.2,385.3"/>
		<path id="XMLID_142_" class="st14" d="M422.5,339.4"/>
		<polygon id="XMLID_141_" class="st23" points="507.7,387.6 422.5,339.4 402.1,351.1 507.8,411.9 		"/>
		<polygon id="XMLID_140_" class="st20" points="592.6,340.2 507.3,388.5 507.8,411.9 613.6,351.1 		"/>
		<path id="XMLID_132_" class="st14" d="M422.5,339.4"/>
		<polygon id="XMLID_84_" class="st20" points="382.1,368.8 508.4,441.5 507.8,411.9 382.4,339.4 		"/>
		<polygon id="XMLID_83_" class="st15" points="508.4,441.5 633.6,368.2 633.6,339.5 507.8,411.9 		"/>
		<polygon id="XMLID_82_" class="st20" points="447.9,263 448.2,302 468.4,313.4 468.3,273.2 		"/>
		<polygon id="XMLID_81_" class="st15" points="488.4,263 488.9,301.7 468.4,313.4 468.2,273.2 		"/>
		<polygon id="XMLID_80_" class="st18" points="468.2,252.9 447.9,263 468.2,273.2 488.4,263 		"/>
		<polygon id="XMLID_112_" class="st20" points="522.8,341.4 522.5,379.6 543.3,391.2 543.2,351.5 		"/>
		<polygon id="XMLID_151_" class="st20" points="517.8,261.6 518.1,300.6 538.4,312 538.3,271.7 		"/>
		<polygon id="XMLID_150_" class="st15" points="558.4,261.6 558.8,300.3 538.4,312 538.1,271.7 		"/>
		<polygon id="XMLID_149_" class="st18" points="538.1,251.4 517.8,261.6 538.1,271.7 558.4,261.6 		"/>
		<polygon id="XMLID_161_" class="st20" points="552.3,280.7 552.6,319.7 572.9,331.1 572.7,290.8 		"/>
		<polygon id="XMLID_160_" class="st15" points="592.9,280.7 593.3,319.4 572.9,331.1 572.6,290.8 		"/>
		<polygon id="XMLID_60_" class="st18" points="572.6,270.6 552.3,280.7 572.6,290.8 592.9,280.7 		"/>
		<g>
			<rect x="575.2" y="330" class="st20" width="12.5" height="11.3"/>
			<path class="st24" d="M586.9,330.7v9.9h-11v-9.9H586.9 M588.4,329.2h-13.9V342h13.9V329.2L588.4,329.2z"/>
		</g>
		<polygon id="XMLID_133_" class="st18" points="613.3,290.6 593,300.7 613.3,310.8 633.6,300.7 		"/>
		<polygon id="XMLID_102_" class="st20" points="593,300.7 592.3,340.1 613.6,351.1 613.4,310.8 		"/>
		<polygon id="XMLID_101_" class="st15" points="633.6,300.7 633.6,341 613.6,351.1 613.3,310.8 		"/>
		<polygon id="XMLID_159_" class="st18" points="579.1,310.1 558.8,320.3 579.1,330.4 599.4,320.3 		"/>
		<polygon id="XMLID_158_" class="st20" points="558.8,320.3 558.5,358.5 579.4,370.1 579.3,330.4 		"/>
		<polygon id="XMLID_157_" class="st15" points="599.4,320.3 599.8,358.9 579.4,370.7 579.1,330.4 		"/>
		<polygon id="XMLID_134_" class="st18" points="543,331.3 522.8,341.4 543,351.5 563.3,341.4 		"/>
		<polygon id="XMLID_107_" class="st15" points="563.3,341.4 563.8,380.1 543.3,391.8 543,351.5 		"/>
		<polygon id="XMLID_164_" class="st20" points="413.1,283.3 413.4,322.3 433.7,333.7 433.5,293.5 		"/>
		<polygon id="XMLID_163_" class="st15" points="453.7,283.3 454.1,322 433.7,333.7 433.4,293.5 		"/>
		<polygon id="XMLID_162_" class="st18" points="433.4,273.2 413.1,283.3 433.4,293.5 453.7,283.3 		"/>
		<polygon id="XMLID_76_" class="st20" points="382.1,300.4 382.4,339.4 402.4,351 402.5,310.5 		"/>
		<polygon id="XMLID_75_" class="st15" points="422.7,300.4 423.1,339.1 402.4,351 402.4,310.5 		"/>
		<polygon id="XMLID_74_" class="st18" points="402.5,290.3 382.1,300.4 402.5,310.5 422.8,300.4 		"/>
		<polygon id="XMLID_79_" class="st20" points="416.3,320.3 416,358.8 436.9,370.9 436.7,330.4 		"/>
		<polygon id="XMLID_78_" class="st15" points="456.9,320.3 457.3,358.9 436.9,370.9 436.6,330.4 		"/>
		<polygon id="XMLID_77_" class="st18" points="436.6,310.1 416.3,320.3 436.6,330.4 456.9,320.3 		"/>
		<polygon id="XMLID_156_" class="st20" points="451.6,341.4 451.3,379.6 472.2,391.5 472.1,351.5 		"/>
		<polygon id="XMLID_155_" class="st15" points="492.2,341.4 492.6,380.1 472.2,391.5 471.9,351.5 		"/>
		<polygon id="XMLID_148_" class="st18" points="471.9,331.3 451.6,341.4 471.9,351.5 492.2,341.4 		"/>
		<polygon id="XMLID_136_" class="st18" points="507.6,351.4 487.3,361.5 507.6,371.7 527.8,361.5 		"/>
		<polygon id="XMLID_129_" class="st20" points="487.3,361.5 487,399.8 507.8,411.9 507.7,371.7 		"/>
		<polygon id="XMLID_128_" class="st15" points="527.8,361.5 528.3,400.2 507.8,411.9 507.6,371.7 		"/>
	</g>
</g>
<path class="st9" d="M739.1,275.4c0,0-17.2-46.5-60.5-46.5c-43.3,0-34.4-9.6-34.4-9.6l81.3,2.9l13.6,36V275.4z"/>
<path class="st1" d="M514.8,268.4l8.3-6.4c0,0,91.7-3.8,150.3-32.5s66.9,28.7,65.6,45.9c0,0,12.7-80.3-93.7-100
	s-133.8,67.5-133.8,67.5L514.8,268.4z"/>
<g>
	<path class="st9" d="M534.9,242.3c32.3-24.2,71.3-42.8,111.8-46.7c5.8-0.5,11.7-0.6,17.5-0.4C617.6,195.1,572.5,216,534.9,242.3
		L534.9,242.3z"/>
</g>
<path class="st1" d="M493.5,315.4c0,0-6,1.2-7.4,5.5c-1.4,4.3,6.3,18.8,15.3,26.5c4.6,3.9,12.4,5.2,14.8,3.9c1.9-1,2.2-5.2,1.9-8.1
	c-0.1-1.1-0.6-2.1-1.3-3l-4-4.7L493.5,315.4z"/>
<path class="st1" d="M496.1,268.8c0,0-11.5,11.2-7.6,22.5c3.8,11.2,21.5,26.5,21.5,26.5s7.9-8.6,1.4-20.1
	C504.9,286.2,496.1,268.8,496.1,268.8z"/>
<path class="st9" d="M491.1,294.8c0,0-2.9,13.1,0.7,19.8s20.5,21.7,20.5,21.7s6.2-5,1.9-12.9C510,315.6,491.1,294.8,491.1,294.8z"/>
<path class="st9" d="M490,331c0,0-4.8,3.7-2.2,8c0.5,0.9,4.5,2.6,4.5,2.6l0.1,17.4l15.3-7.6l12.1,6l-8.1-11L490,331z"/>
<polygon class="st1" points="499.2,232.5 520.2,235.3 523.1,262 513.5,272.1 495.6,242.3 "/>
<path class="st1" d="M464.9,497.8c0,0-15.1,6-16.6,9.2c-1.6,3.1-13,28.7-3.7,59.8c0.1,0.4,0.7,0.4,0.8,0
	c1.6-9.1,11.5-52.8,19.2-55.7L464.9,497.8z"/>
<g>
	<path class="st25" d="M556.5,516.7c-1.6,0.4-1.3,0.7-2.6,1.7c-2.6,2.3-7.5,7-11.8,14.3c4.6,2.2,12.4,8.1,7.5,21.3
		c-0.1,0.4-0.3,0.7-0.4,1c2,3.8,2.6,10,3.1,14.6c0.2,2.4-2.4,5.8-6.1,9.2c1,1.9,1.9,4.4,2.4,7.4c0.4,2.2-0.6,5.4-2.4,8.9
		c1.4,3.7,2.6,8.8,2.8,15.2c0,0.2,0,0.3,0,0.5c0.1,0.5,0.1,1,0.2,1.6c3,32.8,26.3,18.5,26.3,18.5c2.7-2,5.4-3.8,8.3-5.4l0.6-85.6
		C584.3,539.9,583.5,508.6,556.5,516.7z"/>
	<path class="st9" d="M599.9,618.7l-16.2,9.5l0-2.7c-2.8,1.6-5.6,3.3-8.3,5.4c0,0-23.3,14.3-26.3-18.5c-0.1-0.6-0.1-1.1-0.2-1.6
		c-0.1,8.3-8,17.4-14.9,23.7l0,3.9c4.5,5.4,14,10.9,34,9.7c37.4-2.3,48.3,5.3,57.9-4c9.6-9.3,6.6-16.6,32.5-15.9
		c25.8,0.7,15.6-3,37.4,1.7C696,629.8,644,606,599.9,618.7z"/>
	<path class="st1" d="M546.2,595.1c-3,5.9-8.1,12.8-12.3,18.1l0.2,21.3c6.8-6.3,14.8-15.5,14.9-23.7c0-0.2,0-0.3,0-0.5
		C548.8,603.8,547.6,598.7,546.2,595.1z"/>
	<path class="st9" d="M548.6,586.1c-0.5-3-1.4-5.5-2.4-7.4c-3.8,3.6-8.7,7.2-12.6,9.9l0.2,24.5c4.2-5.2,9.3-12.2,12.3-18.1
		C548,591.5,549,588.3,548.6,586.1z"/>
	<path class="st1" d="M552.3,569.6c-0.4-4.6-1.1-10.8-3.1-14.6c-4,10.1-10.8,14-15.7,15.6l0.2,18.1c3.8-2.7,8.8-6.3,12.6-9.9
		C549.8,575.3,552.5,572,552.3,569.6z"/>
	<path class="st9" d="M549.2,555c0.1-0.3,0.3-0.6,0.4-1c4.8-13.2-2.9-19.1-7.5-21.3c-4.8,7.9-8.9,18.9-8.6,32.8l0,5.1
		C538.4,569,545.2,565.1,549.2,555z"/>
</g>
<path class="st26" d="M721.9,743"/>
<g>
	<path class="st27" d="M481.2,195.5c-0.5-4.1-1.6-7.9-3.2-11.7c-1.7-3.9-4.6-6.9-7.7-9.7c-4.1-3.8-8.2-7.7-11.5-12.2
		c-4.8-6.5-7.8-13.8-9.1-21.8c-1.1-6.7-1.2-13.4-0.3-20.1c0.8-5.8,2.3-11.4,4.8-16.7c3.2-6.7,7.6-12.4,13.3-17.1
		c6.8-5.6,14.6-9.2,23.2-11c6.6-1.4,13.2-1.6,19.8-0.9c8.4,1,16.3,3.6,23.4,8.1c7.8,4.9,13.8,11.5,18,19.8
		c3.6,7.1,5.2,14.7,5.8,22.6c0.4,6.1,0,12.1-1.3,18.1c-1.7,8.2-5.3,15.5-10.8,21.9c-3.2,3.8-6.8,7.1-10.5,10.4
		c-2.7,2.5-5.1,5.3-6.9,8.6c-2,3.6-2.7,7.6-3.4,11.5c-0.7,2.4-0.8,5-0.9,7.5c-0.1,1.1-0.3,2.2-0.7,3.2c-1.7,3.6-4.7,5.5-8.2,6.9
		c-5,2.1-10.1,2.6-15.5,2.1c-3.9-0.4-7.6-1.3-11.1-3.2c-4.1-2.3-6.8-5.5-6.7-10.5C481.9,199.1,481.7,197.3,481.2,195.5z
		 M514.5,185.9c0.2-1.2,0.4-2.4,0.5-3.6c0.3-0.1,0.4-0.2,0.1-0.5c0.1-0.6,0.2-1.2,0.3-1.8c0.4-0.2,0.5-0.4,0.1-0.7
		c0-0.3,0.1-0.6,0.1-0.9c0.5-0.2,0.5-0.5,0.2-0.9c0.1-0.9,0.3-1.7,0.4-2.6c0.9-5.5,1.8-11,2.7-16.5c0.8-5.1,1.7-10.2,2.5-15.4
		c0.9-5.5,1.8-10.9,2.6-16.4c0.5-3.4,1.1-6.7,1.6-10.1c0.2-0.9-0.1-1.8-1.1-2.1c-1-0.4-1.7,0.1-2.2,1c-0.4,0.7-0.7,1.3-1.1,2
		c-2.7,4.8-5.5,9.6-8.2,14.4c-0.4,0.7-0.7,0.8-1.3,0.2c-2.3-2-4.6-3.9-6.9-5.8c-1.5-1.3-2.6-1.1-3.4,0.7c-2.4,5.2-4.7,10.3-7.1,15.5
		c-0.3,0.7-0.6,0.9-1.3,0.5c-1.2-0.7-2.4-1.4-3.6-2.1c-2.3-1.4-4.7-2.7-7-4.1c-0.7-0.4-1.3-0.5-2-0.1c-0.6,0.4-0.8,1-0.7,1.7
		c0.1,0.6,0.2,1.3,0.3,1.9c0.8,3.9,1.6,7.7,2.3,11.6c1.4,7.2,2.9,14.5,4.3,21.7c1.1,5.5,2.2,11.1,3.3,16.6c1,4.9,1.9,9.9,2.9,14.8
		c0.3,1.3,1.1,2,2.1,1.8c1-0.2,1.6-1.2,1.3-2.5c-1.7-8.4-3.3-16.8-5-25.2c-1.8-9-3.5-17.9-5.3-26.9c-0.6-3.1-1.2-6.3-1.8-9.4
		c-0.1-0.3-0.3-0.7,0.1-0.9c0.3-0.2,0.5,0.1,0.8,0.3c2.9,1.7,5.7,3.3,8.6,5c1.4,0.8,2.4,0.5,3-1c2.2-4.9,4.5-9.8,6.7-14.7
		c0.7-1.5,0.6-1.6,2-0.3c2.1,1.8,4.2,3.5,6.3,5.3c1.5,1.2,2.4,1,3.3-0.6c1.8-3.1,3.5-6.3,5.3-9.4c0.1-0.2,0.2-0.5,0.6-0.4
		c-0.2,1.2-0.4,2.3-0.6,3.4c-1.2,7.2-2.3,14.4-3.5,21.6c-0.9,5.5-1.8,11.1-2.7,16.6c-0.6,3.6-1.2,7.3-1.8,10.9
		c-0.8,4.9-1.6,9.8-2.4,14.7c-0.3,1.8-0.6,3.6-0.8,5.4c-0.1,1.4,1,2.2,2.2,1.8c0.7-0.2,1-0.8,1.2-1.5c0.5-3.2,1-6.3,1.5-9.5
		c0.5-0.2,0.3-0.6,0.3-1c0.1-0.6,0.1-1.1,0.2-1.7C514.7,186.4,514.8,186.2,514.5,185.9z M470.1,123.9c3.9,0.2,7.2-0.7,10.5-1.9
		c3.2-1.2,6.2-2.9,8.9-4.8c4.1-2.8,7.6-6.3,10.4-10.5c2.7-4.1,4.6-8.4,4.4-13.5c-0.1-2.5-1.2-4.7-2.9-6.4c-2.2-2.2-5.1-3-8.2-3.2
		c-2.4-0.1-4.8,0.3-7.2,0.8c-2.9,0.6-5.6,1.8-8.2,3.2c-2.5,1.3-4.8,2.9-7,4.7c-4,3.2-7.2,7-9.7,11.5c-1.9,3.4-2.9,6.9-2.7,10.7
		c0.2,2.7,1.3,5,3.4,6.7C464.4,123.2,467.2,124.4,470.1,123.9z"/>
	<g>
		<path class="st28" d="M479.9,231.5c0-1.8,0-3.6,0-5.4c0.4,0,0.5,0.3,0.6,0.6c0.5,1.8,1.6,3.2,2.9,4.5c2.5,2.3,5.4,3.8,8.6,4.8
			c5.2,1.7,10.5,2.1,15.9,1.5c5-0.5,9.6-1.8,13.9-4.6c2.4-1.6,4.3-3.5,5.2-6.2c0.1-0.3,0.2-0.5,0.5-0.5c-0.1,1.7,0.2,3.5-0.2,5.2
			c-0.3,0.2-0.3,0.6-0.4,0.9c-0.6,1.3-1.3,2.6-2.3,3.6c-1.7,1.8-3.8,3.1-6.1,4.1c-4,1.8-8.2,2.7-12.5,3c-3.8,0.3-7.6-0.2-11.3-1
			c-2.6-0.6-5.1-1.5-7.4-2.8c-2.9-1.6-5.3-3.7-6.7-6.7C480.4,232.2,480.5,231.6,479.9,231.5z"/>
		<path class="st28" d="M527.5,216.6c0,1.5,0.1,3.1-0.2,4.6c0,0-0.1,0.1-0.1,0.1c-1,3.2-3.3,5.4-6.1,7.1c-2.2,1.4-4.5,2.3-7,3
			c-3,0.9-6.1,1.2-9.2,1.4c-2.1,0.1-4.1-0.1-6.2-0.4c-4.2-0.5-8.1-1.6-11.8-3.7c-2.8-1.6-5.2-3.7-6.4-6.9c-0.1-0.2-0.2-0.5-0.5-0.5
			c0-1.7,0-3.3,0-5c0.4,0,0.4,0.3,0.5,0.5c0.7,1.5,1.5,3,2.7,4.1c2.5,2.4,5.5,3.9,8.7,4.9c5.4,1.8,11,2.2,16.6,1.6
			c4.8-0.6,9.4-1.8,13.4-4.6c2.2-1.5,4.1-3.4,5.1-6C527,216.8,527.2,216.6,527.5,216.6z"/>
		<path class="st29" d="M479.9,211.2c0.8,0.5,0.7,1.4,1,2.1c1.1,2.2,2.9,3.7,4.9,5.1c2.3,1.6,5,2.5,7.6,3.3c2.1,0.6,4.2,1,6.4,1.1
			c1.6,0.1,3.1,0.4,4.7,0.2c2.7-0.3,5.4-0.4,8.1-1.1c2.9-0.7,5.8-1.7,8.3-3.3c2.7-1.7,5.1-3.7,6.1-7c0.1-0.2,0.1-0.4,0.3-0.5
			c0.4,0.8,0.1,1.6,0.2,2.3c0,1,0,2.1,0,3.1c-0.3,0-0.5,0.2-0.6,0.5c-1,2.6-2.9,4.5-5.1,6c-4,2.7-8.6,4-13.4,4.6
			c-5.6,0.7-11.2,0.2-16.6-1.6c-3.2-1.1-6.2-2.6-8.7-4.9c-1.2-1.2-2-2.6-2.7-4.1c-0.1-0.2-0.1-0.5-0.5-0.5
			C479.9,214.7,479.9,212.9,479.9,211.2z"/>
		<path class="st29" d="M479.9,221.4c0.3,0,0.4,0.3,0.5,0.5c1.2,3.2,3.6,5.2,6.4,6.9c3.6,2.1,7.6,3.2,11.8,3.7
			c2.1,0.2,4.1,0.5,6.2,0.4c3.1-0.2,6.2-0.5,9.2-1.4c2.5-0.7,4.8-1.6,7-3c2.8-1.7,5.1-3.9,6.1-7.1c0-0.1,0.1-0.1,0.1-0.1
			c0.4,0.8,0.1,1.7,0.2,2.5c0,0.8,0,1.7,0,2.5c-0.3,0-0.4,0.3-0.5,0.5c-1,2.7-2.9,4.6-5.2,6.2c-4.2,2.8-8.9,4-13.9,4.6
			c-5.4,0.6-10.7,0.1-15.9-1.5c-3.2-1-6.2-2.5-8.6-4.8c-1.3-1.2-2.4-2.7-2.9-4.5c-0.1-0.3-0.2-0.6-0.6-0.6
			C479.9,224.5,479.9,223,479.9,221.4z"/>
		<path class="st29" d="M483.8,237.3c1.1,0.2,2,1,2.9,1.5c3.4,2,7.1,3,10.9,3.6c2.1,0.3,4.2,0.4,6.3,0.4c6.3-0.1,12.3-1.4,17.7-4.9
			c0.4-0.3,0.8-0.4,1.3-0.5c0,0.1,0,0.3,0,0.4c-0.5,0-0.6,0.4-0.7,0.7c-1.2,2.7-3.4,4.3-5.9,5.6c-4.9,2.4-10.1,3.2-15.5,2.7
			c-3.1-0.3-6.2-0.9-9-2.2c-3.2-1.4-5.9-3.2-7.3-6.5c-0.1-0.2-0.3-0.4-0.5-0.3C483.8,237.6,483.8,237.4,483.8,237.3z"/>
		<path class="st30" d="M517,247c0,3.6-1.5,5.5-5.3,6.8c-5.2,1.8-10.5,1.9-15.7,0.3c-1.9-0.6-3.6-1.5-5.1-2.9
			c-1.2-1.2-1.4-2.6-1.3-4.1c0.3-0.1,0.6,0,0.9,0.1c2.6,1.3,5.4,2.1,8.3,2.5c4.5,0.6,8.8,0.3,13.2-0.8
			C513.7,248.5,515.3,247.6,517,247z"/>
		<path class="st28" d="M517,247c-1.7,0.6-3.3,1.5-5,1.9c-4.3,1.1-8.7,1.5-13.2,0.8c-2.9-0.4-5.7-1.2-8.3-2.5
			c-0.3-0.1-0.6-0.2-0.9-0.1c-0.3-0.7-1-1-1.5-1.3c-3-1.9-4.3-4.6-4.3-8.1c0.3,0,0.4,0.1,0.5,0.3c1.4,3.3,4.2,5.1,7.3,6.5
			c2.9,1.3,5.9,1.9,9,2.2c5.4,0.5,10.6-0.3,15.5-2.7c2.5-1.2,4.7-2.9,5.9-5.6c0.1-0.3,0.2-0.7,0.7-0.7c-0.1,0.7-0.2,1.5-0.2,2.2
			c-0.2,0.1-0.2,0.2-0.2,0.4c-0.3,2.3-1.8,3.8-3.5,5.2C518.4,246.1,517.6,246.4,517,247z"/>
		<path class="st29" d="M527.1,241.1c0-0.3,0.1-0.4,0.3-0.4C527.5,240.9,527.4,241.1,527.1,241.1z"/>
		<path class="st29" d="M522.9,250.6c0-0.2,0-0.3,0.2-0.4C523.4,250.4,523.1,250.5,522.9,250.6z"/>
		<path class="st30" d="M482.5,196.2c0.5,1.7,0.7,3.5,0.6,5.2c-0.1,4.8,2.4,7.9,6.4,10c3.3,1.8,6.8,2.7,10.6,3c5.1,0.5,10,0,14.8-2
			c3.3-1.4,6.2-3.2,7.8-6.6c0.4-1,0.7-2,0.7-3c0.1-2.4,0.2-4.8,0.9-7.1c3.6,2.7,5.4,6.2,4.8,10.8c-0.3,0.1-0.3,0.4-0.4,0.6
			c-0.9,2.6-2.5,4.6-4.7,6.1c-5.3,3.9-11.4,5.4-17.8,5.8c-3,0.2-5.9,0.1-8.9-0.4c-5-0.7-9.8-2.3-13.9-5.3c-2.2-1.6-4-3.6-4.8-6.3
			c-0.1-0.2-0.1-0.5-0.4-0.6C477.6,202.2,479.1,198.8,482.5,196.2z"/>
		<path class="st28" d="M478.1,206.6c0.3,0.1,0.3,0.4,0.4,0.6c0.9,2.7,2.6,4.7,4.8,6.3c4.2,3,8.9,4.5,13.9,5.3
			c3,0.4,5.9,0.6,8.9,0.4c6.4-0.4,12.5-1.9,17.8-5.8c2.2-1.6,3.8-3.6,4.7-6.1c0.1-0.2,0.1-0.5,0.4-0.6c0.1,1.8,0.2,3.5-0.1,5.3
			c-0.2,0.1-0.2,0.4-0.3,0.6c-1,3.5-3.6,5.7-6.5,7.5c-2.7,1.7-5.8,2.8-8.9,3.5c-2.9,0.7-5.8,0.8-8.7,1.1c-1.7,0.2-3.4-0.1-5-0.2
			c-2.3-0.1-4.6-0.5-6.8-1.2c-2.9-0.9-5.7-1.8-8.2-3.5c-2.1-1.5-4-3.1-5.3-5.5c-0.4-0.7-0.3-1.7-1.1-2.2
			C478,210,477.9,208.3,478.1,206.6z"/>
	</g>
	<path class="st31" d="M470.1,123.9c-2.9,0.5-5.7-0.7-8.3-2.7c-2.2-1.7-3.2-4-3.4-6.7c-0.3-3.8,0.8-7.4,2.7-10.7
		c2.5-4.5,5.7-8.3,9.7-11.5c2.2-1.8,4.5-3.4,7-4.7c2.6-1.3,5.3-2.5,8.2-3.2c2.4-0.5,4.8-1,7.2-0.8c3.1,0.2,6,1,8.2,3.2
		c1.7,1.7,2.8,3.8,2.9,6.4c0.3,5.1-1.6,9.4-4.4,13.5c-2.8,4.2-6.3,7.7-10.4,10.5c-2.8,1.9-5.7,3.6-8.9,4.8
		C477.4,123.2,474,124.1,470.1,123.9z"/>
	<path class="st32" d="M515.7,178.4c0,0.3-0.1,0.6-0.1,0.9c-0.2,0.2-0.2,0.4-0.1,0.7c-0.1,0.6-0.2,1.2-0.3,1.8
		c-0.2,0.1-0.2,0.3-0.1,0.5c-0.2,1.2-0.4,2.4-0.5,3.6c-0.3,0.2-0.2,0.4-0.2,0.7c-0.1,0.6-0.1,1.1-0.2,1.7c-0.4,0.2-0.4,0.6-0.3,1
		c-0.5,3.2-1,6.3-1.5,9.5c-0.1,0.7-0.4,1.3-1.2,1.5c-1.2,0.4-2.3-0.4-2.2-1.8c0.2-1.8,0.5-3.6,0.8-5.4c0.8-4.9,1.6-9.8,2.4-14.7
		c0.6-3.6,1.2-7.3,1.8-10.9c0.9-5.5,1.8-11.1,2.7-16.6c1.2-7.2,2.3-14.4,3.5-21.6c0.2-1.1,0.4-2.3,0.6-3.4c-0.4-0.1-0.5,0.2-0.6,0.4
		c-1.8,3.1-3.5,6.3-5.3,9.4c-0.9,1.6-1.8,1.8-3.3,0.6c-2.1-1.7-4.2-3.5-6.3-5.3c-1.5-1.2-1.4-1.2-2,0.3c-2.2,4.9-4.5,9.8-6.7,14.7
		c-0.7,1.5-1.6,1.8-3,1c-2.9-1.7-5.7-3.3-8.6-5c-0.3-0.1-0.5-0.5-0.8-0.3c-0.3,0.2-0.1,0.6-0.1,0.9c0.6,3.1,1.2,6.3,1.8,9.4
		c1.8,9,3.5,17.9,5.3,26.9c1.7,8.4,3.3,16.8,5,25.2c0.3,1.3-0.3,2.3-1.3,2.5c-1,0.2-1.8-0.5-2.1-1.8c-1-4.9-2-9.9-2.9-14.8
		c-1.1-5.5-2.2-11.1-3.3-16.6c-1.4-7.2-2.8-14.5-4.3-21.7c-0.8-3.9-1.6-7.7-2.3-11.6c-0.1-0.6-0.2-1.3-0.3-1.9
		c-0.1-0.7,0.2-1.3,0.7-1.7c0.7-0.4,1.3-0.3,2,0.1c2.3,1.4,4.7,2.7,7,4.1c1.2,0.7,2.4,1.4,3.6,2.1c0.7,0.4,1,0.3,1.3-0.5
		c2.3-5.2,4.7-10.3,7.1-15.5c0.8-1.8,1.9-2,3.4-0.7c2.3,1.9,4.6,3.8,6.9,5.8c0.6,0.5,0.9,0.4,1.3-0.2c2.7-4.8,5.5-9.6,8.2-14.4
		c0.4-0.7,0.7-1.3,1.1-2c0.5-0.9,1.2-1.4,2.2-1c1,0.3,1.2,1.2,1.1,2.1c-0.5,3.4-1.1,6.7-1.6,10.1c-0.9,5.5-1.8,10.9-2.6,16.4
		c-0.8,5.1-1.7,10.2-2.5,15.4c-0.9,5.5-1.8,11-2.7,16.5c-0.1,0.9-0.3,1.7-0.4,2.6C515.5,177.7,515.6,178.1,515.7,178.4z"/>
	<path class="st31" d="M515.7,178.4c-0.1-0.3-0.2-0.7,0.2-0.9C516.1,177.9,516.2,178.2,515.7,178.4z"/>
	<path class="st31" d="M513.9,189.3c-0.1-0.4-0.2-0.8,0.3-1C514.2,188.6,514.4,189,513.9,189.3z"/>
	<path class="st31" d="M515.4,180c-0.1-0.3-0.1-0.5,0.1-0.7C515.9,179.6,515.9,179.8,515.4,180z"/>
	<path class="st31" d="M514.3,186.5c-0.1-0.3-0.1-0.5,0.2-0.7C514.8,186.2,514.7,186.4,514.3,186.5z"/>
	<path class="st31" d="M515,182.3c-0.1-0.2-0.1-0.4,0.1-0.5C515.4,182,515.3,182.2,515,182.3z"/>
</g>
<path class="st9" d="M251.4,320.9c0,0,9.6,30.6,29.3,34.4c19.7,3.8,48.4-5.7,68.2-14l-85.4-10.8L251.4,320.9z"/>
<path class="st1" d="M494.1,241.3c0,0-10.8-17.8-45.2,7.6c0,0-56.7,80.3-100,92.4c0,0-75.2,10.2-97.5-20.4c0,0,56.7,22.9,68.8-23.6
	c12.1-46.5,19.1-60.5,42.7-75.2c23.6-14.7,81.5-29.9,119.1-6.4s29.7,31.6,29.7,31.6l2,24.8L494.1,241.3z"/>
<g>
	<path class="st9" d="M473.1,220.9c-13.3-9.9-32.1-7.9-47.2-3.7c-3.9,1.3-7.9,2.3-11.4,4.2c-3.6,1.9-6.9,4.3-10,7
		c-18.2,16.7-29.8,38.9-42,60.1c-5.2,8.5-19.4,37.8-28.3,39.4c8.4-1.5,22.6-31.5,27.6-39.8c12.6-22.2,29.5-55,52.2-67.5
		C430.9,213.1,457.6,208.7,473.1,220.9L473.1,220.9z"/>
</g>
<path class="st9" d="M495.6,242.3c0,0-6,11.5-3.3,19.8c2.6,8.4,21.5,39.2,21.5,39.2s8.4-15.3,2.4-25.1
	C510.2,266.4,495.6,242.3,495.6,242.3z"/>
</svg>
