<?xml version="1.0" encoding="UTF-8" standalone="no"?>
<!DOCTYPE svg PUBLIC "-//W3C//DTD SVG 1.1//EN" "http://www.w3.org/Graphics/SVG/1.1/DTD/svg11.dtd">
<svg width="100%" height="100%" viewBox="0 0 800 800" version="1.1" xmlns="http://www.w3.org/2000/svg" xmlns:xlink="http://www.w3.org/1999/xlink" xml:space="preserve" xmlns:serif="http://www.serif.com/" style="fill-rule:evenodd;clip-rule:evenodd;stroke-linejoin:round;stroke-miterlimit:2;">
    <g transform="matrix(3.125,0,0,3.125,0,89.0625)">
        <path d="M216.856,16.597C200.285,8.843 182.566,3.208 164.042,0C161.767,4.113 159.109,9.645 157.276,14.046C137.584,11.085 118.073,11.085 98.743,14.046C96.911,9.645 94.193,4.113 91.897,0C73.353,3.208 55.613,8.864 39.042,16.638C5.618,67.147 -3.443,116.401 1.087,164.956C23.256,181.511 44.74,191.568 65.862,198.149C71.077,190.971 75.728,183.341 79.735,175.3C72.104,172.401 64.795,168.822 57.889,164.668C59.721,163.311 61.513,161.891 63.245,160.431C105.367,180.133 151.135,180.133 192.755,160.431C194.506,161.891 196.298,163.311 198.11,164.668C191.184,168.843 183.855,172.421 176.224,175.321C180.23,183.341 184.862,190.992 190.097,198.169C211.239,191.588 232.743,181.532 254.912,164.956C260.228,108.668 245.831,59.866 216.856,16.597ZM85.474,135.095C72.829,135.095 62.459,123.29 62.459,108.915C62.459,94.54 72.608,82.715 85.474,82.715C98.341,82.715 108.71,94.519 108.489,108.915C108.509,123.29 98.341,135.095 85.474,135.095ZM170.525,135.095C157.88,135.095 147.511,123.29 147.511,108.915C147.511,94.54 157.659,82.715 170.525,82.715C183.392,82.715 193.761,94.519 193.54,108.915C193.54,123.29 183.392,135.095 170.525,135.095Z" style="fill:white;fill-rule:nonzero;"/>
    </g>
</svg>
