<?xml version="1.0" encoding="utf-8"?>
<!-- Generator: Adobe Illustrator 26.0.3, SVG Export Plug-In . SVG Version: 6.00 Build 0)  -->
<svg version="1.1" id="Layer_1" xmlns="http://www.w3.org/2000/svg" xmlns:xlink="http://www.w3.org/1999/xlink" x="0px" y="0px"
	 viewBox="0 0 1000 1000" style="enable-background:new 0 0 1000 1000;" xml:space="preserve">
<style type="text/css">
	.st0{fill:#4DAE4B;}
	.st1{fill:#83BD55;}
	.st2{fill:#F7D86D;}
	.st3{fill:#BBCADA;}
	.st4{fill:#E4E7EC;}
	.st5{fill:#8795A5;}
	.st6{fill:#F7E08D;}
	.st7{fill:#FFFFFF;}
	.st8{fill:#D1D3D4;}
	.st9{fill:#DC1079;}
	.st10{fill:#184669;}
	.st11{fill:#E43526;}
	.st12{fill:#F8C413;}
	.st13{fill:#2895D2;}
	.st14{fill:#4A9B45;}
	.st15{fill:#33BBE4;}
	.st16{fill:#F49D1E;}
	.st17{fill:#5DB146;}
	.st18{fill:#A51D3E;}
</style>
<g>
	<g id="Pflanze">
		<path class="st0" d="M811.9,510.8c0,0-21.7-59-77-59c-54.9,0-43.8-12.1-43.8-12.1l103.3,3.7l17.4,45.6V510.8z"/>
		<path class="st1" d="M527,502.2l10.6-8.1c0,0,116.7-5,191.1-41.3c74.5-36.3,85,36.3,83.5,58.3c0,0,16.1-102.1-118.8-127.2
			c-135.3-25.1-170,86-170,86L527,502.2z"/>
		<g>
			<path class="st0" d="M552.5,468.9c45.9-35.7,105.2-63,164.5-59.9c-7.4,0.6-14.9,0.3-22,1.6C643.1,417.1,595.3,440.4,552.5,468.9
				L552.5,468.9z"/>
		</g>
		<path class="st1" d="M499.7,561.7c0,0-7.4,1.6-9.3,6.8c-1.9,5.6,8.1,23.9,19.5,33.5c5.9,5,15.8,6.5,18.9,5
			c2.5-1.2,2.8-6.5,2.5-10.2c0-1.2-0.6-2.8-1.6-3.7l-5.3-5.9L499.7,561.7z"/>
		<path class="st1" d="M503.2,502.5c0,0-14.6,14.3-9.6,28.5c5,14.3,27.3,33.8,27.3,33.8s9.9-10.9,1.9-25.4
			C514.3,524.8,503.2,502.5,503.2,502.5z"/>
		<path class="st0" d="M496.6,535.7c0,0-3.7,16.8,0.9,25.1c4.7,8.4,26.1,27.6,26.1,27.6s7.8-6.5,2.5-16.4
			C520.8,562,496.6,535.7,496.6,535.7z"/>
		<path class="st0" d="M495.4,581.6c0,0-6.2,4.7-2.8,10.2c0.6,1.2,5.6,3.4,5.6,3.4v22l19.5-9.6l15.2,7.8l-10.2-14L495.4,581.6z"/>
		<polygon class="st1" points="507.2,456.5 533.9,460 537.3,494.1 525.2,506.8 502.5,468.9 		"/>
		<g>
			<path class="st2" d="M484.2,409.4c-0.6-5.3-2.2-9.9-4-14.9c-2.2-5-5.9-8.7-9.9-12.4c-5.3-5-10.2-9.9-14.6-15.5
				c-6.2-8.4-9.9-17.7-11.5-27.6c-1.2-8.4-1.6-17.1-0.3-25.4c0.9-7.4,2.8-14.6,6.2-21.4c4-8.4,9.6-15.8,17.1-21.7
				c8.7-7.1,18.6-11.8,29.5-14c8.4-1.9,16.8-2.2,25.1-1.2c10.6,1.2,20.8,4.7,29.8,10.2c9.9,6.2,17.7,14.6,23,25.1
				c4.7,9,6.5,18.6,7.4,28.5c0.6,7.8,0,15.5-1.6,23c-2.2,10.6-6.8,19.9-13.7,27.9c-4,4.7-8.7,9-13.3,13.3c-3.4,3.1-6.5,6.8-8.7,10.9
				c-2.5,4.7-3.4,9.6-4.3,14.6c-0.9,3.1-0.9,6.2-1.2,9.6c0,1.6-0.3,2.8-0.9,4c-2.2,4.7-5.9,6.8-10.2,8.7c-6.2,2.5-12.7,3.4-19.5,2.8
				c-5-0.3-9.6-1.6-14-4c-5.3-2.8-8.7-6.8-8.4-13.3C485.2,414,484.8,411.5,484.2,409.4z M526.4,397.3c0.3-1.6,0.3-3.1,0.6-4.7
				c0.3,0,0.6-0.3,0.3-0.6c0-0.6,0.3-1.6,0.3-2.2c0.6-0.3,0.6-0.6,0.3-0.9c0-0.3,0-0.6,0-1.2c0.6-0.3,0.6-0.6,0.3-1.2
				c0.3-0.9,0.3-2.2,0.6-3.1c1.2-6.8,2.2-14,3.4-20.8c0.9-6.5,2.2-13,3.1-19.5c1.2-6.8,2.2-14,3.4-20.8c0.6-4.3,1.6-8.7,2.2-12.7
				c0.3-1.2,0-2.2-1.2-2.8c-1.2-0.3-2.2,0.3-2.8,1.2c-0.3,0.9-0.9,1.6-1.2,2.5c-3.4,6.2-6.8,12.1-10.5,18.3
				c-0.6,0.9-0.9,0.9-1.6,0.3c-2.8-2.5-5.9-5-8.7-7.4c-1.9-1.6-3.4-1.6-4.3,0.9c-3.1,6.5-5.9,13-9,19.5c-0.3,0.9-0.9,1.2-1.6,0.6
				c-1.6-0.9-3.1-1.9-4.7-2.8c-3.1-1.9-5.9-3.4-9-5.3c-0.9-0.6-1.9-0.6-2.5,0c-0.6,0.6-0.9,1.2-0.9,2.2c0,0.9,0.3,1.6,0.3,2.5
				c0.9,5,1.9,9.9,3.1,14.9c1.9,9.3,3.7,18.3,5.6,27.6c1.2,7.1,2.8,14,4,21.1c1.2,6.2,2.5,12.4,3.7,18.9c0.3,1.6,1.2,2.5,2.5,2.2
				c1.2-0.3,1.9-1.6,1.6-3.1c-2.2-10.6-4.3-21.4-6.2-32c-2.2-11.5-4.7-22.7-6.8-34.1c-0.9-4-1.6-8.1-2.5-11.8c0-0.3-0.3-0.9,0-1.2
				c0.3-0.3,0.6,0.3,0.9,0.3c3.7,2.2,7.1,4.3,10.9,6.2c1.9,0.9,3.1,0.6,3.7-1.2c2.8-6.2,5.6-12.4,8.4-18.6c0.9-1.9,0.6-1.9,2.5-0.3
				c2.8,2.2,5.3,4.7,8.1,6.8c1.9,1.6,3.1,1.2,4-0.6c2.2-4,4.7-8.1,6.8-12.1c0-0.3,0.3-0.6,0.6-0.6c-0.3,1.6-0.6,2.8-0.9,4.3
				c-1.6,9-2.8,18.3-4.3,27.3c-1.2,7.1-2.2,14-3.4,21.1c-0.6,4.7-1.6,9.3-2.2,14c-0.9,6.2-2.2,12.4-3.1,18.6
				c-0.3,2.2-0.9,4.7-0.9,6.8c-0.3,1.9,1.2,2.8,2.8,2.2c0.9-0.3,1.2-0.9,1.6-1.9c0.6-4,1.2-8.1,1.9-12.1c0.6-0.3,0.3-0.9,0.3-1.2
				c0-0.6,0-1.6,0.3-2.2C526.7,397.9,526.7,397.6,526.4,397.3z M469.9,318.5c5,0.3,9.3-0.9,13.3-2.5c4-1.6,7.8-3.7,11.5-6.2
				c5.3-3.7,9.6-8.1,13-13.3c3.4-5.3,5.9-10.6,5.6-17.1c-0.3-3.1-1.6-5.9-3.7-8.1c-2.8-2.8-6.5-3.7-10.2-4c-3.1-0.3-6.2,0.3-9.3,0.9
				c-3.7,0.9-7.1,2.5-10.6,4c-3.1,1.6-6.2,3.7-9,5.9c-5,4-9.3,9-12.4,14.6c-2.5,4.3-3.7,8.7-3.4,13.7c0.3,3.4,1.6,6.2,4.3,8.4
				C462.8,317.5,466.5,319.1,469.9,318.5z"/>
			<g>
				<path class="st3" d="M482.7,455.3c0-2.2,0-4.7,0-6.8c0.6,0,0.6,0.3,0.6,0.6c0.6,2.2,1.9,4,3.7,5.6c3.1,3.1,6.8,5,10.9,6.2
					c6.5,2.2,13.3,2.8,20.2,1.9c6.2-0.6,12.4-2.2,17.7-5.9c3.1-1.9,5.3-4.3,6.5-7.8c0-0.3,0.3-0.6,0.6-0.6c0,2.2,0.3,4.3-0.3,6.5
					c-0.3,0.3-0.3,0.6-0.6,1.2c-0.6,1.6-1.6,3.4-2.8,4.7c-2.2,2.2-5,4-7.8,5.3c-5,2.5-10.6,3.4-15.8,3.7c-5,0.3-9.6-0.3-14.3-1.2
					c-3.4-0.6-6.5-1.9-9.3-3.4c-3.7-1.9-6.8-4.7-8.7-8.7C483,456.2,483.3,455.3,482.7,455.3z"/>
				<path class="st3" d="M542.9,436.4c0,1.9,0.3,4-0.3,5.9c0,0,0,0-0.3,0.3c-1.2,4-4.3,6.8-7.8,9c-2.8,1.9-5.9,2.8-9,3.7
					c-3.7,1.2-7.8,1.6-11.8,1.9c-2.5,0-5.3-0.3-7.8-0.3c-5.3-0.6-10.2-1.9-14.9-4.7c-3.7-2.2-6.5-4.7-8.1-8.7c0-0.3-0.3-0.6-0.6-0.6
					c0-2.2,0-4.3,0-6.2c0.6,0,0.6,0.3,0.6,0.6c0.9,1.9,1.9,3.7,3.4,5.3c3.1,3.1,7.1,5,11.2,6.2c6.8,2.2,14,2.8,21.1,1.9
					c5.9-0.6,11.8-2.2,17.1-5.9c2.8-1.9,5.3-4.3,6.5-7.4C542.2,436.4,542.6,436.4,542.9,436.4z"/>
				<path class="st4" d="M482.7,429.2c0.9,0.6,0.9,1.9,1.2,2.5c1.6,2.8,3.7,4.7,6.2,6.5c2.8,2.2,6.2,3.1,9.6,4.3
					c2.5,0.9,5.3,1.2,8.1,1.6c1.9,0,4,0.6,5.9,0.3c3.4-0.3,6.8-0.6,10.2-1.2c3.7-0.9,7.4-2.2,10.6-4c3.4-2.2,6.5-4.7,7.8-9
					c0-0.3,0-0.6,0.3-0.6c0.6,0.9,0.3,1.9,0.3,3.1c0,1.2,0,2.5,0,4c-0.3,0-0.6,0.3-0.6,0.6c-1.2,3.4-3.7,5.6-6.5,7.4
					c-5,3.4-10.9,5-17.1,5.9c-7.1,0.9-14.3,0.3-21.1-1.9c-4-1.2-8.1-3.4-11.2-6.2c-1.6-1.6-2.5-3.4-3.4-5.3c0-0.3,0-0.6-0.6-0.6
					C482.7,433.9,482.7,431.7,482.7,429.2z"/>
				<path class="st4" d="M482.7,442.3c0.3,0,0.6,0.3,0.6,0.6c1.6,4,4.7,6.5,8.1,8.7c4.7,2.8,9.6,4,14.9,4.7c2.5,0.3,5.3,0.6,7.8,0.3
					c4-0.3,7.8-0.6,11.8-1.9c3.1-0.9,6.2-2.2,9-3.7c3.4-2.2,6.5-5,7.8-9c0,0,0,0,0.3-0.3c0.6,0.9,0.3,2.2,0.3,3.1c0,0.9,0,2.2,0,3.1
					c-0.3,0-0.6,0.3-0.6,0.6c-1.2,3.4-3.7,5.9-6.5,7.8c-5.3,3.4-11.2,5.3-17.7,5.9c-6.8,0.6-13.7,0.3-20.2-1.9
					c-4-1.2-7.8-3.1-10.9-6.2c-1.6-1.6-3.1-3.4-3.7-5.6c0-0.3-0.3-0.6-0.6-0.6C482.7,446.3,482.7,444.4,482.7,442.3z"/>
				<path class="st4" d="M487.6,462.4c1.6,0.3,2.5,1.2,3.7,1.9c4.3,2.5,9,3.7,14,4.7c2.8,0.3,5.3,0.6,8.1,0.6
					c8.1,0,15.8-1.9,22.7-6.2c0.6-0.3,0.9-0.6,1.6-0.6c0,0.3,0,0.3,0,0.6c-0.6,0-0.6,0.6-0.9,0.9c-1.6,3.4-4.3,5.6-7.4,7.1
					c-6.2,3.1-12.7,4-19.9,3.4c-4-0.3-7.8-1.2-11.5-2.8c-4-1.9-7.4-4-9.3-8.4c0-0.3-0.3-0.3-0.6-0.3
					C487.6,462.7,487.6,462.7,487.6,462.4z"/>
				<path class="st5" d="M529.8,474.8c0,4.7-1.9,6.8-6.8,8.7c-6.5,2.5-13.3,2.5-19.9,0.3c-2.5-0.6-4.7-1.9-6.5-3.7
					c-1.6-1.6-1.9-3.4-1.6-5.3c0.3,0,0.6,0,1.2,0.3c3.4,1.6,6.8,2.8,10.6,3.1c5.6,0.9,11.2,0.3,16.8-0.9
					C525.5,476.7,527.7,475.8,529.8,474.8z"/>
				<path class="st3" d="M529.8,474.8c-2.2,0.6-4,1.9-6.5,2.5c-5.6,1.6-11.2,1.9-16.8,0.9c-3.7-0.6-7.1-1.6-10.6-3.1
					c-0.3-0.3-0.6-0.3-1.2-0.3c-0.3-0.9-1.2-1.2-1.9-1.6c-3.7-2.5-5.6-5.9-5.6-10.2c0.3,0,0.6,0,0.6,0.3c1.9,4.3,5.3,6.5,9.3,8.4
					c3.7,1.6,7.4,2.5,11.5,2.8c6.8,0.6,13.7-0.3,19.9-3.4c3.1-1.6,5.9-3.7,7.4-7.1c0.3-0.3,0.3-0.9,0.9-0.9
					c-0.3,0.9-0.3,1.9-0.3,2.8c-0.3,0-0.3,0.3-0.3,0.6c-0.3,2.8-2.2,5-4.3,6.5C531.4,473.6,530.5,474.2,529.8,474.8z"/>
				<path class="st4" d="M542.6,467.4c0-0.3,0-0.6,0.3-0.6C542.9,467.1,542.9,467.4,542.6,467.4z"/>
				<path class="st4" d="M537.3,479.5c0-0.3,0-0.3,0.3-0.6C537.6,479.2,537.6,479.5,537.3,479.5z"/>
				<path class="st5" d="M485.8,410.3c0.6,2.2,0.9,4.3,0.9,6.5c0,6.2,3.1,9.9,8.1,12.7c4,2.2,8.7,3.4,13.3,3.7
					c6.5,0.6,12.7,0,18.6-2.5c4-1.9,7.8-4,9.9-8.4c0.6-1.2,0.9-2.5,0.9-3.7c0.3-3.1,0.3-6.2,1.2-9c4.7,3.4,6.8,7.8,6.2,13.7
					c-0.3,0-0.3,0.6-0.6,0.9c-1.2,3.1-3.1,5.9-5.9,7.8c-6.8,5-14.6,6.8-22.7,7.4c-3.7,0.3-7.4,0-11.2-0.6
					c-6.5-0.9-12.4-2.8-17.7-6.8c-2.8-2.2-5-4.7-6.2-8.1c0-0.3,0-0.6-0.6-0.6C479.6,418.1,481.4,413.7,485.8,410.3z"/>
				<path class="st3" d="M480.2,423.6c0.3,0,0.3,0.6,0.6,0.6c1.2,3.4,3.4,5.9,6.2,8.1c5.3,3.7,11.2,5.9,17.7,6.8
					c3.7,0.6,7.4,0.6,11.2,0.6c8.1-0.6,15.8-2.5,22.7-7.4c2.8-2.2,5-4.7,5.9-7.8c0-0.3,0-0.6,0.6-0.9c0.3,2.2,0.3,4.3,0,6.8
					c-0.3,0-0.3,0.3-0.3,0.6c-1.2,4.3-4.7,7.1-8.4,9.6c-3.4,2.2-7.4,3.4-11.5,4.3c-3.7,0.9-7.4,0.9-11.2,1.6
					c-2.2,0.3-4.3-0.3-6.5-0.3c-2.8-0.3-5.9-0.6-8.7-1.6c-3.7-1.2-7.1-2.2-10.6-4.7c-2.8-1.9-5.3-4-6.8-7.1
					c-0.6-0.9-0.3-2.2-1.6-2.8C480.2,428,479.9,425.8,480.2,423.6z"/>
			</g>
			<path class="st6" d="M469.9,318.5c-3.7,0.6-7.1-0.9-10.6-3.4c-2.8-2.2-4-5-4.3-8.4c-0.3-5,0.9-9.3,3.4-13.7
				c3.1-5.6,7.4-10.6,12.4-14.6c2.8-2.2,5.6-4.3,9-5.9s6.8-3.1,10.6-4c3.1-0.6,6.2-1.2,9.3-0.9c3.7,0.3,7.4,1.2,10.2,4
				c2.2,2.2,3.4,5,3.7,8.1c0.3,6.5-2.2,11.8-5.6,17.1c-3.4,5.3-8.1,9.6-13,13.3c-3.4,2.5-7.4,4.7-11.5,6.2
				C479.3,317.5,475.2,318.8,469.9,318.5z"/>
			<path class="st7" d="M528,387.7c0,0.3,0,0.6,0,1.2c-0.3,0.3-0.3,0.6-0.3,0.9c0,0.6-0.3,1.6-0.3,2.2c-0.3,0-0.3,0.3-0.3,0.6
				c-0.3,1.6-0.3,3.1-0.6,4.7c-0.3,0.3-0.3,0.6-0.3,0.9c0,0.6,0,1.6-0.3,2.2c-0.6,0.3-0.6,0.9-0.3,1.2c-0.6,4-1.2,8.1-1.9,12.1
				c0,0.9-0.6,1.6-1.6,1.9c-1.6,0.6-2.8-0.6-2.8-2.2c0.3-2.2,0.6-4.7,0.9-6.8c0.9-6.2,1.9-12.4,3.1-18.6c0.6-4.7,1.6-9.3,2.2-14
				c1.2-7.1,2.2-14,3.4-21.1c1.6-9,2.8-18.3,4.3-27.3c0.3-1.6,0.6-2.8,0.9-4.3c-0.6,0-0.6,0.3-0.6,0.6c-2.2,4-4.3,8.1-6.8,12.1
				c-1.2,2.2-2.2,2.2-4,0.6c-2.8-2.2-5.3-4.3-8.1-6.8c-1.9-1.6-1.9-1.6-2.5,0.3c-2.8,6.2-5.6,12.4-8.4,18.6
				c-0.9,1.9-2.2,2.2-3.7,1.2c-3.7-2.2-7.1-4.3-10.9-6.2c-0.3-0.3-0.6-0.6-0.9-0.3c-0.3,0.3-0.3,0.9,0,1.2c0.6,4,1.6,8.1,2.5,11.8
				c2.2,11.5,4.7,22.7,6.8,34.1c2.2,10.6,4.3,21.4,6.2,32c0.3,1.6-0.3,2.8-1.6,3.1c-1.2,0.3-2.2-0.6-2.5-2.2
				c-1.2-6.2-2.5-12.4-3.7-18.9c-1.2-7.1-2.8-14-4-21.1c-1.9-9.3-3.7-18.3-5.6-27.6c-0.9-5-1.9-9.9-3.1-14.9
				c-0.3-0.9-0.3-1.6-0.3-2.5s0.3-1.6,0.9-2.2c0.9-0.6,1.9-0.3,2.5,0c3.1,1.9,5.9,3.4,9,5.3c1.6,0.9,3.1,1.9,4.7,2.8
				c0.9,0.6,1.2,0.3,1.6-0.6c3.1-6.5,5.9-13,9-19.5c0.9-2.2,2.5-2.5,4.3-0.9c2.8,2.5,5.9,5,8.7,7.4c0.6,0.6,1.2,0.6,1.6-0.3
				c3.4-6.2,6.8-12.1,10.5-18.3c0.6-0.9,0.9-1.6,1.2-2.5c0.6-1.2,1.6-1.9,2.8-1.2c1.2,0.3,1.6,1.6,1.2,2.8
				c-0.6,4.3-1.2,8.7-2.2,12.7c-1.2,6.8-2.2,14-3.4,20.8c-0.9,6.5-2.2,13-3.1,19.5c-1.2,6.8-2.2,14-3.4,20.8
				c-0.3,0.9-0.3,2.2-0.6,3.1C527.7,387,528,387.3,528,387.7z"/>
			<path class="st6" d="M528,387.7c0-0.3-0.3-0.9,0.3-1.2C528.6,387,528.6,387.3,528,387.7z"/>
			<path class="st6" d="M525.8,401.6c0-0.6-0.3-0.9,0.3-1.2C526.1,400.7,526.4,401.3,525.8,401.6z"/>
			<path class="st6" d="M527.7,389.8c0-0.3,0-0.6,0.3-0.9C528.3,389.2,528.3,389.5,527.7,389.8z"/>
			<path class="st6" d="M526.1,398.2c0-0.3,0-0.6,0.3-0.9C526.7,397.6,526.7,397.9,526.1,398.2z"/>
			<path class="st6" d="M527,392.6c0-0.3,0-0.3,0.3-0.6C527.7,392.3,527.4,392.6,527,392.6z"/>
		</g>
		<path class="st0" d="M192.2,568.9c0,0,12.1,38.8,37.2,43.8c25.1,5,61.4-7.1,86.6-17.7l-108.6-13.7L192.2,568.9z"/>
		<path class="st1" d="M500.7,467.7c0,0-13.7-22.7-57.4,9.6c0,0-72,102.1-127.2,117.3c0,0-95.6,13-123.8-25.8c0,0,72,29.2,87.5-30.1
			c15.5-59,24.2-77,54.3-95.6c30.1-18.6,103.6-38.2,151.4-8.1c47.8,30.1,37.9,40.3,37.9,40.3l2.5,31.3L500.7,467.7z"/>
		<g>
			<path class="st0" d="M474,441.6c-21.7-14.6-51.8-8.4-74.2,1.6c-13.7,7.4-23.9,19.5-32.9,32c-12.4,16.8-22.7,34.8-32.9,52.8
				c-7.8,13.3-15.2,27.3-24.8,40c-3.1,4-6.5,8.7-11.8,9.9c2.5-0.6,4.7-2.5,6.2-4.3c5.3-5.9,9.3-12.4,13-19.2
				c15.5-27.3,29.2-55.5,47.5-81c10.9-14.3,23.9-29.5,41.6-35.7C427.4,430.8,454.7,426.7,474,441.6L474,441.6z"/>
		</g>
		<path class="st0" d="M502.5,468.9c0,0-7.4,14.6-4.3,25.1c3.4,10.6,27.3,49.6,27.3,49.6s10.5-19.5,3.1-32
			C521.1,499.4,502.5,468.9,502.5,468.9z"/>
	</g>
	<g>
		<path class="st1" d="M509.6,601.3c4.2,14.8,1.6,32.6-10.5,43.5c-6.2,5.5-15.2,8.8-21.9,13.1c-2.7,1.7-4.9,4.1-7.1,6.5
			c-8.2,9-15.6,17.6-24.9,25.9C433,701.5,422,702,406.4,700.7c-3.8-0.3-7.6-0.7-11.3-1.6c-3.4-0.6-7.2-2.8-10.1-2.8
			c-7.3,0.1-15.2,2.2-22.6,3.7c-5.1,1.1-10,2.5-14.7,4.5c-4.8,1.9-9.2,4.4-13.7,7.3c-4.7,3-9.5,6.6-15.3,7.7
			c-5.9,1.1-11.6-0.7-16.8-2.9c0,0,0.7-2.1,0.7-2.1c5.1,1.3,10.5,2.1,15,0.5c4.5-1.5,8.2-5.2,12.4-8.7c4.2-3.6,8.9-7,13.9-9.7
			c5-2.8,10.3-5.1,15.6-6.9c8.2-2.7,16-5.7,24.9-6.8c3.2-0.4,7.2,0.2,10.4,1.1c3.5,0.9,6.7,1.1,10.3,1.1c5.8-0.1,13.3-0.2,17.8-1.6
			c3.9-1.3,6.2-3.5,9-6.7c3-3.5,6.1-7.8,9.2-12.1c3-4.3,6.7-9.1,10.2-13.2c9.8-11.7,18.2-14.4,31.6-18.6c1.4-0.4,4.4-1.4,5.7-2.1
			c10.4-5.6,15.2-18.1,18.9-29.2C507.4,601.4,509.6,601.3,509.6,601.3L509.6,601.3z"/>
	</g>
	<path class="st1" d="M498.6,620.6c0,0,7.3-23.1,2.3-25.9c-5-2.8,22,12.2,23.3,13.6c1.3,1.4-24,35.8-26.1,35
		C496,642.5,498.6,620.6,498.6,620.6z"/>
	<g>
		<path class="st0" d="M515.8,599.5c17.8,9.2,40.6,28.9,45.7,49.1c2,7.8,0.2,17-6,22.8c-3,3-7,7.2-7.9,11c-0.2,4,6.8,7.7,10.4,9.5
			c6.8,3.2,14.5,5.3,21.8,7c7,1.3,13,2.2,18.7-1.3c1.7-1.1,3.4-2.8,5.5-4.9c8-8.3,16.9-9.2,27.7-6.8c8.6,1.7,16.8,5,24.3,9.2
			c8.7,4.9,16.6,11,23.3,18.5c0.9,1.1,1.8,2.2,2.6,3.5l-1.9,1.2c-0.7-1-1.7-1.9-2.7-2.8c-11.1-9.7-24.9-16.7-39.2-19.9
			c-6.7-1.3-15-2.9-21,0.7c-1.6,1-2.9,2.4-4.5,4.5c-9,12.7-20.3,15.3-35.3,13.8c-12.6-1.6-23.6-3.9-35.3-9.9
			c-12.4-6.6-19.2-19.1-14-33c2.7-7,6.6-11.9,11.5-16.9c-0.1,0-0.2,0.2-0.2,0.3c0.3-0.4,0.2-1.4,0.2-2.3c-1.2-8-5.3-15.2-9.2-22.7
			c-2.5-4.7-5.2-9.4-8-14.2c-2.7-4.8-5.6-9.7-8.2-14.8L515.8,599.5L515.8,599.5z"/>
	</g>
	<path class="st0" d="M529.7,628.2c0,0-25.5-30.8-37.1-36.4l24.9,10.2l12.2,24.6V628.2z"/>
</g>
<path class="st8" d="M126.4,346.4c5.2-12.2,10.9-24.1,17.1-35.6l-38.9-22.4C97.5,301.5,90.9,315,85,328.9
	C62.9,381.4,51,437,49.6,494.3h44.9C95.8,443,106.5,393.3,126.4,346.4z"/>
<path class="st9" d="M343.5,129.2c47-19.8,96.7-30.6,147.9-31.9V52.5C434.1,53.8,378.5,65.7,326,87.9c-13.9,5.9-27.4,12.4-40.6,19.6
	l22.4,38.9C319.5,140.1,331.3,134.4,343.5,129.2z"/>
<path class="st10" d="M791.1,216.6c22.8,22.8,42.6,47.9,59.3,75.1l38.9-22.5c-18.6-30.5-40.8-58.7-66.5-84.3
	c-25.6-25.6-53.8-47.8-84.3-66.5L716,157.4C743.2,174,768.3,193.8,791.1,216.6z"/>
<path class="st11" d="M213.8,216.6c22.8-22.8,47.9-42.6,75.1-59.3l-22.5-38.9c-30.5,18.6-58.7,40.8-84.3,66.5s-47.8,53.8-66.5,84.3
	l38.9,22.5C171.2,264.6,191,239.5,213.8,216.6z"/>
<path class="st12" d="M661.4,129.2c12.2,5.2,24.1,10.9,35.6,17.1l22.4-38.9c-13.1-7.2-26.7-13.7-40.6-19.6
	c-52.5-22.2-108.1-34.1-165.4-35.4v44.9C564.7,98.7,614.4,109.4,661.4,129.2z"/>
<path class="st13" d="M878.5,346.4c19.8,47,30.6,96.7,31.9,147.9h44.9c-1.3-57.3-13.2-112.9-35.4-165.4
	c-5.9-13.9-12.4-27.4-19.6-40.6l-38.9,22.4C867.6,322.3,873.4,334.2,878.5,346.4z"/>
<path class="st11" d="M661.4,881.3c-47,19.8-96.7,30.6-147.9,31.9v44.9c57.3-1.3,112.9-13.2,165.4-35.4
	c13.9-5.9,27.4-12.4,40.6-19.6L697,864.2C685.4,870.5,673.6,876.2,661.4,881.3z"/>
<path class="st14" d="M343.5,881.3c-12.2-5.2-24.1-10.9-35.6-17.1l-22.4,38.9c13.1,7.2,26.7,13.7,40.6,19.6
	c52.5,22.2,108.1,34.1,165.4,35.4v-44.9C440.2,911.9,390.5,901.2,343.5,881.3z"/>
<path class="st15" d="M213.8,793.9c-22.8-22.8-42.6-47.9-59.3-75.1l-38.9,22.5c18.6,30.5,40.8,58.7,66.5,84.3
	c25.6,25.6,53.8,47.8,84.3,66.5l22.5-38.9C261.7,836.6,236.6,816.7,213.8,793.9z"/>
<path class="st16" d="M878.5,664.2c-5.2,12.2-10.9,24.1-17.1,35.6l38.9,22.4c7.2-13.1,13.7-26.7,19.6-40.6
	c22.2-52.5,34.1-108.1,35.4-165.4h-44.9C909.1,567.5,898.4,617.2,878.5,664.2z"/>
<path class="st17" d="M791.1,793.9c-22.8,22.8-47.9,42.6-75.1,59.3l22.5,38.9c30.5-18.6,58.7-40.8,84.3-66.5
	c25.6-25.6,47.8-53.8,66.5-84.3l-38.9-22.5C833.7,746,813.9,771.1,791.1,793.9z"/>
<path class="st18" d="M126.4,664.2c-19.8-47-30.6-96.7-31.9-147.9H49.6C51,573.6,62.9,629.2,85,681.7c5.9,13.9,12.4,27.4,19.6,40.6
	l38.9-22.4C137.2,688.3,131.5,676.4,126.4,664.2z"/>
<path class="st18" d="M146.7,655.5c-18.7-44.2-28.8-91.1-30.2-139.4h-22c1.3,51.2,12.1,101,31.9,147.9c5.2,12.2,10.9,24.1,17.1,35.6
	l19.1-11C156.8,677.9,151.5,666.9,146.7,655.5z"/>
<path class="st14" d="M352.2,861c-11.3-4.8-22.4-10.1-33.2-15.9l-11,19.1c11.5,6.3,23.4,12,35.6,17.1c47,19.8,96.7,30.6,147.9,31.9
	v-22C443.2,889.8,396.4,879.7,352.2,861z"/>
<path class="st11" d="M652.9,861c-44.2,18.7-91.1,28.8-139.4,30.2v22c51.2-1.3,101-12.1,147.9-31.9c12.2-5.2,24.1-10.9,35.6-17.1
	l-11-19.1C675.3,850.9,664.2,856.2,652.9,861z"/>
<path class="st8" d="M146.7,354.8c4.8-11.3,10.1-22.4,15.9-33.2l-19.1-11c-6.3,11.5-12,23.4-17.1,35.6
	c-19.8,47-30.6,96.7-31.9,147.9h22C117.9,445.9,128,399.1,146.7,354.8z"/>
<path class="st12" d="M652.9,149.4c11.3,4.8,22.4,10.1,33.2,15.9l11-19.1c-11.5-6.3-23.4-12-35.6-17.1
	c-47-19.8-96.7-30.6-147.9-31.9v22C561.8,120.6,608.6,130.7,652.9,149.4z"/>
<path class="st10" d="M775.6,232.1c21.4,21.4,40.1,45,55.8,70.5l19.1-11c-16.7-27.1-36.5-52.2-59.3-75.1
	c-22.8-22.8-47.9-42.6-75.1-59.3l-11,19.1C730.6,192,754.2,210.6,775.6,232.1z"/>
<path class="st11" d="M229.4,232.1c21.4-21.4,45-40.1,70.5-55.8l-11-19.1c-27.1,16.7-52.2,36.5-75.1,59.3s-42.6,47.9-59.3,75.1
	l19.1,11C189.3,277.1,208,253.5,229.4,232.1z"/>
<path class="st9" d="M352.2,149.4c44.2-18.7,91.1-28.8,139.4-30.2v-22c-51.2,1.3-101,12.1-147.9,31.9c-12.2,5.2-24.1,10.9-35.6,17.1
	l11,19.1C329.7,159.5,340.8,154.2,352.2,149.4z"/>
<path class="st15" d="M229.4,778.3c-21.4-21.4-40.1-45-55.8-70.5l-19.1,11c16.7,27.1,36.5,52.2,59.3,75.1
	c22.8,22.8,47.9,42.6,75.1,59.3l11-19.1C274.5,818.3,250.9,799.7,229.4,778.3z"/>
<path class="st13" d="M861.5,310.6l-19.1,11c5.8,10.8,11.1,21.8,15.9,33.2c18.7,44.2,28.8,91.1,30.2,139.4h22
	c-1.3-51.2-12.1-101-31.9-147.9C873.4,334.1,867.7,322.2,861.5,310.6z"/>
<path class="st17" d="M775.6,778.3c-21.4,21.4-45,40.1-70.5,55.8l11,19.1c27.1-16.7,52.2-36.5,75.1-59.3
	c22.8-22.8,42.6-47.9,59.3-75.1l-19.1-11C815.7,733.2,797.1,756.8,775.6,778.3z"/>
<path class="st16" d="M858.3,655.5c-4.8,11.3-10.1,22.4-15.9,33.2l19.1,11c6.3-11.5,12-23.4,17.1-35.6c19.8-47,30.6-96.7,31.9-147.9
	h-22C887.1,564.5,877,611.3,858.3,655.5z"/>
</svg>
