<?xml version="1.0" encoding="utf-8"?>
<!-- Generator: Adobe Illustrator 26.0.3, SVG Export Plug-In . SVG Version: 6.00 Build 0)  -->
<svg version="1.1" id="Layer_1" xmlns="http://www.w3.org/2000/svg" xmlns:xlink="http://www.w3.org/1999/xlink" x="0px" y="0px"
	 viewBox="0 0 1000 1000" style="enable-background:new 0 0 1000 1000;" xml:space="preserve">
<style type="text/css">
	.st0{fill:#483538;}
	.st1{fill:#82BD54;}
	.st2{opacity:0.57;fill:#45A84D;enable-background:new    ;}
	.st3{fill:#086A38;}
	.st4{opacity:0.41;}
	.st5{fill:#040404;}
	.st6{fill:#45A84D;}
	.st7{opacity:0.2;fill:#040404;enable-background:new    ;}
	.st8{fill:#777A7E;}
	.st9{fill:#6AA7AA;}
	.st10{fill:#86D2DA;}
	.st11{fill:#FFFFFF;}
	.st12{fill:#6BCAD2;}
	.st13{fill:#ADADB2;}
	.st14{fill:#C3C4C6;}
	.st15{fill:#909198;}
	.st16{fill:#78777C;}
	.st17{fill:#93919A;}
	.st18{fill:#757679;}
	.st19{fill:#C3C4C4;}
	.st20{fill:#8E9197;}
	.st21{fill:#D2D6D6;}
	.st22{fill:#C4C6C6;}
	.st23{fill:#D6D5D8;}
	.st24{fill:#AEADB4;}
	.st25{fill:#7B7C81;}
	.st26{fill:#929397;}
	.st27{fill:#4EAD95;}
	.st28{fill:#079247;}
	.st29{fill:#754E25;}
	.st30{fill:#4BAE4C;}
	.st31{opacity:0.39;fill:#040404;enable-background:new    ;}
	.st32{fill:#9E9D9E;}
	.st33{fill:#D3D3D3;}
	.st34{fill:#9399AE;}
	.st35{fill:#E1EEFA;}
	.st36{fill:#EAF2FA;}
	.st37{fill:#CEDEED;}
	.st38{fill:#D0DEF1;}
</style>
<g>
	<g>
		<polygon id="XMLID_00000173144602509470274180000015295622290027991462_" class="st0" points="805.4,602.6 533.5,754.5 
			261.9,602.6 261.9,501.7 533.1,658.3 804.9,501.7 		"/>
		<polygon id="XMLID_00000050651723654975716860000005073643076275466384_" class="st1" points="821.9,465 534.1,628.2 245.9,465 
			545.2,305.7 		"/>
		<path id="XMLID_00000057132818402295254050000017383393887684040878_" class="st2" d="M379.1,568.5"/>
		<polygon id="XMLID_00000067236906113193590580000008687621235398167428_" class="st3" points="705,601.8 688.7,592.8 688.7,564.9 
			705.9,564.9 		"/>
		<polygon id="XMLID_00000096764275527353160080000010594116237475633544_" class="st3" points="292.5,578.8 315.5,566.8 
			316.7,509.9 287.2,502.5 		"/>
		<g id="XMLID_00000093879948478879927050000009759429771134813859_" class="st4">
			<path id="XMLID_00000073695152498076834670000008157260974824522393_" class="st5" d="M711.1,606.2l-88.8,51.9
				c0,0-25.8,2.3-4.2-17.4l78.3-43.6L711.1,606.2z"/>
			<path id="XMLID_00000103984036253426617780000009316475658579204240_" class="st5" d="M419.6,637.8l-97.2-49
				c0,0-22.6-29.1,2.5-19.5l102.4,54.4L419.6,637.8z"/>
			<path id="XMLID_00000021840854930218725660000014430684579567935656_" class="st5" d="M261.9,585.3l80.8,47.8c0,0,15.9-4,0-17.8
				l-80.8-46.1V585.3z"/>
			<path id="XMLID_00000014613220512174940310000012055010134289765770_" class="st5" d="M508.4,684.5l-24.7-16.3
				c0,0-10.5-8.8,0-12.2l24.7,14.2C508.4,670.3,522.4,683.5,508.4,684.5z"/>
			<path id="XMLID_00000009570518334675683000000010371451478222556559_" class="st5" d="M664.8,662.1l34.8-17.8
				c0,0,10-11.9-0.4-11.3l-34.4,15.5C664.8,648.7,652.3,662.5,664.8,662.1z"/>
		</g>
		<polygon id="XMLID_00000023966136975771426120000000860566134172954011_" class="st3" points="361.1,594.7 376.8,584 376.8,561 
			355.7,551.5 		"/>
		<path id="XMLID_00000139261959146808881650000012055647887085200568_" class="st6" d="M245.9,492.1c0,0,1,51.7,4.6,59.5
			c2.7,5.7,11.5,52.6,42.1,27.4v-60.1c0,0,9.6-14.4,23,14.4v33.5c0,0,15.3,46.1,45.9,27.8v-48.8l-111.8-65.1L245.9,492.1z"/>
		<polygon id="XMLID_00000052823677638688839010000001851247236739114639_" class="st6" points="245.9,465 418.5,562.8 534.1,628.2 
			821.9,465 822.7,493.9 535,660.2 245.5,495.6 		"/>
		<path class="st6" d="M760.7,510.6l-84.7,52.2c0,0-1.5,14.9,11.9,9c13.4-5.9,18,6.5,18,6.5v23.5c19.1,22.8,44-23.5,44-23.5v-42.5
			c4.2-7.8,7.8-12.8,10.8-15.8V510.6z"/>
		<polygon id="XMLID_00000036941582242270380260000003535401924582480265_" class="st7" points="333.7,643.7 533.5,754.5 
			731.8,643.7 781.5,670.5 535,810.6 279.9,670.5 		"/>
		<path id="XMLID_00000143617805496687605180000006366165698967034023_" class="st8" d="M656,324.5"/>
	</g>
	<g>
		<path class="st9" d="M536.8,417.3C536.8,417.3,536.8,417.2,536.8,417.3c0.8-0.5,17.5-9.3,54.3-3.9c18.9,2.8,50.9,26.2,58.4,25.5
			c9.9-0.9,33.8,1.1,42.5,5.9c16.3,9,12.8,8.4,22.7,19.1c16.4,17.6,8.6,10.5,22.6,19.6c14.8,9.6,15.5,16,16.2,18.1
			c0.1,0.2,0.2,1.1,0.1,2.4l-90.5,54.5c-0.1,0.1-22.8,9.6-22.9,9.5l-6.2-17.5c-2.8-2.3-11.3-13.4-13.8-16
			c-8-8.3-13.7-14.6-22.9-18.2l-48.1-20.7c-13.4-8.3,0,0-12.5-8.7l-23.4-12.6"/>
	</g>
	<g>
		<g>
			<g>
				<polyline class="st10" points="527.9,469 649.9,545.5 656.7,562.1 680.9,854.7 708.5,831.1 750.1,508.9 750.1,508.9 				"/>
			</g>
			<path class="st10" d="M531.5,420.4C531.5,420.4,531.5,420.4,531.5,420.4c0.8-0.5,17.5-9.3,54.3-3.9c18.9,2.8,50.9,26.2,58.4,25.5
				c9.9-0.9,33.8,1.1,42.5,5.9c16.3,9,12.8,8.4,22.7,19.1c16.4,17.6,8.6,10.5,22.6,19.6c14.8,9.6,17.6,17.8,18.2,19.8
				c0.1,0.2,0.1-2.3,0-1.1l-92.6,52.7c-0.1,0.1-20.7,11.3-20.8,11.2l-8.1-15.8c-2.8-2.3-11.3-13.4-13.8-16
				c-8-8.3-13.7-14.6-22.9-18.2l-48.1-20.7c-13.4-8.3,0,0-12.5-8.7l-23.4-12.6"/>
		</g>
		<rect x="680.9" y="791.5" class="st11" width="1.9" height="28.7"/>
		<rect x="659.2" y="823.4" class="st11" width="1.9" height="16.6"/>
		<polygon class="st12" points="636.8,569.4 750.2,505.4 749.1,791.2 639.7,858.3 		"/>
		<path class="st12" d="M679.8,897.2h-18.7c-1.1,0-1.9-0.9-1.9-1.9V762.9c0-1.1,0.9-1.9,1.9-1.9h18.7c1.1,0,1.9,0.9,1.9,1.9v132.4
			C681.7,896.4,680.9,897.2,679.8,897.2z"/>
		<path class="st12" d="M747.4,855.7h-18.7c-1.1,0-1.9-0.9-1.9-1.9V721.4c0-1.1,0.9-1.9,1.9-1.9h18.7c1.1,0,1.9,0.9,1.9,1.9v132.4
			C749.3,854.8,748.4,855.7,747.4,855.7z"/>
		<path class="st12" d="M724.8,866.3h-18.7c-1.1,0-1.9-0.9-1.9-1.9V732c0-1.1,0.9-1.9,1.9-1.9h18.7c1.1,0,1.9,0.9,1.9,1.9v132.4
			C726.8,865.4,725.9,866.3,724.8,866.3z"/>
		<path class="st12" d="M702.3,883.3h-18.7c-1.1,0-1.9-0.9-1.9-1.9V749c0-1.1,0.9-1.9,1.9-1.9h18.7c1.1,0,1.9,0.9,1.9,1.9v132.4
			C704.3,882.5,703.4,883.3,702.3,883.3z"/>
		<g>
			<polygon class="st11" points="681.2,504.6 688.5,507.9 697.8,507.9 713.4,499.6 714.1,488 705.5,483.6 679.8,502.1 			"/>
			<polygon class="st13" points="684.6,504.6 688.7,506.6 696.9,506.8 697.3,493.4 689.8,496.8 			"/>
			<polygon class="st14" points="712.2,498.8 696.9,506.8 697.3,493.4 705.5,493.4 			"/>
			<polygon class="st15" points="713.4,488.4 705.5,493.4 712.2,498.8 			"/>
			<polygon class="st16" points="705.5,483.6 713.4,488.4 705.5,493.4 697.3,493.4 696.9,488 			"/>
			<polygon class="st17" points="679.8,502.1 684.6,504.6 689.8,496.8 697.3,493.4 696.9,488 			"/>
			<polygon class="st18" points="684.6,504.6 689.8,496.8 679.8,502.1 			"/>
		</g>
		<g>
			<polygon class="st11" points="606.2,495.1 604.6,505.2 614.2,511.5 620.9,507.4 638.5,507.4 646.6,504.1 644,496.5 633.7,488.2 
							"/>
			<g>
				<polygon class="st19" points="614.2,510.6 628.7,501.6 618.9,493.6 613,500.2 				"/>
				<polygon class="st20" points="605.7,505.2 614.2,510.6 613,500.2 				"/>
				<polygon class="st21" points="620.6,506.7 638.2,506.7 628.7,501.6 				"/>
				<polygon class="st22" points="643.2,496.5 638.8,498.1 628.7,501.6 638.2,506.7 645.9,503.7 				"/>
				<polygon class="st23" points="634.5,490.8 637.9,498.4 643.2,496.5 638.2,488.8 				"/>
				<polygon class="st24" points="627.1,489.9 634.5,490.8 637.9,498.4 628.7,501.6 618.9,493.6 				"/>
				<polygon class="st25" points="606.2,495.1 605.7,505.2 613,500.2 618.9,493.6 614.7,490.7 				"/>
				<polygon class="st26" points="630.7,482.2 638.2,488.8 634.5,490.8 627.1,489.9 618.9,493.6 614.7,490.7 				"/>
			</g>
		</g>
		<rect x="679.9" y="598.7" class="st11" width="1.9" height="36.8"/>
		<rect x="723.9" y="621.3" class="st11" width="1.9" height="36.8"/>
		<rect x="724.8" y="695.3" class="st11" width="1.9" height="36.8"/>
		<rect x="709.5" y="741.3" class="st11" width="1.9" height="36.8"/>
		<rect x="731.6" y="576" class="st11" width="1.9" height="16.6"/>
		<rect x="709.5" y="555.2" class="st11" width="1.9" height="28.7"/>
		<rect x="704.7" y="656.2" class="st11" width="1.9" height="16.6"/>
		<rect x="688.4" y="675" class="st11" width="1.9" height="33"/>
		<rect x="687.2" y="746.8" class="st11" width="1.9" height="16.6"/>
		<rect x="722" y="783.8" class="st11" width="1.9" height="16.6"/>
		<path class="st12" d="M660.4,915.3h-18.7c-1.1,0-1.9-0.9-1.9-1.9V781c0-1.1,0.9-1.9,1.9-1.9h18.7c1.1,0,1.9,0.9,1.9,1.9v132.4
			C662.4,914.4,661.5,915.3,660.4,915.3z"/>
		<rect x="661.1" y="660.9" class="st11" width="1.9" height="36.8"/>
		<rect x="662" y="734.9" class="st11" width="1.9" height="36.8"/>
	</g>
	<polygon class="st1" points="362.2,372.7 650.2,213.5 701.1,395.3 409.7,558 	"/>
	<polygon class="st10" points="487.3,341 514.2,384.7 549.7,494.8 638.3,445.7 609,327.9 574.5,285.9 484.6,332.4 	"/>
	<polygon class="st6" points="245.9,465 409.7,558 362.2,372.2 245.4,307.3 	"/>
	<g>
		<path class="st10" d="M431.8,335.2c0.2,0.1,26-14,26.1-14.1l77.6-44.2l-104,57.5L431.8,335.2z"/>
		<path class="st1" d="M535.4,141l-25.3,14.5c1.8,1.4,3.5,2.9,4.9,4.4c20.6,22.1,12.1,54.7,32.8,58c14.4,2.3,21.3,19.3,24.2,29.4
			c1.1,2.2,1.8,3.9,2,4.6c0.1,0.2,0.2,1.4,0.1,3l-38.5,21.9l114.6-63.3L535.4,141z"/>
		<path class="st27" d="M515.3,172.1c20.6,22.1,12.1,54.7,32.8,58c13.9,2.2,20.8,11.4,23.9,17.2c-2.9-10.1-9.8-27.1-24.2-29.4
			c-20.7-3.3-12.2-35.9-32.8-58c-1.4-1.5-3.1-3-4.9-4.4l-9.9,5.7C506.3,164.4,511.6,168.1,515.3,172.1z"/>
		<path class="st1" d="M404.2,291c-10-10.5-17.1-18.3-28.7-22.8l-36.8-14.4l-93.4,53.6l116.7,65.4l69.4-38.4l-10-23.4
			C418,308.1,407.4,294.2,404.2,291z"/>
		<path class="st10" d="M574,251.9c-0.2-0.7-0.8-2.4-2-4.6c1.3,4.4,1.8,7.6,1.8,7.6l-116.2,55.2l-26.6-21.7
			c-3.5-2.9-6.6-6.2-9.7-9.5c-10-10.5-34.4-18.6-46-23.1l-23.9-9.4l-12.5,7.2l36.8,14.4c11.6,4.5,18.7,12.4,28.7,22.8
			c3.1,3.3,13.7,17.2,17.3,20l10,23.4l104-57.5l38.5-21.9C574.2,253.4,574,252.1,574,251.9z"/>
		<path class="st10" d="M421.2,279c3.1,3.3,6.2,6.6,9.7,9.5l26.6,21.7l116.2-55.2c0,0-0.5-3.1-1.8-7.6c-3.1-5.8-10-15-23.9-17.2
			c-20.7-3.3-12.2-35.9-32.8-58c-3.8-4-9-7.7-15.1-11l-149,85.4l23.9,9.4C386.7,260.5,411.1,268.6,421.2,279z"/>
	</g>
	<g id="tree_x5F_2_00000012450525797441996580000014600339502833121195_">
		
			<ellipse id="XMLID_00000050625713421517678650000006220532799403779473_" class="st28" cx="313.6" cy="295.9" rx="25.6" ry="14.4"/>
		<path id="XMLID_00000096747032006039196550000009625759250925047984_" class="st29" d="M316.7,299.8h-4.2c-3.4,0-6.3-2.9-6.3-6.3
			v-27.5c0-3.4,2.9-6.3,6.3-6.3h4.2c3.4,0,6.3,2.9,6.3,6.3v27.5C323,297,320.1,299.8,316.7,299.8z"/>
		<g id="XMLID_00000111154366065086848770000004391677240869240236_">
			<path id="XMLID_00000129912880961447062920000001598059418169574533_" class="st28" d="M278.8,215.4l-8.6,19.6
				c0,0,2.4,2.4,6.3,5.5l8.9-20.1C282.7,218.3,280.4,216.7,278.8,215.4z"/>
			<path id="XMLID_00000166661774105008564350000013136358313448252593_" class="st28" d="M353.9,239.4c1.6-1.3,3.4-2.9,5-4.4
				l-8.4-19.9c-1.8,1.6-3.4,2.9-5.2,4.2L353.9,239.4z"/>
			<path id="XMLID_00000183211020640759975410000000092515875007283587_" class="st3" d="M353.9,239.4
				c-33.5,27.7-64.3,10.7-77.1,0.8l-6.3,14.6c0,0,43.4,44.7,90,0L353.9,239.4z"/>
			<path id="XMLID_00000007399798995019215460000004667396571233648512_" class="st28" d="M353.9,239.4l-8.4-20.1
				c-24.8,17.8-47.6,8.9-60.1,0.8l-8.9,20.1C289.5,250.2,320.4,267.2,353.9,239.4z"/>
			<path id="XMLID_00000154411640669206528550000000583837348681684624_" class="st30" d="M315.4,120.2l-40,92.1c0,0,1,1.3,3.4,2.9
				c1.6,1.3,3.9,3.1,6.5,4.7c12.6,8.1,35.3,17,60.1-0.8c1.8-1.3,3.4-2.6,5.2-4.2c1-0.8,2.1-1.8,3.1-2.9L315.4,120.2z"/>
		</g>
		<g id="XMLID_00000013188675025078981050000013017362459194387348_">
			<path id="XMLID_00000075160094920657414560000016648999354332960656_" class="st30" d="M278.8,215.4l17.5-40.5l-2.4-5.2
				l-18.6,42.6C275.4,212.2,276.7,213.5,278.8,215.4z"/>
			<path id="XMLID_00000070814555683758105540000000955272010220513938_" class="st28" d="M278.8,215.4l-8.6,19.6
				c0,0,2.4,2.4,6.3,5.5l8.9-20.1C282.7,218.3,280.4,216.7,278.8,215.4z"/>
			<path id="XMLID_00000043456011967335657830000013079353784453810071_" class="st31" d="M278.8,215.4l-8.6,19.6
				c0,0,2.4,2.4,6.3,5.5l8.9-20.1C282.7,218.3,280.4,216.7,278.8,215.4z"/>
			<path id="XMLID_00000181776934391681768340000002703213568153317530_" class="st30" d="M300.8,184.5l-4.4-9.9l-17.5,40.5
				c1.6,1.3,3.9,3.1,6.5,4.7L300.8,184.5z"/>
			<path id="XMLID_00000047019090912213267790000014849123245506477752_" class="st3" d="M276.5,240.2l-6.3,14.6
				c0,0,30.9,31.9,68.5,14.9l-7.8-17.8C306.8,259.6,286.4,247.8,276.5,240.2z"/>
			<path id="XMLID_00000103255510406508073810000010843079191255265201_" class="st31" d="M276.5,240.2l-6.3,14.6
				c0,0,30.9,31.9,68.5,14.9l-7.8-17.8C306.8,259.6,286.4,247.8,276.5,240.2z"/>
			<path id="XMLID_00000175318173996583979690000001438514516588020668_" class="st28" d="M330.9,252.2l-10.2-23
				c-14.6,1.6-27.2-3.9-35.3-9.2l-8.9,20.1C286.4,247.8,306.8,259.6,330.9,252.2z"/>
			<path id="XMLID_00000111883947198561331220000000468821223942244005_" class="st31" d="M330.9,252.2l-10.2-23
				c-14.6,1.6-27.2-3.9-35.3-9.2l-8.9,20.1C286.4,247.8,306.8,259.6,330.9,252.2z"/>
			<path id="XMLID_00000055706193865406208850000016330754336527496088_" class="st30" d="M320.7,229.2l-19.9-44.7l-15.4,35.6
				C293.5,225.3,306,231.1,320.7,229.2z"/>
			<path id="XMLID_00000105414156606721667270000012821698029961556878_" class="st31" d="M300.8,184.5l-4.4-9.9l-2.4-5.2L275.4,212
				c0,0,1,1.3,3.4,2.9c1.6,1.3,3.9,3.1,6.5,4.7c8.1,5.2,20.7,11,35.3,9.2L300.8,184.5z"/>
		</g>
	</g>
	<g>
		<polygon class="st11" points="393.4,237.7 391.3,250.3 403.5,258.3 411.8,253.1 433.8,253.1 444.1,249 440.8,239.5 427.9,229.1 		
			"/>
		<g>
			<polygon class="st19" points="403.5,257.2 421.6,245.8 409.3,235.7 401.9,244 			"/>
			<polygon class="st20" points="392.8,250.3 403.5,257.2 401.9,244 			"/>
			<polygon class="st21" points="411.4,252.2 433.5,252.2 421.6,245.8 			"/>
			<polygon class="st22" points="439.8,239.5 434.3,241.4 421.6,245.8 433.5,252.2 443.2,248.5 			"/>
			<polygon class="st23" points="428.8,232.3 433.1,241.8 439.8,239.5 433.5,229.8 			"/>
			<polygon class="st24" points="419.6,231.2 428.8,232.3 433.1,241.8 421.6,245.8 409.3,235.7 			"/>
			<polygon class="st25" points="393.4,237.7 392.8,250.3 401.9,244 409.3,235.7 404.1,232.2 			"/>
			<polygon class="st26" points="424.1,221.5 433.5,229.8 428.8,232.3 419.6,231.2 409.3,235.7 404.1,232.2 			"/>
		</g>
	</g>
	<polygon class="st22" points="380.1,315.9 405.1,300 452.7,329.2 425.1,342.9 	"/>
	<polygon class="st22" points="528.8,226.2 553.8,210.3 601.5,239.5 573,252 	"/>
	<polyline class="st32" points="529,239.6 528.8,226.2 601.7,269.6 601,282 	"/>
	<polygon class="st32" points="452.4,384.4 422.1,353.5 380.2,329.3 380.1,315.9 452.9,359.3 	"/>
	<polygon class="st33" points="452,384.7 478.8,368.8 479,317.8 452.7,333.7 	"/>
	<polygon class="st33" points="578.6,297.9 605.4,282 605.3,244 579.1,259.9 	"/>
	<polygon class="st34" points="478.2,341 574.5,285.9 574.5,262.9 478.1,319.1 478.2,341 	"/>
	<g>
		<polygon class="st22" points="424.4,301.6 578.1,213.8 605.7,229.7 453.1,318.2 		"/>
		<polygon class="st32" points="424.3,354.7 452.3,371.7 453.1,318.2 424.4,301.6 		"/>
		<polygon class="st33" points="605.7,229.7 453.1,318.2 452.7,333.7 605.3,245.6 		"/>
	</g>
	<g>
		<polygon class="st35" points="478.2,341 490.8,348.2 491.1,317.7 478,310.6 		"/>
		<polygon class="st36" points="478,310.6 483.6,307.1 496.7,314.1 491.1,317.7 		"/>
		<polygon class="st37" points="490.8,348.2 496.6,344.6 496.7,314.1 491.1,317.7 		"/>
		<polygon class="st35" points="478.2,341 504,384.5 531.4,490.5 543.8,498.8 517.2,377.6 490.8,348.2 		"/>
		<polygon class="st38" points="496.6,344.6 490.8,348.2 517.2,377.6 543.8,498.8 549.7,494.8 521.7,375.6 		"/>
	</g>
	<g>
		<polygon class="st35" points="508.7,322.8 521.2,329.9 521.6,299.5 508.5,292.3 		"/>
		<polygon class="st36" points="508.5,292.3 514,288.9 527.1,295.9 521.6,299.5 		"/>
		<polygon class="st37" points="521.2,329.9 527,326.4 527.1,295.9 521.6,299.5 		"/>
		<polygon class="st35" points="508.7,322.8 518.9,334.2 539.5,368.1 575.3,480.5 547.7,359.3 521.2,329.9 		"/>
		<polygon class="st38" points="527,326.4 521.2,329.9 547.7,359.3 575.3,480.5 581.2,476.8 552.2,357.3 		"/>
	</g>
	<g>
		<polygon class="st35" points="542.5,304.9 555,312.1 555.4,281.6 542.3,274.4 		"/>
		<polygon class="st36" points="542.3,274.4 547.8,271 560.9,278 555.4,281.6 		"/>
		<polygon class="st37" points="555,312.1 560.8,308.5 560.9,278 555.4,281.6 		"/>
		<polygon class="st35" points="542.5,304.9 552.7,316.4 573.3,350.3 609.1,462.6 581.4,341.5 555,312.1 		"/>
		<polygon class="st38" points="560.8,308.5 555,312.1 581.4,341.5 609.1,462.6 615,458.9 586,339.4 		"/>
	</g>
	<g>
		<polygon class="st35" points="571.7,288 584.3,295.1 584.6,264.7 571.5,257.5 		"/>
		<polygon class="st36" points="571.5,257.5 577.1,254.1 590.1,261.1 584.6,264.7 		"/>
		<polygon class="st37" points="584.3,295.1 590.1,291.6 590.1,261.1 584.6,264.7 		"/>
		<polygon class="st35" points="571.7,288 582,299.4 602.5,333.3 638.3,445.7 610.7,324.5 584.3,295.1 		"/>
		<polygon class="st38" points="590.1,291.6 584.3,295.1 610.7,324.5 638.3,445.7 644.2,442 615.2,322.5 		"/>
	</g>
</g>
<ellipse id="XMLID_00000179618391718595014110000000563154351960781970_" class="st28" cx="587.3" cy="575.4" rx="6.2" ry="3.5"/>
<ellipse id="XMLID_00000005252662208991420090000006160060840762395779_" class="st28" cx="597.1" cy="558.4" rx="13.4" ry="7.5"/>
</svg>
