<?xml version="1.0" encoding="utf-8"?>
<!-- Generator: Adobe Illustrator 26.0.3, SVG Export Plug-In . SVG Version: 6.00 Build 0)  -->
<svg version="1.1" id="Layer_1" xmlns="http://www.w3.org/2000/svg" xmlns:xlink="http://www.w3.org/1999/xlink" x="0px" y="0px"
	 viewBox="0 0 1000 1000" style="enable-background:new 0 0 1000 1000;" xml:space="preserve">
<style type="text/css">
	.st0{fill:#483538;}
	.st1{fill:#82BD54;}
	.st2{opacity:0.57;fill:#45A84D;enable-background:new    ;}
	.st3{fill:#086A38;}
	.st4{opacity:0.41;}
	.st5{fill:#040404;}
	.st6{fill:#45A84D;}
	.st7{opacity:0.2;fill:#040404;enable-background:new    ;}
	.st8{fill:#777A7E;}
	.st9{fill:#3B3A41;}
	.st10{fill:#494548;}
	.st11{fill:#EDEDED;}
	.st12{fill:#C2C1C0;}
	.st13{fill:#3A8693;}
	.st14{fill:#4F5051;}
	.st15{fill:#079247;}
</style>
<g>
	<polygon id="XMLID_00000040562035748889706150000009996324850314699913_" class="st0" points="767.3,623.3 505.9,769.3 
		244.9,623.3 244.9,526.3 505.5,676.8 766.7,526.3 	"/>
	<polygon id="XMLID_00000146470952265204243300000001304391915262380206_" class="st1" points="783.1,491 506.4,647.9 229.4,491 
		517.1,338 	"/>
	<path id="XMLID_00000168806593808133193240000002725713886156518272_" class="st2" d="M357.4,590.5"/>
	<polygon id="XMLID_00000146488544661985232000000016976450348468857217_" class="st3" points="670.7,622.5 655.1,613.9 655.1,587 
		671.6,587 	"/>
	<polygon id="XMLID_00000035530333287822539330000011447280096582758793_" class="st3" points="274.3,600.5 296.4,588.9 
		297.5,534.2 269.1,527.1 	"/>
	<g id="XMLID_00000165944352837008054040000007389411807381901235_" class="st4">
		<path id="XMLID_00000074409501834991229000000006560475270292986273_" class="st5" d="M676.6,626.8l-85.4,49.9
			c0,0-24.8,2.2-4-16.7l75.2-41.9L676.6,626.8z"/>
		<path id="XMLID_00000037691635664110738420000008416249982655298688_" class="st5" d="M396.4,657.1L303,610c0,0-21.7-28,2.4-18.8
			l98.4,52.2L396.4,657.1z"/>
		<path id="XMLID_00000059275034842682094550000012806430280572659376_" class="st5" d="M244.9,606.7l77.6,46c0,0,15.3-3.9,0-17.1
			l-77.6-44.3V606.7z"/>
		<path id="XMLID_00000178185588174936029450000011730712628034282672_" class="st5" d="M481.8,702l-23.7-15.6c0,0-10.1-8.5,0-11.8
			l23.7,13.6C481.8,688.4,495.2,701.1,481.8,702z"/>
		<path id="XMLID_00000016772015758870161200000008969519235757404078_" class="st5" d="M632.1,680.5l33.5-17.1
			c0,0,9.6-11.4-0.4-10.9l-33.1,14.9C632.1,667.6,620.1,680.9,632.1,680.5z"/>
	</g>
	<polygon id="XMLID_00000031185483816686528090000002405430897244024715_" class="st3" points="340.2,615.7 355.2,605.4 
		355.2,583.4 335,574.2 	"/>
	<path id="XMLID_00000106839429160195485060000015760875385221067937_" class="st6" d="M229.4,517.1c0,0,0.9,49.7,4.4,57.2
		c2.6,5.5,11,50.6,40.5,26.3v-57.8c0,0,9.2-13.8,22.1,13.8v32.2c0,0,14.7,44.3,44.1,26.7v-46.9l-107.4-62.5L229.4,517.1z"/>
	<polygon id="XMLID_00000158711166193797736810000005881231782268677050_" class="st6" points="229.4,491 506.4,647.9 783.1,491 
		783.8,518.8 507.4,678.6 229,520.4 	"/>
	<path class="st6" d="M724.3,534.9L642.9,585c0,0-1.5,14.3,11.4,8.6c12.9-5.7,17.3,6.3,17.3,6.3v22.6c18.4,21.9,42.3-22.6,42.3-22.6
		v-40.8c4.1-7.5,7.5-12.3,10.4-15.2V534.9z"/>
	<polygon id="XMLID_00000021120508890641569260000013877769444393040773_" class="st7" points="313.8,662.8 505.9,769.3 
		696.5,662.8 744.3,688.6 507.4,823.2 262.2,688.6 	"/>
	<path id="XMLID_00000143616129852432622420000014488624332290418563_" class="st8" d="M623.6,356"/>
</g>
<g>
	<g>
		<g>
			<polygon class="st9" points="421,309.1 419,452.4 431.9,460.1 434.7,317 			"/>
			<polygon class="st10" points="445.2,452.4 431.9,460.1 434.7,317.1 448.2,309.6 			"/>
			<polygon class="st9" points="421,309.2 434.5,301.7 448.2,309.6 434.7,317.1 			"/>
		</g>
	</g>
	<polyline class="st10" points="435.9,327.3 418,273.5 453.5,253.5 471.4,307.2 435.9,327.3 	"/>
	<polygon class="st9" points="418,273.5 409.5,269.4 445,249.3 453.5,253.5 	"/>
	<polygon class="st11" points="334.1,458.1 268.6,261.3 398.5,187.8 464,384.7 	"/>
	<polygon class="st12" points="268.6,261.3 262.9,258.5 392.9,185 398.5,187.8 	"/>
	<polygon class="st12" points="334,458.1 328.4,458.1 262.9,258.5 268.6,261.3 	"/>
	<polyline class="st11" points="484.6,375 419.1,178.1 549,104.7 614.6,301.5 484.6,375 	"/>
	<polygon class="st12" points="419.1,178.1 413.4,175.3 543.4,101.9 549,104.7 	"/>
	<polyline class="st12" points="478.9,374.9 413.4,175.3 419.1,178.1 484.5,374.9 	"/>
	<g>
		<g>
			<path class="st13" d="M283.6,277.6l-4.3-13.1c-0.5-1.6,0.2-3.4,1.6-4.2l8.1-4.6c1.3-0.8,3-0.1,3.5,1.4l4.6,13.9
				c0.3,1-0.1,2.1-1,2.6l-9.3,5.3C285.6,279.5,284,278.9,283.6,277.6z"/>
			<path class="st13" d="M300.6,268.1l-4.3-13.1c-0.5-1.6,0.2-3.4,1.6-4.2l8.1-4.6c1.3-0.8,3-0.1,3.5,1.4l4.6,13.9
				c0.3,1-0.1,2.1-1,2.6l-9.3,5.3C302.6,270.1,301.1,269.5,300.6,268.1z"/>
			<path class="st13" d="M317.5,258.7l-4.3-13.1c-0.5-1.6,0.2-3.4,1.6-4.2l8.1-4.6c1.3-0.8,3-0.1,3.5,1.4L331,252
				c0.3,1-0.1,2.1-1,2.6l-9.3,5.3C319.5,260.6,317.9,260,317.5,258.7z"/>
			<path class="st13" d="M334.6,249.1l-4.3-13.1c-0.5-1.6,0.2-3.4,1.6-4.2l8.1-4.6c1.3-0.8,3-0.1,3.5,1.4l4.6,13.9
				c0.3,1-0.1,2.1-1,2.6l-9.3,5.3C336.6,251,335,250.4,334.6,249.1z"/>
			<path class="st13" d="M351.7,239.4l-4.3-13.1c-0.5-1.6,0.2-3.4,1.6-4.2l8.1-4.6c1.3-0.8,3-0.1,3.5,1.4l4.6,13.9
				c0.3,1-0.1,2.1-1,2.6l-9.3,5.3C353.6,241.4,352.1,240.8,351.7,239.4z"/>
			<path class="st13" d="M368.6,229.9l-4.3-13.1c-0.5-1.6,0.2-3.4,1.6-4.2l8.1-4.6c1.3-0.8,3-0.1,3.5,1.4l4.6,13.9
				c0.3,1-0.1,2.1-1,2.6l-9.3,5.3C370.6,231.8,369,231.2,368.6,229.9z"/>
			<path class="st13" d="M385.8,220.1l-4.3-13.1c-0.5-1.6,0.2-3.4,1.6-4.2l8.1-4.6c1.3-0.8,3-0.1,3.5,1.4l4.6,13.9
				c0.3,1-0.1,2.1-1,2.6l-9.3,5.3C387.8,222,386.3,221.4,385.8,220.1z"/>
		</g>
		<g>
			<path class="st13" d="M291.2,299.8l-4.3-13.1c-0.5-1.6,0.2-3.4,1.6-4.2l8.1-4.6c1.3-0.8,3-0.1,3.5,1.4l4.6,13.9
				c0.3,1-0.1,2.1-1,2.6l-9.3,5.3C293.2,301.7,291.7,301.1,291.2,299.8z"/>
			<path class="st13" d="M308.3,290.4l-4.3-13.1c-0.5-1.6,0.2-3.4,1.6-4.2l8.1-4.6c1.3-0.8,3-0.1,3.5,1.4l4.6,13.9
				c0.3,1-0.1,2.1-1,2.6l-9.3,5.3C310.3,292.3,308.7,291.7,308.3,290.4z"/>
			<path class="st13" d="M325.1,280.9l-4.3-13.1c-0.5-1.6,0.2-3.4,1.6-4.2l8.1-4.6c1.3-0.8,3-0.1,3.5,1.4l4.6,13.9
				c0.3,1-0.1,2.1-1,2.6l-9.3,5.3C327.1,282.8,325.6,282.2,325.1,280.9z"/>
			<path class="st13" d="M342.3,271.3l-4.3-13.1c-0.5-1.6,0.2-3.4,1.6-4.2l8.1-4.6c1.3-0.8,3-0.1,3.5,1.4l4.6,13.9
				c0.3,1-0.1,2.1-1,2.6l-9.3,5.3C344.2,273.2,342.7,272.6,342.3,271.3z"/>
			<path class="st13" d="M359.3,261.7l-4.3-13.1c-0.5-1.6,0.2-3.4,1.6-4.2l8.1-4.6c1.3-0.8,3-0.1,3.5,1.4l4.6,13.9
				c0.3,1-0.1,2.1-1,2.6l-9.3,5.3C361.3,263.6,359.8,263,359.3,261.7z"/>
			<path class="st13" d="M376.3,252.1L372,239c-0.5-1.6,0.2-3.4,1.6-4.2l8.1-4.6c1.3-0.8,3-0.1,3.5,1.4l4.6,13.9
				c0.3,1-0.1,2.1-1,2.6l-9.3,5.3C378.2,254,376.7,253.4,376.3,252.1z"/>
			<path class="st13" d="M393.5,242.3l-4.3-13.1c-0.5-1.6,0.2-3.4,1.6-4.2l8.1-4.6c1.3-0.8,3-0.1,3.5,1.4l4.6,13.9
				c0.3,1-0.1,2.1-1,2.6l-9.3,5.3C395.5,244.2,393.9,243.6,393.5,242.3z"/>
		</g>
		<g>
			<path class="st13" d="M299.2,322.2l-4.3-13.1c-0.5-1.6,0.2-3.4,1.6-4.2l8.1-4.6c1.3-0.8,3-0.1,3.5,1.4l4.6,13.9
				c0.3,1-0.1,2.1-1,2.6l-9.3,5.3C301.2,324.1,299.6,323.6,299.2,322.2z"/>
			<path class="st13" d="M316.3,312.8l-4.3-13.1c-0.5-1.6,0.2-3.4,1.6-4.2l8.1-4.6c1.3-0.8,3-0.1,3.5,1.4l4.6,13.9
				c0.3,1-0.1,2.1-1,2.6l-9.3,5.3C318.2,314.7,316.7,314.1,316.3,312.8z"/>
			<path class="st13" d="M333.1,303.3l-4.3-13.1c-0.5-1.6,0.2-3.4,1.6-4.2l8.1-4.6c1.3-0.8,3-0.1,3.5,1.4l4.6,13.9
				c0.3,1-0.1,2.1-1,2.6l-9.3,5.3C335.1,305.2,333.5,304.7,333.1,303.3z"/>
			<path class="st13" d="M350.2,293.7l-4.3-13.1c-0.5-1.6,0.2-3.4,1.6-4.2l8.1-4.6c1.3-0.8,3-0.1,3.5,1.4l4.6,13.9
				c0.3,1-0.1,2.1-1,2.6l-9.3,5.3C352.2,295.6,350.7,295,350.2,293.7z"/>
			<path class="st13" d="M367.3,284.1L363,271c-0.5-1.6,0.2-3.4,1.6-4.2l8.1-4.6c1.3-0.8,3-0.1,3.5,1.4l4.6,13.9
				c0.3,1-0.1,2.1-1,2.6l-9.3,5.3C369.3,286,367.7,285.4,367.3,284.1z"/>
			<path class="st13" d="M384.2,274.5l-4.3-13.1c-0.5-1.6,0.2-3.4,1.6-4.2l8.1-4.6c1.3-0.8,3-0.1,3.5,1.4l4.6,13.9
				c0.3,1-0.1,2.1-1,2.6l-9.3,5.3C386.2,276.5,384.7,275.9,384.2,274.5z"/>
			<path class="st13" d="M401.4,264.7l-4.3-13.1c-0.5-1.6,0.2-3.4,1.6-4.2l8.1-4.6c1.3-0.8,3-0.1,3.5,1.4l4.6,13.9
				c0.3,1-0.1,2.1-1,2.6l-9.3,5.3C403.4,266.7,401.9,266.1,401.4,264.7z"/>
		</g>
		<g>
			<path class="st13" d="M306.8,344.5l-4.3-13.1c-0.5-1.6,0.2-3.4,1.6-4.2l8.1-4.6c1.3-0.8,3-0.1,3.5,1.4l4.6,13.9
				c0.3,1-0.1,2.1-1,2.6l-9.3,5.3C308.8,346.4,307.3,345.8,306.8,344.5z"/>
			<path class="st13" d="M323.9,335l-4.3-13.1c-0.5-1.6,0.2-3.4,1.6-4.2l8.1-4.6c1.3-0.8,3-0.1,3.5,1.4l4.6,13.9
				c0.3,1-0.1,2.1-1,2.6l-9.3,5.3C325.9,337,324.3,336.4,323.9,335z"/>
			<path class="st13" d="M340.7,325.6l-4.3-13.1c-0.5-1.6,0.2-3.4,1.6-4.2l8.1-4.6c1.3-0.8,3-0.1,3.5,1.4l4.6,13.9
				c0.3,1-0.1,2.1-1,2.6l-9.3,5.3C342.7,327.5,341.2,326.9,340.7,325.6z"/>
			<path class="st13" d="M357.9,315.9l-4.3-13.1c-0.5-1.6,0.2-3.4,1.6-4.2l8.1-4.6c1.3-0.8,3-0.1,3.5,1.4l4.6,13.9
				c0.3,1-0.1,2.1-1,2.6l-9.3,5.3C359.9,317.9,358.3,317.3,357.9,315.9z"/>
			<path class="st13" d="M374.9,306.3l-4.3-13.1c-0.5-1.6,0.2-3.4,1.6-4.2l8.1-4.6c1.3-0.8,3-0.1,3.5,1.4l4.6,13.9
				c0.3,1-0.1,2.1-1,2.6l-9.3,5.3C376.9,308.3,375.4,307.7,374.9,306.3z"/>
			<path class="st13" d="M391.9,296.8l-4.3-13.1c-0.5-1.6,0.2-3.4,1.6-4.2l8.1-4.6c1.3-0.8,3-0.1,3.5,1.4l4.6,13.9
				c0.3,1-0.1,2.1-1,2.6l-9.3,5.3C393.9,298.7,392.3,298.1,391.9,296.8z"/>
			<path class="st13" d="M409.1,287l-4.3-13.1c-0.5-1.6,0.2-3.4,1.6-4.2l8.1-4.6c1.3-0.8,3-0.1,3.5,1.4l4.6,13.9
				c0.3,1-0.1,2.1-1,2.6l-9.3,5.3C411.1,288.9,409.5,288.3,409.1,287z"/>
		</g>
		<g>
			<g>
				<path class="st13" d="M317.2,374l-4.3-13.1c-0.5-1.6,0.2-3.4,1.6-4.2l8.1-4.6c1.3-0.8,3-0.1,3.5,1.4l4.6,13.9
					c0.3,1-0.1,2.1-1,2.6l-9.3,5.3C319.2,375.9,317.6,375.3,317.2,374z"/>
				<path class="st13" d="M334.3,364.6l-4.3-13.1c-0.5-1.6,0.2-3.4,1.6-4.2l8.1-4.6c1.3-0.8,3-0.1,3.5,1.4l4.6,13.9
					c0.3,1-0.1,2.1-1,2.6l-9.3,5.3C336.2,366.5,334.7,365.9,334.3,364.6z"/>
				<path class="st13" d="M351.1,355.1l-4.3-13.1c-0.5-1.6,0.2-3.4,1.6-4.2l8.1-4.6c1.3-0.8,3-0.1,3.5,1.4l4.6,13.9
					c0.3,1-0.1,2.1-1,2.6l-9.3,5.3C353.1,357,351.5,356.4,351.1,355.1z"/>
				<path class="st13" d="M368.2,345.5l-4.3-13.1c-0.5-1.6,0.2-3.4,1.6-4.2l8.1-4.6c1.3-0.8,3-0.1,3.5,1.4l4.6,13.9
					c0.3,1-0.1,2.1-1,2.6l-9.3,5.3C370.2,347.4,368.7,346.8,368.2,345.5z"/>
				<path class="st13" d="M385.3,335.9l-4.3-13.1c-0.5-1.6,0.2-3.4,1.6-4.2l8.1-4.6c1.3-0.8,3-0.1,3.5,1.4l4.6,13.9
					c0.3,1-0.1,2.1-1,2.6l-9.3,5.3C387.3,337.8,385.7,337.2,385.3,335.9z"/>
				<path class="st13" d="M402.2,326.3l-4.3-13.1c-0.5-1.6,0.2-3.4,1.6-4.2l8.1-4.6c1.3-0.8,3-0.1,3.5,1.4l4.6,13.9
					c0.3,1-0.1,2.1-1,2.6l-9.3,5.3C404.2,328.2,402.7,327.6,402.2,326.3z"/>
				<path class="st13" d="M419.5,316.5l-4.3-13.1c-0.5-1.6,0.2-3.4,1.6-4.2l8.1-4.6c1.3-0.8,3-0.1,3.5,1.4l4.6,13.9
					c0.3,1-0.1,2.1-1,2.6l-9.3,5.3C421.4,318.4,419.9,317.8,419.5,316.5z"/>
			</g>
			<g>
				<path class="st13" d="M325.2,396.4l-4.3-13.1c-0.5-1.6,0.2-3.4,1.6-4.2l8.1-4.6c1.3-0.8,3-0.1,3.5,1.4l4.6,13.9
					c0.3,1-0.1,2.1-1,2.6l-9.3,5.3C327.1,398.3,325.6,397.7,325.2,396.4z"/>
				<path class="st13" d="M342.2,387l-4.3-13.1c-0.5-1.6,0.2-3.4,1.6-4.2l8.1-4.6c1.3-0.8,3-0.1,3.5,1.4l4.6,13.9
					c0.3,1-0.1,2.1-1,2.6l-9.3,5.3C344.2,388.9,342.7,388.3,342.2,387z"/>
				<path class="st13" d="M359.1,377.5l-4.3-13.1c-0.5-1.6,0.2-3.4,1.6-4.2l8.1-4.6c1.3-0.8,3-0.1,3.5,1.4l4.6,13.9
					c0.3,1-0.1,2.1-1,2.6l-9.3,5.3C361.1,379.4,359.5,378.8,359.1,377.5z"/>
				<path class="st13" d="M376.2,367.9l-4.3-13.1c-0.5-1.6,0.2-3.4,1.6-4.2l8.1-4.6c1.3-0.8,3-0.1,3.5,1.4l4.6,13.9
					c0.3,1-0.1,2.1-1,2.6l-9.3,5.3C378.2,369.8,376.6,369.2,376.2,367.9z"/>
				<path class="st13" d="M393.3,358.3l-4.3-13.1c-0.5-1.6,0.2-3.4,1.6-4.2l8.1-4.6c1.3-0.8,3-0.1,3.5,1.4l4.6,13.9
					c0.3,1-0.1,2.1-1,2.6l-9.3,5.3C395.2,360.2,393.7,359.6,393.3,358.3z"/>
				<path class="st13" d="M410.2,348.7l-4.3-13.1c-0.5-1.6,0.2-3.4,1.6-4.2l8.1-4.6c1.3-0.8,3-0.1,3.5,1.4l4.6,13.9
					c0.3,1-0.1,2.1-1,2.6l-9.3,5.3C412.2,350.6,410.6,350,410.2,348.7z"/>
				<path class="st13" d="M427.4,338.9l-4.3-13.1c-0.5-1.6,0.2-3.4,1.6-4.2l8.1-4.6c1.3-0.8,3-0.1,3.5,1.4l4.6,13.9
					c0.3,1-0.1,2.1-1,2.6l-9.3,5.3C429.4,340.8,427.9,340.2,427.4,338.9z"/>
			</g>
			<g>
				<path class="st13" d="M332.8,418.6l-4.3-13.1c-0.5-1.6,0.2-3.4,1.6-4.2l8.1-4.6c1.3-0.8,3-0.1,3.5,1.4l4.6,13.9
					c0.3,1-0.1,2.1-1,2.6l-9.3,5.3C334.8,420.6,333.3,420,332.8,418.6z"/>
				<path class="st13" d="M349.9,409.2l-4.3-13.1c-0.5-1.6,0.2-3.4,1.6-4.2l8.1-4.6c1.3-0.8,3-0.1,3.5,1.4l4.6,13.9
					c0.3,1-0.1,2.1-1,2.6l-9.3,5.3C351.9,411.1,350.3,410.5,349.9,409.2z"/>
				<path class="st13" d="M366.7,399.7l-4.3-13.1c-0.5-1.6,0.2-3.4,1.6-4.2l8.1-4.6c1.3-0.8,3-0.1,3.5,1.4l4.6,13.9
					c0.3,1-0.1,2.1-1,2.6l-9.3,5.3C368.7,401.7,367.2,401.1,366.7,399.7z"/>
				<path class="st13" d="M383.9,390.1l-4.3-13.1c-0.5-1.6,0.2-3.4,1.6-4.2l8.1-4.6c1.3-0.8,3-0.1,3.5,1.4l4.6,13.9
					c0.3,1-0.1,2.1-1,2.6l-9.3,5.3C385.8,392,384.3,391.4,383.9,390.1z"/>
				<path class="st13" d="M400.9,380.5l-4.3-13.1c-0.5-1.6,0.2-3.4,1.6-4.2l8.1-4.6c1.3-0.8,3-0.1,3.5,1.4l4.6,13.9
					c0.3,1-0.1,2.1-1,2.6l-9.3,5.3C402.9,382.4,401.3,381.8,400.9,380.5z"/>
				<path class="st13" d="M417.9,370.9l-4.3-13.1c-0.5-1.6,0.2-3.4,1.6-4.2l8.1-4.6c1.3-0.8,3-0.1,3.5,1.4l4.6,13.9
					c0.3,1-0.1,2.1-1,2.6l-9.3,5.3C419.8,372.9,418.3,372.3,417.9,370.9z"/>
				<path class="st13" d="M435.1,361.1l-4.3-13.1c-0.5-1.6,0.2-3.4,1.6-4.2l8.1-4.6c1.3-0.8,3-0.1,3.5,1.4l4.6,13.9
					c0.3,1-0.1,2.1-1,2.6l-9.3,5.3C437.1,363.1,435.5,362.5,435.1,361.1z"/>
			</g>
			<g>
				<path class="st13" d="M340.6,440.9l-4.3-13.1c-0.5-1.6,0.2-3.4,1.6-4.2l8.1-4.6c1.3-0.8,3-0.1,3.5,1.4l4.6,13.9
					c0.3,1-0.1,2.1-1,2.6l-9.3,5.3C342.6,442.9,341,442.3,340.6,440.9z"/>
				<path class="st13" d="M357.7,431.5l-4.3-13.1c-0.5-1.6,0.2-3.4,1.6-4.2l8.1-4.6c1.3-0.8,3-0.1,3.5,1.4l4.6,13.9
					c0.3,1-0.1,2.1-1,2.6l-9.3,5.3C359.6,433.4,358.1,432.8,357.7,431.5z"/>
				<path class="st13" d="M374.5,422l-4.3-13.1c-0.5-1.6,0.2-3.4,1.6-4.2l8.1-4.6c1.3-0.8,3-0.1,3.5,1.4l4.6,13.9
					c0.3,1-0.1,2.1-1,2.6l-9.3,5.3C376.5,424,374.9,423.4,374.5,422z"/>
				<path class="st13" d="M391.6,412.4l-4.3-13.1c-0.5-1.6,0.2-3.4,1.6-4.2l8.1-4.6c1.3-0.8,3-0.1,3.5,1.4l4.6,13.9
					c0.3,1-0.1,2.1-1,2.6l-9.3,5.3C393.6,414.3,392.1,413.7,391.6,412.4z"/>
				<path class="st13" d="M408.7,402.8l-4.3-13.1c-0.5-1.6,0.2-3.4,1.6-4.2l8.1-4.6c1.3-0.8,3-0.1,3.5,1.4l4.6,13.9
					c0.3,1-0.1,2.1-1,2.6l-9.3,5.3C410.7,404.7,409.1,404.1,408.7,402.8z"/>
				<path class="st13" d="M425.6,393.2l-4.3-13.1c-0.5-1.6,0.2-3.4,1.6-4.2l8.1-4.6c1.3-0.8,3-0.1,3.5,1.4l4.6,13.9
					c0.3,1-0.1,2.1-1,2.6l-9.3,5.3C427.6,395.2,426.1,394.6,425.6,393.2z"/>
				<path class="st13" d="M442.9,383.4l-4.3-13.1c-0.5-1.6,0.2-3.4,1.6-4.2l8.1-4.6c1.3-0.8,3-0.1,3.5,1.4l4.6,13.9
					c0.3,1-0.1,2.1-1,2.6l-9.3,5.3C444.8,385.4,443.3,384.8,442.9,383.4z"/>
			</g>
		</g>
		<g>
			<path class="st13" d="M434.1,194.4l-4.3-13.1c-0.5-1.6,0.2-3.4,1.6-4.2l8.1-4.6c1.3-0.8,3-0.1,3.5,1.4l4.6,13.9
				c0.3,1-0.1,2.1-1,2.6l-9.3,5.3C436.1,196.3,434.5,195.8,434.1,194.4z"/>
			<path class="st13" d="M451.1,185l-4.3-13.1c-0.5-1.6,0.2-3.4,1.6-4.2l8.1-4.6c1.3-0.8,3-0.1,3.5,1.4l4.6,13.9
				c0.3,1-0.1,2.1-1,2.6l-9.3,5.3C453.1,186.9,451.6,186.3,451.1,185z"/>
			<path class="st13" d="M468,175.5l-4.3-13.1c-0.5-1.6,0.2-3.4,1.6-4.2l8.1-4.6c1.3-0.8,3-0.1,3.5,1.4l4.6,13.9
				c0.3,1-0.1,2.1-1,2.6l-9.3,5.3C470,177.4,468.4,176.9,468,175.5z"/>
			<path class="st13" d="M485.1,165.9l-4.3-13.1c-0.5-1.6,0.2-3.4,1.6-4.2l8.1-4.6c1.3-0.8,3-0.1,3.5,1.4l4.6,13.9
				c0.3,1-0.1,2.1-1,2.6l-9.3,5.3C487.1,167.8,485.6,167.2,485.1,165.9z"/>
			<path class="st13" d="M502.2,156.3l-4.3-13.1c-0.5-1.6,0.2-3.4,1.6-4.2l8.1-4.6c1.3-0.8,3-0.1,3.5,1.4l4.6,13.9
				c0.3,1-0.1,2.1-1,2.6l-9.3,5.3C504.2,158.2,502.6,157.6,502.2,156.3z"/>
			<path class="st13" d="M519.1,146.7l-4.3-13.1c-0.5-1.6,0.2-3.4,1.6-4.2l8.1-4.6c1.3-0.8,3-0.1,3.5,1.4l4.6,13.9
				c0.3,1-0.1,2.1-1,2.6l-9.3,5.3C521.1,148.7,519.6,148.1,519.1,146.7z"/>
			<path class="st13" d="M536.3,136.9l-4.3-13.1c-0.5-1.6,0.2-3.4,1.6-4.2l8.1-4.6c1.3-0.8,3-0.1,3.5,1.4l4.6,13.9
				c0.3,1-0.1,2.1-1,2.6l-9.3,5.3C538.3,138.9,536.8,138.3,536.3,136.9z"/>
		</g>
		<g>
			<path class="st13" d="M441.7,216.7l-4.3-13.1c-0.5-1.6,0.2-3.4,1.6-4.2l8.1-4.6c1.3-0.8,3-0.1,3.5,1.4l4.6,13.9
				c0.3,1-0.1,2.1-1,2.6l-9.3,5.3C443.7,218.6,442.2,218,441.7,216.7z"/>
			<path class="st13" d="M458.8,207.2l-4.3-13.1c-0.5-1.6,0.2-3.4,1.6-4.2l8.1-4.6c1.3-0.8,3-0.1,3.5,1.4l4.6,13.9
				c0.3,1-0.1,2.1-1,2.6l-9.3,5.3C460.8,209.2,459.2,208.6,458.8,207.2z"/>
			<path class="st13" d="M475.6,197.8l-4.3-13.1c-0.5-1.6,0.2-3.4,1.6-4.2l8.1-4.6c1.3-0.8,3-0.1,3.5,1.4l4.6,13.9
				c0.3,1-0.1,2.1-1,2.6l-9.3,5.3C477.6,199.7,476.1,199.1,475.6,197.8z"/>
			<path class="st13" d="M492.8,188.1l-4.3-13.1c-0.5-1.6,0.2-3.4,1.6-4.2l8.1-4.6c1.3-0.8,3-0.1,3.5,1.4l4.6,13.9
				c0.3,1-0.1,2.1-1,2.6l-9.3,5.3C494.8,190.1,493.2,189.5,492.8,188.1z"/>
			<path class="st13" d="M509.8,178.5l-4.3-13.1c-0.5-1.6,0.2-3.4,1.6-4.2l8.1-4.6c1.3-0.8,3-0.1,3.5,1.4l4.6,13.9
				c0.3,1-0.1,2.1-1,2.6l-9.3,5.3C511.8,180.5,510.3,179.9,509.8,178.5z"/>
			<path class="st13" d="M526.8,169l-4.3-13.1c-0.5-1.6,0.2-3.4,1.6-4.2l8.1-4.6c1.3-0.8,3-0.1,3.5,1.4l4.6,13.9
				c0.3,1-0.1,2.1-1,2.6l-9.3,5.3C528.7,170.9,527.2,170.3,526.8,169z"/>
			<path class="st13" d="M544,159.2l-4.3-13.1c-0.5-1.6,0.2-3.4,1.6-4.2l8.1-4.6c1.3-0.8,3-0.1,3.5,1.4l4.6,13.9
				c0.3,1-0.1,2.1-1,2.6l-9.3,5.3C546,161.1,544.4,160.5,544,159.2z"/>
		</g>
		<g>
			<path class="st13" d="M449.7,239.1l-4.3-13.1c-0.5-1.6,0.2-3.4,1.6-4.2l8.1-4.6c1.3-0.8,3-0.1,3.5,1.4l4.6,13.9
				c0.3,1-0.1,2.1-1,2.6l-9.3,5.3C451.7,241,450.1,240.4,449.7,239.1z"/>
			<path class="st13" d="M466.8,229.6l-4.3-13.1c-0.5-1.6,0.2-3.4,1.6-4.2l8.1-4.6c1.3-0.8,3-0.1,3.5,1.4l4.6,13.9
				c0.3,1-0.1,2.1-1,2.6l-9.3,5.3C468.7,231.6,467.2,231,466.8,229.6z"/>
			<path class="st13" d="M483.6,220.2l-4.3-13.1c-0.5-1.6,0.2-3.4,1.6-4.2l8.1-4.6c1.3-0.8,3-0.1,3.5,1.4l4.6,13.9
				c0.3,1-0.1,2.1-1,2.6l-9.3,5.3C485.6,222.1,484,221.5,483.6,220.2z"/>
			<path class="st13" d="M500.7,210.6l-4.3-13.1c-0.5-1.6,0.2-3.4,1.6-4.2l8.1-4.6c1.3-0.8,3-0.1,3.5,1.4l4.6,13.9
				c0.3,1-0.1,2.1-1,2.6l-9.3,5.3C502.7,212.5,501.2,211.9,500.7,210.6z"/>
			<path class="st13" d="M517.8,200.9l-4.3-13.1c-0.5-1.6,0.2-3.4,1.6-4.2l8.1-4.6c1.3-0.8,3-0.1,3.5,1.4l4.6,13.9
				c0.3,1-0.1,2.1-1,2.6l-9.3,5.3C519.8,202.9,518.2,202.3,517.8,200.9z"/>
			<path class="st13" d="M534.7,191.4l-4.3-13.1c-0.5-1.6,0.2-3.4,1.6-4.2l8.1-4.6c1.3-0.8,3-0.1,3.5,1.4l4.6,13.9
				c0.3,1-0.1,2.1-1,2.6l-9.3,5.3C536.7,193.3,535.2,192.7,534.7,191.4z"/>
			<path class="st13" d="M552,181.6l-4.3-13.1c-0.5-1.6,0.2-3.4,1.6-4.2l8.1-4.6c1.3-0.8,3-0.1,3.5,1.4l4.6,13.9
				c0.3,1-0.1,2.1-1,2.6l-9.3,5.3C553.9,183.5,552.4,182.9,552,181.6z"/>
		</g>
		<g>
			<path class="st13" d="M457.4,261.3l-4.3-13.1c-0.5-1.6,0.2-3.4,1.6-4.2l8.1-4.6c1.3-0.8,3-0.1,3.5,1.4l4.6,13.9
				c0.3,1-0.1,2.1-1,2.6l-9.3,5.3C459.3,263.2,457.8,262.6,457.4,261.3z"/>
			<path class="st13" d="M474.4,251.9l-4.3-13.1c-0.5-1.6,0.2-3.4,1.6-4.2l8.1-4.6c1.3-0.8,3-0.1,3.5,1.4l4.6,13.9
				c0.3,1-0.1,2.1-1,2.6l-9.3,5.3C476.4,253.8,474.8,253.2,474.4,251.9z"/>
			<path class="st13" d="M491.3,242.4l-4.3-13.1c-0.5-1.6,0.2-3.4,1.6-4.2l8.1-4.6c1.3-0.8,3-0.1,3.5,1.4l4.6,13.9
				c0.3,1-0.1,2.1-1,2.6l-9.3,5.3C493.2,244.3,491.7,243.7,491.3,242.4z"/>
			<path class="st13" d="M508.4,232.8l-4.3-13.1c-0.5-1.6,0.2-3.4,1.6-4.2l8.1-4.6c1.3-0.8,3-0.1,3.5,1.4l4.6,13.9
				c0.3,1-0.1,2.1-1,2.6l-9.3,5.3C510.4,234.7,508.8,234.1,508.4,232.8z"/>
			<path class="st13" d="M525.4,223.2l-4.3-13.1c-0.5-1.6,0.2-3.4,1.6-4.2l8.1-4.6c1.3-0.8,3-0.1,3.5,1.4l4.6,13.9
				c0.3,1-0.1,2.1-1,2.6l-9.3,5.3C527.4,225.1,525.9,224.5,525.4,223.2z"/>
			<path class="st13" d="M542.4,213.6l-4.3-13.1c-0.5-1.6,0.2-3.4,1.6-4.2l8.1-4.6c1.3-0.8,3-0.1,3.5,1.4l4.6,13.9
				c0.3,1-0.1,2.1-1,2.6l-9.3,5.3C544.4,215.5,542.8,214.9,542.4,213.6z"/>
			<path class="st13" d="M559.6,203.8l-4.3-13.1c-0.5-1.6,0.2-3.4,1.6-4.2l8.1-4.6c1.3-0.8,3-0.1,3.5,1.4l4.6,13.9
				c0.3,1-0.1,2.1-1,2.6l-9.3,5.3C561.6,205.7,560,205.1,559.6,203.8z"/>
		</g>
		<g>
			<g>
				<path class="st13" d="M467.7,290.8l-4.3-13.1c-0.5-1.6,0.2-3.4,1.6-4.2l8.1-4.6c1.3-0.8,3-0.1,3.5,1.4l4.6,13.9
					c0.3,1-0.1,2.1-1,2.6l-9.3,5.3C469.7,292.8,468.2,292.2,467.7,290.8z"/>
				<path class="st13" d="M484.8,281.4l-4.3-13.1c-0.5-1.6,0.2-3.4,1.6-4.2l8.1-4.6c1.3-0.8,3-0.1,3.5,1.4l4.6,13.9
					c0.3,1-0.1,2.1-1,2.6l-9.3,5.3C486.8,283.3,485.2,282.7,484.8,281.4z"/>
				<path class="st13" d="M501.6,271.9l-4.3-13.1c-0.5-1.6,0.2-3.4,1.6-4.2l8.1-4.6c1.3-0.8,3-0.1,3.5,1.4l4.6,13.9
					c0.3,1-0.1,2.1-1,2.6l-9.3,5.3C503.6,273.9,502.1,273.3,501.6,271.9z"/>
				<path class="st13" d="M518.8,262.3l-4.3-13.1c-0.5-1.6,0.2-3.4,1.6-4.2l8.1-4.6c1.3-0.8,3-0.1,3.5,1.4l4.6,13.9
					c0.3,1-0.1,2.1-1,2.6l-9.3,5.3C520.7,264.2,519.2,263.6,518.8,262.3z"/>
				<path class="st13" d="M535.8,252.7l-4.3-13.1c-0.5-1.6,0.2-3.4,1.6-4.2l8.1-4.6c1.3-0.8,3-0.1,3.5,1.4l4.6,13.9
					c0.3,1-0.1,2.1-1,2.6l-9.3,5.3C537.8,254.6,536.2,254,535.8,252.7z"/>
				<path class="st13" d="M552.8,243.1l-4.3-13.1c-0.5-1.6,0.2-3.4,1.6-4.2l8.1-4.6c1.3-0.8,3-0.1,3.5,1.4l4.6,13.9
					c0.3,1-0.1,2.1-1,2.6l-9.3,5.3C554.7,245.1,553.2,244.5,552.8,243.1z"/>
				<path class="st13" d="M570,233.3l-4.3-13.1c-0.5-1.6,0.2-3.4,1.6-4.2l8.1-4.6c1.3-0.8,3-0.1,3.5,1.4l4.6,13.9
					c0.3,1-0.1,2.1-1,2.6l-9.3,5.3C571.9,235.3,570.4,234.7,570,233.3z"/>
			</g>
			<g>
				<path class="st13" d="M475.7,313.3l-4.3-13.1c-0.5-1.6,0.2-3.4,1.6-4.2l8.1-4.6c1.3-0.8,3-0.1,3.5,1.4l4.6,13.9
					c0.3,1-0.1,2.1-1,2.6l-9.3,5.3C477.7,315.2,476.1,314.6,475.7,313.3z"/>
				<path class="st13" d="M492.7,303.8l-4.3-13.1c-0.5-1.6,0.2-3.4,1.6-4.2l8.1-4.6c1.3-0.8,3-0.1,3.5,1.4l4.6,13.9
					c0.3,1-0.1,2.1-1,2.6l-9.3,5.3C494.7,305.7,493.2,305.1,492.7,303.8z"/>
				<path class="st13" d="M509.6,294.4l-4.3-13.1c-0.5-1.6,0.2-3.4,1.6-4.2l8.1-4.6c1.3-0.8,3-0.1,3.5,1.4l4.6,13.9
					c0.3,1-0.1,2.1-1,2.6l-9.3,5.3C511.6,296.3,510,295.7,509.6,294.4z"/>
				<path class="st13" d="M526.7,284.7l-4.3-13.1c-0.5-1.6,0.2-3.4,1.6-4.2l8.1-4.6c1.3-0.8,3-0.1,3.5,1.4l4.6,13.9
					c0.3,1-0.1,2.1-1,2.6l-9.3,5.3C528.7,286.7,527.2,286.1,526.7,284.7z"/>
				<path class="st13" d="M543.8,275.1l-4.3-13.1c-0.5-1.6,0.2-3.4,1.6-4.2l8.1-4.6c1.3-0.8,3-0.1,3.5,1.4l4.6,13.9
					c0.3,1-0.1,2.1-1,2.6l-9.3,5.3C545.8,277,544.2,276.4,543.8,275.1z"/>
				<path class="st13" d="M560.7,265.6l-4.3-13.1c-0.5-1.6,0.2-3.4,1.6-4.2l8.1-4.6c1.3-0.8,3-0.1,3.5,1.4l4.6,13.9
					c0.3,1-0.1,2.1-1,2.6l-9.3,5.3C562.7,267.5,561.2,266.9,560.7,265.6z"/>
				<path class="st13" d="M577.9,255.8l-4.3-13.1c-0.5-1.6,0.2-3.4,1.6-4.2l8.1-4.6c1.3-0.8,3-0.1,3.5,1.4l4.6,13.9
					c0.3,1-0.1,2.1-1,2.6l-9.3,5.3C579.9,257.7,578.4,257.1,577.9,255.8z"/>
			</g>
			<g>
				<path class="st13" d="M483.3,335.5l-4.3-13.1c-0.5-1.6,0.2-3.4,1.6-4.2l8.1-4.6c1.3-0.8,3-0.1,3.5,1.4l4.6,13.9
					c0.3,1-0.1,2.1-1,2.6l-9.3,5.3C485.3,337.4,483.8,336.8,483.3,335.5z"/>
				<path class="st13" d="M500.4,326.1l-4.3-13.1c-0.5-1.6,0.2-3.4,1.6-4.2l8.1-4.6c1.3-0.8,3-0.1,3.5,1.4l4.6,13.9
					c0.3,1-0.1,2.1-1,2.6l-9.3,5.3C502.4,328,500.8,327.4,500.4,326.1z"/>
				<path class="st13" d="M517.2,316.6l-4.3-13.1c-0.5-1.6,0.2-3.4,1.6-4.2l8.1-4.6c1.3-0.8,3-0.1,3.5,1.4l4.6,13.9
					c0.3,1-0.1,2.1-1,2.6l-9.3,5.3C519.2,318.5,517.7,317.9,517.2,316.6z"/>
				<path class="st13" d="M534.4,307l-4.3-13.1c-0.5-1.6,0.2-3.4,1.6-4.2l8.1-4.6c1.3-0.8,3-0.1,3.5,1.4l4.6,13.9
					c0.3,1-0.1,2.1-1,2.6l-9.3,5.3C536.3,308.9,534.8,308.3,534.4,307z"/>
				<path class="st13" d="M551.4,297.4l-4.3-13.1c-0.5-1.6,0.2-3.4,1.6-4.2l8.1-4.6c1.3-0.8,3-0.1,3.5,1.4l4.6,13.9
					c0.3,1-0.1,2.1-1,2.6l-9.3,5.3C553.4,299.3,551.9,298.7,551.4,297.4z"/>
				<path class="st13" d="M568.4,287.8l-4.3-13.1c-0.5-1.6,0.2-3.4,1.6-4.2l8.1-4.6c1.3-0.8,3-0.1,3.5,1.4l4.6,13.9
					c0.3,1-0.1,2.1-1,2.6l-9.3,5.3C570.3,289.7,568.8,289.1,568.4,287.8z"/>
				<path class="st13" d="M585.6,278l-4.3-13.1c-0.5-1.6,0.2-3.4,1.6-4.2l8.1-4.6c1.3-0.8,3-0.1,3.5,1.4l4.6,13.9
					c0.3,1-0.1,2.1-1,2.6l-9.3,5.3C587.6,279.9,586,279.3,585.6,278z"/>
			</g>
			<g>
				<path class="st13" d="M491.1,357.8l-4.3-13.1c-0.5-1.6,0.2-3.4,1.6-4.2l8.1-4.6c1.3-0.8,3-0.1,3.5,1.4l4.6,13.9
					c0.3,1-0.1,2.1-1,2.6l-9.3,5.3C493.1,359.7,491.5,359.1,491.1,357.8z"/>
				<path class="st13" d="M508.2,348.4l-4.3-13.1c-0.5-1.6,0.2-3.4,1.6-4.2l8.1-4.6c1.3-0.8,3-0.1,3.5,1.4l4.6,13.9
					c0.3,1-0.1,2.1-1,2.6l-9.3,5.3C510.1,350.3,508.6,349.7,508.2,348.4z"/>
				<path class="st13" d="M525,338.9l-4.3-13.1c-0.5-1.6,0.2-3.4,1.6-4.2l8.1-4.6c1.3-0.8,3-0.1,3.5,1.4l4.6,13.9
					c0.3,1-0.1,2.1-1,2.6l-9.3,5.3C527,340.8,525.5,340.2,525,338.9z"/>
				<path class="st13" d="M542.1,329.3l-4.3-13.1c-0.5-1.6,0.2-3.4,1.6-4.2l8.1-4.6c1.3-0.8,3-0.1,3.5,1.4l4.6,13.9
					c0.3,1-0.1,2.1-1,2.6l-9.3,5.3C544.1,331.2,542.6,330.6,542.1,329.3z"/>
				<path class="st13" d="M559.2,319.7l-4.3-13.1c-0.5-1.6,0.2-3.4,1.6-4.2l8.1-4.6c1.3-0.8,3-0.1,3.5,1.4l4.6,13.9
					c0.3,1-0.1,2.1-1,2.6l-9.3,5.3C561.2,321.6,559.6,321,559.2,319.7z"/>
				<path class="st13" d="M576.1,310.1l-4.3-13.1c-0.5-1.6,0.2-3.4,1.6-4.2l8.1-4.6c1.3-0.8,3-0.1,3.5,1.4l4.6,13.9
					c0.3,1-0.1,2.1-1,2.6l-9.3,5.3C578.1,312,576.6,311.4,576.1,310.1z"/>
				<path class="st13" d="M593.4,300.3l-4.3-13.1c-0.5-1.6,0.2-3.4,1.6-4.2l8.1-4.6c1.3-0.8,3-0.1,3.5,1.4l4.6,13.9
					c0.3,1-0.1,2.1-1,2.6l-9.3,5.3C595.3,302.2,593.8,301.6,593.4,300.3z"/>
			</g>
		</g>
	</g>
	<path class="st14" d="M452.9,240.3"/>
</g>
<g>
	<g>
		<polygon class="st9" points="559.3,408.3 557.3,551.6 570.2,559.3 573.1,416.3 		"/>
		<polygon class="st10" points="583.6,551.6 570.2,559.3 573.1,416.3 586.6,408.8 		"/>
		<polygon class="st9" points="559.3,408.4 572.9,400.9 586.6,408.8 573.1,416.3 		"/>
	</g>
</g>
<g>
	<polyline class="st10" points="582.1,434.3 564.2,380.6 599.7,360.5 617.6,414.3 582.1,434.3 	"/>
	<polygon class="st9" points="564.2,380.6 555.7,376.4 591.2,356.3 599.7,360.5 	"/>
	<polygon class="st11" points="480.3,565.1 414.7,368.3 544.7,294.9 610.2,491.7 	"/>
	<polygon class="st12" points="414.7,368.3 409.1,365.5 539,292 544.7,294.9 	"/>
	<polygon class="st12" points="480.2,565.1 474.5,565.1 409.1,365.5 414.7,368.3 	"/>
	<polyline class="st11" points="630.8,482 565.2,285.2 695.2,211.7 760.7,408.5 630.8,482 	"/>
	<polygon class="st12" points="565.2,285.2 559.6,282.3 689.5,208.9 695.2,211.7 	"/>
	<polyline class="st12" points="625,481.9 559.6,282.3 565.2,285.2 630.7,481.9 	"/>
	<g>
		<g>
			<path class="st13" d="M429.8,384.6l-4.3-13.1c-0.5-1.6,0.2-3.4,1.6-4.2l8.1-4.6c1.3-0.8,3-0.1,3.5,1.4l4.6,13.9
				c0.3,1-0.1,2.1-1,2.6l-9.3,5.3C431.7,386.5,430.2,385.9,429.8,384.6z"/>
			<path class="st13" d="M446.8,375.2l-4.3-13.1c-0.5-1.6,0.2-3.4,1.6-4.2l8.1-4.6c1.3-0.8,3-0.1,3.5,1.4l4.6,13.9
				c0.3,1-0.1,2.1-1,2.6l-9.3,5.3C448.8,377.1,447.2,376.5,446.8,375.2z"/>
			<path class="st13" d="M463.7,365.7l-4.3-13.1c-0.5-1.6,0.2-3.4,1.6-4.2l8.1-4.6c1.3-0.8,3-0.1,3.5,1.4l4.6,13.9
				c0.3,1-0.1,2.1-1,2.6l-9.3,5.3C465.6,367.6,464.1,367,463.7,365.7z"/>
			<path class="st13" d="M480.8,356.1l-4.3-13.1c-0.5-1.6,0.2-3.4,1.6-4.2l8.1-4.6c1.3-0.8,3-0.1,3.5,1.4l4.6,13.9
				c0.3,1-0.1,2.1-1,2.6l-9.3,5.3C482.8,358,481.2,357.4,480.8,356.1z"/>
			<path class="st13" d="M497.8,346.5l-4.3-13.1c-0.5-1.6,0.2-3.4,1.6-4.2l8.1-4.6c1.3-0.8,3-0.1,3.5,1.4l4.6,13.9
				c0.3,1-0.1,2.1-1,2.6l-9.3,5.3C499.8,348.4,498.3,347.8,497.8,346.5z"/>
			<path class="st13" d="M514.8,336.9l-4.3-13.1c-0.5-1.6,0.2-3.4,1.6-4.2l8.1-4.6c1.3-0.8,3-0.1,3.5,1.4l4.6,13.9
				c0.3,1-0.1,2.1-1,2.6l-9.3,5.3C516.8,338.8,515.2,338.2,514.8,336.9z"/>
			<path class="st13" d="M532,327.1l-4.3-13.1c-0.5-1.6,0.2-3.4,1.6-4.2l8.1-4.6c1.3-0.8,3-0.1,3.5,1.4l4.6,13.9
				c0.3,1-0.1,2.1-1,2.6l-9.3,5.3C534,329,532.4,328.4,532,327.1z"/>
		</g>
		<g>
			<path class="st13" d="M437.4,406.8l-4.3-13.1c-0.5-1.6,0.2-3.4,1.6-4.2l8.1-4.6c1.3-0.8,3-0.1,3.5,1.4l4.6,13.9
				c0.3,1-0.1,2.1-1,2.6l-9.3,5.3C439.4,408.7,437.8,408.2,437.4,406.8z"/>
			<path class="st13" d="M454.5,397.4l-4.3-13.1c-0.5-1.6,0.2-3.4,1.6-4.2l8.1-4.6c1.3-0.8,3-0.1,3.5,1.4l4.6,13.9
				c0.3,1-0.1,2.1-1,2.6l-9.3,5.3C456.4,399.3,454.9,398.7,454.5,397.4z"/>
			<path class="st13" d="M471.3,387.9l-4.3-13.1c-0.5-1.6,0.2-3.4,1.6-4.2l8.1-4.6c1.3-0.8,3-0.1,3.5,1.4l4.6,13.9
				c0.3,1-0.1,2.1-1,2.6l-9.3,5.3C473.3,389.8,471.7,389.3,471.3,387.9z"/>
			<path class="st13" d="M488.4,378.3l-4.3-13.1c-0.5-1.6,0.2-3.4,1.6-4.2l8.1-4.6c1.3-0.8,3-0.1,3.5,1.4l4.6,13.9
				c0.3,1-0.1,2.1-1,2.6l-9.3,5.3C490.4,380.2,488.9,379.6,488.4,378.3z"/>
			<path class="st13" d="M505.5,368.7l-4.3-13.1c-0.5-1.6,0.2-3.4,1.6-4.2l8.1-4.6c1.3-0.8,3-0.1,3.5,1.4l4.6,13.9
				c0.3,1-0.1,2.1-1,2.6l-9.3,5.3C507.5,370.6,505.9,370,505.5,368.7z"/>
			<path class="st13" d="M522.4,359.1l-4.3-13.1c-0.5-1.6,0.2-3.4,1.6-4.2l8.1-4.6c1.3-0.8,3-0.1,3.5,1.4l4.6,13.9
				c0.3,1-0.1,2.1-1,2.6l-9.3,5.3C524.4,361.1,522.9,360.5,522.4,359.1z"/>
			<path class="st13" d="M539.7,349.3l-4.3-13.1c-0.5-1.6,0.2-3.4,1.6-4.2l8.1-4.6c1.3-0.8,3-0.1,3.5,1.4l4.6,13.9
				c0.3,1-0.1,2.1-1,2.6l-9.3,5.3C541.6,351.3,540.1,350.7,539.7,349.3z"/>
		</g>
		<g>
			<path class="st13" d="M445.4,429.2l-4.3-13.1c-0.5-1.6,0.2-3.4,1.6-4.2l8.1-4.6c1.3-0.8,3-0.1,3.5,1.4l4.6,13.9
				c0.3,1-0.1,2.1-1,2.6l-9.3,5.3C447.3,431.2,445.8,430.6,445.4,429.2z"/>
			<path class="st13" d="M462.4,419.8l-4.3-13.1c-0.5-1.6,0.2-3.4,1.6-4.2l8.1-4.6c1.3-0.8,3-0.1,3.5,1.4l4.6,13.9
				c0.3,1-0.1,2.1-1,2.6l-9.3,5.3C464.4,421.7,462.9,421.1,462.4,419.8z"/>
			<path class="st13" d="M479.3,410.3l-4.3-13.1c-0.5-1.6,0.2-3.4,1.6-4.2l8.1-4.6c1.3-0.8,3-0.1,3.5,1.4l4.6,13.9
				c0.3,1-0.1,2.1-1,2.6l-9.3,5.3C481.2,412.3,479.7,411.7,479.3,410.3z"/>
			<path class="st13" d="M496.4,400.7l-4.3-13.1c-0.5-1.6,0.2-3.4,1.6-4.2l8.1-4.6c1.3-0.8,3-0.1,3.5,1.4l4.6,13.9
				c0.3,1-0.1,2.1-1,2.6l-9.3,5.3C498.4,402.6,496.8,402,496.4,400.7z"/>
			<path class="st13" d="M513.5,391.1l-4.3-13.1c-0.5-1.6,0.2-3.4,1.6-4.2l8.1-4.6c1.3-0.8,3-0.1,3.5,1.4l4.6,13.9
				c0.3,1-0.1,2.1-1,2.6l-9.3,5.3C515.4,393,513.9,392.4,513.5,391.1z"/>
			<path class="st13" d="M530.4,381.5l-4.3-13.1c-0.5-1.6,0.2-3.4,1.6-4.2l8.1-4.6c1.3-0.8,3-0.1,3.5,1.4l4.6,13.9
				c0.3,1-0.1,2.1-1,2.6l-9.3,5.3C532.4,383.5,530.8,382.9,530.4,381.5z"/>
			<path class="st13" d="M547.6,371.7l-4.3-13.1c-0.5-1.6,0.2-3.4,1.6-4.2l8.1-4.6c1.3-0.8,3-0.1,3.5,1.4l4.6,13.9
				c0.3,1-0.1,2.1-1,2.6l-9.3,5.3C549.6,373.7,548.1,373.1,547.6,371.7z"/>
		</g>
		<g>
			<path class="st13" d="M453,451.5l-4.3-13.1c-0.5-1.6,0.2-3.4,1.6-4.2l8.1-4.6c1.3-0.8,3-0.1,3.5,1.4l4.6,13.9
				c0.3,1-0.1,2.1-1,2.6l-9.3,5.3C455,453.4,453.5,452.8,453,451.5z"/>
			<path class="st13" d="M470.1,442l-4.3-13.1c-0.5-1.6,0.2-3.4,1.6-4.2l8.1-4.6c1.3-0.8,3-0.1,3.5,1.4l4.6,13.9
				c0.3,1-0.1,2.1-1,2.6l-9.3,5.3C472.1,444,470.5,443.4,470.1,442z"/>
			<path class="st13" d="M486.9,432.6l-4.3-13.1c-0.5-1.6,0.2-3.4,1.6-4.2l8.1-4.6c1.3-0.8,3-0.1,3.5,1.4l4.6,13.9
				c0.3,1-0.1,2.1-1,2.6l-9.3,5.3C488.9,434.5,487.4,433.9,486.9,432.6z"/>
			<path class="st13" d="M504.1,423l-4.3-13.1c-0.5-1.6,0.2-3.4,1.6-4.2l8.1-4.6c1.3-0.8,3-0.1,3.5,1.4l4.6,13.9
				c0.3,1-0.1,2.1-1,2.6l-9.3,5.3C506,424.9,504.5,424.3,504.1,423z"/>
			<path class="st13" d="M521.1,413.3l-4.3-13.1c-0.5-1.6,0.2-3.4,1.6-4.2l8.1-4.6c1.3-0.8,3-0.1,3.5,1.4l4.6,13.9
				c0.3,1-0.1,2.1-1,2.6l-9.3,5.3C523.1,415.3,521.5,414.7,521.1,413.3z"/>
			<path class="st13" d="M538.1,403.8l-4.3-13.1c-0.5-1.6,0.2-3.4,1.6-4.2l8.1-4.6c1.3-0.8,3-0.1,3.5,1.4l4.6,13.9
				c0.3,1-0.1,2.1-1,2.6l-9.3,5.3C540,405.7,538.5,405.1,538.1,403.8z"/>
			<path class="st13" d="M555.3,394l-4.3-13.1c-0.5-1.6,0.2-3.4,1.6-4.2l8.1-4.6c1.3-0.8,3-0.1,3.5,1.4l4.6,13.9
				c0.3,1-0.1,2.1-1,2.6l-9.3,5.3C557.2,395.9,555.7,395.3,555.3,394z"/>
		</g>
		<g>
			<g>
				<path class="st13" d="M463.4,481l-4.3-13.1c-0.5-1.6,0.2-3.4,1.6-4.2l8.1-4.6c1.3-0.8,3-0.1,3.5,1.4l4.6,13.9
					c0.3,1-0.1,2.1-1,2.6l-9.3,5.3C465.4,482.9,463.8,482.3,463.4,481z"/>
				<path class="st13" d="M480.4,471.6l-4.3-13.1c-0.5-1.6,0.2-3.4,1.6-4.2l8.1-4.6c1.3-0.8,3-0.1,3.5,1.4l4.6,13.9
					c0.3,1-0.1,2.1-1,2.6l-9.3,5.3C482.4,473.5,480.9,472.9,480.4,471.6z"/>
				<path class="st13" d="M497.3,462.1L493,449c-0.5-1.6,0.2-3.4,1.6-4.2l8.1-4.6c1.3-0.8,3-0.1,3.5,1.4l4.6,13.9
					c0.3,1-0.1,2.1-1,2.6l-9.3,5.3C499.3,464,497.7,463.4,497.3,462.1z"/>
				<path class="st13" d="M514.4,452.5l-4.3-13.1c-0.5-1.6,0.2-3.4,1.6-4.2l8.1-4.6c1.3-0.8,3-0.1,3.5,1.4l4.6,13.9
					c0.3,1-0.1,2.1-1,2.6l-9.3,5.3C516.4,454.4,514.9,453.8,514.4,452.5z"/>
				<path class="st13" d="M531.5,442.9l-4.3-13.1c-0.5-1.6,0.2-3.4,1.6-4.2l8.1-4.6c1.3-0.8,3-0.1,3.5,1.4l4.6,13.9
					c0.3,1-0.1,2.1-1,2.6l-9.3,5.3C533.4,444.8,531.9,444.2,531.5,442.9z"/>
				<path class="st13" d="M548.4,433.3l-4.3-13.1c-0.5-1.6,0.2-3.4,1.6-4.2l8.1-4.6c1.3-0.8,3-0.1,3.5,1.4l4.6,13.9
					c0.3,1-0.1,2.1-1,2.6l-9.3,5.3C550.4,435.2,548.8,434.6,548.4,433.3z"/>
				<path class="st13" d="M565.6,423.5l-4.3-13.1c-0.5-1.6,0.2-3.4,1.6-4.2l8.1-4.6c1.3-0.8,3-0.1,3.5,1.4l4.6,13.9
					c0.3,1-0.1,2.1-1,2.6l-9.3,5.3C567.6,425.4,566.1,424.8,565.6,423.5z"/>
			</g>
			<g>
				<path class="st13" d="M471.3,503.4l-4.3-13.1c-0.5-1.6,0.2-3.4,1.6-4.2l8.1-4.6c1.3-0.8,3-0.1,3.5,1.4l4.6,13.9
					c0.3,1-0.1,2.1-1,2.6l-9.3,5.3C473.3,505.3,471.8,504.7,471.3,503.4z"/>
				<path class="st13" d="M488.4,494l-4.3-13.1c-0.5-1.6,0.2-3.4,1.6-4.2l8.1-4.6c1.3-0.8,3-0.1,3.5,1.4l4.6,13.9
					c0.3,1-0.1,2.1-1,2.6l-9.3,5.3C490.4,495.9,488.8,495.3,488.4,494z"/>
				<path class="st13" d="M505.3,484.5l-4.3-13.1c-0.5-1.6,0.2-3.4,1.6-4.2l8.1-4.6c1.3-0.8,3-0.1,3.5,1.4l4.6,13.9
					c0.3,1-0.1,2.1-1,2.6l-9.3,5.3C507.2,486.4,505.7,485.8,505.3,484.5z"/>
				<path class="st13" d="M522.4,474.9l-4.3-13.1c-0.5-1.6,0.2-3.4,1.6-4.2l8.1-4.6c1.3-0.8,3-0.1,3.5,1.4l4.6,13.9
					c0.3,1-0.1,2.1-1,2.6l-9.3,5.3C524.4,476.8,522.8,476.2,522.4,474.9z"/>
				<path class="st13" d="M539.4,465.3l-4.3-13.1c-0.5-1.6,0.2-3.4,1.6-4.2l8.1-4.6c1.3-0.8,3-0.1,3.5,1.4l4.6,13.9
					c0.3,1-0.1,2.1-1,2.6l-9.3,5.3C541.4,467.2,539.9,466.6,539.4,465.3z"/>
				<path class="st13" d="M556.4,455.7l-4.3-13.1c-0.5-1.6,0.2-3.4,1.6-4.2l8.1-4.6c1.3-0.8,3-0.1,3.5,1.4l4.6,13.9
					c0.3,1-0.1,2.1-1,2.6l-9.3,5.3C558.4,457.6,556.8,457,556.4,455.7z"/>
				<path class="st13" d="M573.6,445.9l-4.3-13.1c-0.5-1.6,0.2-3.4,1.6-4.2l8.1-4.6c1.3-0.8,3-0.1,3.5,1.4l4.6,13.9
					c0.3,1-0.1,2.1-1,2.6l-9.3,5.3C575.6,447.8,574,447.2,573.6,445.9z"/>
			</g>
			<g>
				<path class="st13" d="M479,525.7l-4.3-13.1c-0.5-1.6,0.2-3.4,1.6-4.2l8.1-4.6c1.3-0.8,3-0.1,3.5,1.4l4.6,13.9
					c0.3,1-0.1,2.1-1,2.6l-9.3,5.3C481,527.6,479.4,527,479,525.7z"/>
				<path class="st13" d="M496.1,516.2l-4.3-13.1c-0.5-1.6,0.2-3.4,1.6-4.2l8.1-4.6c1.3-0.8,3-0.1,3.5,1.4l4.6,13.9
					c0.3,1-0.1,2.1-1,2.6l-9.3,5.3C498,518.1,496.5,517.5,496.1,516.2z"/>
				<path class="st13" d="M512.9,506.7l-4.3-13.1c-0.5-1.6,0.2-3.4,1.6-4.2l8.1-4.6c1.3-0.8,3-0.1,3.5,1.4l4.6,13.9
					c0.3,1-0.1,2.1-1,2.6l-9.3,5.3C514.9,508.7,513.3,508.1,512.9,506.7z"/>
				<path class="st13" d="M530,497.1l-4.3-13.1c-0.5-1.6,0.2-3.4,1.6-4.2l8.1-4.6c1.3-0.8,3-0.1,3.5,1.4l4.6,13.9
					c0.3,1-0.1,2.1-1,2.6l-9.3,5.3C532,499.1,530.5,498.5,530,497.1z"/>
				<path class="st13" d="M547.1,487.5l-4.3-13.1c-0.5-1.6,0.2-3.4,1.6-4.2l8.1-4.6c1.3-0.8,3-0.1,3.5,1.4l4.6,13.9
					c0.3,1-0.1,2.1-1,2.6l-9.3,5.3C549.1,489.4,547.5,488.8,547.1,487.5z"/>
				<path class="st13" d="M564,478l-4.3-13.1c-0.5-1.6,0.2-3.4,1.6-4.2l8.1-4.6c1.3-0.8,3-0.1,3.5,1.4l4.6,13.9c0.3,1-0.1,2.1-1,2.6
					l-9.3,5.3C566,479.9,564.5,479.3,564,478z"/>
				<path class="st13" d="M581.3,468.2L577,455c-0.5-1.6,0.2-3.4,1.6-4.2l8.1-4.6c1.3-0.8,3-0.1,3.5,1.4l4.6,13.9
					c0.3,1-0.1,2.1-1,2.6l-9.3,5.3C583.2,470.1,581.7,469.5,581.3,468.2z"/>
			</g>
			<g>
				<path class="st13" d="M486.8,547.9l-4.3-13.1c-0.5-1.6,0.2-3.4,1.6-4.2l8.1-4.6c1.3-0.8,3-0.1,3.5,1.4l4.6,13.9
					c0.3,1-0.1,2.1-1,2.6l-9.3,5.3C488.8,549.9,487.2,549.3,486.8,547.9z"/>
				<path class="st13" d="M503.8,538.5l-4.3-13.1c-0.5-1.6,0.2-3.4,1.6-4.2l8.1-4.6c1.3-0.8,3-0.1,3.5,1.4l4.6,13.9
					c0.3,1-0.1,2.1-1,2.6l-9.3,5.3C505.8,540.4,504.3,539.8,503.8,538.5z"/>
				<path class="st13" d="M520.7,529l-4.3-13.1c-0.5-1.6,0.2-3.4,1.6-4.2l8.1-4.6c1.3-0.8,3-0.1,3.5,1.4l4.6,13.9
					c0.3,1-0.1,2.1-1,2.6l-9.3,5.3C522.7,531,521.1,530.4,520.7,529z"/>
				<path class="st13" d="M537.8,519.4l-4.3-13.1c-0.5-1.6,0.2-3.4,1.6-4.2l8.1-4.6c1.3-0.8,3-0.1,3.5,1.4l4.6,13.9
					c0.3,1-0.1,2.1-1,2.6l-9.3,5.3C539.8,521.4,538.2,520.8,537.8,519.4z"/>
				<path class="st13" d="M554.9,509.8l-4.3-13.1c-0.5-1.6,0.2-3.4,1.6-4.2l8.1-4.6c1.3-0.8,3-0.1,3.5,1.4l4.6,13.9
					c0.3,1-0.1,2.1-1,2.6l-9.3,5.3C556.8,511.7,555.3,511.1,554.9,509.8z"/>
				<path class="st13" d="M571.8,500.3l-4.3-13.1c-0.5-1.6,0.2-3.4,1.6-4.2l8.1-4.6c1.3-0.8,3-0.1,3.5,1.4l4.6,13.9
					c0.3,1-0.1,2.1-1,2.6l-9.3,5.3C573.8,502.2,572.2,501.6,571.8,500.3z"/>
				<path class="st13" d="M589,490.4l-4.3-13.1c-0.5-1.6,0.2-3.4,1.6-4.2l8.1-4.6c1.3-0.8,3-0.1,3.5,1.4l4.6,13.9
					c0.3,1-0.1,2.1-1,2.6l-9.3,5.3C591,492.4,589.5,491.8,589,490.4z"/>
			</g>
		</g>
		<g>
			<path class="st13" d="M580.3,301.4l-4.3-13.1c-0.5-1.6,0.2-3.4,1.6-4.2l8.1-4.6c1.3-0.8,3-0.1,3.5,1.4l4.6,13.9
				c0.3,1-0.1,2.1-1,2.6l-9.3,5.3C582.2,303.4,580.7,302.8,580.3,301.4z"/>
			<path class="st13" d="M597.3,292l-4.3-13.1c-0.5-1.6,0.2-3.4,1.6-4.2l8.1-4.6c1.3-0.8,3-0.1,3.5,1.4l4.6,13.9
				c0.3,1-0.1,2.1-1,2.6l-9.3,5.3C599.3,293.9,597.8,293.3,597.3,292z"/>
			<path class="st13" d="M614.2,282.5l-4.3-13.1c-0.5-1.6,0.2-3.4,1.6-4.2l8.1-4.6c1.3-0.8,3-0.1,3.5,1.4l4.6,13.9
				c0.3,1-0.1,2.1-1,2.6l-9.3,5.3C616.1,284.5,614.6,283.9,614.2,282.5z"/>
			<path class="st13" d="M631.3,272.9l-4.3-13.1c-0.5-1.6,0.2-3.4,1.6-4.2l8.1-4.6c1.3-0.8,3-0.1,3.5,1.4l4.6,13.9
				c0.3,1-0.1,2.1-1,2.6l-9.3,5.3C633.3,274.8,631.7,274.2,631.3,272.9z"/>
			<path class="st13" d="M648.4,263.3l-4.3-13.1c-0.5-1.6,0.2-3.4,1.6-4.2l8.1-4.6c1.3-0.8,3-0.1,3.5,1.4l4.6,13.9
				c0.3,1-0.1,2.1-1,2.6l-9.3,5.3C650.3,265.2,648.8,264.6,648.4,263.3z"/>
			<path class="st13" d="M665.3,253.7l-4.3-13.1c-0.5-1.6,0.2-3.4,1.6-4.2l8.1-4.6c1.3-0.8,3-0.1,3.5,1.4l4.6,13.9
				c0.3,1-0.1,2.1-1,2.6l-9.3,5.3C667.3,255.7,665.7,255.1,665.3,253.7z"/>
			<path class="st13" d="M682.5,243.9l-4.3-13.1c-0.5-1.6,0.2-3.4,1.6-4.2l8.1-4.6c1.3-0.8,3-0.1,3.5,1.4l4.6,13.9
				c0.3,1-0.1,2.1-1,2.6l-9.3,5.3C684.5,245.9,683,245.3,682.5,243.9z"/>
		</g>
		<g>
			<path class="st13" d="M587.9,323.7l-4.3-13.1c-0.5-1.6,0.2-3.4,1.6-4.2l8.1-4.6c1.3-0.8,3-0.1,3.5,1.4l4.6,13.9
				c0.3,1-0.1,2.1-1,2.6l-9.3,5.3C589.9,325.6,588.3,325,587.9,323.7z"/>
			<path class="st13" d="M605,314.2l-4.3-13.1c-0.5-1.6,0.2-3.4,1.6-4.2l8.1-4.6c1.3-0.8,3-0.1,3.5,1.4l4.6,13.9
				c0.3,1-0.1,2.1-1,2.6l-9.3,5.3C606.9,316.2,605.4,315.6,605,314.2z"/>
			<path class="st13" d="M621.8,304.8l-4.3-13.1c-0.5-1.6,0.2-3.4,1.6-4.2l8.1-4.6c1.3-0.8,3-0.1,3.5,1.4l4.6,13.9
				c0.3,1-0.1,2.1-1,2.6L625,306C623.8,306.7,622.3,306.1,621.8,304.8z"/>
			<path class="st13" d="M639,295.2l-4.3-13.1c-0.5-1.6,0.2-3.4,1.6-4.2l8.1-4.6c1.3-0.8,3-0.1,3.5,1.4l4.6,13.9
				c0.3,1-0.1,2.1-1,2.6l-9.3,5.3C640.9,297.1,639.4,296.5,639,295.2z"/>
			<path class="st13" d="M656,285.5l-4.3-13.1c-0.5-1.6,0.2-3.4,1.6-4.2l8.1-4.6c1.3-0.8,3-0.1,3.5,1.4l4.6,13.9
				c0.3,1-0.1,2.1-1,2.6l-9.3,5.3C658,287.5,656.4,286.9,656,285.5z"/>
			<path class="st13" d="M672.9,276l-4.3-13.1c-0.5-1.6,0.2-3.4,1.6-4.2l8.1-4.6c1.3-0.8,3-0.1,3.5,1.4l4.6,13.9
				c0.3,1-0.1,2.1-1,2.6l-9.3,5.3C674.9,277.9,673.4,277.3,672.9,276z"/>
			<path class="st13" d="M690.2,266.2l-4.3-13.1c-0.5-1.6,0.2-3.4,1.6-4.2l8.1-4.6c1.3-0.8,3-0.1,3.5,1.4l4.6,13.9
				c0.3,1-0.1,2.1-1,2.6l-9.3,5.3C692.1,268.1,690.6,267.5,690.2,266.2z"/>
		</g>
		<g>
			<path class="st13" d="M595.9,346.1l-4.3-13.1c-0.5-1.6,0.2-3.4,1.6-4.2l8.1-4.6c1.3-0.8,3-0.1,3.5,1.4l4.6,13.9
				c0.3,1-0.1,2.1-1,2.6l-9.3,5.3C597.9,348,596.3,347.4,595.9,346.1z"/>
			<path class="st13" d="M612.9,336.7l-4.3-13.1c-0.5-1.6,0.2-3.4,1.6-4.2l8.1-4.6c1.3-0.8,3-0.1,3.5,1.4l4.6,13.9
				c0.3,1-0.1,2.1-1,2.6l-9.3,5.3C614.9,338.6,613.4,338,612.9,336.7z"/>
			<path class="st13" d="M629.8,327.2l-4.3-13.1c-0.5-1.6,0.2-3.4,1.6-4.2l8.1-4.6c1.3-0.8,3-0.1,3.5,1.4l4.6,13.9
				c0.3,1-0.1,2.1-1,2.6l-9.3,5.3C631.8,329.1,630.2,328.5,629.8,327.2z"/>
			<path class="st13" d="M646.9,317.6l-4.3-13.1c-0.5-1.6,0.2-3.4,1.6-4.2l8.1-4.6c1.3-0.8,3-0.1,3.5,1.4l4.6,13.9
				c0.3,1-0.1,2.1-1,2.6l-9.3,5.3C648.9,319.5,647.4,318.9,646.9,317.6z"/>
			<path class="st13" d="M664,307.9l-4.3-13.1c-0.5-1.6,0.2-3.4,1.6-4.2l8.1-4.6c1.3-0.8,3-0.1,3.5,1.4l4.6,13.9
				c0.3,1-0.1,2.1-1,2.6l-9.3,5.3C666,309.9,664.4,309.3,664,307.9z"/>
			<path class="st13" d="M680.9,298.4l-4.3-13.1c-0.5-1.6,0.2-3.4,1.6-4.2l8.1-4.6c1.3-0.8,3-0.1,3.5,1.4l4.6,13.9
				c0.3,1-0.1,2.1-1,2.6l-9.3,5.3C682.9,300.3,681.4,299.7,680.9,298.4z"/>
			<path class="st13" d="M698.1,288.6l-4.3-13.1c-0.5-1.6,0.2-3.4,1.6-4.2l8.1-4.6c1.3-0.8,3-0.1,3.5,1.4l4.6,13.9
				c0.3,1-0.1,2.1-1,2.6l-9.3,5.3C700.1,290.5,698.6,289.9,698.1,288.6z"/>
		</g>
		<g>
			<path class="st13" d="M603.5,368.3l-4.3-13.1c-0.5-1.6,0.2-3.4,1.6-4.2l8.1-4.6c1.3-0.8,3-0.1,3.5,1.4l4.6,13.9
				c0.3,1-0.1,2.1-1,2.6l-9.3,5.3C605.5,370.2,604,369.6,603.5,368.3z"/>
			<path class="st13" d="M620.6,358.9l-4.3-13.1c-0.5-1.6,0.2-3.4,1.6-4.2l8.1-4.6c1.3-0.8,3-0.1,3.5,1.4l4.6,13.9
				c0.3,1-0.1,2.1-1,2.6l-9.3,5.3C622.6,360.8,621,360.2,620.6,358.9z"/>
			<path class="st13" d="M637.4,349.4l-4.3-13.1c-0.5-1.6,0.2-3.4,1.6-4.2l8.1-4.6c1.3-0.8,3-0.1,3.5,1.4l4.6,13.9
				c0.3,1-0.1,2.1-1,2.6l-9.3,5.3C639.4,351.3,637.9,350.7,637.4,349.4z"/>
			<path class="st13" d="M654.6,339.8l-4.3-13.1c-0.5-1.6,0.2-3.4,1.6-4.2l8.1-4.6c1.3-0.8,3-0.1,3.5,1.4l4.6,13.9
				c0.3,1-0.1,2.1-1,2.6l-9.3,5.3C656.5,341.7,655,341.1,654.6,339.8z"/>
			<path class="st13" d="M671.6,330.2l-4.3-13.1c-0.5-1.6,0.2-3.4,1.6-4.2l8.1-4.6c1.3-0.8,3-0.1,3.5,1.4l4.6,13.9
				c0.3,1-0.1,2.1-1,2.6l-9.3,5.3C673.6,332.1,672.1,331.5,671.6,330.2z"/>
			<path class="st13" d="M688.6,320.6l-4.3-13.1c-0.5-1.6,0.2-3.4,1.6-4.2l8.1-4.6c1.3-0.8,3-0.1,3.5,1.4l4.6,13.9
				c0.3,1-0.1,2.1-1,2.6l-9.3,5.3C690.5,322.6,689,322,688.6,320.6z"/>
			<path class="st13" d="M705.8,310.8l-4.3-13.1c-0.5-1.6,0.2-3.4,1.6-4.2l8.1-4.6c1.3-0.8,3-0.1,3.5,1.4l4.6,13.9
				c0.3,1-0.1,2.1-1,2.6l-9.3,5.3C707.8,312.7,706.2,312.2,705.8,310.8z"/>
		</g>
		<g>
			<g>
				<path class="st13" d="M613.9,397.8l-4.3-13.1c-0.5-1.6,0.2-3.4,1.6-4.2l8.1-4.6c1.3-0.8,3-0.1,3.5,1.4l4.6,13.9
					c0.3,1-0.1,2.1-1,2.6l-9.3,5.3C615.9,399.8,614.3,399.2,613.9,397.8z"/>
				<path class="st13" d="M631,388.4l-4.3-13.1c-0.5-1.6,0.2-3.4,1.6-4.2l8.1-4.6c1.3-0.8,3-0.1,3.5,1.4l4.6,13.9
					c0.3,1-0.1,2.1-1,2.6l-9.3,5.3C632.9,390.3,631.4,389.7,631,388.4z"/>
				<path class="st13" d="M647.8,378.9l-4.3-13.1c-0.5-1.6,0.2-3.4,1.6-4.2l8.1-4.6c1.3-0.8,3-0.1,3.5,1.4l4.6,13.9
					c0.3,1-0.1,2.1-1,2.6l-9.3,5.3C649.8,380.9,648.2,380.3,647.8,378.9z"/>
				<path class="st13" d="M664.9,369.3l-4.3-13.1c-0.5-1.6,0.2-3.4,1.6-4.2l8.1-4.6c1.3-0.8,3-0.1,3.5,1.4l4.6,13.9
					c0.3,1-0.1,2.1-1,2.6l-9.3,5.3C666.9,371.3,665.4,370.7,664.9,369.3z"/>
				<path class="st13" d="M682,359.7l-4.3-13.1c-0.5-1.6,0.2-3.4,1.6-4.2l8.1-4.6c1.3-0.8,3-0.1,3.5,1.4l4.6,13.9
					c0.3,1-0.1,2.1-1,2.6l-9.3,5.3C684,361.6,682.4,361,682,359.7z"/>
				<path class="st13" d="M698.9,350.2l-4.3-13.1c-0.5-1.6,0.2-3.4,1.6-4.2l8.1-4.6c1.3-0.8,3-0.1,3.5,1.4l4.6,13.9
					c0.3,1-0.1,2.1-1,2.6l-9.3,5.3C700.9,352.1,699.4,351.5,698.9,350.2z"/>
				<path class="st13" d="M716.1,340.4l-4.3-13.1c-0.5-1.6,0.2-3.4,1.6-4.2l8.1-4.6c1.3-0.8,3-0.1,3.5,1.4l4.6,13.9
					c0.3,1-0.1,2.1-1,2.6l-9.3,5.3C718.1,342.3,716.6,341.7,716.1,340.4z"/>
			</g>
			<g>
				<path class="st13" d="M621.9,420.3l-4.3-13.1c-0.5-1.6,0.2-3.4,1.6-4.2l8.1-4.6c1.3-0.8,3-0.1,3.5,1.4l4.6,13.9
					c0.3,1-0.1,2.1-1,2.6l-9.3,5.3C623.8,422.2,622.3,421.6,621.9,420.3z"/>
				<path class="st13" d="M638.9,410.8l-4.3-13.1c-0.5-1.6,0.2-3.4,1.6-4.2l8.1-4.6c1.3-0.8,3-0.1,3.5,1.4l4.6,13.9
					c0.3,1-0.1,2.1-1,2.6l-9.3,5.3C640.9,412.8,639.4,412.2,638.9,410.8z"/>
				<path class="st13" d="M655.8,401.4l-4.3-13.1c-0.5-1.6,0.2-3.4,1.6-4.2l8.1-4.6c1.3-0.8,3-0.1,3.5,1.4l4.6,13.9
					c0.3,1-0.1,2.1-1,2.6l-9.3,5.3C657.7,403.3,656.2,402.7,655.8,401.4z"/>
				<path class="st13" d="M672.9,391.7l-4.3-13.1c-0.5-1.6,0.2-3.4,1.6-4.2l8.1-4.6c1.3-0.8,3-0.1,3.5,1.4l4.6,13.9
					c0.3,1-0.1,2.1-1,2.6l-9.3,5.3C674.9,393.7,673.3,393.1,672.9,391.7z"/>
				<path class="st13" d="M690,382.1l-4.3-13.1c-0.5-1.6,0.2-3.4,1.6-4.2l8.1-4.6c1.3-0.8,3-0.1,3.5,1.4l4.6,13.9
					c0.3,1-0.1,2.1-1,2.6l-9.3,5.3C691.9,384,690.4,383.5,690,382.1z"/>
				<path class="st13" d="M706.9,372.6l-4.3-13.1c-0.5-1.6,0.2-3.4,1.6-4.2l8.1-4.6c1.3-0.8,3-0.1,3.5,1.4l4.6,13.9
					c0.3,1-0.1,2.1-1,2.6l-9.3,5.3C708.9,374.5,707.3,373.9,706.9,372.6z"/>
				<path class="st13" d="M724.1,362.8l-4.3-13.1c-0.5-1.6,0.2-3.4,1.6-4.2l8.1-4.6c1.3-0.8,3-0.1,3.5,1.4l4.6,13.9
					c0.3,1-0.1,2.1-1,2.6l-9.3,5.3C726.1,364.7,724.6,364.1,724.1,362.8z"/>
			</g>
			<g>
				<path class="st13" d="M629.5,442.5l-4.3-13.1c-0.5-1.6,0.2-3.4,1.6-4.2l8.1-4.6c1.3-0.8,3-0.1,3.5,1.4l4.6,13.9
					c0.3,1-0.1,2.1-1,2.6l-9.3,5.3C631.5,444.4,629.9,443.8,629.5,442.5z"/>
				<path class="st13" d="M646.6,433.1l-4.3-13.1c-0.5-1.6,0.2-3.4,1.6-4.2l8.1-4.6c1.3-0.8,3-0.1,3.5,1.4l4.6,13.9
					c0.3,1-0.1,2.1-1,2.6l-9.3,5.3C648.5,435,647,434.4,646.6,433.1z"/>
				<path class="st13" d="M663.4,423.6l-4.3-13.1c-0.5-1.6,0.2-3.4,1.6-4.2l8.1-4.6c1.3-0.8,3-0.1,3.5,1.4L677,417
					c0.3,1-0.1,2.1-1,2.6l-9.3,5.3C665.4,425.5,663.8,424.9,663.4,423.6z"/>
				<path class="st13" d="M680.5,414l-4.3-13.1c-0.5-1.6,0.2-3.4,1.6-4.2l8.1-4.6c1.3-0.8,3-0.1,3.5,1.4l4.6,13.9
					c0.3,1-0.1,2.1-1,2.6l-9.3,5.3C682.5,415.9,681,415.3,680.5,414z"/>
				<path class="st13" d="M697.6,404.4l-4.3-13.1c-0.5-1.6,0.2-3.4,1.6-4.2l8.1-4.6c1.3-0.8,3-0.1,3.5,1.4l4.6,13.9
					c0.3,1-0.1,2.1-1,2.6l-9.3,5.3C699.6,406.3,698,405.7,697.6,404.4z"/>
				<path class="st13" d="M714.5,394.8l-4.3-13.1c-0.5-1.6,0.2-3.4,1.6-4.2l8.1-4.6c1.3-0.8,3-0.1,3.5,1.4l4.6,13.9
					c0.3,1-0.1,2.1-1,2.6l-9.3,5.3C716.5,396.7,715,396.1,714.5,394.8z"/>
				<path class="st13" d="M731.8,385l-4.3-13.1c-0.5-1.6,0.2-3.4,1.6-4.2l8.1-4.6c1.3-0.8,3-0.1,3.5,1.4l4.6,13.9
					c0.3,1-0.1,2.1-1,2.6l-9.3,5.3C733.7,386.9,732.2,386.3,731.8,385z"/>
			</g>
			<g>
				<path class="st13" d="M637.3,464.8l-4.3-13.1c-0.5-1.6,0.2-3.4,1.6-4.2l8.1-4.6c1.3-0.8,3-0.1,3.5,1.4l4.6,13.9
					c0.3,1-0.1,2.1-1,2.6l-9.3,5.3C639.3,466.7,637.7,466.1,637.3,464.8z"/>
				<path class="st13" d="M654.3,455.4l-4.3-13.1c-0.5-1.6,0.2-3.4,1.6-4.2l8.1-4.6c1.3-0.8,3-0.1,3.5,1.4l4.6,13.9
					c0.3,1-0.1,2.1-1,2.6l-9.3,5.3C656.3,457.3,654.8,456.7,654.3,455.4z"/>
				<path class="st13" d="M671.2,445.9l-4.3-13.1c-0.5-1.6,0.2-3.4,1.6-4.2l8.1-4.6c1.3-0.8,3-0.1,3.5,1.4l4.6,13.9
					c0.3,1-0.1,2.1-1,2.6l-9.3,5.3C673.2,447.8,671.6,447.2,671.2,445.9z"/>
				<path class="st13" d="M688.3,436.3l-4.3-13.1c-0.5-1.6,0.2-3.4,1.6-4.2l8.1-4.6c1.3-0.8,3-0.1,3.5,1.4l4.6,13.9
					c0.3,1-0.1,2.1-1,2.6l-9.3,5.3C690.3,438.2,688.8,437.6,688.3,436.3z"/>
				<path class="st13" d="M705.4,426.7l-4.3-13.1c-0.5-1.6,0.2-3.4,1.6-4.2l8.1-4.6c1.3-0.8,3-0.1,3.5,1.4l4.6,13.9
					c0.3,1-0.1,2.1-1,2.6l-9.3,5.3C707.4,428.6,705.8,428,705.4,426.7z"/>
				<path class="st13" d="M722.3,417.1L718,404c-0.5-1.6,0.2-3.4,1.6-4.2l8.1-4.6c1.3-0.8,3-0.1,3.5,1.4l4.6,13.9
					c0.3,1-0.1,2.1-1,2.6l-9.3,5.3C724.3,419,722.8,418.4,722.3,417.1z"/>
				<path class="st13" d="M739.5,407.3l-4.3-13.1c-0.5-1.6,0.2-3.4,1.6-4.2l8.1-4.6c1.3-0.8,3-0.1,3.5,1.4l4.6,13.9
					c0.3,1-0.1,2.1-1,2.6l-9.3,5.3C741.5,409.2,740,408.6,739.5,407.3z"/>
			</g>
		</g>
	</g>
	<path class="st14" d="M599.1,347.3"/>
</g>
<ellipse id="XMLID_00000181781693911171001110000008871913144119872386_" class="st15" cx="287.3" cy="498.6" rx="4.9" ry="2.7"/>
<ellipse id="XMLID_00000125597769297012365460000007556030996489542589_" class="st15" cx="295" cy="485.2" rx="10.6" ry="5.9"/>
</svg>
