<?xml version="1.0" encoding="utf-8"?>
<!-- Generator: Adobe Illustrator 26.0.3, SVG Export Plug-In . SVG Version: 6.00 Build 0)  -->
<svg version="1.1" id="Layer_1" xmlns="http://www.w3.org/2000/svg" xmlns:xlink="http://www.w3.org/1999/xlink" x="0px" y="0px"
	 viewBox="0 0 1000 1000" style="enable-background:new 0 0 1000 1000;" xml:space="preserve">
<style type="text/css">
	.st0{fill:#483538;}
	.st1{fill:#82BD54;}
	.st2{opacity:0.57;fill:#45A84D;enable-background:new    ;}
	.st3{fill:#086A38;}
	.st4{opacity:0.41;}
	.st5{fill:#040404;}
	.st6{fill:#45A84D;}
	.st7{opacity:0.2;fill:#040404;enable-background:new    ;}
	.st8{fill:#777A7E;}
	.st9{fill:#E5853B;}
	.st10{fill:#D54432;}
	.st11{fill:#F4C144;}
	.st12{fill:#FFFFFF;}
	.st13{fill:#414042;}
	.st14{fill:#565556;}
	.st15{fill:#C2C1C0;}
	.st16{fill:#5270B3;}
	.st17{fill:#374B9A;}
	.st18{fill:#90BBE3;}
	.st19{fill:#079247;}
</style>
<g>
	<polygon id="XMLID_00000127743893402164946570000005130207709685426599_" class="st0" points="774.8,593.1 520.1,735.4 
		265.7,593.1 265.7,498.6 519.8,645.2 774.3,498.6 	"/>
	<polygon id="XMLID_00000113333848166535571470000001712742237236828832_" class="st1" points="790.3,464.2 520.6,617.1 
		250.7,464.2 531,315 	"/>
	<path id="XMLID_00000060008653583232766790000016121083650032121789_" class="st2" d="M375.4,561.2"/>
	<polygon id="XMLID_00000161632697464276905450000003621283703322814345_" class="st3" points="680.7,592.4 665.5,583.9 
		665.5,557.8 681.6,557.8 	"/>
	<polygon id="XMLID_00000036955519021467333560000017808705297433174144_" class="st3" points="294.4,570.8 315.9,559.5 317,506.3 
		289.4,499.3 	"/>
	<g id="XMLID_00000147938829346193301870000013703781107851403654_" class="st4">
		<path id="XMLID_00000166657965740443531760000017454929201199927722_" class="st5" d="M686.5,596.5l-83.2,48.6
			c0,0-24.2,2.2-3.9-16.3l73.3-40.9L686.5,596.5z"/>
		<path id="XMLID_00000081623757544704516900000011442178896279105170_" class="st5" d="M413.4,626.1l-91.1-45.9
			c0,0-21.2-27.2,2.3-18.3l95.9,50.9L413.4,626.1z"/>
		<path id="XMLID_00000142869756482311913820000001202265070723509176_" class="st5" d="M265.7,576.9l75.6,44.8c0,0,14.9-3.8,0-16.7
			l-75.6-43.2V576.9z"/>
		<path id="XMLID_00000169559637727763024650000009577209474988718491_" class="st5" d="M496.6,669.8l-23.1-15.2c0,0-9.9-8.2,0-11.5
			l23.1,13.3C496.6,656.5,509.7,668.9,496.6,669.8z"/>
		<path id="XMLID_00000036944396461062486570000002409763414119132605_" class="st5" d="M643.1,648.8l32.6-16.7
			c0,0,9.3-11.1-0.4-10.6l-32.3,14.5C643.1,636.3,631.4,649.2,643.1,648.8z"/>
	</g>
	<polygon id="XMLID_00000091710394998606892370000009887723043072810941_" class="st3" points="358.6,585.7 373.3,575.7 
		373.3,554.2 353.6,545.2 	"/>
	<path id="XMLID_00000075126271468082875260000010891403404370547333_" class="st6" d="M250.7,489.6c0,0,0.9,48.4,4.3,55.8
		c2.5,5.4,10.8,49.3,39.4,25.6v-56.3c0,0,9-13.4,21.5,13.4v31.4c0,0,14.3,43.2,43,26v-45.7l-104.7-60.9L250.7,489.6z"/>
	<polygon id="XMLID_00000112620108670843897160000012658061365280088976_" class="st6" points="250.7,464.2 520.6,617.1 
		790.3,464.2 791,491.3 521.5,647 250.3,492.9 	"/>
	<path class="st6" d="M733,506.9l-79.3,48.9c0,0-1.4,14,11.1,8.4c12.5-5.6,16.9,6.1,16.9,6.1v22c17.9,21.3,41.2-22,41.2-22v-39.8
		c4-7.3,7.3-12,10.1-14.8V506.9z"/>
	<polygon id="XMLID_00000021840695708241864760000010142779477656083614_" class="st7" points="333,631.6 520.1,735.4 705.8,631.6 
		752.4,656.7 521.5,787.9 282.6,656.7 	"/>
	<path id="XMLID_00000065754865454999045110000011004182599610952334_" class="st8" d="M634.8,332.6"/>
</g>
<g>
	<g>
		<polygon class="st9" points="599.8,482.5 568.6,483.2 584.3,466.9 		"/>
		<g>
			<polygon class="st10" points="563.9,333.5 492.1,374.9 491.8,287.4 564.2,245.6 			"/>
			<polygon class="st9" points="492.1,374.9 487.5,372.4 486.7,284 491.8,287.4 			"/>
			<polygon class="st11" points="564.2,245.6 558.2,242.4 486.7,284 491.8,287.4 			"/>
		</g>
		<polygon class="st11" points="551,258.6 534.1,250.2 514,261.8 530.7,270.6 		"/>
		<polygon class="st10" points="530.7,270.6 530.7,274.6 514,265.4 514,261.8 		"/>
		<path class="st10" d="M647.4,457.1l-40.5,23.4c-10,5.8-22.6-1.4-22.6-13V331.1l72.4-41.8l0.7,150.4
			C657.4,446.9,653.5,453.5,647.4,457.1z"/>
		<path class="st9" d="M563.3,481.5l-37.8-21.7c0,0-10.8-40.1-23.7-13.9l0.1-159.3l82.4,44.6v138.2
			C584.3,480.1,572.6,486.8,563.3,481.5z"/>
		<polygon class="st11" points="656.7,289.3 584.3,331.1 501.9,286.5 576.1,244.1 		"/>
		<polygon class="st10" points="648.6,289.2 583.7,326.6 509.9,286.6 576.5,248.7 		"/>
		<polygon class="st9" points="576.5,248.7 576.5,322.7 583.7,326.6 648.6,289.2 		"/>
		<polygon class="st12" points="623.9,392 637.5,384.2 641.9,373.8 635.7,365.2 638.3,361 629.9,363.9 626.6,375.2 629.4,372.5 
			634,377.7 623.9,383.3 		"/>
		<polygon class="st12" points="629.6,358.1 625.5,365.1 620.9,361 617,370.5 619.6,370.5 610.5,377.7 607.5,369.6 610.9,370.1 
			616.4,354 623.6,350.2 		"/>
		<polygon class="st12" points="616.3,385 616.3,388.6 608.3,393.2 613,380.4 606.2,380.3 599.7,397.3 603.9,403.5 616.3,396.3 
			616.4,399.5 621.8,388.5 		"/>
		<g>
			<ellipse transform="matrix(0.866 -0.5 0.5 0.866 -154.4306 316.4453)" class="st13" cx="513.3" cy="446.4" rx="12.8" ry="18.5"/>
			<polygon class="st13" points="514.8,466.3 522.5,462.5 516.2,462.7 			"/>
			<path class="st13" d="M496.8,434c0.5-0.3,8.9-4.5,8.9-4.5l3.2,2.2l-11,4.5L496.8,434z"/>
			<ellipse transform="matrix(0.866 -0.5 0.5 0.866 -157.0331 313.5402)" class="st14" cx="506.6" cy="449.8" rx="12.8" ry="18.5"/>
			<ellipse transform="matrix(0.866 -0.5 0.5 0.866 -157.4233 313.15)" class="st15" cx="505.6" cy="450.3" rx="9.2" ry="13.3"/>
			<ellipse transform="matrix(0.866 -0.5 0.5 0.866 -157.6619 313.2139)" class="st14" cx="505.6" cy="450.8" rx="3.5" ry="5"/>
		</g>
	</g>
	<polygon class="st16" points="506.7,537.3 475.5,538 491.2,521.6 	"/>
	<polygon class="st17" points="470.8,388.2 399,429.6 398.7,342.1 471.1,300.3 	"/>
	<polygon class="st16" points="399,429.6 394.4,427.1 393.6,338.7 398.7,342.1 	"/>
	<polygon class="st17" points="437.6,325.3 437.6,329.3 420.9,320.1 420.9,316.6 	"/>
	<path class="st17" d="M554.3,511.8l-40.5,23.4c-10,5.8-22.6-1.4-22.6-13V385.8l72.4-41.8l0.7,150.4
		C564.3,501.6,560.4,508.2,554.3,511.8z"/>
	<path class="st16" d="M471.2,536l-38-21.3c0,0-11.2-40-23.9-13.6l-0.5-159.7l82.4,44.6l0.9,137.8
		C492.1,534.4,480.6,541.2,471.2,536z"/>
	<polygon class="st18" points="483,298.8 457.8,313.2 452.9,310.8 471.1,300.3 465.1,297.1 446.8,307.8 441,304.9 420.9,316.6 
		426.5,319.5 393.6,338.7 398.7,342.1 432.4,322.6 437.1,325.1 408.8,341.2 491.2,385.8 563.5,344 	"/>
	<polygon class="st17" points="555.5,343.9 490.6,381.3 416.8,341.3 483.4,303.4 	"/>
	<polygon class="st16" points="483.4,303.4 483.4,377.4 490.6,381.3 555.5,343.9 	"/>
	<polygon class="st12" points="530.8,446.7 544.4,438.9 548.8,428.5 542.6,419.9 545.2,415.7 536.8,418.6 533.5,429.9 536.3,427.2 
		540.9,432.4 530.8,438 	"/>
	<polygon class="st12" points="536.5,412.8 532.4,419.8 527.8,415.7 523.9,425.2 526.5,425.2 517.4,432.4 514.4,424.3 517.8,424.8 
		523.3,408.8 530.5,404.9 	"/>
	<polygon class="st12" points="523.2,439.7 523.2,443.3 515.2,447.9 519.9,435.1 513.1,435 506.6,452 510.8,458.2 523.2,451 
		523.3,454.3 528.7,443.2 	"/>
	<g>
		<ellipse transform="matrix(0.866 -0.5 0.5 0.866 -194.2591 277.2236)" class="st13" cx="420.2" cy="501.1" rx="12.8" ry="18.5"/>
		<polygon class="st13" points="421.7,521.1 429.4,517.2 423.1,517.4 		"/>
		<path class="st13" d="M403.7,488.8c0.5-0.3,8.9-4.5,8.9-4.5l3.2,2.2l-11,4.5L403.7,488.8z"/>
		<ellipse transform="matrix(0.866 -0.5 0.5 0.866 -196.8616 274.3185)" class="st14" cx="413.5" cy="504.5" rx="12.8" ry="18.5"/>
		<ellipse transform="matrix(0.866 -0.5 0.5 0.866 -197.2518 273.9283)" class="st15" cx="412.5" cy="505" rx="9.2" ry="13.3"/>
		<ellipse transform="matrix(0.866 -0.5 0.5 0.866 -197.4904 273.9923)" class="st14" cx="412.5" cy="505.5" rx="3.5" ry="5"/>
	</g>
</g>
<ellipse id="XMLID_00000023998105626723789390000001214509827131828921_" class="st19" cx="693.3" cy="486.4" rx="6.9" ry="3.9"/>
<ellipse id="XMLID_00000068664897770449038670000003530491062217811104_" class="st19" cx="704.3" cy="467.3" rx="15.1" ry="8.5"/>
</svg>
