<?xml version="1.0" encoding="utf-8"?>
<!-- Generator: Adobe Illustrator 26.0.3, SVG Export Plug-In . SVG Version: 6.00 Build 0)  -->
<svg version="1.1" id="Layer_1" xmlns="http://www.w3.org/2000/svg" xmlns:xlink="http://www.w3.org/1999/xlink" x="0px" y="0px"
	 viewBox="0 0 1000 1000" style="enable-background:new 0 0 1000 1000;" xml:space="preserve">
<style type="text/css">
	.st0{fill:#483538;}
	.st1{fill:#82BD54;}
	.st2{opacity:0.57;fill:#45A84D;enable-background:new    ;}
	.st3{fill:#086A38;}
	.st4{fill:#079247;}
	.st5{fill:#040404;}
	.st6{fill:#45A84D;}
	.st7{opacity:0.2;fill:#040404;enable-background:new    ;}
	.st8{fill:#525253;}
	.st9{fill:#FFFFFF;}
	.st10{fill:none;stroke:#D5A129;stroke-width:0.7;}
	.st11{fill:#F04E54;}
	.st12{fill:#E0E0E0;}
	.st13{fill:#F4F4F5;}
	.st14{fill:#DDDDDD;}
	.st15{fill:#E8E8E8;}
	.st16{fill:none;}
	.st17{fill:#BABABA;}
</style>
<g>
	<polygon id="XMLID_00000060725083840705529840000000193404579141068209_" class="st0" points="285.5,788.2 513.3,914.1 
		740.8,788.2 740.8,704.7 513.7,834.3 286,704.7 	"/>
	<polygon id="XMLID_00000054985978985504377430000008651256153141283718_" class="st1" points="271.8,674.2 512.9,809.4 
		754.3,674.2 503.6,542.3 	"/>
	<path id="XMLID_00000129926444849065633810000002593652104141372032_" class="st2" d="M642.7,760"/>
	<path id="XMLID_00000041261789445476563860000008580633234027136909_" class="st3" d="M311.2,775.7l20.8-12v-30.4
		c0,0-14.9-29.3-20.8-11.1V775.7z"/>
	<polygon id="XMLID_00000182520505190234702380000006140989209319586988_" class="st3" points="368.9,787.6 383.3,780.1 383.3,757 
		368.9,757 	"/>
	<polygon id="XMLID_00000139999669728099381410000017279128270547665819_" class="st3" points="715.2,768.5 695.9,758.6 695,711.5 
		719.6,705.3 	"/>
	<polygon id="XMLID_00000098907988729911771820000004527208653663862147_" class="st3" points="575.7,848.9 562.4,841 559.8,803.9 
		578.7,806.4 	"/>
	<ellipse id="XMLID_00000141455902522849152100000000776198672421243563_" class="st4" cx="564.4" cy="661.3" rx="10.7" ry="6"/>
	<ellipse id="XMLID_00000009578873547717434540000015298069531133510835_" class="st4" cx="600.4" cy="726.5" rx="7.4" ry="4.1"/>
	<path id="XMLID_00000130648379141566090080000006728194044217923512_" class="st5" d="M626.5,837.5l24-11.3c0,0,12.3-11.6,0-12.8
		l-24,12C626.5,825.6,613.7,840.2,626.5,837.5z"/>
	<path id="XMLID_00000178184864782110536830000005573645147231231146_" class="st5" d="M608.7,817.4l81.4-40.6
		c0,0,18.9-24.1-2.1-16.2l-85.8,45L608.7,817.4z"/>
	<path id="XMLID_00000005264925667044049230000011145856712641462160_" class="st5" d="M740.8,773.9l-67.6,39.6c0,0-13.3-3.3,0-14.7
		l67.6-38.2V773.9z"/>
	<path id="XMLID_00000129205059781171313960000002855220685725851303_" class="st5" d="M534.3,856l20.7-13.5c0,0,8.8-7.3,0-10.1
		l-20.7,11.7C534.3,844.3,522.6,855.2,534.3,856z"/>
	
		<ellipse id="XMLID_00000164516251776975059110000005754679318498475167_" transform="matrix(0.3561 -0.9344 0.9344 0.3561 -483.7152 998.4687)" class="st5" cx="482.6" cy="850.2" rx="5.1" ry="9"/>
	<polygon id="XMLID_00000043416070467900349300000016904464537708585612_" class="st3" points="657.8,781.7 644.6,772.8 
		644.6,753.8 662.3,745.9 	"/>
	<path id="XMLID_00000032642809461258841840000000002275958126558088_" class="st6" d="M657.4,756.8l-33,17.6c0,0-11.1,7.1-9.5,16.5
		c1.6,9.2,0,34.2,0,34.2s-12,37.4-39.3,23.8v-33.3c0,0,9.6-26.6-63.6,20.3l12.5-26.5l132.9-68.2V756.8z"/>
	<path id="XMLID_00000107563465543676125150000014472467319291419820_" class="st6" d="M754.3,696.7c0,0-0.8,42.8-3.8,49.3
		c-2.2,4.8-9.6,43.6-35.3,22.7v-49.8c0,0-8-11.9-19.2,11.9v27.7c0,0-12.8,38.2-38.5,23v-40.4l93.6-53.9L754.3,696.7z"/>
	<polygon id="XMLID_00000133491000964317858420000008944776284189909644_" class="st6" points="754.3,674.2 512.9,809.4 
		271.8,674.2 271.1,698.2 512,835.9 754.6,699.6 	"/>
	<path id="XMLID_00000150805121021513789050000004345066951887185290_" class="st6" d="M271.1,698.3V757c0,0,19.2,38.8,40.1,18.5
		v-53.4c0,0,4.8-18.5,20.8,10.8v35.2c0,0,20.8,38.4,36.9,19.5v-19.5c0,0,3.8-10.3,15.1-5.4c11.2,4.9,9.9-7.5,9.9-7.5L294,694.4
		L271.1,698.3z"/>
	<polyline class="st7" points="662.5,878.9 725.8,844.5 680,821.9 618.9,855.7 513.3,914.1 347.3,822.3 305.6,844.5 512,960.5 
		650.6,885.2 	"/>
</g>
<g>
	<path class="st8" d="M457.4,651.2L457.4,651.2l-0.1-7.8l-3.4,0c-5.5-6.2-17-10.5-30.2-10.5c-13.4,0-25,4.4-30.4,10.8l-3.4,0
		l0.1,8.1c0,0,0,0,0,0c0,0,0,0,0,0l0,0.4l0,0c0.4,10.3,15.3,18.5,33.7,18.5c18.6,0,33.7-8.5,33.7-18.9
		C457.5,651.6,457.4,651.4,457.4,651.2z"/>
	<ellipse id="XMLID_00000112615999784933244980000013504097118135445180_" class="st9" cx="423.6" cy="643.7" rx="33.7" ry="18.9"/>
	<g>
		<path class="st10" d="M425.1,329.5c0,0-55.3-81.8-24.3-81.8"/>
		<g>
			<path class="st11" d="M435.2,570.6l-0.1,0.1c-6.1,2.4-13.1,2.6-19.3,0.5l-1.6-0.5l-0.5,74.4l2.5,0.8c6.3,2.1,13.2,1.9,19.3-0.5
				l0.7-0.3L435.2,570.6z"/>
			<path class="st12" d="M435,570.7l0.1-0.1l-4.1-323l-14.7,0.6l-2.2,322.5l1.6,0.5C422,573.3,428.9,573.1,435,570.7z"/>
		</g>
		<polygon class="st9" points="412.6,244.5 412.4,203.1 448,224.5 460.2,234.8 460.1,258.6 		"/>
		<polygon class="st9" points="388.9,244.8 436.4,272.2 460.1,258.6 412.6,231.1 		"/>
		<polygon class="st13" points="388.9,244.8 388.7,216.9 424.3,238.2 436.5,248.5 436.4,272.2 		"/>
		<polygon class="st14" points="436.5,248.5 436.4,272.2 460.1,258.6 460.2,234.8 		"/>
		<polygon class="st12" points="388.7,216.9 412.4,203.1 448,224.5 424.3,238.2 		"/>
		<polygon class="st15" points="436.4,248.4 460.2,234.9 448.1,224.6 424.3,238.1 		"/>
		<g>
			<path class="st15" d="M468.9,256.4"/>
		</g>
		<g>
			<polygon class="st16" points="446.2,252.1 450.7,261 455.1,252.1 			"/>
			<path class="st12" d="M576.3,259.2l-81.5-24.8l-17.7,13.3l-22.1,4.4l-4.4,8.8l12,13.3l113.7,0.3
				C573.7,269.8,573.6,264,576.3,259.2z"/>
			<path class="st12" d="M424.1,269.8c0,0-60,82.8-85.8,119.9c3.3,0.9,6.1,3,8,5.8l82.2-86l4.4-26.5l17.7-22.1l-4.4-8.8L424.1,269.8
				z"/>
			<path class="st12" d="M468.4,221.2L456.7,81.4c-4.1,1.8-8.7,1.6-12.6-0.6c-3.6,38.8-6.7,140.3-6.7,140.3l8.8,31h8.8L468.4,221.2z
				"/>
			<path class="st11" d="M338.3,389.8c-6.3,9.1-10.6,15.4-11.5,17.2c-4.4,8.8,4.4,4.4,4.4,4.4l15.1-15.8
				C344.4,392.7,341.6,390.7,338.3,389.8z"/>
			<path class="st11" d="M456.7,81.4L455.1,62c0,0-4.4-4.4-8.8,4.4c-0.7,1.5-1.5,6.7-2.2,14.5C448,83,452.6,83.2,456.7,81.4z"/>
			<path class="st11" d="M596.6,265.4l-20.3-6.2c-2.7,4.8-2.7,10.6,0,15.3l11.4,0C592.7,274.4,596.6,270.3,596.6,265.4z"/>
		</g>
		<g>
			<ellipse class="st17" cx="448.6" cy="254.9" rx="3.6" ry="5.9"/>
			<polygon class="st17" points="454.7,248.9 448.5,249 448.5,260.8 454.7,260.8 			"/>
			<ellipse class="st15" cx="454.7" cy="254.9" rx="3.6" ry="5.9"/>
		</g>
	</g>
</g>
<g>
	<path class="st8" d="M661.6,650.5L661.6,650.5l-0.1-7.8l-3.4,0c-5.5-6.2-17-10.5-30.2-10.5c-13.4,0-25,4.4-30.4,10.8l-3.4,0
		l0.1,8.1c0,0,0,0,0,0c0,0,0,0,0,0l0,0.4l0,0c0.4,10.3,15.3,18.5,33.7,18.5c18.6,0,33.7-8.5,33.7-18.9
		C661.6,650.9,661.6,650.7,661.6,650.5z"/>
	<ellipse id="XMLID_00000070104765690325025920000005361237878053216187_" class="st9" cx="627.8" cy="643" rx="33.7" ry="18.9"/>
	<g>
		<path class="st10" d="M629.3,328.9c0,0-55.3-81.8-24.3-81.8"/>
		<g>
			<path class="st11" d="M639.4,570l-0.1,0.1c-6.1,2.4-13.1,2.6-19.3,0.5l-1.6-0.5l-0.5,74.4l2.5,0.8c6.3,2.1,13.2,1.9,19.3-0.5
				l0.7-0.3L639.4,570z"/>
			<path class="st12" d="M639.2,570.1l0.1-0.1l-4.1-323l-14.7,0.6L618.3,570l1.6,0.5C626.2,572.7,633.1,572.5,639.2,570.1z"/>
		</g>
		<polygon class="st9" points="616.8,243.9 616.6,202.5 652.2,223.9 664.4,234.1 664.3,257.9 		"/>
		<polygon class="st9" points="593.1,244.1 640.6,271.6 664.3,257.9 616.8,230.5 		"/>
		<polygon class="st13" points="593.1,244.1 592.9,216.2 628.5,237.6 640.7,247.8 640.6,271.6 		"/>
		<polygon class="st14" points="640.7,247.8 640.6,271.6 664.3,257.9 664.4,234.1 		"/>
		<polygon class="st12" points="592.9,216.2 616.6,202.5 652.2,223.9 628.5,237.6 		"/>
		<polygon class="st15" points="640.6,247.8 664.4,234.3 652.3,223.9 628.5,237.5 		"/>
		<g>
			<path class="st15" d="M673.1,255.8"/>
		</g>
		<g>
			<polygon class="st16" points="650.4,251.5 654.8,260.3 659.3,251.5 			"/>
			<path class="st12" d="M780.5,258.6l-81.5-24.8l-17.7,13.3l-22.1,4.4l-4.4,8.8l12,13.3l113.7,0.3
				C777.9,269.1,777.8,263.3,780.5,258.6z"/>
			<path class="st12" d="M628.3,269.2c0,0-60,82.8-85.8,119.9c3.3,0.9,6.1,3,8,5.8l82.2-86l4.4-26.5l17.7-22.1l-4.4-8.8L628.3,269.2
				z"/>
			<path class="st12" d="M672.5,220.5L660.9,80.8c-4.1,1.8-8.7,1.6-12.6-0.6c-3.6,38.8-6.7,140.3-6.7,140.3l8.8,31h8.8L672.5,220.5z
				"/>
			<path class="st11" d="M542.5,389.1c-6.3,9.1-10.6,15.4-11.5,17.2c-4.4,8.8,4.4,4.4,4.4,4.4l15.1-15.8
				C548.6,392.1,545.7,390,542.5,389.1z"/>
			<path class="st11" d="M660.9,80.8l-1.6-19.4c0,0-4.4-4.4-8.8,4.4c-0.7,1.5-1.5,6.7-2.2,14.5C652.2,82.3,656.8,82.6,660.9,80.8z"
				/>
			<path class="st11" d="M800.8,264.8l-20.3-6.2c-2.7,4.8-2.7,10.6,0,15.3l11.4,0C796.9,273.7,800.8,269.7,800.8,264.8z"/>
		</g>
		<g>
			<ellipse class="st17" cx="652.8" cy="254.3" rx="3.6" ry="5.9"/>
			<polygon class="st17" points="658.9,248.3 652.7,248.3 652.7,260.2 658.9,260.2 			"/>
			<ellipse class="st15" cx="658.9" cy="254.2" rx="3.6" ry="5.9"/>
		</g>
	</g>
</g>
<g>
	<path class="st8" d="M536.6,751.5L536.6,751.5l-0.1-7.8l-3.4,0c-5.5-6.2-17-10.5-30.2-10.5c-13.4,0-25,4.4-30.4,10.8l-3.4,0
		l0.1,8.1c0,0,0,0,0,0c0,0,0,0,0,0l0,0.4l0,0c0.4,10.3,15.3,18.5,33.7,18.5c18.6,0,33.7-8.5,33.7-18.9
		C536.7,751.9,536.6,751.7,536.6,751.5z"/>
	<ellipse id="XMLID_00000116204891919034727810000002573000207799431863_" class="st9" cx="502.8" cy="744" rx="33.7" ry="18.9"/>
	<g>
		<path class="st10" d="M504.3,429.9c0,0-55.3-81.8-24.3-81.8"/>
		<g>
			<path class="st11" d="M514.4,671l-0.1,0.1c-6.1,2.4-13.1,2.6-19.3,0.5l-1.6-0.5l-0.5,74.4l2.5,0.8c6.3,2.1,13.2,1.9,19.3-0.5
				l0.7-0.3L514.4,671z"/>
			<path class="st12" d="M514.3,671l0.1-0.1l-4.1-323l-14.7,0.6L493.4,671l1.6,0.5C501.2,673.6,508.2,673.5,514.3,671z"/>
		</g>
		<polygon class="st9" points="491.8,344.9 491.6,303.5 527.2,324.9 539.5,335.1 539.4,358.9 		"/>
		<polygon class="st9" points="468.1,345.1 515.7,372.5 539.4,358.9 491.9,331.5 		"/>
		<polygon class="st13" points="468.1,345.1 467.9,317.2 503.5,338.6 515.7,348.8 515.7,372.5 		"/>
		<polygon class="st14" points="515.7,348.8 515.7,372.5 539.4,358.9 539.5,335.1 		"/>
		<polygon class="st12" points="467.9,317.2 491.6,303.5 527.2,324.9 503.5,338.6 		"/>
		<polygon class="st15" points="515.7,348.8 539.5,335.2 527.3,324.9 503.5,338.5 		"/>
		<g>
			<path class="st15" d="M548.2,356.7"/>
		</g>
		<g>
			<polygon class="st16" points="525.5,352.5 529.9,361.3 534.3,352.5 			"/>
			<path class="st12" d="M655.6,359.6l-81.5-24.8L556.4,348l-22.1,4.4l-4.4,8.8l12,13.3l113.7,0.3
				C652.9,370.1,652.9,364.3,655.6,359.6z"/>
			<path class="st12" d="M503.4,370.2c0,0-60,82.8-85.8,119.9c3.3,0.9,6.1,3,8,5.8l82.2-86l4.4-26.5l17.7-22.1l-4.4-8.8L503.4,370.2
				z"/>
			<path class="st12" d="M547.6,321.5l-11.6-139.8c-4.1,1.8-8.7,1.6-12.6-0.6c-3.6,38.8-6.7,140.3-6.7,140.3l8.8,31h8.8L547.6,321.5
				z"/>
			<path class="st11" d="M417.5,490.1c-6.3,9.1-10.6,15.4-11.5,17.2c-4.4,8.8,4.4,4.4,4.4,4.4l15.1-15.8
				C423.7,493.1,420.8,491,417.5,490.1z"/>
			<path class="st11" d="M535.9,181.8l-1.6-19.4c0,0-4.4-4.4-8.8,4.4c-0.7,1.5-1.5,6.7-2.2,14.5
				C527.2,183.3,531.9,183.5,535.9,181.8z"/>
			<path class="st11" d="M675.8,365.7l-20.3-6.2c-2.7,4.8-2.7,10.6,0,15.3l11.4,0C671.9,374.7,675.8,370.7,675.8,365.7z"/>
		</g>
		<g>
			<ellipse class="st17" cx="527.8" cy="355.2" rx="3.6" ry="5.9"/>
			<polygon class="st17" points="533.9,349.3 527.7,349.3 527.7,361.2 533.9,361.1 			"/>
			<ellipse class="st15" cx="533.9" cy="355.2" rx="3.6" ry="5.9"/>
		</g>
	</g>
</g>
</svg>
