<?xml version="1.0" encoding="utf-8"?>
<!-- Generator: Adobe Illustrator 19.0.0, SVG Export Plug-In . SVG Version: 6.00 Build 0)  -->
<svg version="1.1" id="Ebene_1" xmlns="http://www.w3.org/2000/svg" xmlns:xlink="http://www.w3.org/1999/xlink" x="0px" y="0px"
	 viewBox="0 0 256.8 158.8" style="enable-background:new 0 0 256.8 158.8;" xml:space="preserve">
<style type="text/css">
	.st0{fill:#fff;}
</style>
<g>
	<path class="st0" d="M8.6,126.6v-16H12c1.6,0,2.9,0.2,3.8,0.5c1,0.3,1.9,0.8,2.7,1.6c1.7,1.5,2.5,3.5,2.5,5.9c0,2.5-0.9,4.4-2.6,6
		c-0.9,0.8-1.8,1.3-2.7,1.6c-0.9,0.3-2.1,0.4-3.8,0.4H8.6z M11,124.3h1.1c1.1,0,2-0.1,2.7-0.3c0.7-0.2,1.4-0.6,1.9-1.2
		c1.2-1.1,1.8-2.5,1.8-4.2c0-1.8-0.6-3.2-1.8-4.3c-1.1-1-2.6-1.5-4.7-1.5H11V124.3z"/>
	<path class="st0" d="M23.2,112.3c0-0.4,0.1-0.8,0.4-1.1c0.3-0.3,0.7-0.4,1.1-0.4c0.4,0,0.8,0.1,1.1,0.4c0.3,0.3,0.4,0.6,0.4,1.1
		s-0.1,0.8-0.4,1.1c-0.3,0.3-0.6,0.4-1.1,0.4c-0.4,0-0.8-0.1-1.1-0.4C23.4,113.1,23.2,112.7,23.2,112.3z M25.9,116.5v10.1h-2.3
		v-10.1H25.9z"/>
	<path class="st0" d="M38.6,126.3c0,0.5,0,0.9,0,1.3c0,0.4-0.1,0.7-0.1,1c-0.2,0.8-0.5,1.4-1,2c-0.9,1-2.2,1.6-3.8,1.6
		c-1.3,0-2.5-0.4-3.3-1.1c-0.9-0.7-1.4-1.8-1.6-3.1h2.3c0.1,0.5,0.2,0.9,0.4,1.2c0.5,0.6,1.2,0.9,2.1,0.9c1.7,0,2.6-1,2.6-3.1v-1.4
		c-0.9,0.9-2,1.4-3.2,1.4c-1.4,0-2.5-0.5-3.4-1.5c-0.9-1-1.3-2.3-1.3-3.8c0-1.5,0.4-2.7,1.2-3.8c0.9-1.1,2.1-1.6,3.5-1.6
		c1.3,0,2.3,0.5,3.2,1.4v-1.1h2.3V126.3z M36.4,121.6c0-1-0.3-1.8-0.8-2.3c-0.5-0.6-1.2-0.9-2-0.9c-0.9,0-1.6,0.3-2.1,1
		c-0.5,0.6-0.7,1.3-0.7,2.3c0,0.9,0.2,1.7,0.7,2.3c0.5,0.6,1.2,1,2.1,1c0.9,0,1.6-0.3,2.1-1C36.1,123.2,36.4,122.5,36.4,121.6z"/>
	<path class="st0" d="M41.2,112.3c0-0.4,0.1-0.8,0.4-1.1c0.3-0.3,0.7-0.4,1.1-0.4c0.4,0,0.8,0.1,1.1,0.4c0.3,0.3,0.4,0.6,0.4,1.1
		s-0.1,0.8-0.4,1.1c-0.3,0.3-0.6,0.4-1.1,0.4c-0.4,0-0.8-0.1-1.1-0.4C41.3,113.1,41.2,112.7,41.2,112.3z M43.9,116.5v10.1h-2.3
		v-10.1H43.9z"/>
	<path class="st0" d="M49.2,118.7v7.9h-2.3v-7.9h-1v-2.2h1v-3.7h2.3v3.7H51v2.2H49.2z"/>
	<path class="st0" d="M60.2,116.5h2.3v10.1h-2.3v-1.1c-1,0.9-2,1.3-3.1,1.3c-1.4,0-2.5-0.5-3.5-1.5c-0.9-1-1.4-2.3-1.4-3.9
		c0-1.5,0.5-2.8,1.4-3.8c0.9-1,2-1.5,3.4-1.5c1.2,0,2.2,0.5,3.2,1.5V116.5z M54.7,121.5c0,1,0.3,1.8,0.8,2.4c0.5,0.6,1.2,0.9,2,0.9
		c0.9,0,1.6-0.3,2.1-0.9c0.5-0.6,0.8-1.4,0.8-2.3c0-0.9-0.3-1.7-0.8-2.3c-0.5-0.6-1.2-0.9-2.1-0.9c-0.8,0-1.5,0.3-2,0.9
		C55,119.8,54.7,120.6,54.7,121.5z"/>
	<path class="st0" d="M67.9,109.1v17.5h-2.3v-17.5H67.9z"/>
	<path class="st0" d="M80,122.1h-7.2c0.1,0.8,0.3,1.5,0.8,2c0.5,0.5,1.1,0.7,1.8,0.7c0.6,0,1.1-0.1,1.4-0.4c0.4-0.3,0.8-0.8,1.3-1.5
		l2,1.1c-0.3,0.5-0.6,1-1,1.3c-0.3,0.4-0.7,0.7-1.1,0.9c-0.4,0.2-0.8,0.4-1.3,0.5c-0.4,0.1-0.9,0.2-1.5,0.2c-1.5,0-2.7-0.5-3.6-1.5
		c-0.9-1-1.4-2.3-1.4-3.9c0-1.6,0.4-2.9,1.3-3.9c0.9-1,2.1-1.5,3.5-1.5c1.5,0,2.7,0.5,3.5,1.4c0.9,0.9,1.3,2.2,1.3,3.9L80,122.1z
		 M77.6,120.2c-0.3-1.2-1.1-1.9-2.4-1.9c-0.3,0-0.5,0-0.8,0.1c-0.2,0.1-0.5,0.2-0.7,0.4c-0.2,0.2-0.4,0.4-0.5,0.6
		c-0.1,0.2-0.3,0.5-0.3,0.8H77.6z"/>
	<path class="st0" d="M97.8,118.2h6.6v0.5c0,1.2-0.1,2.3-0.4,3.2c-0.3,0.9-0.7,1.7-1.4,2.4c-1.5,1.7-3.4,2.5-5.7,2.5
		c-2.2,0-4.2-0.8-5.8-2.4c-1.6-1.6-2.4-3.6-2.4-5.8c0-2.3,0.8-4.3,2.4-5.9c1.6-1.6,3.6-2.4,5.9-2.4c1.3,0,2.4,0.3,3.5,0.8
		c1,0.5,2.1,1.3,3.1,2.5l-1.7,1.6c-1.3-1.7-2.9-2.6-4.8-2.6c-1.7,0-3.1,0.6-4.3,1.8c-1.1,1.1-1.7,2.6-1.7,4.3c0,1.8,0.6,3.3,1.9,4.4
		c1.2,1.1,2.5,1.6,3.9,1.6c1.2,0,2.3-0.4,3.2-1.2c0.9-0.8,1.5-1.8,1.6-2.9h-4V118.2z"/>
	<path class="st0" d="M107,116.5h2.3v0.9c0.4-0.4,0.8-0.8,1.1-0.9c0.3-0.2,0.7-0.3,1.2-0.3c0.6,0,1.3,0.2,1.9,0.6l-1.1,2.1
		c-0.4-0.3-0.9-0.5-1.3-0.5c-1.3,0-1.9,1-1.9,2.9v5.2H107V116.5z"/>
	<path class="st0" d="M117.2,116.5v5.8c0,1.7,0.7,2.5,2,2.5c1.3,0,2-0.8,2-2.5v-5.8h2.3v5.8c0,0.8-0.1,1.5-0.3,2.1
		c-0.2,0.5-0.5,1-1,1.4c-0.8,0.7-1.8,1-3,1c-1.2,0-2.2-0.3-3-1c-0.5-0.4-0.8-0.9-1-1.4c-0.2-0.5-0.3-1.2-0.3-2.1v-5.8H117.2z
		 M115.6,113.3c0-0.4,0.1-0.7,0.4-1c0.3-0.3,0.6-0.4,1-0.4c0.4,0,0.8,0.1,1,0.4c0.3,0.3,0.4,0.6,0.4,1c0,0.4-0.1,0.8-0.4,1.1
		c-0.3,0.3-0.7,0.4-1,0.4c-0.4,0-0.8-0.1-1.1-0.4C115.7,114,115.6,113.7,115.6,113.3z M119.9,113.3c0-0.4,0.1-0.7,0.4-1
		c0.3-0.3,0.6-0.4,1-0.4c0.4,0,0.8,0.1,1,0.4c0.3,0.3,0.4,0.6,0.4,1c0,0.4-0.1,0.8-0.4,1.1c-0.3,0.3-0.7,0.4-1,0.4
		c-0.4,0-0.8-0.1-1-0.4C120.1,114,119.9,113.7,119.9,113.3z"/>
	<path class="st0" d="M126.5,116.5h2.3v0.9c0.8-0.8,1.7-1.2,2.8-1.2c1.2,0,2.1,0.4,2.7,1.1c0.6,0.6,0.8,1.7,0.8,3.1v6.2h-2.3v-5.6
		c0-1-0.1-1.7-0.4-2.1c-0.3-0.4-0.8-0.6-1.5-0.6c-0.8,0-1.3,0.3-1.6,0.8c-0.3,0.5-0.5,1.4-0.5,2.6v4.9h-2.3V116.5z"/>
	<path class="st0" d="M145.5,109.1h2.3v17.5h-2.3v-1.1c-0.9,0.9-2,1.3-3.1,1.3c-1.4,0-2.5-0.5-3.4-1.5c-0.9-1-1.4-2.3-1.4-3.9
		c0-1.5,0.5-2.8,1.4-3.8c0.9-1,2-1.5,3.4-1.5c1.2,0,2.2,0.5,3.2,1.5V109.1z M140,121.5c0,1,0.3,1.8,0.8,2.4c0.5,0.6,1.2,0.9,2,0.9
		c0.9,0,1.6-0.3,2.1-0.9c0.5-0.6,0.8-1.4,0.8-2.3c0-0.9-0.3-1.7-0.8-2.3c-0.5-0.6-1.2-0.9-2.1-0.9c-0.8,0-1.5,0.3-2,0.9
		C140.3,119.8,140,120.6,140,121.5z"/>
	<path class="st0" d="M160,122.1h-7.2c0.1,0.8,0.3,1.5,0.8,2c0.5,0.5,1.1,0.7,1.8,0.7c0.6,0,1.1-0.1,1.4-0.4
		c0.4-0.3,0.8-0.8,1.3-1.5l2,1.1c-0.3,0.5-0.6,1-1,1.3c-0.3,0.4-0.7,0.7-1.1,0.9s-0.8,0.4-1.3,0.5c-0.4,0.1-0.9,0.2-1.5,0.2
		c-1.5,0-2.7-0.5-3.6-1.5c-0.9-1-1.4-2.3-1.4-3.9c0-1.6,0.4-2.9,1.3-3.9c0.9-1,2.1-1.5,3.5-1.5c1.5,0,2.7,0.5,3.5,1.4
		c0.9,0.9,1.3,2.2,1.3,3.9L160,122.1z M157.6,120.2c-0.3-1.2-1.1-1.9-2.4-1.9c-0.3,0-0.5,0-0.8,0.1c-0.2,0.1-0.5,0.2-0.7,0.4
		c-0.2,0.2-0.4,0.4-0.5,0.6c-0.1,0.2-0.3,0.5-0.3,0.8H157.6z"/>
	<path class="st0" d="M162.6,116.5h2.3v0.9c0.4-0.4,0.8-0.8,1.1-0.9c0.3-0.2,0.7-0.3,1.2-0.3c0.6,0,1.3,0.2,1.9,0.6l-1.1,2.1
		c-0.4-0.3-0.9-0.5-1.3-0.5c-1.3,0-1.9,1-1.9,2.9v5.2h-2.3V116.5z"/>
	<path class="st0" d="M170.5,112.3c0-0.4,0.1-0.8,0.4-1.1c0.3-0.3,0.7-0.4,1.1-0.4c0.4,0,0.8,0.1,1.1,0.4c0.3,0.3,0.4,0.6,0.4,1.1
		s-0.1,0.8-0.4,1.1c-0.3,0.3-0.6,0.4-1.1,0.4c-0.4,0-0.8-0.1-1.1-0.4C170.6,113.1,170.5,112.7,170.5,112.3z M173.2,116.5v10.1h-2.3
		v-10.1H173.2z"/>
	<path class="st0" d="M176.1,116.5h2.3v0.9c0.8-0.8,1.7-1.2,2.8-1.2c1.2,0,2.1,0.4,2.7,1.1c0.6,0.6,0.8,1.7,0.8,3.1v6.2h-2.3v-5.6
		c0-1-0.1-1.7-0.4-2.1c-0.3-0.4-0.8-0.6-1.5-0.6c-0.8,0-1.3,0.3-1.6,0.8c-0.3,0.5-0.5,1.4-0.5,2.6v4.9h-2.3V116.5z"/>
	<path class="st0" d="M187.4,112.3c0-0.4,0.1-0.8,0.4-1.1c0.3-0.3,0.7-0.4,1.1-0.4c0.4,0,0.8,0.1,1.1,0.4c0.3,0.3,0.4,0.6,0.4,1.1
		s-0.1,0.8-0.4,1.1c-0.3,0.3-0.6,0.4-1.1,0.4c-0.4,0-0.8-0.1-1.1-0.4C187.5,113.1,187.4,112.7,187.4,112.3z M190.1,116.5v10.1h-2.3
		v-10.1H190.1z"/>
	<path class="st0" d="M195.4,118.7v7.9h-2.3v-7.9h-1v-2.2h1v-3.7h2.3v3.7h1.8v2.2H195.4z"/>
	<path class="st0" d="M198.5,112.3c0-0.4,0.1-0.8,0.4-1.1c0.3-0.3,0.7-0.4,1.1-0.4c0.4,0,0.8,0.1,1.1,0.4c0.3,0.3,0.4,0.6,0.4,1.1
		s-0.1,0.8-0.4,1.1c-0.3,0.3-0.6,0.4-1.1,0.4c-0.4,0-0.8-0.1-1.1-0.4C198.6,113.1,198.5,112.7,198.5,112.3z M201.2,116.5v10.1h-2.3
		v-10.1H201.2z"/>
	<path class="st0" d="M211.5,116.5h2.3v10.1h-2.3v-1.1c-1,0.9-2,1.3-3.1,1.3c-1.4,0-2.5-0.5-3.5-1.5c-0.9-1-1.4-2.3-1.4-3.9
		c0-1.5,0.5-2.8,1.4-3.8c0.9-1,2-1.5,3.4-1.5c1.2,0,2.2,0.5,3.2,1.5V116.5z M206,121.5c0,1,0.3,1.8,0.8,2.4c0.5,0.6,1.2,0.9,2,0.9
		c0.9,0,1.6-0.3,2.1-0.9c0.5-0.6,0.8-1.4,0.8-2.3c0-0.9-0.3-1.7-0.8-2.3c-0.5-0.6-1.2-0.9-2.1-0.9c-0.8,0-1.5,0.3-2,0.9
		C206.3,119.8,206,120.6,206,121.5z"/>
	<path class="st0" d="M219.2,118.7v7.9h-2.3v-7.9h-1v-2.2h1v-3.7h2.3v3.7h1.8v2.2H219.2z"/>
	<path class="st0" d="M222.3,112.3c0-0.4,0.1-0.8,0.4-1.1c0.3-0.3,0.7-0.4,1.1-0.4c0.4,0,0.8,0.1,1.1,0.4c0.3,0.3,0.4,0.6,0.4,1.1
		s-0.1,0.8-0.4,1.1c-0.3,0.3-0.6,0.4-1.1,0.4c-0.4,0-0.8-0.1-1.1-0.4C222.4,113.1,222.3,112.7,222.3,112.3z M225,116.5v10.1h-2.3
		v-10.1H225z"/>
	<path class="st0" d="M229.2,116.5l2.6,5.7l2.6-5.7h2.6l-5.2,10.8l-5.2-10.8H229.2z"/>
	<path class="st0" d="M247.4,122.1h-7.2c0.1,0.8,0.3,1.5,0.8,2c0.5,0.5,1.1,0.7,1.8,0.7c0.6,0,1.1-0.1,1.4-0.4
		c0.4-0.3,0.8-0.8,1.3-1.5l2,1.1c-0.3,0.5-0.6,1-1,1.3c-0.3,0.4-0.7,0.7-1.1,0.9s-0.8,0.4-1.3,0.5c-0.4,0.1-0.9,0.2-1.5,0.2
		c-1.5,0-2.7-0.5-3.6-1.5c-0.9-1-1.4-2.3-1.4-3.9c0-1.6,0.4-2.9,1.3-3.9c0.9-1,2.1-1.5,3.5-1.5c1.5,0,2.7,0.5,3.5,1.4
		c0.9,0.9,1.3,2.2,1.3,3.9L247.4,122.1z M245,120.2c-0.3-1.2-1.1-1.9-2.4-1.9c-0.3,0-0.5,0-0.8,0.1c-0.2,0.1-0.5,0.2-0.7,0.4
		c-0.2,0.2-0.4,0.4-0.5,0.6c-0.1,0.2-0.3,0.5-0.3,0.8H245z"/>
</g>
<g>
	<path class="st0" d="M89,142.3c0-2.2,0.8-4.2,2.5-5.8c1.6-1.6,3.6-2.4,5.9-2.4c2.3,0,4.2,0.8,5.9,2.4c1.6,1.6,2.5,3.6,2.5,5.9
		c0,2.3-0.8,4.2-2.5,5.8c-1.6,1.6-3.6,2.4-6,2.4c-2.1,0-3.9-0.7-5.6-2.1C89.9,146.9,89,144.8,89,142.3z M91.5,142.3
		c0,1.8,0.6,3.2,1.8,4.4c1.2,1.1,2.5,1.7,4.1,1.7c1.7,0,3.1-0.6,4.2-1.7c1.2-1.2,1.7-2.6,1.7-4.3c0-1.7-0.6-3.1-1.7-4.3
		c-1.1-1.2-2.5-1.7-4.2-1.7c-1.7,0-3.1,0.6-4.2,1.7C92,139.2,91.5,140.6,91.5,142.3z"/>
	<path class="st0" d="M114.4,150.3v-16h2.4c1.1,0,1.9,0.1,2.6,0.2c0.6,0.2,1.2,0.4,1.6,0.8c0.4,0.4,0.8,0.9,1.1,1.5
		c0.3,0.6,0.4,1.2,0.4,1.9c0,1.1-0.4,2.1-1.3,2.9c0.8,0.3,1.5,0.8,2,1.5c0.5,0.7,0.7,1.6,0.7,2.5c0,1.2-0.4,2.3-1.3,3.2
		c-0.5,0.5-1.1,0.9-1.8,1.1c-0.7,0.2-1.6,0.3-2.7,0.3H114.4z M116.8,141.2h0.8c0.9,0,1.6-0.2,2-0.6c0.4-0.4,0.6-1,0.6-1.8
		c0-0.8-0.2-1.3-0.6-1.7c-0.4-0.4-1-0.6-1.9-0.6h-0.8V141.2z M116.8,148.1h1.5c1.1,0,1.9-0.2,2.4-0.6c0.5-0.5,0.8-1,0.8-1.8
		c0-0.7-0.3-1.3-0.8-1.7c-0.5-0.5-1.4-0.7-2.7-0.7h-1.2V148.1z"/>
	<path class="st0" d="M141.3,136.6h-6.4v3.8h6.2v2.3h-6.2v5.3h6.4v2.3h-8.8v-16h8.8V136.6z"/>
	<path class="st0" d="M155.4,143.5l4.9,6.8h-3l-4.6-6.5h-0.4v6.5H150v-16h2.8c2.1,0,3.6,0.4,4.6,1.2c1,0.9,1.6,2,1.6,3.5
		c0,1.1-0.3,2.1-1,2.9C157.3,142.8,156.5,143.3,155.4,143.5z M152.4,141.7h0.8c2.3,0,3.4-0.9,3.4-2.6c0-1.6-1.1-2.5-3.3-2.5h-0.9
		V141.7z"/>
	<path class="st0" d="M170.8,143.8v6.5h-2.4v-16h2.7c1.3,0,2.3,0.1,3,0.3c0.7,0.2,1.3,0.5,1.8,1.1c0.9,0.9,1.4,2,1.4,3.4
		c0,1.5-0.5,2.6-1.5,3.5c-1,0.9-2.3,1.3-4,1.3H170.8z M170.8,141.6h0.9c2.2,0,3.3-0.9,3.3-2.6c0-1.6-1.1-2.5-3.4-2.5h-0.8V141.6z"/>
	<path class="st0" d="M193.4,136.6h-5.6v3.8h5.4v2.3h-5.4v7.6h-2.4v-16h8V136.6z"/>
	<path class="st0" d="M210.1,146.5h-6.8l-1.8,3.9h-2.6l7.9-17l7.6,17h-2.6L210.1,146.5z M209.1,144.2l-2.4-5.4l-2.5,5.4H209.1z"/>
	<path class="st0" d="M224.4,134.4v13.7h4.7v2.3H222v-16H224.4z"/>
	<path class="st0" d="M239.7,148.1h7.7v2.3h-11.6l7.8-13.7H237v-2.3h10.5L239.7,148.1z"/>
</g>
<g>
	<path class="st0" d="M114.3,47.7H137c12.5,0,18.1,3.2,18.1,11.8v6.4c0,8.3-3.9,12.2-16.4,12.2h-24.3V47.7z M126.3,71h10.5
		c4.4,0,6-2,6-5.2v-6.4c0-3.9-1.9-4.7-6-4.7h-10.5V71z"/>
	<path class="st0" d="M189.1,57.1c-0.2-3.1-4.1-3-7.7-3c-8.6,0-8.8,1.8-9,6.7v4.9c0,5.4,2.8,6,9,6c6.1,0,7.7-0.9,7.7-5.2h-8.2v-5.6
		h20.4v5.3c0,10.3-3.8,12.1-19.8,12.1c-14.1,0-21.3-1.6-21.3-11.5V59c0-10.1,8.1-11.6,21.3-11.6c11.6,0,19.8,0,19.8,9.7H189.1z"/>
	<path class="st0" d="M206.1,67.2v-8.6c0-9.4,8.6-11.2,20.7-11.2c12.1,0,20.7,1.8,20.7,11.2v8.6c0,9.4-8.6,11.2-20.7,11.2
		C214.7,78.3,206.1,76.6,206.1,67.2z M235.3,66.3v-6.9c0-4.5-2.2-4.9-8.4-4.9s-8.2,0.4-8.4,4.9v6.9c0.2,4.5,2.2,5,8.4,5
		S235.3,70.8,235.3,66.3z"/>
</g>
<g>
	<g>
		<path class="st0" d="M37.4,15.2l2.1,8.3l4.4,2.9c0.8-0.7,1.8-1.1,2.9-1.2l1.8-11.7L37.4,15.2z"/>
		<path class="st0" d="M49.4,34.8l2.7,12.4c0,0,0.1,0,0.1,0c1.5,0,2.9,0.6,4,1.5l17.5-14l-2.5-5.2l-19,0.8
			C52.2,32.2,51.1,33.9,49.4,34.8z"/>
		<path class="st0" d="M49,81.4c-0.6-0.7-0.9-1.6-0.9-2.5c0-0.1,0-0.2,0-0.2l-16.6-6.2c-0.4,0.5-0.8,0.9-1.3,1.2L33,85.1l2.7,0.7
			l6.8,2.1l2.6-0.4L49,81.4z"/>
		<path class="st0" d="M28,74.1c-1.4-0.1-2.6-0.8-3.3-1.9l-10.1,3.1l3.3,5.5l6.4-0.9l2.5,8l3.8-2.7L28,74.1z"/>
		<path class="st0" d="M89.3,75.1l5.7-1.4c0,0,2.9,3.6,2.9,3.8c0,0.1,3.1-5.1,3.1-5.1L90.4,59.9l-4.7-0.1l-4.4-9.2l-2.4,10
			c1.8,0.9,3.1,2.8,3.1,5c0,1.1-0.3,2.1-0.8,2.9l6.9,6.7"/>
		<path class="st0" d="M67.4,86.3L56,79.8c0.1-0.3,0.1-0.6,0.1-0.9c0-0.3,0-0.5-0.1-0.8l16.5-8.9c1,1.2,2.5,1.9,4.2,1.9
			c1.1,0,2.2-0.3,3-0.9l5.6,5.4l-9,1.2L69,80.1L67.4,86.3z"/>
		<path class="st0" d="M28,65.6c0.1,0,0.1,0,0.2,0c1,0,2,0.4,2.7,1l15.7-10.8c-0.3-0.7-0.4-1.4-0.5-2.1l-21.4-3.1l-0.9,2.8L28,65.6z
			"/>
	</g>
	<g>
		<path class="st0" d="M51,13.1l-1.9,12.4c1.1,0.5,2,1.3,2.6,2.4l19.1-0.8l0.8-8.4L68,16.9l0,0l0,0l1.5-2.7l-9.4-5.6l-1.6-0.9
			l-1.7,2.3L55,12.5L51,13.1z"/>
	</g>
	<path class="st0" d="M26.7,39.3l15.5-7.9c-0.1-0.4-0.2-0.8-0.2-1.2c0-0.7,0.1-1.3,0.4-1.9l-5.5-3.6L31.3,27l-5.9,5.4L26.7,39.3z"/>
	<g>
		<path class="st0" d="M24.3,46.4l1.1,1.9l0,0l21,3.1c0.6-1.6,1.8-2.9,3.3-3.6l-2.7-12.4c-1.5,0-2.8-0.7-3.7-1.8L24.7,43l-1.4,1.7
			L24.3,46.4L24.3,46.4z"/>
	</g>
	<path class="st0" d="M23.9,70C23.9,69.9,23.9,69.9,23.9,70c0-1.5,0.7-2.8,1.8-3.6l-4.1-12.2l-1.3-0.1l-5.5,7.1L10.2,61l-1.6,2.5
		l2.6,6.2l2.1,3.5L23.9,70z"/>
	<path class="st0" d="M49,76.5c0.5-0.6,1.2-1.1,2-1.4L51,59.4c-1.2-0.2-2.3-0.8-3.1-1.6L32.2,68.6c0.1,0.4,0.2,0.9,0.2,1.3
		c0,0.1,0,0.2,0,0.3L49,76.5z"/>
	<path class="st0" d="M71.4,67.1c-0.1-0.5-0.2-1-0.2-1.5c0-0.5,0.1-0.9,0.2-1.4l-14.2-7.2c-0.9,1.2-2.2,2-3.7,2.3l-0.1,15.7
		c0.6,0.2,1.1,0.5,1.6,0.9L71.4,67.1z"/>
	<path class="st0" d="M74.8,36.8L57.7,50.5c0.4,0.9,0.7,1.8,0.7,2.8c0,0.6-0.1,1.1-0.3,1.7l14.2,7.2c1-1.2,2.5-2.1,4.3-2.1
		c0,0,0.1,0,0.1,0l3-12.9L74.8,36.8z"/>
	<path class="st0" d="M66.9,88.7l-12.1-6.9c-0.7,0.7-1.7,1.1-2.7,1.1c-0.4,0-0.7-0.1-1.1-0.2l-3.4,5.2l4.6,5.4l0,0.1l0.1,0.1
		l-1.8,7.3l1.4,0.7l14-8.3L66.9,88.7z"/>
</g>
</svg>
