<?xml version="1.0" encoding="utf-8"?>
<!-- Generator: Adobe Illustrator 19.0.0, SVG Export Plug-In . SVG Version: 6.00 Build 0)  -->
<svg version="1.1" id="Ebene_1" xmlns="http://www.w3.org/2000/svg" xmlns:xlink="http://www.w3.org/1999/xlink" x="0px" y="0px"
	 viewBox="0 0 1020.3 793.7" style="enable-background:new 0 0 1020.3 793.7;" xml:space="preserve">
<style type="text/css">
	.st0{fill:#473437;}
	.st1{fill:#82BD53;}
	.st2{fill:#8F9194;}
	.st3{fill:#474649;}
	.st4{fill:#ADADB1;}
	.st5{fill:#D5D5D6;}
	.st6{fill:#C3C4C6;}
	.st7{fill:#747476;}
	.st8{fill:#97989A;}
	.st9{fill:#77797D;}
	.st10{opacity:0.49;fill:#515152;enable-background:new    ;}
	.st11{opacity:0.57;fill:#44A84E;enable-background:new    ;}
	.st12{fill:#056938;}
	.st13{fill:#F9B03D;}
	.st14{fill:#009245;}
	.st15{fill:#754D24;}
	.st16{fill:#48AE4D;}
	.st17{opacity:0.39;fill:#010202;enable-background:new    ;}
	.st18{fill:none;stroke:#747476;stroke-width:2;stroke-miterlimit:10;}
	.st19{fill:#FFFFFF;}
	.st20{font-family:'Roboto-Bold';}
	.st21{font-size:25.9211px;}
	.st22{opacity:0.41;}
	.st23{fill:#010202;}
	.st24{fill:#44A84E;}
	.st25{opacity:0.41;fill:#010202;enable-background:new    ;}
</style>
<polygon id="XMLID_574_" class="st0" points="368,536.7 510.1,616.1 652,536.7 652,484 510.3,565.8 368.3,484 "/>
<polygon id="XMLID_569_" class="st1" points="359.4,464.8 509.8,550.1 660.4,464.8 504,381.6 "/>
<g id="XMLID_564_">
	<g id="XMLID_488_">
		<polygon id="XMLID_540_" class="st2" points="567.5,278.3 542.2,265.8 506.2,244.8 520.3,236.7 578.5,267 		"/>
		<polygon id="XMLID_539_" class="st3" points="450.3,276.7 506.2,244.8 574.7,281.8 508.6,318 		"/>
		<polygon id="XMLID_537_" class="st2" points="529,230 529.2,256.9 543.2,264.8 543.1,237 		"/>
		<polygon id="XMLID_536_" class="st4" points="557,230 557.3,256.7 543.2,264.8 543,237 		"/>
		<polygon id="XMLID_535_" class="st5" points="543,223 529,230 543,237 557,230 		"/>
		<polygon id="XMLID_489_" class="st6" points="578.4,467.1 562.1,476.6 528,496.4 509.5,507.1 509.4,347.2 578.6,307.1 		"/>
		<polygon id="XMLID_490_" class="st4" points="440.7,467.1 509.5,507.1 509.6,347.2 440.4,307.1 		"/>
		<path id="XMLID_491_" class="st7" d="M578.5,308.4"/>
		<path id="XMLID_504_" class="st8" d="M450.3,276.7"/>
		<polygon id="XMLID_521_" class="st7" points="509.1,310 450.3,276.7 436.2,284.8 509.2,326.8 		"/>
		<polygon id="XMLID_522_" class="st2" points="567.8,277.4 508.8,310.6 509.2,326.8 581.9,284.9 		"/>
		<polygon id="XMLID_525_" class="st5" points="509,285 495,292 509,299 523,292 		"/>
		<polygon id="XMLID_526_" class="st5" points="546,264 532,271 546,278 560,271 		"/>
		<polygon id="XMLID_528_" class="st5" points="582,244 568,251 582,258 596,251 		"/>
		<path id="XMLID_538_" class="st8" d="M450.3,276.7"/>
		<polygon id="XMLID_492_" class="st2" points="495,292 494.8,318.4 509.2,326.8 509.1,299 		"/>
		<polygon id="XMLID_495_" class="st4" points="523,292 523.3,318.7 509.2,326.8 509,299 		"/>
		<polygon id="XMLID_501_" class="st2" points="532,271 531.8,297.4 546.2,305.4 546.1,278 		"/>
		<polygon id="XMLID_500_" class="st4" points="560,271 560.3,297.7 546.2,305.8 546,278 		"/>
		<polygon id="XMLID_503_" class="st2" points="568,251 567.8,277.4 582.2,285.8 582.1,258 		"/>
		<polygon id="XMLID_502_" class="st4" points="596,251 596,278.6 582.2,285.8 582,258 		"/>
		<g id="XMLID_1_">
			<polygon id="XMLID_4_" class="st2" points="492.2,236.9 437.2,268 450.3,276.7 470.2,265.8 506.2,244.8 			"/>
			<polygon id="XMLID_7_" class="st2" points="506.1,217 492,210 492.2,236.9 506.2,244.8 			"/>
		</g>
		<polygon id="XMLID_530_" class="st4" points="520,210 520.3,236.7 506.2,244.8 506,217 		"/>
		<polygon id="XMLID_529_" class="st5" points="506,203 492,210 506,217 520,210 		"/>
		<polygon id="XMLID_523_" class="st2" points="422.4,297 509.6,347.2 509.2,326.8 422.1,276.2 		"/>
		<polygon id="XMLID_542_" class="st4" points="509.6,347.2 595.7,297.6 596,276.8 509.2,326.8 		"/>
		<polygon id="XMLID_534_" class="st2" points="456,231 456.2,257.9 470.2,265.8 470.1,238 		"/>
		<polygon id="XMLID_533_" class="st4" points="484,231 484.3,257.7 470.2,265.8 470,238 		"/>
		<polygon id="XMLID_532_" class="st5" points="470,224 456,231 470,238 484,231 		"/>
		<polygon id="XMLID_497_" class="st2" points="457,270 456.8,296.4 471.2,304.8 471.1,277 		"/>
		<polygon id="XMLID_496_" class="st4" points="485,270 485.3,296.7 471.2,304.8 471,277 		"/>
		<polygon id="XMLID_524_" class="st5" points="471,263 457,270 471,277 485,270 		"/>
		<polygon id="XMLID_499_" class="st2" points="422,250 422.2,276.9 436.2,284.8 436.1,257 		"/>
		<polygon id="XMLID_498_" class="st4" points="450,250 450.3,276.7 436.2,284.8 436,257 		"/>
		<polygon id="XMLID_527_" class="st5" points="436,243 422,250 436,257 450,250 		"/>
	</g>
	<polygon id="XMLID_543_" class="st5" points="427.5,300 427.7,312.6 436.3,318.2 436.2,304.5 	"/>
	<polygon id="XMLID_545_" class="st9" points="452.2,314.2 436.2,304.5 436.3,318.2 446,335.8 452,333.5 	"/>
	<polygon id="XMLID_544_" class="st8" points="446,335.8 436.3,316.6 427.7,312.6 439,334.5 	"/>
	<polygon id="XMLID_549_" class="st5" points="455.5,316 455.7,328.6 464.3,334.2 464.2,320.5 	"/>
	<polygon id="XMLID_548_" class="st9" points="480.2,330.2 464.2,320.5 464.3,334.2 474,351.8 480,349.5 	"/>
	<polygon id="XMLID_547_" class="st8" points="474,351.8 464.3,332.6 455.7,328.6 467,350.5 	"/>
	<polygon id="XMLID_553_" class="st5" points="484.5,333 484.7,345.6 493.3,351.2 493.2,337.5 	"/>
	<polygon id="XMLID_552_" class="st9" points="509.6,347.2 493.2,337.5 493.3,351.2 503,368.8 509.6,366.5 	"/>
	<polygon id="XMLID_551_" class="st8" points="503,368.8 493.3,349.6 484.7,345.6 496,367.5 	"/>
	<g id="XMLID_554_">
		<polygon id="XMLID_557_" class="st5" points="534.6,333 534.4,345.6 525.8,351.2 526,337.5 		"/>
		<polygon id="XMLID_556_" class="st2" points="509.5,347.2 526,337.5 525.8,351.2 516.2,368.8 509.6,366.5 		"/>
		<polygon id="XMLID_555_" class="st8" points="516.2,368.8 525.8,349.6 534.4,345.6 523.1,367.5 		"/>
	</g>
	<polygon id="XMLID_560_" class="st5" points="590.6,301 590.4,313.6 581.8,319.2 582,305.5 	"/>
	<polygon id="XMLID_559_" class="st2" points="565.5,315.2 582,305.5 581.8,319.2 572.2,336.8 565.7,334.4 	"/>
	<polygon id="XMLID_558_" class="st8" points="572.2,336.8 581.8,317.6 590.4,313.6 579.1,335.5 	"/>
	<polygon id="XMLID_563_" class="st5" points="562.6,317 562.4,329.6 553.8,335.2 554,321.5 	"/>
	<polygon id="XMLID_562_" class="st2" points="537.5,331.2 554,321.5 553.8,335.2 544.2,352.8 537.7,350.4 	"/>
	<polygon id="XMLID_561_" class="st8" points="544.2,352.8 553.8,333.6 562.4,329.6 551.1,351.5 	"/>
</g>
<polygon id="XMLID_565_" class="st10" points="466.5,391 466.3,391.1 463.2,393 477.6,401 480.1,399.3 "/>
<path id="XMLID_567_" class="st10" d="M467,364.1l-0.5,26.9l-3.3,2.1v-24.6C463.2,368.5,464,364.8,467,364.1z"/>
<path id="XMLID_566_" class="st3" d="M466.4,391.8l13.6,7.5l0.5-24c0,0-3.9-13.3-13.6-11.2L466.4,391.8z"/>
<path id="XMLID_568_" class="st3" d="M527.3,433.4l0.6,63l34.1-19.8l0.4-61c0,0-0.5-21.5-19.2-16c-1.1,0.3-1,0.5-1.8,1.2
	C537.6,404.1,527,415,527.3,433.4z"/>
<path id="XMLID_570_" class="st8" d="M569.6,472.2l-7.5,4.4l0.1-61c0,0,0.8-20-19.3-15.9c0,0,21.2-11,25.7,3.4L569.6,472.2z"/>
<path id="XMLID_578_" class="st11" d="M590.8,518.9"/>
<path id="XMLID_575_" class="st12" d="M384,528.8l13-7.6V502c0,0-9.3-18.5-13-7V528.8z"/>
<polygon id="XMLID_550_" class="st12" points="420.5,536.3 429,531.6 429,517 420,517 "/>
<polygon id="XMLID_579_" class="st12" points="636,524.3 624,518 623.4,488.3 638.8,484.4 "/>
<polygon id="XMLID_581_" class="st12" points="549,575 540.7,570 539.1,546.6 550.9,548.2 "/>
<path id="XMLID_583_" class="st13" d="M528,496.4c0,0-5.8,6.3-0.5,7.5s13.2-3.4,15.3,0.9c2.2,4.2,7.1,21.9,11.9,19.6
	c4.7-2.3,39.7-22.1,39.7-22.1s9.8-4.5,0-5.7s-24.7-24.2-24.7-24.2L528,496.4z"/>
<ellipse id="XMLID_582_" class="st14" cx="498.3" cy="523.1" rx="6.7" ry="3.8"/>
<ellipse id="XMLID_584_" class="st14" cx="597.3" cy="455.1" rx="6.7" ry="3.8"/>
<ellipse id="XMLID_585_" class="st14" cx="515.2" cy="526.9" rx="4.6" ry="2.6"/>
<g id="tree_x5F_1">
	<ellipse id="XMLID_586_" class="st14" cx="385.4" cy="465.8" rx="9.8" ry="5.5"/>
	<path id="XMLID_587_" class="st15" d="M386.6,467.3H385c-1.3,0-2.4-1.1-2.4-2.4v-10.5c0-1.3,1.1-2.4,2.4-2.4h1.6
		c1.3,0,2.4,1.1,2.4,2.4v10.5C389,466.2,387.9,467.3,386.6,467.3z"/>
	<g>
      <animateTransform repeatCount="indefinite" attributeName="transform" type="rotate"
    values="0 0 0; 0.7 214 88; 0 0 0" dur="4s" />
		<g id="XMLID_589_">
      
			<path id="XMLID_603_" class="st14" d="M372.1,435l-3.3,7.5c0,0,0.9,0.9,2.4,2.1l3.4-7.7C373.6,436.1,372.7,435.5,372.1,435z"/>
			<path id="XMLID_602_" class="st14" d="M400.8,444.2c0.6-0.5,1.3-1.1,1.9-1.7l-3.2-7.6c-0.7,0.6-1.3,1.1-2,1.6L400.8,444.2z"/>
			<path id="XMLID_600_" class="st12" d="M400.8,444.2c-12.8,10.6-24.6,4.1-29.5,0.3l-2.4,5.6c0,0,16.6,17.1,34.4,0L400.8,444.2z"/>
			<path id="XMLID_599_" class="st14" d="M400.8,444.2l-3.2-7.7c-9.5,6.8-18.2,3.4-23,0.3l-3.4,7.7
				C376.2,448.3,388,454.8,400.8,444.2z"/>
			<path id="XMLID_6_" class="st16" d="M386.1,398.6l-15.3,35.2c0,0,0.4,0.5,1.3,1.1c0.6,0.5,1.5,1.2,2.5,1.8
				c4.8,3.1,13.5,6.5,23-0.3c0.7-0.5,1.3-1,2-1.6c0.4-0.3,0.8-0.7,1.2-1.1L386.1,398.6z"/>
		</g>
		<g id="XMLID_605_">
			<path id="XMLID_618_" class="st16" d="M372.1,435l6.7-15.5l-0.9-2l-7.1,16.3C370.8,433.8,371.3,434.3,372.1,435z"/>
			<path id="XMLID_620_" class="st14" d="M372.1,435l-3.3,7.5c0,0,0.9,0.9,2.4,2.1l3.4-7.7C373.6,436.1,372.7,435.5,372.1,435z"/>
			<path id="XMLID_619_" class="st17" d="M372.1,435l-3.3,7.5c0,0,0.9,0.9,2.4,2.1l3.4-7.7C373.6,436.1,372.7,435.5,372.1,435z"/>
			<path id="XMLID_622_" class="st16" d="M380.5,423.2l-1.7-3.8l-6.7,15.5c0.6,0.5,1.5,1.2,2.5,1.8L380.5,423.2z"/>
			<path id="XMLID_624_" class="st12" d="M371.2,444.5l-2.4,5.6c0,0,11.8,12.2,26.2,5.7l-3-6.8C382.8,451.9,375,447.4,371.2,444.5z"
				/>
			<path id="XMLID_623_" class="st17" d="M371.2,444.5l-2.4,5.6c0,0,11.8,12.2,26.2,5.7l-3-6.8C382.8,451.9,375,447.4,371.2,444.5z"
				/>
			<path id="XMLID_626_" class="st14" d="M392,449.1l-3.9-8.8c-5.6,0.6-10.4-1.5-13.5-3.5l-3.4,7.7C375,447.4,382.8,451.9,392,449.1
				z"/>
			<path id="XMLID_625_" class="st17" d="M392,449.1l-3.9-8.8c-5.6,0.6-10.4-1.5-13.5-3.5l-3.4,7.7C375,447.4,382.8,451.9,392,449.1
				z"/>
			<path id="XMLID_628_" class="st16" d="M388.1,440.3l-7.6-17.1l-5.9,13.6C377.7,438.8,382.5,441,388.1,440.3z"/>
			<path id="XMLID_8_" class="st17" d="M380.5,423.2l-1.7-3.8l-0.9-2l-7.1,16.3c0,0,0.4,0.5,1.3,1.1c0.6,0.5,1.5,1.2,2.5,1.8
				c3.1,2,7.9,4.2,13.5,3.5L380.5,423.2z"/>
		</g>
	</g>
</g>
<line id="XMLID_683_" class="st18" x1="526" y1="244.8" x2="526.7" y2="157.2"/>
<g id="flag_x5F_grey">
	<polygon id="flag_x5F_1" class="st4" points="628,190 553,190 553.1,161 626,161 589,173.3 	"/>
	
		<animateMotion  fill="remove" values="4,2; 0,0; 4,2;" additive="replace" calcMode="paced" dur="3s" accumulate="none" restart="always" repeatCount="indefinite">
		</animateMotion>
</g>
<g id="flag_x5F_0">
	<rect id="XMLID_679_" x="523" y="166" class="st19" width="44" height="29"/>
	<text id="XMLID_680_" transform="matrix(1 0 0 1 536.1096 190)" class="st1 st20 st21">H</text>
	
		<animateMotion  fill="remove" values="0,0; 0,4; 0,0" additive="replace" calcMode="paced" dur="3s" accumulate="none" restart="always" repeatCount="indefinite">
		</animateMotion>
</g>
<g id="XMLID_685_">
	<polygon id="XMLID_686_" class="st7" points="526.2,148.4 526,148.5 526,158.9 526.2,159 530,157 530,153 	"/>
	<polygon id="XMLID_688_" class="st4" points="523,153 523,157.1 526,158.9 526,148.5 	"/>
</g>
<g id="XMLID_696_" class="st22">
	<path id="XMLID_687_" class="st23" d="M372.5,531.7l38.1,21c0,0,9.2-0.4,1-7.7l-30.3-18.4L372.5,531.7z"/>
	<path id="XMLID_689_" class="st23" d="M417.3,538.6l46.4,27.1c0,0,13.5,1.2,2.2-9.1L425,533.8L417.3,538.6z"/>
	<path id="XMLID_690_" class="st23" d="M452.4,575l57.3,33.3l58.2-31.4c0,0,4.4-6.6-2.9-8.1l-55,29.6l-51.5-29.6
		C458.5,568.8,449.3,564.3,452.4,575z"/>
	<path id="XMLID_691_" class="st23" d="M580.7,567.8l15-7.1c0,0,7.7-7.3,0-8.1l-15,7.6C580.7,560.3,572.7,569.5,580.7,567.8z"/>
	<path id="XMLID_692_" class="st23" d="M569.6,555.1l50.8-25.6c0,0,11.8-15.2-1.3-10.2l-53.5,28.4L569.6,555.1z"/>
	<path id="XMLID_693_" class="st23" d="M652,527.7l-42.2,25c0,0-8.3-2.1,0-9.3l42.2-24.1V527.7z"/>
	<path id="XMLID_694_" class="st23" d="M523.2,579.5l12.9-8.5c0,0,5.5-4.6,0-6.4l-12.9,7.4C523.2,572.1,515.9,579,523.2,579.5z"/>
	<path id="XMLID_695_" class="st23" d="M441.5,567.8l-18.2-9.3c0,0-5.2-6.2,0.2-5.9l18,8.1C441.5,560.8,448,568,441.5,567.8z"/>
	
		<ellipse id="XMLID_684_" transform="matrix(-0.9318 -0.363 0.363 -0.9318 727.3859 1273.7924)" class="st23" cx="483.4" cy="568.6" rx="5.6" ry="3.2"/>
</g>
<polygon id="XMLID_580_" class="st12" points="600.2,532.6 592,527 592,515 603,510 "/>
<path id="XMLID_577_" class="st24" d="M600,516.9L579.4,528c0,0-6.9,4.5-5.9,10.4c1,5.8,0,21.6,0,21.6s-7.5,23.6-24.5,15v-21
	c0,0,6-16.8-39.7,12.8l7.8-16.7l82.9-43V516.9z"/>
<path id="XMLID_576_" class="st24" d="M660.4,479c0,0-0.5,27-2.4,31.1c-1.4,3-6,27.5-22,14.3V493c0,0-5-7.5-12,7.5V518
	c0,0-8,24.1-24,14.5V507l58.4-34L660.4,479z"/>
<polygon id="XMLID_3_" class="st24" points="660.4,464.8 509.8,550.1 359.4,464.8 359,479.9 509.3,566.8 660.6,480.8 "/>
<path id="XMLID_546_" class="st24" d="M359,480v37c0,0,12,24.5,25,11.7V495c0,0,3-11.7,13,6.8V524c0,0,13,24.2,23,12.3V524
	c0,0,2.4-6.5,9.4-3.4s6.2-4.7,6.2-4.7l-62.3-38.4L359,480z"/>
<polygon id="XMLID_2_" class="st25" points="614.5,558.2 510.1,616.1 406.5,558.2 380.5,572.2 509.3,645.4 642.6,572.2 "/>
<g id="tree_x5F_2">
	<ellipse id="XMLID_27_" class="st14" cx="420.4" cy="441.8" rx="9.8" ry="5.5"/>
	<path id="XMLID_26_" class="st15" d="M421.6,443.3H420c-1.3,0-2.4-1.1-2.4-2.4v-10.5c0-1.3,1.1-2.4,2.4-2.4h1.6
		c1.3,0,2.4,1.1,2.4,2.4v10.5C424,442.2,422.9,443.3,421.6,443.3z"/>
	<g>
    <animateTransform repeatCount="indefinite" attributeName="transform" type="rotate"
    values="0 0 0; 0.25 214 88; 0 0 0;" dur="4s" />
		<g id="XMLID_20_">
			<path id="XMLID_25_" class="st14" d="M407.1,411l-3.3,7.5c0,0,0.9,0.9,2.4,2.1l3.4-7.7C408.6,412.1,407.7,411.5,407.1,411z"/>
			<path id="XMLID_24_" class="st14" d="M435.8,420.2c0.6-0.5,1.3-1.1,1.9-1.7l-3.2-7.6c-0.7,0.6-1.3,1.1-2,1.6L435.8,420.2z"/>
			<path id="XMLID_23_" class="st12" d="M435.8,420.2c-12.8,10.6-24.6,4.1-29.5,0.3l-2.4,5.6c0,0,16.6,17.1,34.4,0L435.8,420.2z"/>
			<path id="XMLID_22_" class="st14" d="M435.8,420.2l-3.2-7.7c-9.5,6.8-18.2,3.4-23,0.3l-3.4,7.7
				C411.2,424.3,423,430.8,435.8,420.2z"/>
			<path id="XMLID_21_" class="st16" d="M421.1,374.6l-15.3,35.2c0,0,0.4,0.5,1.3,1.1c0.6,0.5,1.5,1.2,2.5,1.8
				c4.8,3.1,13.5,6.5,23-0.3c0.7-0.5,1.3-1,2-1.6c0.4-0.3,0.8-0.7,1.2-1.1L421.1,374.6z"/>
		</g>
		<g id="XMLID_9_">
			<path id="XMLID_19_" class="st16" d="M407.1,411l6.7-15.5l-0.9-2l-7.1,16.3C405.8,409.8,406.3,410.3,407.1,411z"/>
			<path id="XMLID_18_" class="st14" d="M407.1,411l-3.3,7.5c0,0,0.9,0.9,2.4,2.1l3.4-7.7C408.6,412.1,407.7,411.5,407.1,411z"/>
			<path id="XMLID_17_" class="st17" d="M407.1,411l-3.3,7.5c0,0,0.9,0.9,2.4,2.1l3.4-7.7C408.6,412.1,407.7,411.5,407.1,411z"/>
			<path id="XMLID_16_" class="st16" d="M415.5,399.2l-1.7-3.8l-6.7,15.5c0.6,0.5,1.5,1.2,2.5,1.8L415.5,399.2z"/>
			<path id="XMLID_15_" class="st12" d="M406.2,420.5l-2.4,5.6c0,0,11.8,12.2,26.2,5.7l-3-6.8C417.8,427.9,410,423.4,406.2,420.5z"
				/>
			<path id="XMLID_14_" class="st17" d="M406.2,420.5l-2.4,5.6c0,0,11.8,12.2,26.2,5.7l-3-6.8C417.8,427.9,410,423.4,406.2,420.5z"
				/>
			<path id="XMLID_13_" class="st14" d="M427,425.1l-3.9-8.8c-5.6,0.6-10.4-1.5-13.5-3.5l-3.4,7.7C410,423.4,417.8,427.9,427,425.1z
				"/>
			<path id="XMLID_12_" class="st17" d="M427,425.1l-3.9-8.8c-5.6,0.6-10.4-1.5-13.5-3.5l-3.4,7.7C410,423.4,417.8,427.9,427,425.1z
				"/>
			<path id="XMLID_11_" class="st16" d="M423.1,416.3l-7.6-17.1l-5.9,13.6C412.7,414.8,417.5,417,423.1,416.3z"/>
			<path id="XMLID_10_" class="st17" d="M415.5,399.2l-1.7-3.8l-0.9-2l-7.1,16.3c0,0,0.4,0.5,1.3,1.1c0.6,0.5,1.5,1.2,2.5,1.8
				c3.1,2,7.9,4.2,13.5,3.5L415.5,399.2z"/>
		</g>
	</g>
</g>
<g id="tree_x5F_3">
	<ellipse id="XMLID_47_" class="st14" cx="630.4" cy="462.8" rx="9.8" ry="5.5"/>
	<path id="XMLID_46_" class="st15" d="M631.6,464.3H630c-1.3,0-2.4-1.1-2.4-2.4v-10.5c0-1.3,1.1-2.4,2.4-2.4h1.6
		c1.3,0,2.4,1.1,2.4,2.4v10.5C634,463.2,632.9,464.3,631.6,464.3z"/>
	<g>
    <animateTransform repeatCount="indefinite" attributeName="transform" type="rotate"
    values="0 0 0; 0.25 214 88; 0 0 0;" dur="4s" />
		<g id="XMLID_40_">
			<path id="XMLID_45_" class="st14" d="M617.1,432l-3.3,7.5c0,0,0.9,0.9,2.4,2.1l3.4-7.7C618.6,433.1,617.7,432.5,617.1,432z"/>
			<path id="XMLID_44_" class="st14" d="M645.8,441.2c0.6-0.5,1.3-1.1,1.9-1.7l-3.2-7.6c-0.7,0.6-1.3,1.1-2,1.6L645.8,441.2z"/>
			<path id="XMLID_43_" class="st12" d="M645.8,441.2c-12.8,10.6-24.6,4.1-29.5,0.3l-2.4,5.6c0,0,16.6,17.1,34.4,0L645.8,441.2z"/>
			<path id="XMLID_42_" class="st14" d="M645.8,441.2l-3.2-7.7c-9.5,6.8-18.2,3.4-23,0.3l-3.4,7.7
				C621.2,445.3,633,451.8,645.8,441.2z"/>
			<path id="XMLID_41_" class="st16" d="M631.1,395.6l-15.3,35.2c0,0,0.4,0.5,1.3,1.1c0.6,0.5,1.5,1.2,2.5,1.8
				c4.8,3.1,13.5,6.5,23-0.3c0.7-0.5,1.3-1,2-1.6c0.4-0.3,0.8-0.7,1.2-1.1L631.1,395.6z"/>
		</g>
		<g id="XMLID_29_">
			<path id="XMLID_39_" class="st16" d="M617.1,432l6.7-15.5l-0.9-2l-7.1,16.3C615.8,430.8,616.3,431.3,617.1,432z"/>
			<path id="XMLID_38_" class="st14" d="M617.1,432l-3.3,7.5c0,0,0.9,0.9,2.4,2.1l3.4-7.7C618.6,433.1,617.7,432.5,617.1,432z"/>
			<path id="XMLID_37_" class="st17" d="M617.1,432l-3.3,7.5c0,0,0.9,0.9,2.4,2.1l3.4-7.7C618.6,433.1,617.7,432.5,617.1,432z"/>
			<path id="XMLID_36_" class="st16" d="M625.5,420.2l-1.7-3.8l-6.7,15.5c0.6,0.5,1.5,1.2,2.5,1.8L625.5,420.2z"/>
			<path id="XMLID_35_" class="st12" d="M616.2,441.5l-2.4,5.6c0,0,11.8,12.2,26.2,5.7l-3-6.8C627.8,448.9,620,444.4,616.2,441.5z"
				/>
			<path id="XMLID_34_" class="st17" d="M616.2,441.5l-2.4,5.6c0,0,11.8,12.2,26.2,5.7l-3-6.8C627.8,448.9,620,444.4,616.2,441.5z"
				/>
			<path id="XMLID_33_" class="st14" d="M637,446.1l-3.9-8.8c-5.6,0.6-10.4-1.5-13.5-3.5l-3.4,7.7C620,444.4,627.8,448.9,637,446.1z
				"/>
			<path id="XMLID_32_" class="st17" d="M637,446.1l-3.9-8.8c-5.6,0.6-10.4-1.5-13.5-3.5l-3.4,7.7C620,444.4,627.8,448.9,637,446.1z
				"/>
			<path id="XMLID_31_" class="st16" d="M633.1,437.3l-7.6-17.1l-5.9,13.6C622.7,435.8,627.5,438,633.1,437.3z"/>
			<path id="XMLID_30_" class="st17" d="M625.5,420.2l-1.7-3.8l-0.9-2l-7.1,16.3c0,0,0.4,0.5,1.3,1.1c0.6,0.5,1.5,1.2,2.5,1.8
				c3.1,2,7.9,4.2,13.5,3.5L625.5,420.2z"/>
		</g>
	</g>
</g>
<path id="XMLID_5_" class="st7" d="M526.9,246.8h-2.1c-1.1,0-1.9-0.9-1.9-1.9l0,0c0-1.1,0.9-1.9,1.9-1.9h2.1c1.1,0,1.9,0.9,1.9,1.9
	l0,0C528.9,245.9,528,246.8,526.9,246.8z"/>
</svg>
