<?xml version="1.0" encoding="utf-8"?>
<!-- Generator: Adobe Illustrator 19.0.0, SVG Export Plug-In . SVG Version: 6.00 Build 0)  -->
<svg version="1.1" xmlns="http://www.w3.org/2000/svg" xmlns:xlink="http://www.w3.org/1999/xlink" x="0px" y="0px"
	 viewBox="310 125 375 550" style="enable-background:new 0 0 1020.5 793.7;" xml:space="preserve">
<style type="text/css">
	.st0{fill:#473437;}
	.st1{fill:#82BD53;}
	.st2{opacity:0.57;fill:#44A84E;}
	.st3{fill:#056938;}
	.st4{fill:#F9B03D;}
	.st5{fill:#009245;}
	.st6{fill:#754D24;}
	.st7{fill:#48AE4D;}
	.st8{opacity:0.39;fill:#010202;}
	.st9{opacity:0.41;}
	.st10{fill:#010202;}
	.st11{fill:#44A84E;}
	.st12{opacity:0.41;fill:#010202;}
	.st13{fill:#747476;}
	.st14{fill:#C3C4C6;}
	.st15{fill:#97989A;}
	.st16{fill:#BC6817;}
	.st17{fill:#DE9F5C;}
	.st18{fill:#D3842F;}
	.st19{fill:#BC6818;}
	.st20{fill:#A34617;}
	.st21{fill:#BB6417;}
	.st22{fill:#8F9194;}
	.st23{fill:#474649;}
	.st24{fill:#4E4D4F;}
	.st25{fill:#ADADB1;}
	.st26{fill:#D5D5D6;}
	.st27{fill:#77797D;}
	.st28{opacity:0.49;fill:#515152;}
	.st29{fill:#515152;}
	.st30{fill:none;stroke:#474649;stroke-width:2;stroke-miterlimit:10;}
	.st31{fill:#FFFFFF;}
	.st32{font-family:'Roboto-Bold';}
	.st33{font-size:25.9211px;}
	.st34{display:none;}
	.st35{display:inline;}
	.st36{fill:#BD6B17;}
	.st37{fill:#DEDDDD;}
	.st38{fill:#CF914E;}
	.st39{fill:#B28350;}
	.st40{fill:#B38451;}
	.st41{fill:#AA6E2E;}
	.st42{fill:#B48452;}
	.st43{fill:#9F601E;}
	.st44{fill:#DEA05E;}
	.st45{fill:#DCA061;}
	.st46{fill:#DBA05F;}
	.st47{fill:#9F6222;}
	.st48{fill:#B06E23;}
	.st49{fill:#AD6C25;}
	.st50{fill:#A36726;}
	.st51{fill:#884115;}
	.st52{fill:#B38350;}
	.st53{fill:#BC671A;}
	.st54{fill:#BC691B;}
	.st55{fill:#9A5917;}
	.st56{fill:#DEA05D;}
	.st57{fill:#C69665;}
	.st58{fill:#B48654;}
	.st59{fill:#D48734;}
	.st60{fill:#BD6D18;}
	.st61{fill:#C59563;}
	.st62{fill:#DDA365;}
	.st63{fill:#9A5916;}
	.st64{display:inline;fill:#A34617;}
	.st65{display:inline;fill:#BC6817;}
	.st66{display:inline;fill:#D3842F;}
</style>
<g>
	<polygon id="XMLID_574_" class="st0" points="368,536.7 510.1,616.1 652,536.7 652,484 510.3,565.8 368.3,484 	"/>
	<polygon id="XMLID_569_" class="st1" points="359.4,464.8 509.8,550.1 660.4,464.8 504,381.6 	"/>
	<path id="XMLID_578_" class="st2" d="M590.8,518.9"/>
	<path id="XMLID_575_" class="st3" d="M384,528.8l13-7.6V502c0,0-9.3-18.5-13-7V528.8z"/>
	<polygon id="XMLID_550_" class="st3" points="420.5,536.3 429,531.6 429,517 420,517 	"/>
	<polygon id="XMLID_579_" class="st3" points="636,524.3 624,518 623.4,488.3 638.8,484.4 	"/>
	<polygon id="XMLID_581_" class="st3" points="549,575 540.7,570 539.1,546.6 550.9,548.2 	"/>
	<path id="XMLID_583_" class="st4" d="M528,496.4c0,0-5.8,6.3-0.5,7.5s13.2-3.4,15.3,0.9c2.2,4.2,7.1,21.9,11.9,19.6
		c4.7-2.3,39.7-22.1,39.7-22.1s9.8-4.5,0-5.7c-9.8-1.2-24.7-24.2-24.7-24.2L528,496.4z"/>
	<ellipse id="XMLID_582_" class="st5" cx="498.3" cy="523.1" rx="6.7" ry="3.8"/>
	<ellipse id="XMLID_584_" class="st5" cx="597.3" cy="455.1" rx="6.7" ry="3.8"/>
	<ellipse id="XMLID_585_" class="st5" cx="515.2" cy="526.9" rx="4.6" ry="2.6"/>
	<g id="tree_x5F_1">
		<ellipse id="XMLID_586_" class="st5" cx="385.4" cy="465.8" rx="9.8" ry="5.5"/>
		<path id="XMLID_587_" class="st6" d="M386.6,467.3H385c-1.3,0-2.4-1.1-2.4-2.4v-10.5c0-1.3,1.1-2.4,2.4-2.4h1.6
			c1.3,0,2.4,1.1,2.4,2.4v10.5C389,466.2,387.9,467.3,386.6,467.3z"/>
		<g id="XMLID_589_">
			<path id="XMLID_603_" class="st5" d="M372.1,435l-3.3,7.5c0,0,0.9,0.9,2.4,2.1l3.4-7.7C373.6,436.1,372.7,435.5,372.1,435z"/>
			<path id="XMLID_602_" class="st5" d="M400.8,444.2c0.6-0.5,1.3-1.1,1.9-1.7l-3.2-7.6c-0.7,0.6-1.3,1.1-2,1.6L400.8,444.2z"/>
			<path id="XMLID_600_" class="st3" d="M400.8,444.2c-12.8,10.6-24.6,4.1-29.5,0.3l-2.4,5.6c0,0,16.6,17.1,34.4,0L400.8,444.2z"/>
			<path id="XMLID_599_" class="st5" d="M400.8,444.2l-3.2-7.7c-9.5,6.8-18.2,3.4-23,0.3l-3.4,7.7
				C376.2,448.3,388,454.8,400.8,444.2z"/>
			<path id="XMLID_6_" class="st7" d="M386.1,398.6l-15.3,35.2c0,0,0.4,0.5,1.3,1.1c0.6,0.5,1.5,1.2,2.5,1.8
				c4.8,3.1,13.5,6.5,23-0.3c0.7-0.5,1.3-1,2-1.6c0.4-0.3,0.8-0.7,1.2-1.1L386.1,398.6z"/>
		</g>
		<g id="XMLID_605_">
			<path id="XMLID_618_" class="st7" d="M372.1,435l6.7-15.5l-0.9-2l-7.1,16.3C370.8,433.8,371.3,434.3,372.1,435z"/>
			<path id="XMLID_620_" class="st5" d="M372.1,435l-3.3,7.5c0,0,0.9,0.9,2.4,2.1l3.4-7.7C373.6,436.1,372.7,435.5,372.1,435z"/>
			<path id="XMLID_619_" class="st8" d="M372.1,435l-3.3,7.5c0,0,0.9,0.9,2.4,2.1l3.4-7.7C373.6,436.1,372.7,435.5,372.1,435z"/>
			<path id="XMLID_622_" class="st7" d="M380.5,423.2l-1.7-3.8l-6.7,15.5c0.6,0.5,1.5,1.2,2.5,1.8L380.5,423.2z"/>
			<path id="XMLID_624_" class="st3" d="M371.2,444.5l-2.4,5.6c0,0,11.8,12.2,26.2,5.7l-3-6.8C382.8,451.9,375,447.4,371.2,444.5z"
				/>
			<path id="XMLID_623_" class="st8" d="M371.2,444.5l-2.4,5.6c0,0,11.8,12.2,26.2,5.7l-3-6.8C382.8,451.9,375,447.4,371.2,444.5z"
				/>
			<path id="XMLID_626_" class="st5" d="M392,449.1l-3.9-8.8c-5.6,0.6-10.4-1.5-13.5-3.5l-3.4,7.7C375,447.4,382.8,451.9,392,449.1z
				"/>
			<path id="XMLID_625_" class="st8" d="M392,449.1l-3.9-8.8c-5.6,0.6-10.4-1.5-13.5-3.5l-3.4,7.7C375,447.4,382.8,451.9,392,449.1z
				"/>
			<path id="XMLID_628_" class="st7" d="M388.1,440.3l-7.6-17.1l-5.9,13.6C377.7,438.8,382.5,441,388.1,440.3z"/>
			<path id="XMLID_8_" class="st8" d="M380.5,423.2l-1.7-3.8l-0.9-2l-7.1,16.3c0,0,0.4,0.5,1.3,1.1c0.6,0.5,1.5,1.2,2.5,1.8
				c3.1,2,7.9,4.2,13.5,3.5L380.5,423.2z"/>
		</g>
	</g>
	<g id="XMLID_696_" class="st9">
		<path id="XMLID_689_" class="st10" d="M417.3,538.6l46.4,27.1c0,0,13.5,1.2,2.2-9.1L425,533.8L417.3,538.6z"/>
		<path id="XMLID_691_" class="st10" d="M580.7,567.8l15-7.1c0,0,7.7-7.3,0-8.1l-15,7.6C580.7,560.3,572.7,569.5,580.7,567.8z"/>
		<path id="XMLID_692_" class="st10" d="M569.6,555.1l50.8-25.6c0,0,11.8-15.2-1.3-10.2l-53.5,28.4L569.6,555.1z"/>
		<path id="XMLID_693_" class="st10" d="M652,527.7l-42.2,25c0,0-8.3-2.1,0-9.3l42.2-24.1V527.7z"/>
		<path id="XMLID_694_" class="st10" d="M523.2,579.5l12.9-8.5c0,0,5.5-4.6,0-6.4l-12.9,7.4C523.2,572.1,515.9,579,523.2,579.5z"/>
		<path id="XMLID_695_" class="st10" d="M441.5,567.8l-18.2-9.3c0,0-5.2-6.2,0.2-5.9l18,8.1C441.5,560.8,448,568,441.5,567.8z"/>
		
			<ellipse id="XMLID_684_" transform="matrix(0.9318 0.363 -0.363 0.9318 239.4138 -136.653)" class="st10" cx="483.3" cy="568.6" rx="5.6" ry="3.2"/>
	</g>
	<polygon id="XMLID_580_" class="st3" points="600.2,532.6 592,527 592,515 603,510 	"/>
	<path id="XMLID_577_" class="st11" d="M600,516.9L579.4,528c0,0-6.9,4.5-5.9,10.4c1,5.8,0,21.6,0,21.6s-7.5,23.6-24.5,15v-21
		c0,0,6-16.8-39.7,12.8l7.8-16.7l82.9-43V516.9z"/>
	<path id="XMLID_576_" class="st11" d="M660.4,479c0,0-0.5,27-2.4,31.1c-1.4,3-6,27.5-22,14.3V493c0,0-5-7.5-12,7.5V518
		c0,0-8,24.1-24,14.5V507l58.4-34L660.4,479z"/>
	<polygon id="XMLID_1_" class="st11" points="660.4,464.8 509.8,550.1 359.4,464.8 359,479.9 509.3,566.8 660.6,480.8 	"/>
	<path id="XMLID_546_" class="st11" d="M359,480v37c0,0,12,24.5,25,11.7V495c0,0,3-11.7,13,6.8V524c0,0,13,24.2,23,12.3V524
		c0,0,2.4-6.5,9.4-3.4c7,3.1,6.2-4.7,6.2-4.7l-62.3-38.4L359,480z"/>
	<polygon id="XMLID_2_" class="st12" points="614.5,558.2 510.1,616.1 406.5,558.2 380.5,572.2 509.3,645.4 642.6,572.2 	"/>
	<g id="tree_x5F_2">
		<ellipse id="XMLID_27_" class="st5" cx="420.4" cy="441.8" rx="9.8" ry="5.5"/>
		<path id="XMLID_26_" class="st6" d="M421.6,443.3H420c-1.3,0-2.4-1.1-2.4-2.4v-10.5c0-1.3,1.1-2.4,2.4-2.4h1.6
			c1.3,0,2.4,1.1,2.4,2.4v10.5C424,442.2,422.9,443.3,421.6,443.3z"/>
		<g id="XMLID_20_">
			<path id="XMLID_25_" class="st5" d="M407.1,411l-3.3,7.5c0,0,0.9,0.9,2.4,2.1l3.4-7.7C408.6,412.1,407.7,411.5,407.1,411z"/>
			<path id="XMLID_24_" class="st5" d="M435.8,420.2c0.6-0.5,1.3-1.1,1.9-1.7l-3.2-7.6c-0.7,0.6-1.3,1.1-2,1.6L435.8,420.2z"/>
			<path id="XMLID_23_" class="st3" d="M435.8,420.2c-12.8,10.6-24.6,4.1-29.5,0.3l-2.4,5.6c0,0,16.6,17.1,34.4,0L435.8,420.2z"/>
			<path id="XMLID_22_" class="st5" d="M435.8,420.2l-3.2-7.7c-9.5,6.8-18.2,3.4-23,0.3l-3.4,7.7C411.2,424.3,423,430.8,435.8,420.2
				z"/>
			<path id="XMLID_21_" class="st7" d="M421.1,374.6l-15.3,35.2c0,0,0.4,0.5,1.3,1.1c0.6,0.5,1.5,1.2,2.5,1.8
				c4.8,3.1,13.5,6.5,23-0.3c0.7-0.5,1.3-1,2-1.6c0.4-0.3,0.8-0.7,1.2-1.1L421.1,374.6z"/>
		</g>
		<g id="XMLID_9_">
			<path id="XMLID_19_" class="st7" d="M407.1,411l6.7-15.5l-0.9-2l-7.1,16.3C405.8,409.8,406.3,410.3,407.1,411z"/>
			<path id="XMLID_18_" class="st5" d="M407.1,411l-3.3,7.5c0,0,0.9,0.9,2.4,2.1l3.4-7.7C408.6,412.1,407.7,411.5,407.1,411z"/>
			<path id="XMLID_17_" class="st8" d="M407.1,411l-3.3,7.5c0,0,0.9,0.9,2.4,2.1l3.4-7.7C408.6,412.1,407.7,411.5,407.1,411z"/>
			<path id="XMLID_16_" class="st7" d="M415.5,399.2l-1.7-3.8l-6.7,15.5c0.6,0.5,1.5,1.2,2.5,1.8L415.5,399.2z"/>
			<path id="XMLID_15_" class="st3" d="M406.2,420.5l-2.4,5.6c0,0,11.8,12.2,26.2,5.7l-3-6.8C417.8,427.9,410,423.4,406.2,420.5z"/>
			<path id="XMLID_14_" class="st8" d="M406.2,420.5l-2.4,5.6c0,0,11.8,12.2,26.2,5.7l-3-6.8C417.8,427.9,410,423.4,406.2,420.5z"/>
			<path id="XMLID_13_" class="st5" d="M427,425.1l-3.9-8.8c-5.6,0.6-10.4-1.5-13.5-3.5l-3.4,7.7C410,423.4,417.8,427.9,427,425.1z"
				/>
			<path id="XMLID_12_" class="st8" d="M427,425.1l-3.9-8.8c-5.6,0.6-10.4-1.5-13.5-3.5l-3.4,7.7C410,423.4,417.8,427.9,427,425.1z"
				/>
			<path id="XMLID_11_" class="st7" d="M423.1,416.3l-7.6-17.1l-5.9,13.6C412.7,414.8,417.5,417,423.1,416.3z"/>
			<path id="XMLID_10_" class="st8" d="M415.5,399.2l-1.7-3.8l-0.9-2l-7.1,16.3c0,0,0.4,0.5,1.3,1.1c0.6,0.5,1.5,1.2,2.5,1.8
				c3.1,2,7.9,4.2,13.5,3.5L415.5,399.2z"/>
		</g>
	</g>
	<g id="tree_x5F_3">
		<ellipse id="XMLID_47_" class="st5" cx="630.4" cy="462.8" rx="9.8" ry="5.5"/>
		<path id="XMLID_46_" class="st6" d="M631.6,464.3H630c-1.3,0-2.4-1.1-2.4-2.4v-10.5c0-1.3,1.1-2.4,2.4-2.4h1.6
			c1.3,0,2.4,1.1,2.4,2.4v10.5C634,463.2,632.9,464.3,631.6,464.3z"/>
		<g id="XMLID_40_">
			<path id="XMLID_45_" class="st5" d="M617.1,432l-3.3,7.5c0,0,0.9,0.9,2.4,2.1l3.4-7.7C618.6,433.1,617.7,432.5,617.1,432z"/>
			<path id="XMLID_44_" class="st5" d="M645.8,441.2c0.6-0.5,1.3-1.1,1.9-1.7l-3.2-7.6c-0.7,0.6-1.3,1.1-2,1.6L645.8,441.2z"/>
			<path id="XMLID_43_" class="st3" d="M645.8,441.2c-12.8,10.6-24.6,4.1-29.5,0.3l-2.4,5.6c0,0,16.6,17.1,34.4,0L645.8,441.2z"/>
			<path id="XMLID_42_" class="st5" d="M645.8,441.2l-3.2-7.7c-9.5,6.8-18.2,3.4-23,0.3l-3.4,7.7C621.2,445.3,633,451.8,645.8,441.2
				z"/>
			<path id="XMLID_41_" class="st7" d="M631.1,395.6l-15.3,35.2c0,0,0.4,0.5,1.3,1.1c0.6,0.5,1.5,1.2,2.5,1.8
				c4.8,3.1,13.5,6.5,23-0.3c0.7-0.5,1.3-1,2-1.6c0.4-0.3,0.8-0.7,1.2-1.1L631.1,395.6z"/>
		</g>
		<g id="XMLID_29_">
			<path id="XMLID_39_" class="st7" d="M617.1,432l6.7-15.5l-0.9-2l-7.1,16.3C615.8,430.8,616.3,431.3,617.1,432z"/>
			<path id="XMLID_38_" class="st5" d="M617.1,432l-3.3,7.5c0,0,0.9,0.9,2.4,2.1l3.4-7.7C618.6,433.1,617.7,432.5,617.1,432z"/>
			<path id="XMLID_37_" class="st8" d="M617.1,432l-3.3,7.5c0,0,0.9,0.9,2.4,2.1l3.4-7.7C618.6,433.1,617.7,432.5,617.1,432z"/>
			<path id="XMLID_36_" class="st7" d="M625.5,420.2l-1.7-3.8l-6.7,15.5c0.6,0.5,1.5,1.2,2.5,1.8L625.5,420.2z"/>
			<path id="XMLID_35_" class="st3" d="M616.2,441.5l-2.4,5.6c0,0,11.8,12.2,26.2,5.7l-3-6.8C627.8,448.9,620,444.4,616.2,441.5z"/>
			<path id="XMLID_34_" class="st8" d="M616.2,441.5l-2.4,5.6c0,0,11.8,12.2,26.2,5.7l-3-6.8C627.8,448.9,620,444.4,616.2,441.5z"/>
			<path id="XMLID_33_" class="st5" d="M637,446.1l-3.9-8.8c-5.6,0.6-10.4-1.5-13.5-3.5l-3.4,7.7C620,444.4,627.8,448.9,637,446.1z"
				/>
			<path id="XMLID_32_" class="st8" d="M637,446.1l-3.9-8.8c-5.6,0.6-10.4-1.5-13.5-3.5l-3.4,7.7C620,444.4,627.8,448.9,637,446.1z"
				/>
			<path id="XMLID_31_" class="st7" d="M633.1,437.3l-7.6-17.1l-5.9,13.6C622.7,435.8,627.5,438,633.1,437.3z"/>
			<path id="XMLID_30_" class="st8" d="M625.5,420.2l-1.7-3.8l-0.9-2l-7.1,16.3c0,0,0.4,0.5,1.3,1.1c0.6,0.5,1.5,1.2,2.5,1.8
				c3.1,2,7.9,4.2,13.5,3.5L625.5,420.2z"/>
		</g>
	</g>
	<path id="XMLID_5_" class="st13" d="M526.9,246.8h-2.1c-1.1,0-1.9-0.9-1.9-1.9l0,0c0-1.1,0.9-1.9,1.9-1.9h2.1
		c1.1,0,1.9,0.9,1.9,1.9l0,0C528.9,245.9,528,246.8,526.9,246.8z"/>
	<g id="XMLID_49_">
		<path id="XMLID_50_" class="st14" d="M509.6,347.2l0.1,160l18.4-10.7l-0.6-63c-0.3-18.4,10.3-29.2,14.1-32.5
			c0.9-0.7,0.7-0.9,1.8-1.2c18.7-5.6,19.2,16,19.2,16l-0.4,61l16.3-9.5l0.2-160L509.6,347.2z"/>
	</g>
	<path id="XMLID_570_" class="st15" d="M569.6,472.2l-7.5,4.4l0.1-61.5c0,0,1.5-20.1-18.6-16c0,0,20.5-11,25,3.5L569.6,472.2z"/>
	<g id="XMLID_110_">
		<g id="XMLID_109_">
			<path id="XMLID_106_" class="st16" d="M524.1,497.3l44.3-24.2l-0.6-67.3c0,0-2.2-9.1-10.8-10.7l-1.6-0.2
				c-1.4,0.2-2.9,0.5-4.6,0.9c-2,0.5-3.7,1.1-5.2,1.7c-7,5.5-9.4,7.7-10,8.5c0,0.1-1.3,1.7-1.3,1.7l0,0c0,0-9.5,15.1-9.9,25.3
				L524.1,497.3z"/>
			<g id="XMLID_108_">
				<g id="XMLID_99_">
					<path id="XMLID_105_" class="st17" d="M537.1,407.3c0,0-3.8,5-6.6,12.9c-1.7,4.7-2.7,10.6-2.9,16.5c-0.6,14-0.2,52.8-0.2,60.7
						l10.9-6.4L537.1,407.3z"/>
					<path id="XMLID_104_" class="st17" d="M547.1,398.4c0,0-7.8,6.2-9,8.3l0.6,84l9.5-5.5L547.1,398.4z"/>
					<path id="XMLID_103_" class="st17" d="M556.9,395.6c0,0-7,1-8.9,2.6l0.8,86.6l9.8-5.7L556.9,395.6z"/>
					<path id="XMLID_100_" class="st17" d="M567.8,406c0,0-1.9-9.6-9.9-10.6l1.4,82.8l9.1-5.3L567.8,406z"/>
				</g>
				<g id="XMLID_52_">
					<g id="XMLID_92_">
						<path id="XMLID_143_" class="st18" d="M527.5,440.7c0.1-1.5,0.3-6.5,0.4-7.4l39.7-22.4l-0.1,6.8
							C552.5,426.6,530.1,439.9,527.5,440.7z"/>
						<g id="XMLID_138_">
							<path id="XMLID_139_" class="st19" d="M567.3,411.3l0,6.2c-14.4,8.7-35.9,21.3-39.5,22.8c0.1-1.8,0.3-5.8,0.3-6.9
								L567.3,411.3 M567.8,410.4L567.8,410.4L567.8,410.4z M567.8,410.4l-40.2,22.7c0,0-0.3,6.6-0.4,7.8c0,0,0,0,0.1,0
								c1.9,0,40.5-23.2,40.5-23.2L567.8,410.4L567.8,410.4z"/>
						</g>
					</g>
					<g id="XMLID_91_">
						<path id="XMLID_135_" class="st18" d="M527.1,477.3c0.1-1.5,0.3-6.5,0.4-7.4l40.7-22.5l-0.1,6.8
							C552.7,463.3,529.7,476.5,527.1,477.3z"/>
						<g id="XMLID_130_">
							<path id="XMLID_131_" class="st19" d="M567.9,447.9l0,6.2c-14.8,8.7-36.8,21.3-40.5,22.8c0.1-1.7,0.3-5.8,0.3-6.9
								L567.9,447.9 M568.4,447L568.4,447L568.4,447z M568.4,447l-41.2,22.7c0,0-0.3,6.6-0.4,7.8c0,0,0,0,0.1,0
								c1.9,0,41.4-23.2,41.4-23.2L568.4,447L568.4,447z"/>
						</g>
					</g>
				</g>
			</g>
		</g>
		<g id="XMLID_93_">
			<g id="XMLID_95_">
				<path id="XMLID_98_" class="st20" d="M562.9,447.3L562.9,447.3c-0.7,0-1.3-0.6-1.3-1.3v-12.5c0-0.7,0.6-1.3,1.3-1.3l0,0
					c0.7,0,1.3,0.6,1.3,1.3v12.5C564.2,446.7,563.6,447.3,562.9,447.3z"/>
				<rect id="XMLID_97_" x="562.9" y="432.1" class="st20" width="1" height="0.9"/>
				<rect id="XMLID_96_" x="562.8" y="446.4" class="st20" width="1" height="0.9"/>
			</g>
			<path id="XMLID_94_" class="st21" d="M563.8,447.3L563.8,447.3c-0.7,0-1.3-0.6-1.3-1.3v-12.5c0-0.7,0.6-1.3,1.3-1.3l0,0
				c0.7,0,1.3,0.6,1.3,1.3v12.5C565.1,446.7,564.5,447.3,563.8,447.3z"/>
		</g>
	</g>
	<g id="XMLID_3_">
		<g id="XMLID_564_">
			<g id="XMLID_488_">
				<polygon id="XMLID_540_" class="st22" points="567.5,278.3 542.2,265.8 506.2,244.8 520.3,236.7 578.5,267 				"/>
				<polygon id="XMLID_539_" class="st23" points="450.3,276.7 506.2,244.8 574.7,281.8 508.6,318 				"/>
				<polygon id="XMLID_63_" class="st24" points="506.2,276.2 506.2,244.8 450.3,276.7 506.2,316.3 				"/>
				<polygon id="XMLID_537_" class="st22" points="529,230 529.2,256.9 543.2,264.8 543.1,237 				"/>
				<polygon id="XMLID_536_" class="st25" points="557,230 557.3,256.7 543.2,264.8 543,237 				"/>
				<polygon id="XMLID_535_" class="st26" points="543,223 529,230 543,237 557,230 				"/>
				<polygon id="XMLID_490_" class="st25" points="440.7,466.1 509.5,506.1 509.6,346.2 440.4,306.1 				"/>
				<path id="XMLID_491_" class="st13" d="M578.5,308.4"/>
				<path id="XMLID_504_" class="st15" d="M450.3,276.7"/>
				<polygon id="XMLID_521_" class="st13" points="509.1,310 450.3,276.7 436.2,284.8 509.2,326.8 				"/>
				<polygon id="XMLID_522_" class="st22" points="567.8,277.4 508.8,310.6 509.2,326.8 581.9,284.9 				"/>
				<polygon id="XMLID_525_" class="st26" points="509,285 495,292 509,299 523,292 				"/>
				<polygon id="XMLID_526_" class="st26" points="546,264 532,271 546,278 560,271 				"/>
				<polygon id="XMLID_528_" class="st26" points="582,244 568,251 582,258 596,251 				"/>
				<path id="XMLID_538_" class="st15" d="M450.3,276.7"/>
				<polygon id="XMLID_492_" class="st22" points="495,292 494.8,318.4 509.2,326.8 509.1,299 				"/>
				<polygon id="XMLID_495_" class="st25" points="523,292 523.3,318.7 509.2,326.8 509,299 				"/>
				<polygon id="XMLID_501_" class="st22" points="532,271 531.8,297.4 546.2,305.4 546.1,278 				"/>
				<polygon id="XMLID_500_" class="st25" points="560,271 560.3,297.7 546.2,305.8 546,278 				"/>
				<polygon id="XMLID_503_" class="st22" points="568,251 567.8,277.4 582.2,285.8 582.1,258 				"/>
				<polygon id="XMLID_502_" class="st25" points="596,251 596,278.6 582.2,285.8 582,258 				"/>
				<g id="XMLID_28_">
					<polygon id="XMLID_48_" class="st22" points="492.2,236.9 437.2,268 450.3,276.7 470.2,265.8 506.2,244.8 					"/>
					<polygon id="XMLID_51_" class="st22" points="506.1,217 492,210 492.2,236.9 506.2,244.8 					"/>
				</g>
				<polygon id="XMLID_530_" class="st25" points="520,210 520.3,236.7 506.2,244.8 506,217 				"/>
				<polygon id="XMLID_529_" class="st26" points="506,203 492,210 506,217 520,210 				"/>
				<polygon id="XMLID_523_" class="st22" points="422.4,297 509.6,347.2 509.2,326.8 422.1,276.2 				"/>
				<polygon id="XMLID_542_" class="st25" points="509.6,347.2 595.7,297.6 596,276.8 509.2,326.8 				"/>
				<polygon id="XMLID_534_" class="st22" points="456,231 456.2,257.9 470.2,265.8 470.1,238 				"/>
				<polygon id="XMLID_533_" class="st25" points="484,231 484.3,257.7 470.2,265.8 470,238 				"/>
				<polygon id="XMLID_532_" class="st26" points="470,224 456,231 470,238 484,231 				"/>
				<polygon id="XMLID_497_" class="st22" points="457,270 456.8,296.4 471.2,304.8 471.1,277 				"/>
				<polygon id="XMLID_496_" class="st25" points="485,270 485.3,296.7 471.2,304.8 471,277 				"/>
				<polygon id="XMLID_524_" class="st26" points="471,263 457,270 471,277 485,270 				"/>
				<polygon id="XMLID_499_" class="st22" points="422,250 422.2,276.9 436.2,284.8 436.1,257 				"/>
				<polygon id="XMLID_498_" class="st25" points="450,250 450.3,276.7 436.2,284.8 436,257 				"/>
				<polygon id="XMLID_527_" class="st26" points="436,243 422,250 436,257 450,250 				"/>
			</g>
			<polygon id="XMLID_543_" class="st26" points="427.5,300 427.7,312.6 436.3,318.2 436.2,304.5 			"/>
			<polygon id="XMLID_545_" class="st27" points="452.2,314.2 436.2,304.5 436.3,318.2 446,335.8 452,333.5 			"/>
			<polygon id="XMLID_544_" class="st15" points="446,335.8 436.3,316.6 427.7,312.6 439,334.5 			"/>
			<polygon id="XMLID_549_" class="st26" points="455.5,316 455.7,328.6 464.3,334.2 464.2,320.5 			"/>
			<polygon id="XMLID_548_" class="st27" points="480.2,330.2 464.2,320.5 464.3,334.2 474,351.8 480,349.5 			"/>
			<polygon id="XMLID_547_" class="st15" points="474,351.8 464.3,332.6 455.7,328.6 467,350.5 			"/>
			<polygon id="XMLID_553_" class="st26" points="484.5,333 484.7,345.6 493.3,351.2 493.2,337.5 			"/>
			<polygon id="XMLID_552_" class="st27" points="509.6,347.2 493.2,337.5 493.3,351.2 503,368.8 509.6,366.5 			"/>
			<polygon id="XMLID_551_" class="st15" points="503,368.8 493.3,349.6 484.7,345.6 496,367.5 			"/>
			<g id="XMLID_554_">
				<polygon id="XMLID_557_" class="st26" points="534.6,333 534.4,345.6 525.8,351.2 526,337.5 				"/>
				<polygon id="XMLID_556_" class="st22" points="509.5,347.2 526,337.5 525.8,351.2 516.2,368.8 509.6,366.5 				"/>
				<polygon id="XMLID_555_" class="st15" points="516.2,368.8 525.8,349.6 534.4,345.6 523.1,367.5 				"/>
			</g>
			<polygon id="XMLID_560_" class="st26" points="590.6,301 590.4,313.6 581.8,319.2 582,305.5 			"/>
			<polygon id="XMLID_559_" class="st22" points="565.5,315.2 582,305.5 581.8,319.2 572.2,336.8 565.7,334.4 			"/>
			<polygon id="XMLID_558_" class="st15" points="572.2,336.8 581.8,317.6 590.4,313.6 579.1,335.5 			"/>
			<polygon id="XMLID_563_" class="st26" points="562.6,317 562.4,329.6 553.8,335.2 554,321.5 			"/>
			<polygon id="XMLID_562_" class="st22" points="537.5,331.2 554,321.5 553.8,335.2 544.2,352.8 537.7,350.4 			"/>
			<polygon id="XMLID_561_" class="st15" points="544.2,352.8 553.8,333.6 562.4,329.6 551.1,351.5 			"/>
		</g>
		<g id="XMLID_4_">
			<polygon id="XMLID_565_" class="st28" points="466.2,391.9 466,391.8 463.2,393.2 477.6,401.1 479.9,399.4 			"/>
			<path id="XMLID_567_" class="st28" d="M467,364.3l-1,27.5l-2.8,1.4l0-24.7C463.2,368.5,464,364.3,467,364.3z"/>
			<path id="XMLID_566_" class="st29" d="M466,391.8l13.9,7.5l0.4-24c0,0-4.2-12.9-14.2-10.8V391.8z"/>
			<polygon id="XMLID_64_" class="st23" points="466,391.8 479.9,384.7 479.9,399.4 			"/>
		</g>
	</g>
	<g id="XMLID_7_">
		<path id="XMLID_111_" class="st14" d="M530.5,414.7c-7-2.2-13.7-3.1-21-3.5l0,95.9l18.4-10.7l-0.6-63
			C527.2,426,528.3,419.6,530.5,414.7z"/>
	</g>
	<g id="XMLID_53_">
		<polygon id="XMLID_54_" class="st15" points="509.4,423.5 501.1,418.8 501.1,409.4 509.3,413.7 		"/>
		<polygon id="XMLID_55_" class="st26" points="509.3,423.5 517.6,418.8 517.6,409.4 509.4,413.7 		"/>
		<polygon id="XMLID_56_" class="st27" points="501.1,409.4 502.6,408.7 509.3,412.2 509.3,413.7 		"/>
		<polygon id="XMLID_57_" class="st15" points="517.6,409.4 516.1,408.7 509.3,412.2 509.3,413.7 		"/>
	</g>
	<g id="XMLID_58_">
		<polygon id="XMLID_114_" class="st15" points="509.7,439.5 501.4,434.7 501.4,425.4 509.6,429.7 		"/>
		<polygon id="XMLID_113_" class="st26" points="509.6,439.5 517.9,434.7 517.9,425.4 509.7,429.7 		"/>
		<polygon id="XMLID_90_" class="st27" points="501.4,425.4 502.9,424.7 509.6,428.2 509.6,429.7 		"/>
		<polygon id="XMLID_59_" class="st15" points="517.8,425.4 516.3,424.7 509.6,428.2 509.6,429.7 		"/>
	</g>
	<g id="XMLID_115_">
		<polygon id="XMLID_119_" class="st15" points="509.6,454.6 501.3,449.9 501.3,440.6 509.5,444.9 		"/>
		<polygon id="XMLID_118_" class="st26" points="509.5,454.6 517.8,449.9 517.8,440.6 509.6,444.9 		"/>
		<polygon id="XMLID_117_" class="st27" points="501.3,440.6 502.8,439.9 509.5,443.4 509.5,444.9 		"/>
		<polygon id="XMLID_116_" class="st15" points="517.8,440.6 516.3,439.9 509.6,443.4 509.6,444.9 		"/>
	</g>
	<path id="XMLID_137_" class="st27" d="M446.1,391.4"/>
	<line id="XMLID_683_" class="st30" x1="488" y1="244.8" x2="488.7" y2="157.2"/>
	<g id="XMLID_685_">
		<polygon id="XMLID_686_" class="st13" points="488.2,148.4 488,148.5 488,158.9 488.2,159 492,157 492,153 		"/>
		<polygon id="XMLID_688_" class="st25" points="485,153 485,157.1 488,158.9 488,148.5 		"/>
	</g>
	<polygon id="flag_x5F_1" class="st25" points="590,190 515,190 515.1,161 588,161 551,173.3 	"/>
	<g id="flag_x5F_0">
		<rect id="XMLID_679_" x="485" y="166" class="st31" width="44" height="29"/>
		<text id="XMLID_680_" transform="matrix(1 0 0 1 498.1096 190)" class="st1 st32 st33">H</text>
	</g>
	<polygon id="XMLID_62_" class="st23" points="529,166 515.1,161 515.1,166 	"/>
	<ellipse id="XMLID_61_" class="st23" cx="488" cy="244.8" rx="1.9" ry="0.7"/>
</g>
<g id="Ebene_2" class="st34">
	<g id="XMLID_60_" class="st35">
		<path id="XMLID_223_" class="st16" d="M576.7,408.8c-0.6-12.2,3.6-22.7,10.2-32.4c1.3-0.1,1.2-1.5,1.8-2.3
			c2.5-3.2,5.3-6.2,8.8-8.2c1.5-0.9,2.9-2.1,4.7-2.7c1.8-0.6,3.6-1.3,5.5-1.2c2.3,0,4.6,0.2,6.5,1.7c-0.5,0.5-1,0.2-1.5,0.1
			c-0.7-0.2-1,0.1-1,0.8c0,0.2,0,0.4,0,0.7c0,6.1,0,12.1,0,18.2c0,1.6,0.1,1.7,1.4,0.9c2.5-1.6,5-3.1,7.6-4.6
			c0.4-0.3,0.9-0.8,1.5-0.3c0,2.6,0,5.2,0,7.8c-3.3,4.7-6.3,9.7-9.4,14.5c-0.8,1.2-1.1,2.4-1.1,3.8c0.1,1.3,0,2.5,0,3.8
			c0,0.6,0,1.2,0,1.7c0,0.8,0.1,1.7-0.1,2.5c-0.1,0.1-0.1,0.3-0.3,0.4c-0.2,0.1-0.4,0.1-0.6-0.1c-0.7-0.9-0.4-1.9-0.4-2.9
			c0-0.6,0.1-1.1,0.1-1.7c-0.1-1.4-0.2-2.7,0-4c-0.8,1.3-1.5,2.8-2.7,3.8c-0.9,0.1-0.8-0.5-0.5-1c0.4-0.9,1-1.7,1.6-2.6
			c3.3-5.1,6.6-10.3,9.9-15.4c0.1-0.2,0.2-0.4,0.4-0.5c-1.3,0.8-2.5,1.7-3.9,2.4c-2,1-3.4,2.7-4.6,4.7c-2.3,3.7-4.7,7.4-7.1,11.1
			c-0.3,0.4-0.5,0.8-0.9,1.1c-0.4,0.3-0.8,0.5-1-0.2c0-0.5,0.3-0.9,0.5-1.3c2.6-4.1,5.2-8.2,7.8-12.1c-2.4,1.5-4.9,3.1-7.5,4.6
			c-1,0.6-1.5,1.3-1.4,2.5c0.1,1.8,0,3.7,0,5.5c0,0.5,0.1,1.1-0.3,1.5c-0.3,0.1-0.5,0.1-0.7,0c-0.4-0.5-0.3-1.1-0.3-1.7
			c0-1.6,0-3.2,0-4.9c0-0.8-0.2-1.1-1-0.6c-2.6,1.6-5.1,3.2-7.8,4.8c-1,0.6-0.5,1.7-0.9,2.5c-0.2,0.3-0.5,0.1-0.7,0
			c-0.4-0.3-0.4-0.7-0.5-1.2c-1.4,0.9-2.7,1.7-4.1,2.5c-0.5,0.3-1,0.8-1.7,0.4c-0.4-1,0.3-1.3,0.9-1.6c3-2,6-3.8,9.1-5.6
			c9-5.6,18-11.1,27-16.6c0.9-0.5,1.4-1.2,1.2-2.3c0-0.2,0-0.4,0-0.5c-0.1-0.9,0.4-2.2-0.3-2.6c-0.5-0.3-1.4,0.7-2.2,1.1
			c-12.4,7.7-24.8,15.4-37.3,23c-1,0.6-2,1.2-1.9,2.7c0,0.3-0.2,0.5-0.4,0.6C578.2,409.2,577.5,409.4,576.7,408.8z"/>
		<path id="XMLID_222_" class="st36" d="M622.1,417.7c0,2.5,0,5,0,7.5c-0.3,0.8-0.9,1.1-1.5,1.5c-2.5,1.5-4.9,3.1-7.4,4.5
			c-1.2,0.6-1.6,1.5-1.5,2.9c0.1,3.4,0,6.7,0,10.1c0,0.5,0.3,1.3-0.6,1.5c-0.1,0-0.1,0-0.2-0.1c-0.7-0.4-0.6-1.1-0.6-1.8
			c0-3.1,0-6.1,0-9.2c0-1.5,0-1.6-1.3-0.8c-2.3,1.4-4.5,2.8-6.8,4.2c-0.9,0.5-1.1,1.2-1.1,2.2c0,3.5,0,6.9,0,10.4
			c0,0.6,0.1,1.3-0.4,1.8c-0.3,0.1-0.5-0.2-0.8-0.2c-0.5-0.5-0.4-1.2-0.4-1.8c0-3.1,0-6.1,0-9.2c0-1.4-0.1-1.5-1.3-0.8
			c-2.3,1.4-4.6,2.8-6.9,4.2c-0.9,0.6-1.2,1.3-1.2,2.4c0,3.4,0,6.8,0,10.2c0,0.6,0.2,1.4-0.6,1.6c-0.1,0-0.1,0-0.2-0.1
			c-0.7-0.4-0.6-1.1-0.6-1.8c0-3.1,0-6.3,0-9.4c0-1.3-0.1-1.3-1.1-0.7c-2.5,1.6-5.1,3.1-7.6,4.7c-0.8,0.5-1.2,1.2-1.2,2.2
			c0,3.5,0,7,0,10.5c0,0.6,0.1,1.3-0.4,1.8c-1.2-0.3-1.8-0.9-1.8-2.5c0.1-14.7,0-29.5,0-44.2c0.1-0.1,0.1-0.1,0.2-0.2
			c0.6-0.2,1.2-0.3,1.7,0.2c0.4,0.6,0.3,1.4,0.3,2.1c0,6.8,0,13.6,0,20.4c0,0.4-0.1,0.8,0.1,1.2c3.1-4.8,6.2-9.6,9.2-14.3
			c0.4-0.7,0.6-1.5,0.6-2.3c0-1.8,0-3.6,0-5.4c0-0.7,0-1.4,0.5-1.9c0.2-0.1,0.4-0.2,0.6-0.1c0.5,0.4,0.4,1,0.4,1.5
			c0,1.6,0,3.1,0,4.9c1-1,1.5-2.2,2.2-3.3c0.7-1,1.2-2.3,2.2-3.1c0.2-0.1,0.5-0.1,0.7,0c0.4,0.6,0,1-0.3,1.4c-3.1,5.1-6.4,10-9.6,15
			c-1.4,2.2-2.7,4.4-4.4,6.8c2.3-1.2,4.1-2.5,6.1-3.7c0.5-0.3,0.7-0.9,1-1.3c3.6-5.6,7.2-11.2,10.8-16.8c0.4-0.5,0.7-1.2,1.4-1.2
			c0.2,0,0.4,0.1,0.5,0.3c0.3,0.6,0.2,1.2,0.2,1.9c0,2.5,0,4.9,0,7.4c0,0.6,0.1,1.2,0.8,0.7c2.5-1.6,5-3,7.5-4.7
			c0.7-0.4,0.8-1.1,0.8-1.8c0-1.9,0-3.9,0-5.8c0-0.6-0.1-1.3,0.4-1.8c0.4-0.2,0.7,0.1,0.8,0.4c0.1,0.1,0.1,0.3,0.1,0.4
			c0.1,1.9,0,3.8,0,5.8c0,1.2,0.2,1.3,1.2,0.7c2.6-1.5,5.1-3.1,7.6-4.7C621,417.9,621.4,417.3,622.1,417.7z"/>
		<path id="XMLID_221_" class="st17" d="M622.1,379.4c-2.2,1-4.2,2.5-6.4,3.7c-1.1,0.7-2.3,1.4-3.4,2.1c-0.8,0.5-1.1,0.3-1.1-0.7
			c0-6.8,0-13.6,0-20.4c0-1,0.4-1.2,1.2-0.9c0.6,0.2,1.1,0.5,1.7,0.4c5,2.5,7.1,7,7.7,12.6C622.1,377.3,622.2,378.4,622.1,379.4z"/>
		<path id="XMLID_220_" class="st17" d="M622.1,417.7c-2.3,1-4.2,2.5-6.3,3.7c-1.1,0.6-2.2,1.4-3.3,2.1c-0.9,0.6-1.1,0.2-1.1-0.7
			c0-2.1,0-4.3,0-6.4c0.7,0,0.7,0.7,0.9,1.1c0.2,0.4,0.2,0.9,0.5,1.2c0.2,0.2,0.3,0.3,0.6,0.2c0.2-0.1,0.3-0.3,0.2-0.6
			c0-0.2-0.1-0.4-0.1-0.5c-0.6-1.5-0.8-2.8,0.1-4.4c0.9-1.7,0.1-3.3-1.7-4c-0.2-0.1-0.4-0.2-0.5-0.4c0-0.5,0.1-1.1,0-1.6
			c-0.4-3,0.6-5.5,2.3-7.9c2.5-3.6,4.8-7.4,7.2-11.1c0.3-0.5,0.6-1.1,1.3-1.2c0,7.3,0,14.6,0,21.9c-0.6,0.5-1.2,0.4-1.8,0
			c-0.4-0.6-0.3-1.3-0.3-1.9c0-2.6,0-5.2,0-7.8c0-0.7,0-1.4-0.5-2c-1.7-0.9-2.9-0.2-3,1.8c-0.1,2.8,0,5.6,0,8.4c0,0.6,0,1.3-0.1,1.9
			c0,0.1,0,0.3-0.1,0.4c-0.5,1-0.4,2.1-0.4,3.2c0,1.4,0,2.9,0,4.3c0,0.5-0.2,1.3,0.5,1.4c0.8,0.1,0.5-0.8,0.7-1.3c0,0,0-0.1,0-0.1
			c0-0.1,0.1-0.3,0.2-0.4c1.5,0.1,2.3-0.9,3.1-2c0.1-0.1,0.3-0.1,0.5-0.2c0.2-0.1,0.5-0.1,0.6-0.4c0-0.3-0.2-0.4-0.4-0.6
			c-0.3-0.1-0.6-0.2-0.8-0.6c-0.2-0.8-0.2-1.5,0.1-2.3c0.6-0.7,1.2-0.8,1.9-0.2C622.1,413.1,622.1,415.4,622.1,417.7z"/>
		<path id="XMLID_219_" class="st17" d="M611,445.9c0.5-0.3,0.3-0.9,0.3-1.4c0-3.7,0-7.5,0-11.2c0-0.9,0.2-1.4,1-1.8
			c3.3-2.1,6.7-4,9.9-6.2c0,4.4,0,8.9,0,13.3c0,0.5-0.1,0.9-0.6,1.2c-3.3,2-6.6,4-9.8,6C611.5,446,611.3,446.3,611,445.9z"/>
		<path id="XMLID_218_" class="st17" d="M578.5,466.3c0-4.2,0-8.5,0-12.7c0-1,0.3-1.5,1.1-2c2.9-1.7,5.7-3.5,8.6-5.3
			c0.2-0.2,0.5-0.4,0.9-0.3c0,3.7,0,7.5,0,11.3c0,0.6-0.1,1.2,0.2,1.7c-0.3,0.3-0.2,0.8-0.6,1.1C585.3,462.2,582,464.4,578.5,466.3z
			"/>
		<path id="XMLID_217_" class="st17" d="M589.6,459.1c0.5-0.3,0.3-0.9,0.3-1.4c0-3.8,0-7.5,0-11.3c0-0.7,0.1-1.2,0.7-1.5
			c2.7-1.6,5.5-3.3,8.2-5c1.1-0.7,1.2-0.7,1.2,0.8c0,3.9,0,7.8,0,11.7c0,0.5-0.1,0.9-0.6,1.2c-3,1.8-6.1,3.7-9.1,5.6
			C590,459.3,589.8,459.5,589.6,459.1z"/>
		<path id="XMLID_216_" class="st17" d="M600.7,452.6c0-4.3,0-8.5,0-12.8c0-0.7,0.1-1.3,0.8-1.6c2.9-1.7,5.7-3.5,8.6-5.3
			c0.1-0.1,0.2,0,0.5-0.1c0,3.8,0,7.6,0,11.3c0,0.6-0.1,1.2,0.2,1.7c-0.2,0.7-0.6,1.1-1.2,1.4C606.6,449,603.8,451,600.7,452.6z"/>
		<path id="XMLID_215_" class="st37" d="M576.7,419.6c-0.9,0-1.8,0-2.8,0c-1,0-1.6-0.5-1.5-1.6c0.1-1.6,0-3.2,0-4.8
			c0-0.7,0.2-1.2,0.8-1.5c0.4-0.1,0.7-0.4,0.8-0.8c0.3-1.5,1.3-1.9,2.7-1.7c0,0.1,0.1,0.1,0.1,0.2c0.1,0.2,0,0.4-0.2,0.6
			c-2,0.5-3.6,2.8-3.6,5.1c0,0.8,0,1.6,0,2.4c0,0.5,0,1,0.5,1.3c0.5,0.3,1,0,1.4-0.3c0.6-0.5,1.1-1.3,1.9-0.6c0.3,0.7,0.3,1.4-0.1,2
			L576.7,419.6z"/>
		<path id="XMLID_214_" class="st38" d="M576.7,408.8c0.8,0,1.7,0,2.5,0c1.1-0.6,2.2-0.5,3.2,0.2c0.4,0.3,0.7,0.8,0.4,1.4
			c-0.3,0.6-0.7,0.4-1.2,0.2c-0.7-0.4-1.5-0.2-2.2-0.4c-0.7-0.9-1.9-0.5-2.7-1.1l-0.1,0C576.7,409,576.7,408.9,576.7,408.8z"/>
		<path id="XMLID_213_" class="st39" d="M622.1,410.7c-0.6,0-1.2-0.1-1.7,0.3c-0.1-0.1-0.2-0.2-0.2-0.3c-0.1-0.5-0.1-1,0.1-1.4
			c0,0,0.1-0.1,0.1-0.1c0.6,0,1.1,0,1.7,0C622.2,409.6,622.2,410.2,622.1,410.7z"/>
		<path id="XMLID_212_" class="st17" d="M589.9,399c0-0.9,0-1.7,0-2.5c0-6.4,0-12.9,0-19.3c0-0.7,0-1.4,0.5-2
			c2.6-2.9,5.2-5.8,8.4-7.9c0.3-0.2,0.6-0.6,1-0.4c0.4,0.2,0.2,0.7,0.2,1.1c0,7.9,0,15.8,0,23.7c0,0.7,0,1.2-0.6,1.6
			c-3,1.8-5.9,3.6-8.9,5.4C590.3,398.9,590.1,398.9,589.9,399z"/>
		<path id="XMLID_211_" class="st17" d="M600.8,392.1c-0.2-0.3-0.1-0.7-0.1-1c0-8,0-15.9,0-23.9c0-1,0.4-1.5,1.2-1.9
			c2.5-1.3,5.1-2.1,7.8-2.3c0.7-0.1,0.9,0.1,0.9,0.9c0,7.2,0,14.5,0,21.7c0,0.4,0,0.8-0.4,1c-3.1,1.9-6.1,3.7-9.2,5.6
			C600.9,392.2,600.9,392.2,600.8,392.1z"/>
		<path id="XMLID_210_" class="st18" d="M579.2,409.9c1,0.2,2.1-0.5,2.9,0.6c0.2,0.2,0.4,0,0.5-0.2c0.2-0.2,0.1-0.5,0-0.7
			c-0.4-0.5-0.9-0.8-1.5-0.8c-0.6,0-1.2,0-1.9,0c-0.3-1.6,0.5-2.5,1.7-3.2c9.1-5.5,18.2-11.1,27.3-16.7c4.1-2.5,8.2-5.1,12.3-7.7
			c0.9-0.6,0.9-0.2,0.9,0.6c0,0.9-0.1,1.9,0,2.8c0.2,1.4-0.4,2.2-1.5,2.8c-8.5,5.2-17,10.4-25.5,15.7c-3.6,2.2-7.1,4.4-10.7,6.6
			c-0.5,0.3-0.8,0.6-0.8,1.2c0.1,0.1,0.1,0.1,0.1,0.2c0,0.1,0,0.1,0,0.1c-0.1,0.2-0.2,0.3-0.4,0.3c-0.2,0-0.4,0-0.5-0.1
			c-0.5-0.3-0.9,0-1.2,0.3c-1.3,1.2-2.4,0.5-3.5-0.3C578,411.1,579,411,579.2,409.9z"/>
		<path id="XMLID_209_" class="st17" d="M583,411.2c0-0.1,0-0.2,0-0.2c2.1-0.8,3.9-2.3,5.9-3.4c0.1,0.5,0.3,1,0.4,1.5
			c0,0.1-0.1,0.1-0.1,0.2c-1,0.2-1.2,0.7-0.9,1.8c0.4,2.1,0.1,4.2,0.2,6.3c0,0.6-0.1,1.4,0.6,1.8c0.1,0.1,0.2,0.2,0.3,0.3
			c-0.4,2.5-0.1,4.9-0.2,7.4c0,0.9-0.2,1.6-0.7,2.4c-3.1,4.8-6.2,9.6-9.3,14.4c-0.1,0.2-0.2,0.6-0.7,0.7c0-0.4,0-0.9,0-1.3
			c0-7.2,0-14.4,0-21.6c0-0.6-0.1-1.2-0.1-1.7c0.1-0.1,0.2-0.2,0.3-0.2c1.1-0.2,2.3-0.1,3.4-0.1c1.8,0,2.1-0.3,2.1-2.2
			c0-0.5,0-1.1,0-1.6C584.3,413.9,584.3,412.4,583,411.2z"/>
		<path id="XMLID_208_" class="st17" d="M578.4,406.2c0.6-11.1,4.5-20.4,10.5-29c0.4,0.4,0.3,0.8,0.3,1c0,6.7,0,13.4,0,20.1
			c0,0.5,0.1,1.1-0.4,1.5C585.3,401.9,582,404,578.4,406.2z"/>
		<path id="XMLID_207_" class="st17" d="M594.7,419.4c-1.5,2.4-3,4.8-4.5,7.1c-0.1,0-0.2-0.1-0.3-0.1c0-2.3,0-4.7,0-7
			c-0.3-0.4-0.3-0.8-0.3-1.3c0-2.5,0-5,0-7.5c0-0.4,0-0.9,0.3-1.3c-0.3-1.9,0.6-2.9,2.1-3.7c2.4-1.3,4.6-2.7,6.9-4.2
			c1-0.6,1.2-0.3,1.1,0.8c0,2.3,0,4.6,0,6.9c0,0-0.1,0.1-0.1,0.1c-0.3,0.2-0.7,0.2-0.7,0.6c0,0.5,0.4,0.5,0.7,0.7
			c0.1,0.1,0.2,0.1,0.3,0.2c0,0.1,0.1,0.2,0.1,0.4c-1.2,2.6-2.8,4.9-4.5,7.1c-0.1,0.1-0.2,0.1-0.4,0.1c-0.4,0.1-0.8,0.1-1.3,0
			c-0.6,0-1.4,0-1.5-0.9c-0.2-0.9,0.1-1.7,0.9-2.2c0.6-0.3,1.3-0.5,1.9-0.8c1.4-0.6,1.9-1.5,1.8-2.7c-0.2-1.3-1-2.1-2.4-2.3
			c-0.8-0.1-1.7-0.1-2.5,0c-0.2,0-0.4,0.2-0.4,0.4c0,0.2,0.2,0.3,0.4,0.3c0.4,0.1,0.8,0.1,1.3,0.1c0.5,0,1.1,0,1.6,0.2
			c1.2,0.5,1.5,1.6,0.5,2.6c-0.6,0.6-1.3,0.8-2,1.1c-1.8,0.7-2.4,1.7-2.3,3.8c0,0.7,0.3,1,1,1.1c0.8,0,1.6-0.2,2.4,0.2
			C594.6,419.3,594.6,419.3,594.7,419.4z"/>
		<path id="XMLID_206_" class="st18" d="M601.7,408.5c0.8,0.5,1-0.4,1.3-0.8c2.3-3.5,4.7-7,6.8-10.7c1.8-3.3,4.5-5.3,7.6-7
			c0.8-0.4,1.6-1,2.5-1.3c-3.4,5.3-6.7,10.5-10.1,15.8c-0.8,1.2-1.5,2.4-2.3,3.6c-0.2,0.3-0.5,0.7,0.2,0.8c0.1,0.1,0,0.2,0,0.3
			c-0.1,0.1-0.2,0.2-0.3,0.2c-0.9,0.3-0.9,1.4-1.7,1.9c-0.8-1.2-1.9-1.7-3.3-1.8c-0.3,0-0.7-0.1-0.9-0.4
			C601.3,408.8,601.3,408.6,601.7,408.5z"/>
		<path id="XMLID_205_" class="st17" d="M601.7,408.5c-0.1,0.2-0.2,0.3-0.3,0.5c-0.3,0.5-0.5,0.6-0.8,0c0-2.6,0.1-5.1,0.1-7.7
			c0-0.7,0.1-1.2,0.7-1.6c3-1.8,6-3.7,9.2-5.3C607.6,399.2,604.7,403.9,601.7,408.5z"/>
		<path id="XMLID_204_" class="st40" d="M607.3,409.1c0.1,0,0.2,0,0.2,0c1.1-0.6,2.1-0.6,3.2,0c-0.2,0.5-0.2,1.1-0.2,1.7
			c-0.2,0.2-0.4,0.3-0.7,0.3c-0.6,0.1-1,0.4-1,1.1c0,0.7,0.2,1.2,0.9,1.4c0.4,0.1,0.8,0.1,1,0.5c0.2,0.6,0.2,1.1-0.2,1.6
			c-1.1,0.3-1.5,1.1-1.4,2.3c0,0.7,0,1.5-0.9,1.7c-1,0.2-1.6-0.3-1.6-1.5c-0.1-2.3,0-4.6,0-6.9c0-0.3,0-0.5,0-0.8
			C606.5,409.8,607,409.5,607.3,409.1z"/>
		<path id="XMLID_203_" class="st41" d="M600.6,409.1c0.3,0.4,0.5,0.1,0.8,0c0.8,0.1,1.7,0.2,2.5,0.3c1,0.2,1.3,1.2,1.8,1.9
			c0.1,0.1,0.2,0.2,0.2,0.3c0.1,1.2-0.5,2-1.3,2.7c-0.5,0.4-0.7,1.2-1.5,1.2c-0.1,0-0.3-0.1-0.4-0.1c-0.7-0.2-1.3-0.1-2-0.2
			c-1.4-0.1-1.6-0.5-1.3-2c0.5-0.4,1-0.3,1.5-0.4c0.5,0,0.9,0,1.4-0.1c0.4-0.1,0.7-0.3,0.7-0.8c0-0.5-0.4-0.7-0.7-0.8
			c-0.8-0.2-1.8,0.2-2.6-0.4l0,0c-0.4-0.5-0.4-1.1,0-1.6l0,0C600.2,409.1,600.4,409.1,600.6,409.1z"/>
		<path id="XMLID_202_" class="st42" d="M611.3,409.1c1.1,0.1,2.1,0.3,2.5,1.6c0.4,1.4,0.5,2.8-0.5,3.9c-0.4,0.5-0.5,0.8-0.2,1.4
			c0.3,0.7,0.5,1.5,0.7,2.3c0.1,0.4,0.5,0.9-0.2,1.1c-0.5,0.1-1.2,0.3-1.4-0.6c-0.3-0.8-0.3-1.7-0.9-2.3c0-0.1,0-0.2,0-0.3
			c0.1-0.8-0.3-1.6,0-2.4l0.1,0c0.9-1.4,0.9-1.7,0-2.7C611.3,410.3,611.3,409.7,611.3,409.1z"/>
		<path id="XMLID_201_" class="st43" d="M589.8,409.4c0,3.3,0,6.7,0,10c-0.2,0-0.3,0-0.5,0.1c-0.1,0-0.1,0-0.2-0.1
			c-0.4-0.5-0.4-1.1-0.4-1.6c0-2.3,0-4.5,0-6.8c0-0.7,0-1.4,0.6-1.8l0,0C589.5,409.2,589.6,409.3,589.8,409.4z"/>
		<path id="XMLID_200_" class="st44" d="M610.8,409.1c-1.1,0-2.1,0-3.2,0c0-0.1,0-0.2,0-0.2c1-1.4,1.9-2.7,2.9-4.2
			C610.8,406.2,610.3,407.7,610.8,409.1z"/>
		<path id="XMLID_199_" class="st45" d="M610.5,413.9c-1,0-2,0.2-2-1.4c0-1.8,0-1.8,2-1.8c0.1,1-0.2,2,0.2,2.9
			C610.8,413.8,610.7,413.9,610.5,413.9z"/>
		<path id="XMLID_198_" class="st46" d="M611.3,411c0.7-0.3,0.9,0.2,1,0.8c0.1,0.8,0.2,1.8-1,1.9C611.3,412.8,611.3,411.9,611.3,411
			z"/>
		<path id="XMLID_197_" class="st47" d="M610.5,413.9c0.1-0.1,0.2-0.2,0.3-0.3c0.2,0,0.3,0,0.5,0c0.4,0.8,0.4,1.6,0,2.4
			c-0.1-0.2-0.3-0.4-0.5-0.5c-0.1,0.1-0.2,0.1-0.2-0.1C610.6,415,610.6,414.5,610.5,413.9z"/>
		<path id="XMLID_196_" class="st18" d="M621.4,422.3c0.5,2-0.6,3.1-2.4,4.1c-6.7,4-13.4,8.3-20,12.4c-6.1,3.8-12.3,7.6-18.4,11.3
			c-1.2,0.7-1.3,0.7-1.3-0.8c0-4.3,0-4.3,3.6-6.5c8.6-5.3,17.1-10.6,25.7-15.9c4-2.5,8.1-4.9,12.1-7.5c0.8-0.5,0.8-0.1,0.8,0.5
			C621.4,420.7,621.4,421.3,621.4,422.3z"/>
		<path id="XMLID_195_" class="st18" d="M599.7,413.2c-0.2,1.3,0.3,1.7,1.5,1.6c0.7-0.1,1.5-0.4,2,0.5c-0.1,0.2-0.3,0.3-0.4,0.5
			c-0.9,1.4-1.6,3-3.6,2.6c0,0.8,1,0.4,1,1.2c-0.9,0.6-1.3,1.7-1.9,2.6c-3.4,5.2-6.7,10.4-10,15.6c-0.6,1-1.5,1.4-2.3,2
			c-1.7,1.1-3.5,2.2-5.6,3.5c0.8-1.8,1.8-3,2.6-4.3c3.9-6.2,7.9-12.4,11.8-18.5c0.2-0.3,0.4-0.7,0.6-1c0.2-0.3,0.5-0.3,0.7-0.4
			c0.8-0.2,0.5-0.6,0.2-1c-0.1-0.4,0.1-0.7,0.3-1c1.1-1.4,1.7-3.1,3-4.2c0.1,0.1,0.1,0.1,0.1,0.2
			C599.8,413.1,599.7,413.2,599.7,413.2z"/>
		<path id="XMLID_194_" class="st17" d="M610.6,415.5c0.1,0,0.1,0,0.2,0.1c-0.5,1.9-0.3,3.9-0.2,5.9c0.2,2.3-0.5,3.8-2.5,4.8
			c-2.5,1.2-4.8,2.9-7.4,4.5c0-3.9,0-7.5,0-11.2c0.1-0.3,0.3-0.4,0.6-0.5c0.5-0.1,1-0.1,1.5-0.1c2.1,0,3-1.6,2.2-3.7
			c-0.1-0.4-0.5-0.6-0.5-1.1c0.6-0.8,1.2-1.6,1.2-2.7c0.3-0.5,0.4-1.1,1-1.4c0.5,0.9,0.2,1.8,0.2,2.7c0.1,1.8,0,3.7,0,5.5
			c0,0.7,0.2,1,0.9,1c0.6,0,1-0.2,0.9-0.9c0-0.3,0-0.6,0-0.9C608.8,415.6,608.8,415.6,610.6,415.5z"/>
		<path id="XMLID_193_" class="st17" d="M599.9,421.3c0,3.2,0,6.3,0,9.3c0,0.6-0.3,0.9-0.7,1.1c-2.8,1.7-5.5,3.4-8.3,5.1
			c-0.3,0.2-0.6,0.5-0.9,0.2c-0.3-0.3,0-0.6,0.2-0.9c3.1-4.8,6.2-9.7,9.3-14.5C599.6,421.5,599.7,421.5,599.9,421.3z"/>
		<path id="XMLID_192_" class="st48" d="M577.5,411.8c0.6,0.1,1.4-0.4,1.9,0.6c0.1,0.2,0.5-0.1,0.7-0.2c0.5-0.3,0.9-0.7,1.4-1
			c0.4-0.3,0.8-0.4,0.9,0.3c-0.3,1.1-1.4,1.1-2.1,1.8c-1.5,0.5-1.5,1.8-1.4,3.2c0,0.4,0,0.9,0,1.3c0,0.6,0.1,1.3-0.4,1.8
			c0,0-0.1,0-0.1,0c-0.5,0-1.1,0-1.6,0c0-0.7-0.1-1.4-0.1-2.2c-0.6-1.7-0.4-3.5-0.2-5.3C576.7,411.8,577,411.5,577.5,411.8z"/>
		<path id="XMLID_191_" class="st49" d="M601.2,419.3c-0.2,0.1-0.3,0.2-0.5,0.3c-0.2,0-0.3,0-0.5,0c-0.3-0.4-0.7-0.2-1.1-0.3
			c-0.4-0.1-0.4-0.3-0.4-0.7c0-0.3,0.1-0.7,0.5-0.6c1.8,0.4,2.5-0.8,3.2-2.2c0.2-0.3,0.5-0.5,0.8-0.5l0,0c0.1,0.2,0.2,0.3,0.2,0.5
			c-0.2,0.8-0.8,1.4-1.2,2C601.8,418.3,601.7,419,601.2,419.3z"/>
		<path id="XMLID_190_" class="st50" d="M596.4,418c0.5,0,0.8,0.2,0.7,0.8c0,0.6-0.4,0.6-0.8,0.6c-0.3,0-0.7,0-1,0
			c-0.2,0-0.5,0-0.7,0c0,0,0,0,0,0c-0.1-0.7,0.4-1,0.8-1.4c0.1,0,0.1,0,0.2,0C595.9,417.8,596.2,417.7,596.4,418z"/>
		<path id="XMLID_189_" class="st21" d="M619.6,397c0.8,0.3,0.8,1,0.8,1.8c0,3.4,0,6.9,0,10.3l-0.1,0c-0.9,0.6-1.8,0.3-2.7,0.4
			c-0.2,0-0.3-0.1-0.3-0.3c0-3.1-0.1-6.2,0-9.3C617.4,398.2,618.2,397.3,619.6,397z"/>
		<path id="XMLID_188_" class="st20" d="M619.6,397c-1.6,0.9-2.1,2.3-2,4.2c0.1,2.1,0,4.1,0,6.2c0,0.7-0.1,1.3-0.3,2
			c-0.3,0.4-0.8,0.4-1.2,0.3c-0.2-3.6-0.1-7.2,0-10.9C616.2,396.6,617.8,395.9,619.6,397z"/>
		<path id="XMLID_187_" class="st51" d="M616.2,409.6c0.4-0.3,0.8-0.3,1.2-0.3c0.1,0,0.2,0,0.2,0c0.4,0.4,0.3,1,0.3,1.5
			c-0.2,0.8-0.3,1.7-0.1,2.6c0.1,0.5,0.1,1,0,1.5c-0.2,0.6-0.1,1.3-0.5,1.9l0,0c-0.9,0-1.4-0.6-1.5-1.5c-0.1-1.8-0.2-3.7,0.1-5.5
			C616.1,409.8,616.1,409.7,616.2,409.6z"/>
		<path id="XMLID_186_" class="st52" d="M616,409.9c0,1.5,0.1,2.9,0,4.4c-0.1,1.2,0.3,2.1,1.3,2.6c0,0.5,0,1,0,1.5
			c0,0.6-0.1,1-0.8,1c-0.7,0-1-0.2-1-1c0-2.4,0-4.7,0-7.1C615.6,410.7,615.7,410.3,616,409.9z"/>
		<path id="XMLID_185_" class="st53" d="M617.6,413.4c-0.4-0.8-0.3-1.7,0-2.5c0.8-1,1.8-0.8,2.8-0.3c0,0.1,0,0.2,0,0.3
			c0,0.8,0,1.6,0,2.4c-0.1,0.1-0.1,0.1-0.2,0.2C619.4,413.9,618.5,414,617.6,413.4z"/>
		<path id="XMLID_184_" class="st54" d="M617.4,416.8c0-0.6-0.1-1.3,0.3-1.8c0.8-0.6,1.7-0.5,2.6-0.2c0.1,0.1,0.1,0.1,0.2,0.2
			C619.3,417.2,618.8,417.5,617.4,416.8z"/>
		<path id="XMLID_183_" class="st40" d="M620.4,413.4c0.5,0.1,1.3-0.3,1.4,0.6c0.3,1.4-0.8,0.9-1.5,1l-0.1,0
			C620,414.5,620,414,620.4,413.4L620.4,413.4z"/>
		<path id="XMLID_181_" class="st16" d="M576.8,412.1c0-0.8-0.1-1.6-0.1-2.4c0-0.2,0.1-0.4,0.1-0.6c0.5,0,1.1,0,1.6,0
			c0.6-0.1,0.9,0.2,0.9,0.8c0.5,1.7-0.9,1.5-1.8,1.9C577.2,411.9,577,412,576.8,412.1z"/>
		<path id="XMLID_180_" class="st55" d="M620.4,410.7c-0.9,0.1-1.9-0.2-2.8,0.3c0-0.5,0-1.1,0-1.6c0.9-0.5,1.8-0.2,2.7-0.3
			C620.4,409.6,620.4,410.2,620.4,410.7z"/>
		<path id="XMLID_179_" class="st56" d="M580.2,413.1c0.5-0.8,1.5-0.8,2.1-1.5c0.1,0,0.3,0,0.4-0.1c1.1,0.2,1.6,0.9,1.6,2.2
			c-0.1,1.3,0,2.6,0,3.9c0,1.5-0.9,2.3-2.1,1.6c-1.2-0.7-2.5-1-3.7-1.5c0-0.4,0-0.9,0-1.3C579.8,415.8,580.4,414.6,580.2,413.1z"/>
		<path id="XMLID_178_" class="st57" d="M578.5,417.7c1.3,0,2.5-0.1,3.6,1.1c0.8,0.9,2,0.2,2-1.1c0-1.1-0.1-2.3,0-3.4
			c0.1-1.3-0.1-2.3-1.3-2.8c0.1-0.1,0.2-0.2,0.3-0.3c1.1,0.5,1.7,1.4,1.5,2.7c-0.1,1.2,0,2.3,0,3.5c0,1.6-0.5,2.1-2,2.1
			c-1.3,0-2.7,0-4,0C578.5,419,578.5,418.4,578.5,417.7z"/>
		<path id="XMLID_177_" class="st58" d="M589.3,409.1c-0.4,1.5-0.1,3-0.2,4.5c0,1.9,0,3.8,0,5.8c-0.8,0.1-1-0.2-1-1
			c0-1.9,0-3.7,0-5.6c0-0.8,0.1-1.5-0.4-2.3C587.1,409.5,587.6,409.1,589.3,409.1z"/>
		<path id="XMLID_176_" class="st42" d="M595.4,418c0,0.6-0.6,0.9-0.8,1.4c-1,0-1.9,0-2.9,0c-0.7,0-0.9-0.2-0.9-0.9
			c-0.2-3.1,0.3-3.8,3.1-4.8c0.5-0.2,1-0.3,1.3-0.7c0.3-0.4,0.8-0.7,0.6-1.2c-0.2-0.5-0.6-1-1.2-1c-0.9,0-1.8,0-2.6,0
			c-0.5,0-0.8-0.1-0.8-0.7c0-0.5,0.2-0.9,0.8-0.8c1.1,0,2.3-0.2,3.4,0.2c1.3,0.4,2,1.3,2.1,2.6c0.1,1.3-0.4,2.3-1.6,2.8
			c-0.7,0.3-1.3,0.6-2,0.8c-1,0.2-1,1.1-1.1,1.8c-0.1,0.6,0.4,0.7,0.8,0.7C594.2,418,594.8,418,595.4,418z"/>
		<path id="XMLID_175_" class="st59" d="M599.7,413.2c0-0.1,0-0.2,0-0.3c-0.3-0.7,0.8-1.1,0.3-1.9c0-0.1,0-0.2,0-0.2
			c0.9,0,1.8-0.1,2.6,0c0.8,0,1.2,0.4,1.2,1.3c0,0.7-0.4,1.1-1.1,1.2C601.6,413.2,600.7,413.2,599.7,413.2z"/>
		<path id="XMLID_174_" class="st60" d="M600,411c0.4,0,1-0.1,0.5,0.7c-0.3,0.4-0.5,0.8-0.8,1.2c-1.1,1.7-2.2,3.4-3.3,5.1
			c-0.3,0-0.5,0-0.8,0C597.1,415.6,598.5,413.3,600,411z"/>
		<path id="XMLID_173_" class="st52" d="M599.9,409.1c0,0.5,0,1.1,0,1.6c-0.5-0.1-1.2,0.3-1.2-0.8
			C598.6,408.9,599.4,409.2,599.9,409.1z"/>
		<path id="XMLID_172_" class="st16" d="M606.8,410.2c-0.3,0.5-0.5,1.1-1,1.4c0-0.1,0-0.2,0-0.3c0-1.1,0.6-1.8,1.5-2.2
			C607.3,409.6,606.9,409.8,606.8,410.2z"/>
		<path id="XMLID_171_" class="st40" d="M601.2,419.3c0.2-0.6,0.4-1.1,0.8-1.6c1.4-0.4,1.5-0.6,1.3-1.9c0-0.2,0-0.3,0-0.5
			c0.6-0.1,0.7-0.9,1.3-1.1c1,0.9,1.3,2.4,0.9,3.7c-0.5,1.3-1.5,1.5-2.6,1.4C602.3,419.3,601.7,419.3,601.2,419.3z"/>
		<path id="XMLID_170_" class="st61" d="M580.2,413.1c0.7,1.7,0,3.1-1.7,3.3C578.5,413.7,578.5,413.7,580.2,413.1z"/>
		<path id="XMLID_169_" class="st62" d="M603.3,415.8c0.9,0,0.5,0.8,0.4,1c-0.3,0.7-0.7,1.6-1.7,0.9
			C602.4,417.1,602.8,416.4,603.3,415.8z"/>
		<path id="XMLID_168_" class="st63" d="M620.3,413.4c0.1,0.5,0.1,1.1,0,1.6c-0.9,0-1.8,0-2.7,0c0-0.5,0-1.1,0-1.6
			C618.5,413.4,619.4,413.4,620.3,413.4z"/>
	</g>
	<rect id="XMLID_77_" x="561.7" y="426.6" class="st64" width="1.7" height="1.4"/>
</g>
<g id="Ebene_3" class="st34">
	<path id="XMLID_75_" class="st65" d="M524.6,497.5l42.5-24l-0.6-66.8c0,0-2.1-9-10.3-10.6l-1.6-0.2c0,0-8.7,1.5-8.7,2.6l-0.9,0.2
		c0,0-8.5,7-9.3,8.3c-0.8,1.3-1.2,1.7-1.2,1.7s-9.1,15-9.5,25.1L524.6,497.5z"/>
	<g id="XMLID_80_" class="st35">
		<path id="XMLID_81_" class="st17" d="M535.8,408.1c0,0-3.8,5-6.6,12.8c-1.7,4.7-2.7,10.5-2.9,16.3c-0.6,13.9-0.2,52.4-0.2,60.3
			l10.9-6.3L535.8,408.1z"/>
		<path id="XMLID_82_" class="st17" d="M545.8,399.3c0,0-7.8,6.2-9,8.3l0.6,83.4l9.5-5.5L545.8,399.3z"/>
		<path id="XMLID_83_" class="st17" d="M555.6,396.6c0,0-7,0.9-8.9,2.6l0.8,85.9l9.8-5.7L555.6,396.6z"/>
		<path id="XMLID_84_" class="st17" d="M566.5,407.4c0,0-1.9-9.6-9.9-10.5L558,479l9.1-5.3L566.5,407.4z"/>
	</g>
	<g id="XMLID_89_" class="st35">
		<g id="XMLID_88_">
			<path id="XMLID_76_" class="st20" d="M561.8,446.3L561.8,446.3c-0.7,0-1.3-0.6-1.3-1.3v-12.5c0-0.7,0.6-1.3,1.3-1.3l0,0
				c0.7,0,1.3,0.6,1.3,1.3v12.5C563.2,445.7,562.6,446.3,561.8,446.3z"/>
			<rect id="XMLID_78_" x="561.8" y="431.1" class="st20" width="1" height="0.9"/>
			<rect id="XMLID_79_" x="561.7" y="445.4" class="st20" width="1" height="0.9"/>
		</g>
		<path id="XMLID_74_" class="st21" d="M562.8,446.3L562.8,446.3c-0.7,0-1.3-0.6-1.3-1.3v-12.5c0-0.7,0.6-1.3,1.3-1.3l0,0
			c0.7,0,1.3,0.6,1.3,1.3v12.5C564.1,445.7,563.5,446.3,562.8,446.3z"/>
	</g>
	<g id="XMLID_85_" class="st35">
		<path id="XMLID_112_" class="st18" d="M566.5,411.2l-40.2,22.6c0,0-0.3,6.5-0.4,7.7c0,1.2,40.5-23,40.5-23L566.5,411.2z"/>
	</g>
	<g id="XMLID_86_" class="st35">
		<path id="XMLID_107_" class="st18" d="M567.1,447.6l-41.2,22.6c0,0-0.3,6.5-0.4,7.7c0,1.2,41.5-23,41.5-23L567.1,447.6z"/>
	</g>
	<polygon id="XMLID_87_" class="st66" points="566.5,418.6 536.6,464.3 525.9,470.1 557,424.2 	"/>
</g>
</svg>
