<?xml version="1.0" encoding="utf-8"?>
<!-- Generator: Adobe Illustrator 19.0.0, SVG Export Plug-In . SVG Version: 6.00 Build 0)  -->
<svg version="1.1" id="Ebene_1" xmlns="http://www.w3.org/2000/svg" xmlns:xlink="http://www.w3.org/1999/xlink" x="0px" y="0px"
	 viewBox="-233 23.3 375 550" style="enable-background:new -233 23.3 375 550;" xml:space="preserve">
<style type="text/css">
	.st0{fill:#473437;}
	.st1{fill:#82BD53;}
	.st2{opacity:0.57;fill:#44A84E;enable-background:new    ;}
	.st3{fill:#056938;}
	.st4{fill:#F9B03D;}
	.st5{fill:#009245;}
	.st6{fill:#754D24;}
	.st7{fill:#48AE4D;}
	.st8{opacity:0.39;fill:#010202;enable-background:new    ;}
	.st9{opacity:0.41;}
	.st10{fill:#010202;}
	.st11{fill:#44A84E;}
	.st12{opacity:0.41;fill:#010202;enable-background:new    ;}
	.st13{fill:#747476;}
	.st14{fill:#C3C4C6;}
	.st15{fill:#97989A;}
	.st16{fill:#BC6817;}
	.st17{fill:#DE9F5C;}
	.st18{fill:#D3842F;}
	.st19{fill:#BC6818;}
	.st20{fill:#A34617;}
	.st21{fill:#BB6417;}
	.st22{fill:#8F9194;}
	.st23{fill:#474649;}
	.st24{fill:#4E4D4F;}
	.st25{fill:#ADADB1;}
	.st26{fill:#D5D5D6;}
	.st27{fill:#77797D;}
	.st28{opacity:0.49;fill:#515152;enable-background:new    ;}
	.st29{fill:#515152;}
	.st30{fill:none;stroke:#474649;stroke-width:2;stroke-miterlimit:10;}
	.st31{fill:#F3F7E8;}
	.st32{fill:#FFFFFF;}
	.st33{font-family:'Roboto-Bold';}
	.st34{font-size:25.9211px;}
	.st35{font-size:17.12px;}
	.st36{display:none;}
	.st37{display:inline;}
	.st38{fill:#BD6B17;}
	.st39{fill:#DEDDDD;}
	.st40{fill:#CF914E;}
	.st41{fill:#B28350;}
	.st42{fill:#B38451;}
	.st43{fill:#AA6E2E;}
	.st44{fill:#B48452;}
	.st45{fill:#9F601E;}
	.st46{fill:#DEA05E;}
	.st47{fill:#DCA061;}
	.st48{fill:#DBA05F;}
	.st49{fill:#9F6222;}
	.st50{fill:#B06E23;}
	.st51{fill:#AD6C25;}
	.st52{fill:#A36726;}
	.st53{fill:#884115;}
	.st54{fill:#B38350;}
	.st55{fill:#BC671A;}
	.st56{fill:#BC691B;}
	.st57{fill:#9A5917;}
	.st58{fill:#DEA05D;}
	.st59{fill:#C69665;}
	.st60{fill:#B48654;}
	.st61{fill:#D48734;}
	.st62{fill:#BD6D18;}
	.st63{fill:#C59563;}
	.st64{fill:#DDA365;}
	.st65{fill:#9A5916;}
	.st66{display:inline;fill:#A34617;}
	.st67{display:inline;fill:#BC6817;}
	.st68{display:inline;fill:#D3842F;}
</style>
<g>
	<polygon id="XMLID_574_" class="st0" points="-183,442 -40.9,521.4 101,442 101,389.3 -40.7,471.1 -182.7,389.3 	"/>
	<polygon id="XMLID_569_" class="st1" points="-191.6,370.1 -41.2,455.4 109.4,370.1 -47,286.9 	"/>
	<path id="XMLID_578_" class="st2" d="M39.8,424.2"/>
	<path id="XMLID_575_" class="st3" d="M-167,434.1l13-7.6v-19.2c0,0-9.3-18.5-13-7V434.1z"/>
	<polygon id="XMLID_550_" class="st3" points="-130.5,441.6 -122,436.9 -122,422.3 -131,422.3 	"/>
	<polygon id="XMLID_579_" class="st3" points="85,429.6 73,423.3 72.4,393.6 87.8,389.7 	"/>
	<polygon id="XMLID_581_" class="st3" points="-2,480.3 -10.3,475.3 -11.9,451.9 -0.1,453.5 	"/>
	<path id="XMLID_583_" class="st4" d="M-23,401.7c0,0-5.8,6.3-0.5,7.5s13.2-3.4,15.3,0.9c2.2,4.2,7.1,21.9,11.9,19.6
		c4.7-2.3,39.7-22.1,39.7-22.1s9.8-4.5,0-5.7s-24.7-24.2-24.7-24.2L-23,401.7z"/>
	<ellipse id="XMLID_582_" class="st5" cx="-52.7" cy="428.4" rx="6.7" ry="3.8"/>
	<ellipse id="XMLID_584_" class="st5" cx="46.3" cy="360.4" rx="6.7" ry="3.8"/>
	<ellipse id="XMLID_585_" class="st5" cx="-35.8" cy="432.2" rx="4.6" ry="2.6"/>
	<g id="tree_x5F_1">
		<ellipse id="XMLID_586_" class="st5" cx="-165.6" cy="371.1" rx="9.8" ry="5.5"/>
		<path id="XMLID_587_" class="st6" d="M-164.4,372.6h-1.6c-1.3,0-2.4-1.1-2.4-2.4v-10.5c0-1.3,1.1-2.4,2.4-2.4h1.6
			c1.3,0,2.4,1.1,2.4,2.4v10.5C-162,371.5-163.1,372.6-164.4,372.6z"/>
		<g id="XMLID_589_">
			<path id="XMLID_603_" class="st5" d="M-178.9,340.3l-3.3,7.5c0,0,0.9,0.9,2.4,2.1l3.4-7.7C-177.4,341.4-178.3,340.8-178.9,340.3z
				"/>
			<path id="XMLID_602_" class="st5" d="M-150.2,349.5c0.6-0.5,1.3-1.1,1.9-1.7l-3.2-7.6c-0.7,0.6-1.3,1.1-2,1.6L-150.2,349.5z"/>
			<path id="XMLID_600_" class="st3" d="M-150.2,349.5c-12.8,10.6-24.6,4.1-29.5,0.3l-2.4,5.6c0,0,16.6,17.1,34.4,0L-150.2,349.5z"
				/>
			<path id="XMLID_599_" class="st5" d="M-150.2,349.5l-3.2-7.7c-9.5,6.8-18.2,3.4-23,0.3l-3.4,7.7
				C-174.8,353.6-163,360.1-150.2,349.5z"/>
			<path id="XMLID_6_" class="st7" d="M-164.9,303.9l-15.3,35.2c0,0,0.4,0.5,1.3,1.1c0.6,0.5,1.5,1.2,2.5,1.8
				c4.8,3.1,13.5,6.5,23-0.3c0.7-0.5,1.3-1,2-1.6c0.4-0.3,0.8-0.7,1.2-1.1L-164.9,303.9z"/>
		</g>
		<g id="XMLID_605_">
			<path id="XMLID_618_" class="st7" d="M-178.9,340.3l6.7-15.5l-0.9-2l-7.1,16.3C-180.2,339.1-179.7,339.6-178.9,340.3z"/>
			<path id="XMLID_620_" class="st5" d="M-178.9,340.3l-3.3,7.5c0,0,0.9,0.9,2.4,2.1l3.4-7.7C-177.4,341.4-178.3,340.8-178.9,340.3z
				"/>
			<path id="XMLID_619_" class="st8" d="M-178.9,340.3l-3.3,7.5c0,0,0.9,0.9,2.4,2.1l3.4-7.7C-177.4,341.4-178.3,340.8-178.9,340.3z
				"/>
			<path id="XMLID_622_" class="st7" d="M-170.5,328.5l-1.7-3.8l-6.7,15.5c0.6,0.5,1.5,1.2,2.5,1.8L-170.5,328.5z"/>
			<path id="XMLID_624_" class="st3" d="M-179.8,349.8l-2.4,5.6c0,0,11.8,12.2,26.2,5.7l-3-6.8C-168.2,357.2-176,352.7-179.8,349.8z
				"/>
			<path id="XMLID_623_" class="st8" d="M-179.8,349.8l-2.4,5.6c0,0,11.8,12.2,26.2,5.7l-3-6.8C-168.2,357.2-176,352.7-179.8,349.8z
				"/>
			<path id="XMLID_626_" class="st5" d="M-159,354.4l-3.9-8.8c-5.6,0.6-10.4-1.5-13.5-3.5l-3.4,7.7
				C-176,352.7-168.2,357.2-159,354.4z"/>
			<path id="XMLID_625_" class="st8" d="M-159,354.4l-3.9-8.8c-5.6,0.6-10.4-1.5-13.5-3.5l-3.4,7.7
				C-176,352.7-168.2,357.2-159,354.4z"/>
			<path id="XMLID_628_" class="st7" d="M-162.9,345.6l-7.6-17.1l-5.9,13.6C-173.3,344.1-168.5,346.3-162.9,345.6z"/>
			<path id="XMLID_8_" class="st8" d="M-170.5,328.5l-1.7-3.8l-0.9-2l-7.1,16.3c0,0,0.4,0.5,1.3,1.1c0.6,0.5,1.5,1.2,2.5,1.8
				c3.1,2,7.9,4.2,13.5,3.5L-170.5,328.5z"/>
		</g>
	</g>
	<g id="XMLID_696_" class="st9">
		<path id="XMLID_689_" class="st10" d="M-133.7,443.9l46.4,27.1c0,0,13.5,1.2,2.2-9.1l-40.9-22.8L-133.7,443.9z"/>
		<path id="XMLID_691_" class="st10" d="M29.7,473.1l15-7.1c0,0,7.7-7.3,0-8.1l-15,7.6C29.7,465.6,21.7,474.8,29.7,473.1z"/>
		<path id="XMLID_692_" class="st10" d="M18.6,460.4l50.8-25.6c0,0,11.8-15.2-1.3-10.2L14.6,453L18.6,460.4z"/>
		<path id="XMLID_693_" class="st10" d="M101,433l-42.2,25c0,0-8.3-2.1,0-9.3l42.2-24.1V433z"/>
		<path id="XMLID_694_" class="st10" d="M-27.8,484.8l12.9-8.5c0,0,5.5-4.6,0-6.4l-12.9,7.4C-27.8,477.4-35.1,484.3-27.8,484.8z"/>
		<path id="XMLID_695_" class="st10" d="M-109.5,473.1l-18.2-9.3c0,0-5.2-6.2,0.2-5.9l18,8.1C-109.5,466.1-103,473.3-109.5,473.1z"
			/>
		
			<ellipse id="XMLID_684_" transform="matrix(0.363 -0.9318 0.9318 0.363 -484.7021 238.8644)" class="st10" cx="-67.6" cy="473.9" rx="3.2" ry="5.6"/>
	</g>
	<polygon id="XMLID_580_" class="st3" points="49.2,437.9 41,432.3 41,420.3 52,415.3 	"/>
	<path id="XMLID_577_" class="st11" d="M49,422.2l-20.6,11.1c0,0-6.9,4.5-5.9,10.4c1,5.8,0,21.6,0,21.6S15,488.9-2,480.3v-21
		c0,0,6-16.8-39.7,12.8l7.8-16.7l82.9-43V422.2z"/>
	<path id="XMLID_576_" class="st11" d="M109.4,384.3c0,0-0.5,27-2.4,31.1c-1.4,3-6,27.5-22,14.3v-31.4c0,0-5-7.5-12,7.5v17.5
		c0,0-8,24.1-24,14.5v-25.5l58.4-34L109.4,384.3z"/>
	<polygon id="XMLID_1_" class="st11" points="109.4,370.1 -41.2,455.4 -191.6,370.1 -192,385.2 -41.7,472.1 109.6,386.1 	"/>
	<path id="XMLID_546_" class="st11" d="M-192,385.3v37c0,0,12,24.5,25,11.7v-33.7c0,0,3-11.7,13,6.8v22.2c0,0,13,24.2,23,12.3v-12.3
		c0,0,2.4-6.5,9.4-3.4s6.2-4.7,6.2-4.7l-62.3-38.4L-192,385.3z"/>
	<polygon id="XMLID_2_" class="st12" points="63.5,463.5 -40.9,521.4 -144.5,463.5 -170.5,477.5 -41.7,550.7 91.6,477.5 	"/>
	<g id="tree_x5F_2">
		<ellipse id="XMLID_27_" class="st5" cx="-130.6" cy="347.1" rx="9.8" ry="5.5"/>
		<path id="XMLID_26_" class="st6" d="M-129.4,348.6h-1.6c-1.3,0-2.4-1.1-2.4-2.4v-10.5c0-1.3,1.1-2.4,2.4-2.4h1.6
			c1.3,0,2.4,1.1,2.4,2.4v10.5C-127,347.5-128.1,348.6-129.4,348.6z"/>
		<g id="XMLID_20_">
			<path id="XMLID_25_" class="st5" d="M-143.9,316.3l-3.3,7.5c0,0,0.9,0.9,2.4,2.1l3.4-7.7C-142.4,317.4-143.3,316.8-143.9,316.3z"
				/>
			<path id="XMLID_24_" class="st5" d="M-115.2,325.5c0.6-0.5,1.3-1.1,1.9-1.7l-3.2-7.6c-0.7,0.6-1.3,1.1-2,1.6L-115.2,325.5z"/>
			<path id="XMLID_23_" class="st3" d="M-115.2,325.5c-12.8,10.6-24.6,4.1-29.5,0.3l-2.4,5.6c0,0,16.6,17.1,34.4,0L-115.2,325.5z"/>
			<path id="XMLID_22_" class="st5" d="M-115.2,325.5l-3.2-7.7c-9.5,6.8-18.2,3.4-23,0.3l-3.4,7.7
				C-139.8,329.6-128,336.1-115.2,325.5z"/>
			<path id="XMLID_21_" class="st7" d="M-129.9,279.9l-15.3,35.2c0,0,0.4,0.5,1.3,1.1c0.6,0.5,1.5,1.2,2.5,1.8
				c4.8,3.1,13.5,6.5,23-0.3c0.7-0.5,1.3-1,2-1.6c0.4-0.3,0.8-0.7,1.2-1.1L-129.9,279.9z"/>
		</g>
		<g id="XMLID_9_">
			<path id="XMLID_19_" class="st7" d="M-143.9,316.3l6.7-15.5l-0.9-2l-7.1,16.3C-145.2,315.1-144.7,315.6-143.9,316.3z"/>
			<path id="XMLID_18_" class="st5" d="M-143.9,316.3l-3.3,7.5c0,0,0.9,0.9,2.4,2.1l3.4-7.7C-142.4,317.4-143.3,316.8-143.9,316.3z"
				/>
			<path id="XMLID_17_" class="st8" d="M-143.9,316.3l-3.3,7.5c0,0,0.9,0.9,2.4,2.1l3.4-7.7C-142.4,317.4-143.3,316.8-143.9,316.3z"
				/>
			<path id="XMLID_16_" class="st7" d="M-135.5,304.5l-1.7-3.8l-6.7,15.5c0.6,0.5,1.5,1.2,2.5,1.8L-135.5,304.5z"/>
			<path id="XMLID_15_" class="st3" d="M-144.8,325.8l-2.4,5.6c0,0,11.8,12.2,26.2,5.7l-3-6.8C-133.2,333.2-141,328.7-144.8,325.8z"
				/>
			<path id="XMLID_14_" class="st8" d="M-144.8,325.8l-2.4,5.6c0,0,11.8,12.2,26.2,5.7l-3-6.8C-133.2,333.2-141,328.7-144.8,325.8z"
				/>
			<path id="XMLID_13_" class="st5" d="M-124,330.4l-3.9-8.8c-5.6,0.6-10.4-1.5-13.5-3.5l-3.4,7.7C-141,328.7-133.2,333.2-124,330.4
				z"/>
			<path id="XMLID_12_" class="st8" d="M-124,330.4l-3.9-8.8c-5.6,0.6-10.4-1.5-13.5-3.5l-3.4,7.7C-141,328.7-133.2,333.2-124,330.4
				z"/>
			<path id="XMLID_11_" class="st7" d="M-127.9,321.6l-7.6-17.1l-5.9,13.6C-138.3,320.1-133.5,322.3-127.9,321.6z"/>
			<path id="XMLID_10_" class="st8" d="M-135.5,304.5l-1.7-3.8l-0.9-2l-7.1,16.3c0,0,0.4,0.5,1.3,1.1c0.6,0.5,1.5,1.2,2.5,1.8
				c3.1,2,7.9,4.2,13.5,3.5L-135.5,304.5z"/>
		</g>
	</g>
	<g id="tree_x5F_3">
		<ellipse id="XMLID_47_" class="st5" cx="79.4" cy="368.1" rx="9.8" ry="5.5"/>
		<path id="XMLID_46_" class="st6" d="M80.6,369.6H79c-1.3,0-2.4-1.1-2.4-2.4v-10.5c0-1.3,1.1-2.4,2.4-2.4h1.6
			c1.3,0,2.4,1.1,2.4,2.4v10.5C83,368.5,81.9,369.6,80.6,369.6z"/>
		<g id="XMLID_40_">
			<path id="XMLID_45_" class="st5" d="M66.1,337.3l-3.3,7.5c0,0,0.9,0.9,2.4,2.1l3.4-7.7C67.6,338.4,66.7,337.8,66.1,337.3z"/>
			<path id="XMLID_44_" class="st5" d="M94.8,346.5c0.6-0.5,1.3-1.1,1.9-1.7l-3.2-7.6c-0.7,0.6-1.3,1.1-2,1.6L94.8,346.5z"/>
			<path id="XMLID_43_" class="st3" d="M94.8,346.5c-12.8,10.6-24.6,4.1-29.5,0.3l-2.4,5.6c0,0,16.6,17.1,34.4,0L94.8,346.5z"/>
			<path id="XMLID_42_" class="st5" d="M94.8,346.5l-3.2-7.7c-9.5,6.8-18.2,3.4-23,0.3l-3.4,7.7C70.2,350.6,82,357.1,94.8,346.5z"/>
			<path id="XMLID_41_" class="st7" d="M80.1,300.9l-15.3,35.2c0,0,0.4,0.5,1.3,1.1c0.6,0.5,1.5,1.2,2.5,1.8
				c4.8,3.1,13.5,6.5,23-0.3c0.7-0.5,1.3-1,2-1.6c0.4-0.3,0.8-0.7,1.2-1.1L80.1,300.9z"/>
		</g>
		<g id="XMLID_29_">
			<path id="XMLID_39_" class="st7" d="M66.1,337.3l6.7-15.5l-0.9-2l-7.1,16.3C64.8,336.1,65.3,336.6,66.1,337.3z"/>
			<path id="XMLID_38_" class="st5" d="M66.1,337.3l-3.3,7.5c0,0,0.9,0.9,2.4,2.1l3.4-7.7C67.6,338.4,66.7,337.8,66.1,337.3z"/>
			<path id="XMLID_37_" class="st8" d="M66.1,337.3l-3.3,7.5c0,0,0.9,0.9,2.4,2.1l3.4-7.7C67.6,338.4,66.7,337.8,66.1,337.3z"/>
			<path id="XMLID_36_" class="st7" d="M74.5,325.5l-1.7-3.8l-6.7,15.5c0.6,0.5,1.5,1.2,2.5,1.8L74.5,325.5z"/>
			<path id="XMLID_35_" class="st3" d="M65.2,346.8l-2.4,5.6c0,0,11.8,12.2,26.2,5.7l-3-6.8C76.8,354.2,69,349.7,65.2,346.8z"/>
			<path id="XMLID_34_" class="st8" d="M65.2,346.8l-2.4,5.6c0,0,11.8,12.2,26.2,5.7l-3-6.8C76.8,354.2,69,349.7,65.2,346.8z"/>
			<path id="XMLID_33_" class="st5" d="M86,351.4l-3.9-8.8c-5.6,0.6-10.4-1.5-13.5-3.5l-3.4,7.7C69,349.7,76.8,354.2,86,351.4z"/>
			<path id="XMLID_32_" class="st8" d="M86,351.4l-3.9-8.8c-5.6,0.6-10.4-1.5-13.5-3.5l-3.4,7.7C69,349.7,76.8,354.2,86,351.4z"/>
			<path id="XMLID_31_" class="st7" d="M82.1,342.6l-7.6-17.1l-5.9,13.6C71.7,341.1,76.5,343.3,82.1,342.6z"/>
			<path id="XMLID_30_" class="st8" d="M74.5,325.5l-1.7-3.8l-0.9-2L64.8,336c0,0,0.4,0.5,1.3,1.1c0.6,0.5,1.5,1.2,2.5,1.8
				c3.1,2,7.9,4.2,13.5,3.5L74.5,325.5z"/>
		</g>
	</g>
	<path id="XMLID_5_" class="st13" d="M-24.1,152.1h-2.1c-1.1,0-1.9-0.9-1.9-1.9l0,0c0-1.1,0.9-1.9,1.9-1.9h2.1
		c1.1,0,1.9,0.9,1.9,1.9l0,0C-22.1,151.2-23,152.1-24.1,152.1z"/>
	<g id="XMLID_49_">
		<path id="XMLID_50_" class="st14" d="M-41.4,252.5l0.1,160l18.4-10.7l-0.6-63c-0.3-18.4,10.3-29.2,14.1-32.5
			c0.9-0.7,0.7-0.9,1.8-1.2c18.7-5.6,19.2,16,19.2,16l-0.4,61l16.3-9.5l0.2-160L-41.4,252.5z"/>
	</g>
	<path id="XMLID_570_" class="st15" d="M18.6,377.5l-7.5,4.4l0.1-61.5c0,0,1.5-20.1-18.6-16c0,0,20.5-11,25,3.5L18.6,377.5z"/>
	<g id="XMLID_110_">
		<g id="XMLID_109_">
			<path id="XMLID_106_" class="st16" d="M-26.9,402.6l44.3-24.2l-0.6-67.3c0,0-2.2-9.1-10.8-10.7l-1.6-0.2
				c-1.4,0.2-2.9,0.5-4.6,0.9c-2,0.5-3.7,1.1-5.2,1.7c-7,5.5-9.4,7.7-10,8.5c0,0.1-1.3,1.7-1.3,1.7l0,0c0,0-9.5,15.1-9.9,25.3
				L-26.9,402.6z"/>
			<g id="XMLID_108_">
				<g id="XMLID_99_">
					<path id="XMLID_105_" class="st17" d="M-13.9,312.6c0,0-3.8,5-6.6,12.9c-1.7,4.7-2.7,10.6-2.9,16.5c-0.6,14-0.2,52.8-0.2,60.7
						l10.9-6.4L-13.9,312.6z"/>
					<path id="XMLID_104_" class="st17" d="M-3.9,303.7c0,0-7.8,6.2-9,8.3l0.6,84l9.5-5.5L-3.9,303.7z"/>
					<path id="XMLID_103_" class="st17" d="M5.9,300.9c0,0-7,1-8.9,2.6l0.8,86.6l9.8-5.7L5.9,300.9z"/>
					<path id="XMLID_100_" class="st17" d="M16.8,311.3c0,0-1.9-9.6-9.9-10.6l1.4,82.8l9.1-5.3L16.8,311.3z"/>
				</g>
				<g id="XMLID_52_">
					<g id="XMLID_92_">
						<path id="XMLID_143_" class="st18" d="M-23.5,346c0.1-1.5,0.3-6.5,0.4-7.4l39.7-22.4l-0.1,6.8C1.5,331.9-20.9,345.2-23.5,346z
							"/>
						<g id="XMLID_138_">
							<path id="XMLID_139_" class="st19" d="M16.3,316.6v6.2c-14.4,8.7-35.9,21.3-39.5,22.8c0.1-1.8,0.3-5.8,0.3-6.9L16.3,316.6
								 M16.8,315.7L16.8,315.7L16.8,315.7z M16.8,315.7l-40.2,22.7c0,0-0.3,6.6-0.4,7.8c0,0,0,0,0.1,0c1.9,0,40.5-23.2,40.5-23.2
								L16.8,315.7L16.8,315.7z"/>
						</g>
					</g>
					<g id="XMLID_91_">
						<path id="XMLID_135_" class="st18" d="M-23.9,382.6c0.1-1.5,0.3-6.5,0.4-7.4l40.7-22.5l-0.1,6.8
							C1.7,368.6-21.3,381.8-23.9,382.6z"/>
						<g id="XMLID_130_">
							<path id="XMLID_131_" class="st19" d="M16.9,353.2v6.2c-14.8,8.7-36.8,21.3-40.5,22.8c0.1-1.7,0.3-5.8,0.3-6.9L16.9,353.2
								 M17.4,352.3L17.4,352.3L17.4,352.3z M17.4,352.3L-23.8,375c0,0-0.3,6.6-0.4,7.8c0,0,0,0,0.1,0c1.9,0,41.4-23.2,41.4-23.2
								L17.4,352.3L17.4,352.3z"/>
						</g>
					</g>
				</g>
			</g>
		</g>
		<g id="XMLID_93_">
			<g id="XMLID_95_">
				<path id="XMLID_98_" class="st20" d="M11.9,352.6L11.9,352.6c-0.7,0-1.3-0.6-1.3-1.3v-12.5c0-0.7,0.6-1.3,1.3-1.3l0,0
					c0.7,0,1.3,0.6,1.3,1.3v12.5C13.2,352,12.6,352.6,11.9,352.6z"/>
				<rect id="XMLID_97_" x="11.9" y="337.4" class="st20" width="1" height="0.9"/>
				<rect id="XMLID_96_" x="11.8" y="351.7" class="st20" width="1" height="0.9"/>
			</g>
			<path id="XMLID_94_" class="st21" d="M12.8,352.6L12.8,352.6c-0.7,0-1.3-0.6-1.3-1.3v-12.5c0-0.7,0.6-1.3,1.3-1.3l0,0
				c0.7,0,1.3,0.6,1.3,1.3v12.5C14.1,352,13.5,352.6,12.8,352.6z"/>
		</g>
	</g>
	<g id="XMLID_3_">
		<g id="XMLID_564_">
			<g id="XMLID_488_">
				<polygon id="XMLID_540_" class="st22" points="16.5,183.6 -8.8,171.1 -44.8,150.1 -30.7,142 27.5,172.3 				"/>
				<polygon id="XMLID_539_" class="st23" points="-100.7,182 -44.8,150.1 23.7,187.1 -42.4,223.3 				"/>
				<polygon id="XMLID_63_" class="st24" points="-44.8,181.5 -44.8,150.1 -100.7,182 -44.8,221.6 				"/>
				<polygon id="XMLID_537_" class="st22" points="-22,135.3 -21.8,162.2 -7.8,170.1 -7.9,142.3 				"/>
				<polygon id="XMLID_536_" class="st25" points="6,135.3 6.3,162 -7.8,170.1 -8,142.3 				"/>
				<polygon id="XMLID_535_" class="st26" points="-8,128.3 -22,135.3 -8,142.3 6,135.3 				"/>
				<polygon id="XMLID_490_" class="st25" points="-110.3,371.4 -41.5,411.4 -41.4,251.5 -110.6,211.4 				"/>
				<path id="XMLID_491_" class="st13" d="M27.5,213.7"/>
				<path id="XMLID_504_" class="st15" d="M-100.7,182"/>
				<polygon id="XMLID_521_" class="st13" points="-41.9,215.3 -100.7,182 -114.8,190.1 -41.8,232.1 				"/>
				<polygon id="XMLID_522_" class="st22" points="16.8,182.7 -42.2,215.9 -41.8,232.1 30.9,190.2 				"/>
				<polygon id="XMLID_525_" class="st26" points="-42,190.3 -56,197.3 -42,204.3 -28,197.3 				"/>
				<polygon id="XMLID_526_" class="st26" points="-5,169.3 -19,176.3 -5,183.3 9,176.3 				"/>
				<polygon id="XMLID_528_" class="st26" points="31,149.3 17,156.3 31,163.3 45,156.3 				"/>
				<path id="XMLID_538_" class="st15" d="M-100.7,182"/>
				<polygon id="XMLID_492_" class="st22" points="-56,197.3 -56.2,223.7 -41.8,232.1 -41.9,204.3 				"/>
				<polygon id="XMLID_495_" class="st25" points="-28,197.3 -27.7,224 -41.8,232.1 -42,204.3 				"/>
				<polygon id="XMLID_501_" class="st22" points="-19,176.3 -19.2,202.7 -4.8,210.7 -4.9,183.3 				"/>
				<polygon id="XMLID_500_" class="st25" points="9,176.3 9.3,203 -4.8,211.1 -5,183.3 				"/>
				<polygon id="XMLID_503_" class="st22" points="17,156.3 16.8,182.7 31.2,191.1 31.1,163.3 				"/>
				<polygon id="XMLID_502_" class="st25" points="45,156.3 45,183.9 31.2,191.1 31,163.3 				"/>
				<g id="XMLID_28_">
					<polygon id="XMLID_48_" class="st22" points="-58.8,142.2 -113.8,173.3 -100.7,182 -80.8,171.1 -44.8,150.1 					"/>
					<polygon id="XMLID_51_" class="st22" points="-44.9,122.3 -59,115.3 -58.8,142.2 -44.8,150.1 					"/>
				</g>
				<polygon id="XMLID_530_" class="st25" points="-31,115.3 -30.7,142 -44.8,150.1 -45,122.3 				"/>
				<polygon id="XMLID_529_" class="st26" points="-45,108.3 -59,115.3 -45,122.3 -31,115.3 				"/>
				<polygon id="XMLID_523_" class="st22" points="-128.6,202.3 -41.4,252.5 -41.8,232.1 -128.9,181.5 				"/>
				<polygon id="XMLID_542_" class="st25" points="-41.4,252.5 44.7,202.9 45,182.1 -41.8,232.1 				"/>
				<polygon id="XMLID_534_" class="st22" points="-95,136.3 -94.8,163.2 -80.8,171.1 -80.9,143.3 				"/>
				<polygon id="XMLID_533_" class="st25" points="-67,136.3 -66.7,163 -80.8,171.1 -81,143.3 				"/>
				<polygon id="XMLID_532_" class="st26" points="-81,129.3 -95,136.3 -81,143.3 -67,136.3 				"/>
				<polygon id="XMLID_497_" class="st22" points="-94,175.3 -94.2,201.7 -79.8,210.1 -79.9,182.3 				"/>
				<polygon id="XMLID_496_" class="st25" points="-66,175.3 -65.7,202 -79.8,210.1 -80,182.3 				"/>
				<polygon id="XMLID_524_" class="st26" points="-80,168.3 -94,175.3 -80,182.3 -66,175.3 				"/>
				<polygon id="XMLID_499_" class="st22" points="-129,155.3 -128.8,182.2 -114.8,190.1 -114.9,162.3 				"/>
				<polygon id="XMLID_498_" class="st25" points="-101,155.3 -100.7,182 -114.8,190.1 -115,162.3 				"/>
				<polygon id="XMLID_527_" class="st26" points="-115,148.3 -129,155.3 -115,162.3 -101,155.3 				"/>
			</g>
			<g id="XMLID_65_">
				<polygon id="XMLID_548_" class="st27" points="-70.8,235.5 -86.8,225.8 -86.7,239.5 -76.7,258 -71,254.8 				"/>
				<polygon id="XMLID_547_" class="st15" points="-76.7,258 -86.8,225.8 -95.2,221.5 -84,253.8 				"/>
			</g>
		</g>
		<g id="XMLID_4_">
			<polygon id="XMLID_565_" class="st28" points="-84.8,297.2 -85,297.1 -87.8,298.5 -73.4,306.4 -71.1,304.7 			"/>
			<path id="XMLID_567_" class="st28" d="M-84,269.6l-1,27.5l-2.8,1.4v-24.7C-87.8,273.8-87,269.6-84,269.6z"/>
			<path id="XMLID_566_" class="st29" d="M-85,297.1l13.9,7.5l0.4-24c0,0-4.2-12.9-14.2-10.8L-85,297.1L-85,297.1z"/>
			<polygon id="XMLID_64_" class="st23" points="-85,297.1 -71.1,290 -71.1,304.7 			"/>
		</g>
	</g>
	<g id="XMLID_7_">
		<path id="XMLID_111_" class="st14" d="M-20.5,320c-7-2.2-13.7-3.1-21-3.5v95.9l18.4-10.7l-0.6-63C-23.8,331.3-22.7,324.9-20.5,320
			z"/>
	</g>
	<g id="XMLID_53_">
		<polygon id="XMLID_54_" class="st15" points="-41.6,328.8 -49.9,324.1 -49.9,314.7 -41.7,319 		"/>
		<polygon id="XMLID_55_" class="st26" points="-41.7,328.8 -33.4,324.1 -33.4,314.7 -41.6,319 		"/>
		<polygon id="XMLID_56_" class="st27" points="-49.9,314.7 -48.4,314 -41.7,317.5 -41.7,319 		"/>
		<polygon id="XMLID_57_" class="st15" points="-33.4,314.7 -34.9,314 -41.7,317.5 -41.7,319 		"/>
	</g>
	<g id="XMLID_58_">
		<polygon id="XMLID_114_" class="st15" points="-41.3,344.8 -49.6,340 -49.6,330.7 -41.4,335 		"/>
		<polygon id="XMLID_113_" class="st26" points="-41.4,344.8 -33.1,340 -33.1,330.7 -41.3,335 		"/>
		<polygon id="XMLID_90_" class="st27" points="-49.6,330.7 -48.1,330 -41.4,333.5 -41.4,335 		"/>
		<polygon id="XMLID_59_" class="st15" points="-33.2,330.7 -34.7,330 -41.4,333.5 -41.4,335 		"/>
	</g>
	<g id="XMLID_115_">
		<polygon id="XMLID_119_" class="st15" points="-41.4,359.9 -49.7,355.2 -49.7,345.9 -41.5,350.2 		"/>
		<polygon id="XMLID_118_" class="st26" points="-41.5,359.9 -33.2,355.2 -33.2,345.9 -41.4,350.2 		"/>
		<polygon id="XMLID_117_" class="st27" points="-49.7,345.9 -48.2,345.2 -41.5,348.7 -41.5,350.2 		"/>
		<polygon id="XMLID_116_" class="st15" points="-33.2,345.9 -34.7,345.2 -41.4,348.7 -41.4,350.2 		"/>
	</g>
	<path id="XMLID_137_" class="st27" d="M-104.9,296.7"/>
	<line id="XMLID_683_" class="st30" x1="-63" y1="150.1" x2="-62.7" y2="68.8"/>
	<ellipse id="XMLID_61_" class="st23" cx="-63" cy="150.1" rx="1.9" ry="0.7"/>
	<g id="XMLID_66_">
		<polygon id="XMLID_68_" class="st27" points="-41.4,252.5 -57.8,242.8 -57.7,256.5 -47.7,275 -41.4,271.6 		"/>
		<polygon id="XMLID_67_" class="st15" points="-47.7,275 -57.8,242.8 -66.2,238.2 -55,270.8 		"/>
	</g>
	<g id="XMLID_69_">
		<polygon id="XMLID_71_" class="st27" points="-98.4,219.7 -114.8,210.3 -114.7,222.5 -104.7,241 -98.4,237.6 		"/>
		<polygon id="XMLID_70_" class="st15" points="-104.7,241 -114.8,210.3 -122.7,205.7 -112,236.8 		"/>
	</g>
	<g id="XMLID_72_">
		<polygon id="XMLID_120_" class="st15" points="-41.4,252.5 -25.1,242.8 -25.3,256.5 -35.2,275 -41.4,271.6 		"/>
		<polygon id="XMLID_73_" class="st26" points="-35.2,275 -25.1,242.8 -16.8,238.3 -28,270.8 		"/>
	</g>
	<g id="XMLID_121_">
		<polygon id="XMLID_123_" class="st15" points="16,219.4 31.9,210.3 31.8,223.5 22,242 16,238.6 		"/>
		<polygon id="XMLID_122_" class="st26" points="21.8,242 31.9,210.3 40.2,205.5 29,237.8 		"/>
	</g>
	<g id="XMLID_124_">
		<polygon id="XMLID_126_" class="st15" points="-12,235.4 3.9,226.3 3.8,239.5 -6,258 -12,254.6 		"/>
		<polygon id="XMLID_125_" class="st26" points="-6.2,258 3.9,226.3 12.2,221.5 1,253.8 		"/>
	</g>
	<ellipse id="XMLID_127_" class="st17" cx="-62.6" cy="67.9" rx="2.4" ry="2.1"/>
	<g id="XMLID_144_">
		<polygon id="XMLID_146_" class="st31" points="23.9,66.3 -35.7,66.3 -35.9,95.3 23.9,95.3 6.1,80.8 		"/>
	</g>
	<polygon id="XMLID_62_" class="st23" points="-22,71.3 -35.9,66.3 -35.9,71.3 	"/>
	<g id="flag_x5F_0">
		<rect id="XMLID_679_" x="-66" y="71.3" class="st32" width="44" height="29"/>
		<text id="XMLID_680_" transform="matrix(1 0 0 1 -52.8904 95.33)" class="st1 st33 st34">H</text>
	</g>
	<text id="XMLID_145_" transform="matrix(1 0 0 1 -17.793 87.7973)" class="st1 st33 st35">18</text>
</g>
<g id="Ebene_2" class="st36">
	<g id="XMLID_60_" class="st37">
		<path id="XMLID_223_" class="st16" d="M343.7,432.1c-0.6-12.2,3.6-22.7,10.2-32.4c1.3-0.1,1.2-1.5,1.8-2.3
			c2.5-3.2,5.3-6.2,8.8-8.2c1.5-0.9,2.9-2.1,4.7-2.7s3.6-1.3,5.5-1.2c2.3,0,4.6,0.2,6.5,1.7c-0.5,0.5-1,0.2-1.5,0.1
			c-0.7-0.2-1,0.1-1,0.8c0,0.2,0,0.4,0,0.7c0,6.1,0,12.1,0,18.2c0,1.6,0.1,1.7,1.4,0.9c2.5-1.6,5-3.1,7.6-4.6
			c0.4-0.3,0.9-0.8,1.5-0.3c0,2.6,0,5.2,0,7.8c-3.3,4.7-6.3,9.7-9.4,14.5c-0.8,1.2-1.1,2.4-1.1,3.8c0.1,1.3,0,2.5,0,3.8
			c0,0.6,0,1.2,0,1.7c0,0.8,0.1,1.7-0.1,2.5c-0.1,0.1-0.1,0.3-0.3,0.4s-0.4,0.1-0.6-0.1c-0.7-0.9-0.4-1.9-0.4-2.9
			c0-0.6,0.1-1.1,0.1-1.7c-0.1-1.4-0.2-2.7,0-4c-0.8,1.3-1.5,2.8-2.7,3.8c-0.9,0.1-0.8-0.5-0.5-1c0.4-0.9,1-1.7,1.6-2.6
			c3.3-5.1,6.6-10.3,9.9-15.4c0.1-0.2,0.2-0.4,0.4-0.5c-1.3,0.8-2.5,1.7-3.9,2.4c-2,1-3.4,2.7-4.6,4.7c-2.3,3.7-4.7,7.4-7.1,11.1
			c-0.3,0.4-0.5,0.8-0.9,1.1c-0.4,0.3-0.8,0.5-1-0.2c0-0.5,0.3-0.9,0.5-1.3c2.6-4.1,5.2-8.2,7.8-12.1c-2.4,1.5-4.9,3.1-7.5,4.6
			c-1,0.6-1.5,1.3-1.4,2.5c0.1,1.8,0,3.7,0,5.5c0,0.5,0.1,1.1-0.3,1.5c-0.3,0.1-0.5,0.1-0.7,0c-0.4-0.5-0.3-1.1-0.3-1.7
			c0-1.6,0-3.2,0-4.9c0-0.8-0.2-1.1-1-0.6c-2.6,1.6-5.1,3.2-7.8,4.8c-1,0.6-0.5,1.7-0.9,2.5c-0.2,0.3-0.5,0.1-0.7,0
			c-0.4-0.3-0.4-0.7-0.5-1.2c-1.4,0.9-2.7,1.7-4.1,2.5c-0.5,0.3-1,0.8-1.7,0.4c-0.4-1,0.3-1.3,0.9-1.6c3-2,6-3.8,9.1-5.6
			c9-5.6,18-11.1,27-16.6c0.9-0.5,1.4-1.2,1.2-2.3c0-0.2,0-0.4,0-0.5c-0.1-0.9,0.4-2.2-0.3-2.6c-0.5-0.3-1.4,0.7-2.2,1.1
			c-12.4,7.7-24.8,15.4-37.3,23c-1,0.6-2,1.2-1.9,2.7c0,0.3-0.2,0.5-0.4,0.6C345.2,432.5,344.5,432.7,343.7,432.1z"/>
		<path id="XMLID_222_" class="st38" d="M389.1,441c0,2.5,0,5,0,7.5c-0.3,0.8-0.9,1.1-1.5,1.5c-2.5,1.5-4.9,3.1-7.4,4.5
			c-1.2,0.6-1.6,1.5-1.5,2.9c0.1,3.4,0,6.7,0,10.1c0,0.5,0.3,1.3-0.6,1.5c-0.1,0-0.1,0-0.2-0.1c-0.7-0.4-0.6-1.1-0.6-1.8
			c0-3.1,0-6.1,0-9.2c0-1.5,0-1.6-1.3-0.8c-2.3,1.4-4.5,2.8-6.8,4.2c-0.9,0.5-1.1,1.2-1.1,2.2c0,3.5,0,6.9,0,10.4
			c0,0.6,0.1,1.3-0.4,1.8c-0.3,0.1-0.5-0.2-0.8-0.2c-0.5-0.5-0.4-1.2-0.4-1.8c0-3.1,0-6.1,0-9.2c0-1.4-0.1-1.5-1.3-0.8
			c-2.3,1.4-4.6,2.8-6.9,4.2c-0.9,0.6-1.2,1.3-1.2,2.4c0,3.4,0,6.8,0,10.2c0,0.6,0.2,1.4-0.6,1.6c-0.1,0-0.1,0-0.2-0.1
			c-0.7-0.4-0.6-1.1-0.6-1.8c0-3.1,0-6.3,0-9.4c0-1.3-0.1-1.3-1.1-0.7c-2.5,1.6-5.1,3.1-7.6,4.7c-0.8,0.5-1.2,1.2-1.2,2.2
			c0,3.5,0,7,0,10.5c0,0.6,0.1,1.3-0.4,1.8c-1.2-0.3-1.8-0.9-1.8-2.5c0.1-14.7,0-29.5,0-44.2c0.1-0.1,0.1-0.1,0.2-0.2
			c0.6-0.2,1.2-0.3,1.7,0.2c0.4,0.6,0.3,1.4,0.3,2.1c0,6.8,0,13.6,0,20.4c0,0.4-0.1,0.8,0.1,1.2c3.1-4.8,6.2-9.6,9.2-14.3
			c0.4-0.7,0.6-1.5,0.6-2.3c0-1.8,0-3.6,0-5.4c0-0.7,0-1.4,0.5-1.9c0.2-0.1,0.4-0.2,0.6-0.1c0.5,0.4,0.4,1,0.4,1.5
			c0,1.6,0,3.1,0,4.9c1-1,1.5-2.2,2.2-3.3c0.7-1,1.2-2.3,2.2-3.1c0.2-0.1,0.5-0.1,0.7,0c0.4,0.6,0,1-0.3,1.4c-3.1,5.1-6.4,10-9.6,15
			c-1.4,2.2-2.7,4.4-4.4,6.8c2.3-1.2,4.1-2.5,6.1-3.7c0.5-0.3,0.7-0.9,1-1.3c3.6-5.6,7.2-11.2,10.8-16.8c0.4-0.5,0.7-1.2,1.4-1.2
			c0.2,0,0.4,0.1,0.5,0.3c0.3,0.6,0.2,1.2,0.2,1.9c0,2.5,0,4.9,0,7.4c0,0.6,0.1,1.2,0.8,0.7c2.5-1.6,5-3,7.5-4.7
			c0.7-0.4,0.8-1.1,0.8-1.8c0-1.9,0-3.9,0-5.8c0-0.6-0.1-1.3,0.4-1.8c0.4-0.2,0.7,0.1,0.8,0.4c0.1,0.1,0.1,0.3,0.1,0.4
			c0.1,1.9,0,3.8,0,5.8c0,1.2,0.2,1.3,1.2,0.7c2.6-1.5,5.1-3.1,7.6-4.7C388,441.2,388.4,440.6,389.1,441z"/>
		<path id="XMLID_221_" class="st17" d="M389.1,402.7c-2.2,1-4.2,2.5-6.4,3.7c-1.1,0.7-2.3,1.4-3.4,2.1c-0.8,0.5-1.1,0.3-1.1-0.7
			c0-6.8,0-13.6,0-20.4c0-1,0.4-1.2,1.2-0.9c0.6,0.2,1.1,0.5,1.7,0.4c5,2.5,7.1,7,7.7,12.6C389.1,400.6,389.2,401.7,389.1,402.7z"/>
		<path id="XMLID_220_" class="st17" d="M389.1,441c-2.3,1-4.2,2.5-6.3,3.7c-1.1,0.6-2.2,1.4-3.3,2.1c-0.9,0.6-1.1,0.2-1.1-0.7
			c0-2.1,0-4.3,0-6.4c0.7,0,0.7,0.7,0.9,1.1s0.2,0.9,0.5,1.2c0.2,0.2,0.3,0.3,0.6,0.2c0.2-0.1,0.3-0.3,0.2-0.6
			c0-0.2-0.1-0.4-0.1-0.5c-0.6-1.5-0.8-2.8,0.1-4.4c0.9-1.7,0.1-3.3-1.7-4c-0.2-0.1-0.4-0.2-0.5-0.4c0-0.5,0.1-1.1,0-1.6
			c-0.4-3,0.6-5.5,2.3-7.9c2.5-3.6,4.8-7.4,7.2-11.1c0.3-0.5,0.6-1.1,1.3-1.2c0,7.3,0,14.6,0,21.9c-0.6,0.5-1.2,0.4-1.8,0
			c-0.4-0.6-0.3-1.3-0.3-1.9c0-2.6,0-5.2,0-7.8c0-0.7,0-1.4-0.5-2c-1.7-0.9-2.9-0.2-3,1.8c-0.1,2.8,0,5.6,0,8.4c0,0.6,0,1.3-0.1,1.9
			c0,0.1,0,0.3-0.1,0.4c-0.5,1-0.4,2.1-0.4,3.2c0,1.4,0,2.9,0,4.3c0,0.5-0.2,1.3,0.5,1.4c0.8,0.1,0.5-0.8,0.7-1.3v-0.1
			c0-0.1,0.1-0.3,0.2-0.4c1.5,0.1,2.3-0.9,3.1-2c0.1-0.1,0.3-0.1,0.5-0.2s0.5-0.1,0.6-0.4c0-0.3-0.2-0.4-0.4-0.6
			c-0.3-0.1-0.6-0.2-0.8-0.6c-0.2-0.8-0.2-1.5,0.1-2.3c0.6-0.7,1.2-0.8,1.9-0.2C389.1,436.4,389.1,438.7,389.1,441z"/>
		<path id="XMLID_219_" class="st17" d="M378,469.2c0.5-0.3,0.3-0.9,0.3-1.4c0-3.7,0-7.5,0-11.2c0-0.9,0.2-1.4,1-1.8
			c3.3-2.1,6.7-4,9.9-6.2c0,4.4,0,8.9,0,13.3c0,0.5-0.1,0.9-0.6,1.2c-3.3,2-6.6,4-9.8,6C378.5,469.3,378.3,469.6,378,469.2z"/>
		<path id="XMLID_218_" class="st17" d="M345.5,489.6c0-4.2,0-8.5,0-12.7c0-1,0.3-1.5,1.1-2c2.9-1.7,5.7-3.5,8.6-5.3
			c0.2-0.2,0.5-0.4,0.9-0.3c0,3.7,0,7.5,0,11.3c0,0.6-0.1,1.2,0.2,1.7c-0.3,0.3-0.2,0.8-0.6,1.1C352.3,485.5,349,487.7,345.5,489.6z
			"/>
		<path id="XMLID_217_" class="st17" d="M356.6,482.4c0.5-0.3,0.3-0.9,0.3-1.4c0-3.8,0-7.5,0-11.3c0-0.7,0.1-1.2,0.7-1.5
			c2.7-1.6,5.5-3.3,8.2-5c1.1-0.7,1.2-0.7,1.2,0.8c0,3.9,0,7.8,0,11.7c0,0.5-0.1,0.9-0.6,1.2c-3,1.8-6.1,3.7-9.1,5.6
			C357,482.6,356.8,482.8,356.6,482.4z"/>
		<path id="XMLID_216_" class="st17" d="M367.7,475.9c0-4.3,0-8.5,0-12.8c0-0.7,0.1-1.3,0.8-1.6c2.9-1.7,5.7-3.5,8.6-5.3
			c0.1-0.1,0.2,0,0.5-0.1c0,3.8,0,7.6,0,11.3c0,0.6-0.1,1.2,0.2,1.7c-0.2,0.7-0.6,1.1-1.2,1.4C373.6,472.3,370.8,474.3,367.7,475.9z
			"/>
		<path id="XMLID_215_" class="st39" d="M343.7,442.9c-0.9,0-1.8,0-2.8,0s-1.6-0.5-1.5-1.6c0.1-1.6,0-3.2,0-4.8
			c0-0.7,0.2-1.2,0.8-1.5c0.4-0.1,0.7-0.4,0.8-0.8c0.3-1.5,1.3-1.9,2.7-1.7c0,0.1,0.1,0.1,0.1,0.2c0.1,0.2,0,0.4-0.2,0.6
			c-2,0.5-3.6,2.8-3.6,5.1c0,0.8,0,1.6,0,2.4c0,0.5,0,1,0.5,1.3s1,0,1.4-0.3c0.6-0.5,1.1-1.3,1.9-0.6c0.3,0.7,0.3,1.4-0.1,2
			L343.7,442.9z"/>
		<path id="XMLID_214_" class="st40" d="M343.7,432.1c0.8,0,1.7,0,2.5,0c1.1-0.6,2.2-0.5,3.2,0.2c0.4,0.3,0.7,0.8,0.4,1.4
			s-0.7,0.4-1.2,0.2c-0.7-0.4-1.5-0.2-2.2-0.4c-0.7-0.9-1.9-0.5-2.7-1.1h-0.1C343.7,432.3,343.7,432.2,343.7,432.1z"/>
		<path id="XMLID_213_" class="st41" d="M389.1,434c-0.6,0-1.2-0.1-1.7,0.3c-0.1-0.1-0.2-0.2-0.2-0.3c-0.1-0.5-0.1-1,0.1-1.4
			l0.1-0.1c0.6,0,1.1,0,1.7,0C389.2,432.9,389.2,433.5,389.1,434z"/>
		<path id="XMLID_212_" class="st17" d="M356.9,422.3c0-0.9,0-1.7,0-2.5c0-6.4,0-12.9,0-19.3c0-0.7,0-1.4,0.5-2
			c2.6-2.9,5.2-5.8,8.4-7.9c0.3-0.2,0.6-0.6,1-0.4s0.2,0.7,0.2,1.1c0,7.9,0,15.8,0,23.7c0,0.7,0,1.2-0.6,1.6c-3,1.8-5.9,3.6-8.9,5.4
			C357.3,422.2,357.1,422.2,356.9,422.3z"/>
		<path id="XMLID_211_" class="st17" d="M367.8,415.4c-0.2-0.3-0.1-0.7-0.1-1c0-8,0-15.9,0-23.9c0-1,0.4-1.5,1.2-1.9
			c2.5-1.3,5.1-2.1,7.8-2.3c0.7-0.1,0.9,0.1,0.9,0.9c0,7.2,0,14.5,0,21.7c0,0.4,0,0.8-0.4,1c-3.1,1.9-6.1,3.7-9.2,5.6
			C367.9,415.5,367.9,415.5,367.8,415.4z"/>
		<path id="XMLID_210_" class="st18" d="M346.2,433.2c1,0.2,2.1-0.5,2.9,0.6c0.2,0.2,0.4,0,0.5-0.2c0.2-0.2,0.1-0.5,0-0.7
			c-0.4-0.5-0.9-0.8-1.5-0.8s-1.2,0-1.9,0c-0.3-1.6,0.5-2.5,1.7-3.2c9.1-5.5,18.2-11.1,27.3-16.7c4.1-2.5,8.2-5.1,12.3-7.7
			c0.9-0.6,0.9-0.2,0.9,0.6c0,0.9-0.1,1.9,0,2.8c0.2,1.4-0.4,2.2-1.5,2.8c-8.5,5.2-17,10.4-25.5,15.7c-3.6,2.2-7.1,4.4-10.7,6.6
			c-0.5,0.3-0.8,0.6-0.8,1.2c0.1,0.1,0.1,0.1,0.1,0.2s0,0.1,0,0.1c-0.1,0.2-0.2,0.3-0.4,0.3s-0.4,0-0.5-0.1c-0.5-0.3-0.9,0-1.2,0.3
			c-1.3,1.2-2.4,0.5-3.5-0.3C345,434.4,346,434.3,346.2,433.2z"/>
		<path id="XMLID_209_" class="st17" d="M350,434.5c0-0.1,0-0.2,0-0.2c2.1-0.8,3.9-2.3,5.9-3.4c0.1,0.5,0.3,1,0.4,1.5
			c0,0.1-0.1,0.1-0.1,0.2c-1,0.2-1.2,0.7-0.9,1.8c0.4,2.1,0.1,4.2,0.2,6.3c0,0.6-0.1,1.4,0.6,1.8c0.1,0.1,0.2,0.2,0.3,0.3
			c-0.4,2.5-0.1,4.9-0.2,7.4c0,0.9-0.2,1.6-0.7,2.4c-3.1,4.8-6.2,9.6-9.3,14.4c-0.1,0.2-0.2,0.6-0.7,0.7c0-0.4,0-0.9,0-1.3
			c0-7.2,0-14.4,0-21.6c0-0.6-0.1-1.2-0.1-1.7c0.1-0.1,0.2-0.2,0.3-0.2c1.1-0.2,2.3-0.1,3.4-0.1c1.8,0,2.1-0.3,2.1-2.2
			c0-0.5,0-1.1,0-1.6C351.3,437.2,351.3,435.7,350,434.5z"/>
		<path id="XMLID_208_" class="st17" d="M345.4,429.5c0.6-11.1,4.5-20.4,10.5-29c0.4,0.4,0.3,0.8,0.3,1c0,6.7,0,13.4,0,20.1
			c0,0.5,0.1,1.1-0.4,1.5C352.3,425.2,349,427.3,345.4,429.5z"/>
		<path id="XMLID_207_" class="st17" d="M361.7,442.7c-1.5,2.4-3,4.8-4.5,7.1c-0.1,0-0.2-0.1-0.3-0.1c0-2.3,0-4.7,0-7
			c-0.3-0.4-0.3-0.8-0.3-1.3c0-2.5,0-5,0-7.5c0-0.4,0-0.9,0.3-1.3c-0.3-1.9,0.6-2.9,2.1-3.7c2.4-1.3,4.6-2.7,6.9-4.2
			c1-0.6,1.2-0.3,1.1,0.8c0,2.3,0,4.6,0,6.9l-0.1,0.1c-0.3,0.2-0.7,0.2-0.7,0.6c0,0.5,0.4,0.5,0.7,0.7c0.1,0.1,0.2,0.1,0.3,0.2
			c0,0.1,0.1,0.2,0.1,0.4c-1.2,2.6-2.8,4.9-4.5,7.1c-0.1,0.1-0.2,0.1-0.4,0.1c-0.4,0.1-0.8,0.1-1.3,0c-0.6,0-1.4,0-1.5-0.9
			c-0.2-0.9,0.1-1.7,0.9-2.2c0.6-0.3,1.3-0.5,1.9-0.8c1.4-0.6,1.9-1.5,1.8-2.7c-0.2-1.3-1-2.1-2.4-2.3c-0.8-0.1-1.7-0.1-2.5,0
			c-0.2,0-0.4,0.2-0.4,0.4c0,0.2,0.2,0.3,0.4,0.3c0.4,0.1,0.8,0.1,1.3,0.1s1.1,0,1.6,0.2c1.2,0.5,1.5,1.6,0.5,2.6
			c-0.6,0.6-1.3,0.8-2,1.1c-1.8,0.7-2.4,1.7-2.3,3.8c0,0.7,0.3,1,1,1.1c0.8,0,1.6-0.2,2.4,0.2C361.6,442.6,361.6,442.6,361.7,442.7z
			"/>
		<path id="XMLID_206_" class="st18" d="M368.7,431.8c0.8,0.5,1-0.4,1.3-0.8c2.3-3.5,4.7-7,6.8-10.7c1.8-3.3,4.5-5.3,7.6-7
			c0.8-0.4,1.6-1,2.5-1.3c-3.4,5.3-6.7,10.5-10.1,15.8c-0.8,1.2-1.5,2.4-2.3,3.6c-0.2,0.3-0.5,0.7,0.2,0.8c0.1,0.1,0,0.2,0,0.3
			c-0.1,0.1-0.2,0.2-0.3,0.2c-0.9,0.3-0.9,1.4-1.7,1.9c-0.8-1.2-1.9-1.7-3.3-1.8c-0.3,0-0.7-0.1-0.9-0.4
			C368.3,432.1,368.3,431.9,368.7,431.8z"/>
		<path id="XMLID_205_" class="st17" d="M368.7,431.8c-0.1,0.2-0.2,0.3-0.3,0.5c-0.3,0.5-0.5,0.6-0.8,0c0-2.6,0.1-5.1,0.1-7.7
			c0-0.7,0.1-1.2,0.7-1.6c3-1.8,6-3.7,9.2-5.3C374.6,422.5,371.7,427.2,368.7,431.8z"/>
		<path id="XMLID_204_" class="st42" d="M374.3,432.4c0.1,0,0.2,0,0.2,0c1.1-0.6,2.1-0.6,3.2,0c-0.2,0.5-0.2,1.1-0.2,1.7
			c-0.2,0.2-0.4,0.3-0.7,0.3c-0.6,0.1-1,0.4-1,1.1s0.2,1.2,0.9,1.4c0.4,0.1,0.8,0.1,1,0.5c0.2,0.6,0.2,1.1-0.2,1.6
			c-1.1,0.3-1.5,1.1-1.4,2.3c0,0.7,0,1.5-0.9,1.7c-1,0.2-1.6-0.3-1.6-1.5c-0.1-2.3,0-4.6,0-6.9c0-0.3,0-0.5,0-0.8
			C373.5,433.1,374,432.8,374.3,432.4z"/>
		<path id="XMLID_203_" class="st43" d="M367.6,432.4c0.3,0.4,0.5,0.1,0.8,0c0.8,0.1,1.7,0.2,2.5,0.3c1,0.2,1.3,1.2,1.8,1.9
			c0.1,0.1,0.2,0.2,0.2,0.3c0.1,1.2-0.5,2-1.3,2.7c-0.5,0.4-0.7,1.2-1.5,1.2c-0.1,0-0.3-0.1-0.4-0.1c-0.7-0.2-1.3-0.1-2-0.2
			c-1.4-0.1-1.6-0.5-1.3-2c0.5-0.4,1-0.3,1.5-0.4c0.5,0,0.9,0,1.4-0.1c0.4-0.1,0.7-0.3,0.7-0.8s-0.4-0.7-0.7-0.8
			c-0.8-0.2-1.8,0.2-2.6-0.4l0,0c-0.4-0.5-0.4-1.1,0-1.6l0,0C367.2,432.4,367.4,432.4,367.6,432.4z"/>
		<path id="XMLID_202_" class="st44" d="M378.3,432.4c1.1,0.1,2.1,0.3,2.5,1.6c0.4,1.4,0.5,2.8-0.5,3.9c-0.4,0.5-0.5,0.8-0.2,1.4
			c0.3,0.7,0.5,1.5,0.7,2.3c0.1,0.4,0.5,0.9-0.2,1.1c-0.5,0.1-1.2,0.3-1.4-0.6c-0.3-0.8-0.3-1.7-0.9-2.3c0-0.1,0-0.2,0-0.3
			c0.1-0.8-0.3-1.6,0-2.4h0.1c0.9-1.4,0.9-1.7,0-2.7C378.3,433.6,378.3,433,378.3,432.4z"/>
		<path id="XMLID_201_" class="st45" d="M356.8,432.7c0,3.3,0,6.7,0,10c-0.2,0-0.3,0-0.5,0.1c-0.1,0-0.1,0-0.2-0.1
			c-0.4-0.5-0.4-1.1-0.4-1.6c0-2.3,0-4.5,0-6.8c0-0.7,0-1.4,0.6-1.8l0,0C356.5,432.5,356.6,432.6,356.8,432.7z"/>
		<path id="XMLID_200_" class="st46" d="M377.8,432.4c-1.1,0-2.1,0-3.2,0c0-0.1,0-0.2,0-0.2c1-1.4,1.9-2.7,2.9-4.2
			C377.8,429.5,377.3,431,377.8,432.4z"/>
		<path id="XMLID_199_" class="st47" d="M377.5,437.2c-1,0-2,0.2-2-1.4c0-1.8,0-1.8,2-1.8c0.1,1-0.2,2,0.2,2.9
			C377.8,437.1,377.7,437.2,377.5,437.2z"/>
		<path id="XMLID_198_" class="st48" d="M378.3,434.3c0.7-0.3,0.9,0.2,1,0.8c0.1,0.8,0.2,1.8-1,1.9
			C378.3,436.1,378.3,435.2,378.3,434.3z"/>
		<path id="XMLID_197_" class="st49" d="M377.5,437.2c0.1-0.1,0.2-0.2,0.3-0.3c0.2,0,0.3,0,0.5,0c0.4,0.8,0.4,1.6,0,2.4
			c-0.1-0.2-0.3-0.4-0.5-0.5c-0.1,0.1-0.2,0.1-0.2-0.1C377.6,438.3,377.6,437.8,377.5,437.2z"/>
		<path id="XMLID_196_" class="st18" d="M388.4,445.6c0.5,2-0.6,3.1-2.4,4.1c-6.7,4-13.4,8.3-20,12.4c-6.1,3.8-12.3,7.6-18.4,11.3
			c-1.2,0.7-1.3,0.7-1.3-0.8c0-4.3,0-4.3,3.6-6.5c8.6-5.3,17.1-10.6,25.7-15.9c4-2.5,8.1-4.9,12.1-7.5c0.8-0.5,0.8-0.1,0.8,0.5
			C388.4,444,388.4,444.6,388.4,445.6z"/>
		<path id="XMLID_195_" class="st18" d="M366.7,436.5c-0.2,1.3,0.3,1.7,1.5,1.6c0.7-0.1,1.5-0.4,2,0.5c-0.1,0.2-0.3,0.3-0.4,0.5
			c-0.9,1.4-1.6,3-3.6,2.6c0,0.8,1,0.4,1,1.2c-0.9,0.6-1.3,1.7-1.9,2.6c-3.4,5.2-6.7,10.4-10,15.6c-0.6,1-1.5,1.4-2.3,2
			c-1.7,1.1-3.5,2.2-5.6,3.5c0.8-1.8,1.8-3,2.6-4.3c3.9-6.2,7.9-12.4,11.8-18.5c0.2-0.3,0.4-0.7,0.6-1c0.2-0.3,0.5-0.3,0.7-0.4
			c0.8-0.2,0.5-0.6,0.2-1c-0.1-0.4,0.1-0.7,0.3-1c1.1-1.4,1.7-3.1,3-4.2C366.7,436.3,366.7,436.3,366.7,436.5
			C366.8,436.4,366.7,436.5,366.7,436.5z"/>
		<path id="XMLID_194_" class="st17" d="M377.6,438.8c0.1,0,0.1,0,0.2,0.1c-0.5,1.9-0.3,3.9-0.2,5.9c0.2,2.3-0.5,3.8-2.5,4.8
			c-2.5,1.2-4.8,2.9-7.4,4.5c0-3.9,0-7.5,0-11.2c0.1-0.3,0.3-0.4,0.6-0.5c0.5-0.1,1-0.1,1.5-0.1c2.1,0,3-1.6,2.2-3.7
			c-0.1-0.4-0.5-0.6-0.5-1.1c0.6-0.8,1.2-1.6,1.2-2.7c0.3-0.5,0.4-1.1,1-1.4c0.5,0.9,0.2,1.8,0.2,2.7c0.1,1.8,0,3.7,0,5.5
			c0,0.7,0.2,1,0.9,1c0.6,0,1-0.2,0.9-0.9c0-0.3,0-0.6,0-0.9C375.8,438.9,375.8,438.9,377.6,438.8z"/>
		<path id="XMLID_193_" class="st17" d="M366.9,444.6c0,3.2,0,6.3,0,9.3c0,0.6-0.3,0.9-0.7,1.1c-2.8,1.7-5.5,3.4-8.3,5.1
			c-0.3,0.2-0.6,0.5-0.9,0.2c-0.3-0.3,0-0.6,0.2-0.9c3.1-4.8,6.2-9.7,9.3-14.5C366.6,444.8,366.7,444.8,366.9,444.6z"/>
		<path id="XMLID_192_" class="st50" d="M344.5,435.1c0.6,0.1,1.4-0.4,1.9,0.6c0.1,0.2,0.5-0.1,0.7-0.2c0.5-0.3,0.9-0.7,1.4-1
			c0.4-0.3,0.8-0.4,0.9,0.3c-0.3,1.1-1.4,1.1-2.1,1.8c-1.5,0.5-1.5,1.8-1.4,3.2c0,0.4,0,0.9,0,1.3c0,0.6,0.1,1.3-0.4,1.8h-0.1
			c-0.5,0-1.1,0-1.6,0c0-0.7-0.1-1.4-0.1-2.2c-0.6-1.7-0.4-3.5-0.2-5.3C343.7,435.1,344,434.8,344.5,435.1z"/>
		<path id="XMLID_191_" class="st51" d="M368.2,442.6c-0.2,0.1-0.3,0.2-0.5,0.3c-0.2,0-0.3,0-0.5,0c-0.3-0.4-0.7-0.2-1.1-0.3
			c-0.4-0.1-0.4-0.3-0.4-0.7c0-0.3,0.1-0.7,0.5-0.6c1.8,0.4,2.5-0.8,3.2-2.2c0.2-0.3,0.5-0.5,0.8-0.5l0,0c0.1,0.2,0.2,0.3,0.2,0.5
			c-0.2,0.8-0.8,1.4-1.2,2C368.8,441.6,368.7,442.3,368.2,442.6z"/>
		<path id="XMLID_190_" class="st52" d="M363.4,441.3c0.5,0,0.8,0.2,0.7,0.8c0,0.6-0.4,0.6-0.8,0.6c-0.3,0-0.7,0-1,0
			c-0.2,0-0.5,0-0.7,0l0,0c-0.1-0.7,0.4-1,0.8-1.4c0.1,0,0.1,0,0.2,0C362.9,441.1,363.2,441,363.4,441.3z"/>
		<path id="XMLID_189_" class="st21" d="M386.6,420.3c0.8,0.3,0.8,1,0.8,1.8c0,3.4,0,6.9,0,10.3h-0.1c-0.9,0.6-1.8,0.3-2.7,0.4
			c-0.2,0-0.3-0.1-0.3-0.3c0-3.1-0.1-6.2,0-9.3C384.4,421.5,385.2,420.6,386.6,420.3z"/>
		<path id="XMLID_188_" class="st20" d="M386.6,420.3c-1.6,0.9-2.1,2.3-2,4.2c0.1,2.1,0,4.1,0,6.2c0,0.7-0.1,1.3-0.3,2
			c-0.3,0.4-0.8,0.4-1.2,0.3c-0.2-3.6-0.1-7.2,0-10.9C383.2,419.9,384.8,419.2,386.6,420.3z"/>
		<path id="XMLID_187_" class="st53" d="M383.2,432.9c0.4-0.3,0.8-0.3,1.2-0.3c0.1,0,0.2,0,0.2,0c0.4,0.4,0.3,1,0.3,1.5
			c-0.2,0.8-0.3,1.7-0.1,2.6c0.1,0.5,0.1,1,0,1.5c-0.2,0.6-0.1,1.3-0.5,1.9l0,0c-0.9,0-1.4-0.6-1.5-1.5c-0.1-1.8-0.2-3.7,0.1-5.5
			C383.1,433.1,383.1,433,383.2,432.9z"/>
		<path id="XMLID_186_" class="st54" d="M383,433.2c0,1.5,0.1,2.9,0,4.4c-0.1,1.2,0.3,2.1,1.3,2.6c0,0.5,0,1,0,1.5
			c0,0.6-0.1,1-0.8,1s-1-0.2-1-1c0-2.4,0-4.7,0-7.1C382.6,434,382.7,433.6,383,433.2z"/>
		<path id="XMLID_185_" class="st55" d="M384.6,436.7c-0.4-0.8-0.3-1.7,0-2.5c0.8-1,1.8-0.8,2.8-0.3c0,0.1,0,0.2,0,0.3
			c0,0.8,0,1.6,0,2.4c-0.1,0.1-0.1,0.1-0.2,0.2C386.4,437.2,385.5,437.3,384.6,436.7z"/>
		<path id="XMLID_184_" class="st56" d="M384.4,440.1c0-0.6-0.1-1.3,0.3-1.8c0.8-0.6,1.7-0.5,2.6-0.2c0.1,0.1,0.1,0.1,0.2,0.2
			C386.3,440.5,385.8,440.8,384.4,440.1z"/>
		<path id="XMLID_183_" class="st42" d="M387.4,436.7c0.5,0.1,1.3-0.3,1.4,0.6c0.3,1.4-0.8,0.9-1.5,1h-0.1
			C387,437.8,387,437.3,387.4,436.7L387.4,436.7z"/>
		<path id="XMLID_181_" class="st16" d="M343.8,435.4c0-0.8-0.1-1.6-0.1-2.4c0-0.2,0.1-0.4,0.1-0.6c0.5,0,1.1,0,1.6,0
			c0.6-0.1,0.9,0.2,0.9,0.8c0.5,1.7-0.9,1.5-1.8,1.9C344.2,435.2,344,435.3,343.8,435.4z"/>
		<path id="XMLID_180_" class="st57" d="M387.4,434c-0.9,0.1-1.9-0.2-2.8,0.3c0-0.5,0-1.1,0-1.6c0.9-0.5,1.8-0.2,2.7-0.3
			C387.4,432.9,387.4,433.5,387.4,434z"/>
		<path id="XMLID_179_" class="st58" d="M347.2,436.4c0.5-0.8,1.5-0.8,2.1-1.5c0.1,0,0.3,0,0.4-0.1c1.1,0.2,1.6,0.9,1.6,2.2
			c-0.1,1.3,0,2.6,0,3.9c0,1.5-0.9,2.3-2.1,1.6c-1.2-0.7-2.5-1-3.7-1.5c0-0.4,0-0.9,0-1.3C346.8,439.1,347.4,437.9,347.2,436.4z"/>
		<path id="XMLID_178_" class="st59" d="M345.5,441c1.3,0,2.5-0.1,3.6,1.1c0.8,0.9,2,0.2,2-1.1c0-1.1-0.1-2.3,0-3.4
			c0.1-1.3-0.1-2.3-1.3-2.8c0.1-0.1,0.2-0.2,0.3-0.3c1.1,0.5,1.7,1.4,1.5,2.7c-0.1,1.2,0,2.3,0,3.5c0,1.6-0.5,2.1-2,2.1
			c-1.3,0-2.7,0-4,0C345.5,442.3,345.5,441.7,345.5,441z"/>
		<path id="XMLID_177_" class="st60" d="M356.3,432.4c-0.4,1.5-0.1,3-0.2,4.5c0,1.9,0,3.8,0,5.8c-0.8,0.1-1-0.2-1-1
			c0-1.9,0-3.7,0-5.6c0-0.8,0.1-1.5-0.4-2.3C354.1,432.8,354.6,432.4,356.3,432.4z"/>
		<path id="XMLID_176_" class="st44" d="M362.4,441.3c0,0.6-0.6,0.9-0.8,1.4c-1,0-1.9,0-2.9,0c-0.7,0-0.9-0.2-0.9-0.9
			c-0.2-3.1,0.3-3.8,3.1-4.8c0.5-0.2,1-0.3,1.3-0.7c0.3-0.4,0.8-0.7,0.6-1.2s-0.6-1-1.2-1c-0.9,0-1.8,0-2.6,0
			c-0.5,0-0.8-0.1-0.8-0.7c0-0.5,0.2-0.9,0.8-0.8c1.1,0,2.3-0.2,3.4,0.2c1.3,0.4,2,1.3,2.1,2.6c0.1,1.3-0.4,2.3-1.6,2.8
			c-0.7,0.3-1.3,0.6-2,0.8c-1,0.2-1,1.1-1.1,1.8c-0.1,0.6,0.4,0.7,0.8,0.7C361.2,441.3,361.8,441.3,362.4,441.3z"/>
		<path id="XMLID_175_" class="st61" d="M366.7,436.5c0-0.1,0-0.2,0-0.3c-0.3-0.7,0.8-1.1,0.3-1.9c0-0.1,0-0.2,0-0.2
			c0.9,0,1.8-0.1,2.6,0c0.8,0,1.2,0.4,1.2,1.3c0,0.7-0.4,1.1-1.1,1.2C368.6,436.5,367.7,436.5,366.7,436.5z"/>
		<path id="XMLID_174_" class="st62" d="M367,434.3c0.4,0,1-0.1,0.5,0.7c-0.3,0.4-0.5,0.8-0.8,1.2c-1.1,1.7-2.2,3.4-3.3,5.1
			c-0.3,0-0.5,0-0.8,0C364.1,438.9,365.5,436.6,367,434.3z"/>
		<path id="XMLID_173_" class="st54" d="M366.9,432.4c0,0.5,0,1.1,0,1.6c-0.5-0.1-1.2,0.3-1.2-0.8
			C365.6,432.2,366.4,432.5,366.9,432.4z"/>
		<path id="XMLID_172_" class="st16" d="M373.8,433.5c-0.3,0.5-0.5,1.1-1,1.4c0-0.1,0-0.2,0-0.3c0-1.1,0.6-1.8,1.5-2.2
			C374.3,432.9,373.9,433.1,373.8,433.5z"/>
		<path id="XMLID_171_" class="st42" d="M368.2,442.6c0.2-0.6,0.4-1.1,0.8-1.6c1.4-0.4,1.5-0.6,1.3-1.9c0-0.2,0-0.3,0-0.5
			c0.6-0.1,0.7-0.9,1.3-1.1c1,0.9,1.3,2.4,0.9,3.7c-0.5,1.3-1.5,1.5-2.6,1.4C369.3,442.6,368.7,442.6,368.2,442.6z"/>
		<path id="XMLID_170_" class="st63" d="M347.2,436.4c0.7,1.7,0,3.1-1.7,3.3C345.5,437,345.5,437,347.2,436.4z"/>
		<path id="XMLID_169_" class="st64" d="M370.3,439.1c0.9,0,0.5,0.8,0.4,1c-0.3,0.7-0.7,1.6-1.7,0.9
			C369.4,440.4,369.8,439.7,370.3,439.1z"/>
		<path id="XMLID_168_" class="st65" d="M387.3,436.7c0.1,0.5,0.1,1.1,0,1.6c-0.9,0-1.8,0-2.7,0c0-0.5,0-1.1,0-1.6
			C385.5,436.7,386.4,436.7,387.3,436.7z"/>
	</g>
	<rect id="XMLID_77_" x="328.7" y="449.9" class="st66" width="1.7" height="1.4"/>
</g>
<g id="Ebene_3" class="st36">
	<path id="XMLID_75_" class="st67" d="M291.6,520.8l42.5-24l-0.6-66.8c0,0-2.1-9-10.3-10.6l-1.6-0.2c0,0-8.7,1.5-8.7,2.6L312,422
		c0,0-8.5,7-9.3,8.3s-1.2,1.7-1.2,1.7s-9.1,15-9.5,25.1L291.6,520.8z"/>
	<g id="XMLID_80_" class="st37">
		<path id="XMLID_81_" class="st17" d="M302.8,431.4c0,0-3.8,5-6.6,12.8c-1.7,4.7-2.7,10.5-2.9,16.3c-0.6,13.9-0.2,52.4-0.2,60.3
			l10.9-6.3L302.8,431.4z"/>
		<path id="XMLID_82_" class="st17" d="M312.8,422.6c0,0-7.8,6.2-9,8.3l0.6,83.4l9.5-5.5L312.8,422.6z"/>
		<path id="XMLID_83_" class="st17" d="M322.6,419.9c0,0-7,0.9-8.9,2.6l0.8,85.9l9.8-5.7L322.6,419.9z"/>
		<path id="XMLID_84_" class="st17" d="M333.5,430.7c0,0-1.9-9.6-9.9-10.5l1.4,82.1l9.1-5.3L333.5,430.7z"/>
	</g>
	<g id="XMLID_89_" class="st37">
		<g id="XMLID_88_">
			<path id="XMLID_76_" class="st20" d="M328.8,469.6L328.8,469.6c-0.7,0-1.3-0.6-1.3-1.3v-12.5c0-0.7,0.6-1.3,1.3-1.3l0,0
				c0.7,0,1.3,0.6,1.3,1.3v12.5C330.2,469,329.6,469.6,328.8,469.6z"/>
			<rect id="XMLID_78_" x="328.8" y="454.4" class="st20" width="1" height="0.9"/>
			<rect id="XMLID_79_" x="328.7" y="468.7" class="st20" width="1" height="0.9"/>
		</g>
		<path id="XMLID_74_" class="st21" d="M329.8,469.6L329.8,469.6c-0.7,0-1.3-0.6-1.3-1.3v-12.5c0-0.7,0.6-1.3,1.3-1.3l0,0
			c0.7,0,1.3,0.6,1.3,1.3v12.5C331.1,469,330.5,469.6,329.8,469.6z"/>
	</g>
	<g id="XMLID_85_" class="st37">
		<path id="XMLID_112_" class="st18" d="M333.5,434.5l-40.2,22.6c0,0-0.3,6.5-0.4,7.7c0,1.2,40.5-23,40.5-23L333.5,434.5z"/>
	</g>
	<g id="XMLID_86_" class="st37">
		<path id="XMLID_107_" class="st18" d="M334.1,470.9l-41.2,22.6c0,0-0.3,6.5-0.4,7.7c0,1.2,41.5-23,41.5-23L334.1,470.9z"/>
	</g>
	<polygon id="XMLID_87_" class="st68" points="333.5,441.9 303.6,487.6 292.9,493.4 324,447.5 	"/>
</g>
</svg>
