<?xml version="1.0" encoding="utf-8"?>
<!-- Generator: Adobe Illustrator 22.0.1, SVG Export Plug-In . SVG Version: 6.00 Build 0)  -->
<svg version="1.1" xmlns="http://www.w3.org/2000/svg" xmlns:xlink="http://www.w3.org/1999/xlink" x="0px" y="0px"
	 viewBox="-233 23.3 375 550" style="enable-background:new -233 23.3 375 550;" xml:space="preserve">
<style type="text/css">
	.st0{fill:#473437;}
	.st1{fill:#82BD53;}
	.st2{opacity:0.57;fill:#44A84E;enable-background:new    ;}
	.st3{fill:#056938;}
	.st4{fill:#F9B03D;}
	.st5{fill:#009245;}
	.st6{fill:#754D24;}
	.st7{fill:#48AE4D;}
	.st8{opacity:0.39;fill:#010202;enable-background:new    ;}
	.st9{opacity:0.41;}
	.st10{fill:#010202;}
	.st11{fill:#44A84E;}
	.st12{opacity:0.41;fill:#010202;enable-background:new    ;}
	.st13{fill:#C3C4C6;}
	.st14{fill:#97989A;}
	.st15{fill:#BC6817;}
	.st16{fill:#DE9F5C;}
	.st17{fill:#D3842F;}
	.st18{fill:#BC6818;}
	.st19{fill:#A34617;}
	.st20{fill:#BB6417;}
	.st21{fill:#ADADB1;}
	.st22{fill:#77797D;}
	.st23{opacity:0.49;fill:#515152;enable-background:new    ;}
	.st24{fill:#515152;}
	.st25{fill:#474649;}
	.st26{fill:#D5D5D6;}
	.st27{fill:#8F9194;}
	.st28{fill:none;stroke:#474649;stroke-width:2;stroke-miterlimit:10;}
	.st29{fill:#F3F7E8;}
	.st30{fill:#FFFFFF;}
	.st31{font-family:'Roboto-Bold', sans-serif;}
	.st32{font-size:25.9211px;}
	.st33{font-size:17.12px;}
	.st34{fill:#4E4D4F;}
	.st35{fill:#747476;}
</style>
<g id="Ebene_3">
</g>
<g id="Ebene_1">
	<g>
		<polygon id="XMLID_574_" class="st0" points="-187.3,442.2 -45.2,521.6 96.7,442.2 96.7,389.5 -45,471.3 -187,389.5 		"/>
		<polygon id="XMLID_569_" class="st1" points="-195.9,370.3 -45.5,455.6 105.1,370.3 -51.3,287.1 		"/>
		<path id="XMLID_578_" class="st2" d="M35.5,424.4"/>
		<path id="XMLID_575_" class="st3" d="M-171.3,434.3l13-7.6v-19.2c0,0-9.3-18.5-13-7V434.3z"/>
		<polygon id="XMLID_550_" class="st3" points="-134.8,441.8 -126.3,437.1 -126.3,422.5 -135.3,422.5 		"/>
		<polygon id="XMLID_579_" class="st3" points="80.7,429.8 68.7,423.5 68.1,393.8 83.5,389.9 		"/>
		<polygon id="XMLID_581_" class="st3" points="-6.3,480.5 -14.6,475.5 -16.2,452.1 -4.4,453.7 		"/>
		<path id="XMLID_583_" class="st4" d="M-27.3,401.9c0,0-5.8,6.3-0.5,7.5s13.2-3.4,15.3,0.9c2.2,4.2,7.1,21.9,11.9,19.6
			c4.7-2.3,39.7-22.1,39.7-22.1s9.8-4.5,0-5.7s-24.7-24.2-24.7-24.2L-27.3,401.9z"/>
		<ellipse id="XMLID_582_" class="st5" cx="-57" cy="428.6" rx="6.7" ry="3.8"/>
		<ellipse id="XMLID_584_" class="st5" cx="42" cy="360.6" rx="6.7" ry="3.8"/>
		<ellipse id="XMLID_585_" class="st5" cx="-40.1" cy="432.4" rx="4.6" ry="2.6"/>
		<g id="tree_x5F_1">
			<ellipse id="XMLID_586_" class="st5" cx="-169.9" cy="371.3" rx="9.8" ry="5.5"/>
			<path id="XMLID_587_" class="st6" d="M-168.7,372.8h-1.6c-1.3,0-2.4-1.1-2.4-2.4v-10.5c0-1.3,1.1-2.4,2.4-2.4h1.6
				c1.3,0,2.4,1.1,2.4,2.4v10.5C-166.3,371.7-167.4,372.8-168.7,372.8z"/>
			<g id="XMLID_589_">
				<path id="XMLID_603_" class="st5" d="M-183.2,340.5l-3.3,7.5c0,0,0.9,0.9,2.4,2.1l3.4-7.7C-181.7,341.6-182.6,341-183.2,340.5z"
					/>
				<path id="XMLID_602_" class="st5" d="M-154.5,349.7c0.6-0.5,1.3-1.1,1.9-1.7l-3.2-7.6c-0.7,0.6-1.3,1.1-2,1.6L-154.5,349.7z"/>
				<path id="XMLID_600_" class="st3" d="M-154.5,349.7c-12.8,10.6-24.6,4.1-29.5,0.3l-2.4,5.6c0,0,16.6,17.1,34.4,0L-154.5,349.7z"
					/>
				<path id="XMLID_599_" class="st5" d="M-154.5,349.7l-3.2-7.7c-9.5,6.8-18.2,3.4-23,0.3l-3.4,7.7
					C-179.1,353.8-167.3,360.3-154.5,349.7z"/>
				<path id="XMLID_6_" class="st7" d="M-169.2,304.1l-15.3,35.2c0,0,0.4,0.5,1.3,1.1c0.6,0.5,1.5,1.2,2.5,1.8
					c4.8,3.1,13.5,6.5,23-0.3c0.7-0.5,1.3-1,2-1.6c0.4-0.3,0.8-0.7,1.2-1.1L-169.2,304.1z"/>
			</g>
			<g id="XMLID_605_">
				<path id="XMLID_618_" class="st7" d="M-183.2,340.5l6.7-15.5l-0.9-2l-7.1,16.3C-184.5,339.3-184,339.8-183.2,340.5z"/>
				<path id="XMLID_620_" class="st5" d="M-183.2,340.5l-3.3,7.5c0,0,0.9,0.9,2.4,2.1l3.4-7.7C-181.7,341.6-182.6,341-183.2,340.5z"
					/>
				<path id="XMLID_619_" class="st8" d="M-183.2,340.5l-3.3,7.5c0,0,0.9,0.9,2.4,2.1l3.4-7.7C-181.7,341.6-182.6,341-183.2,340.5z"
					/>
				<path id="XMLID_622_" class="st7" d="M-174.8,328.7l-1.7-3.8l-6.7,15.5c0.6,0.5,1.5,1.2,2.5,1.8L-174.8,328.7z"/>
				<path id="XMLID_624_" class="st3" d="M-184.1,350l-2.4,5.6c0,0,11.8,12.2,26.2,5.7l-3-6.8C-172.5,357.4-180.3,352.9-184.1,350z"
					/>
				<path id="XMLID_623_" class="st8" d="M-184.1,350l-2.4,5.6c0,0,11.8,12.2,26.2,5.7l-3-6.8C-172.5,357.4-180.3,352.9-184.1,350z"
					/>
				<path id="XMLID_626_" class="st5" d="M-163.3,354.6l-3.9-8.8c-5.6,0.6-10.4-1.5-13.5-3.5l-3.4,7.7
					C-180.3,352.9-172.5,357.4-163.3,354.6z"/>
				<path id="XMLID_625_" class="st8" d="M-163.3,354.6l-3.9-8.8c-5.6,0.6-10.4-1.5-13.5-3.5l-3.4,7.7
					C-180.3,352.9-172.5,357.4-163.3,354.6z"/>
				<path id="XMLID_628_" class="st7" d="M-167.2,345.8l-7.6-17.1l-5.9,13.6C-177.6,344.3-172.8,346.5-167.2,345.8z"/>
				<path id="XMLID_8_" class="st8" d="M-174.8,328.7l-1.7-3.8l-0.9-2l-7.1,16.3c0,0,0.4,0.5,1.3,1.1c0.6,0.5,1.5,1.2,2.5,1.8
					c3.1,2,7.9,4.2,13.5,3.5L-174.8,328.7z"/>
			</g>
		</g>
		<g id="XMLID_696_" class="st9">
			<path id="XMLID_689_" class="st10" d="M-138,444.1l46.4,27.1c0,0,13.5,1.2,2.2-9.1l-40.9-22.8L-138,444.1z"/>
			<path id="XMLID_691_" class="st10" d="M25.4,473.3l15-7.1c0,0,7.7-7.3,0-8.1l-15,7.6C25.4,465.8,17.4,475,25.4,473.3z"/>
			<path id="XMLID_692_" class="st10" d="M14.3,460.6L65.1,435c0,0,11.8-15.2-1.3-10.2l-53.5,28.4L14.3,460.6z"/>
			<path id="XMLID_693_" class="st10" d="M96.7,433.2l-42.2,25c0,0-8.3-2.1,0-9.3l42.2-24.1V433.2z"/>
			<path id="XMLID_694_" class="st10" d="M-32.1,485l12.9-8.5c0,0,5.5-4.6,0-6.4l-12.9,7.4C-32.1,477.6-39.4,484.5-32.1,485z"/>
			<path id="XMLID_695_" class="st10" d="M-113.8,473.3L-132,464c0,0-5.2-6.2,0.2-5.9l18,8.1C-113.8,466.3-107.3,473.5-113.8,473.3z
				"/>
			
				<ellipse id="XMLID_684_" transform="matrix(0.363 -0.9318 0.9318 0.363 -487.5638 234.9254)" class="st10" cx="-72" cy="474.1" rx="3.2" ry="5.6"/>
		</g>
		<polygon id="XMLID_580_" class="st3" points="44.9,438.1 36.7,432.5 36.7,420.5 47.7,415.5 		"/>
		<path id="XMLID_577_" class="st11" d="M44.7,422.4l-20.6,11.1c0,0-6.9,4.5-5.9,10.4c1,5.8,0,21.6,0,21.6s-7.5,23.6-24.5,15v-21
			c0,0,6-16.8-39.7,12.8l7.8-16.7l82.9-43V422.4z"/>
		<path id="XMLID_576_" class="st11" d="M105.1,384.5c0,0-0.5,27-2.4,31.1c-1.4,3-6,27.5-22,14.3v-31.4c0,0-5-7.5-12,7.5v17.5
			c0,0-8,24.1-24,14.5v-25.5l58.4-34L105.1,384.5z"/>
		<polygon id="XMLID_1_" class="st11" points="105.1,370.3 -45.5,455.6 -195.9,370.3 -196.3,385.4 -46,472.3 105.3,386.3 		"/>
		<path id="XMLID_546_" class="st11" d="M-196.3,385.5v37c0,0,12,24.5,25,11.7v-33.7c0,0,3-11.7,13,6.8v22.2c0,0,13,24.2,23,12.3
			v-12.3c0,0,2.4-6.5,9.4-3.4c7,3.1,6.2-4.7,6.2-4.7L-182,383L-196.3,385.5z"/>
		<polygon id="XMLID_2_" class="st12" points="59.2,463.7 -45.2,521.6 -148.8,463.7 -174.8,477.7 -46,550.9 87.3,477.7 		"/>
		<g id="tree_x5F_2">
			<ellipse id="XMLID_27_" class="st5" cx="-134.9" cy="347.3" rx="9.8" ry="5.5"/>
			<path id="XMLID_26_" class="st6" d="M-133.7,348.8h-1.6c-1.3,0-2.4-1.1-2.4-2.4v-10.5c0-1.3,1.1-2.4,2.4-2.4h1.6
				c1.3,0,2.4,1.1,2.4,2.4v10.5C-131.3,347.7-132.4,348.8-133.7,348.8z"/>
			<g id="XMLID_20_">
				<path id="XMLID_25_" class="st5" d="M-148.2,316.5l-3.3,7.5c0,0,0.9,0.9,2.4,2.1l3.4-7.7C-146.7,317.6-147.6,317-148.2,316.5z"
					/>
				<path id="XMLID_24_" class="st5" d="M-119.5,325.7c0.6-0.5,1.3-1.1,1.9-1.7l-3.2-7.6c-0.7,0.6-1.3,1.1-2,1.6L-119.5,325.7z"/>
				<path id="XMLID_23_" class="st3" d="M-119.5,325.7c-12.8,10.6-24.6,4.1-29.5,0.3l-2.4,5.6c0,0,16.6,17.1,34.4,0L-119.5,325.7z"
					/>
				<path id="XMLID_22_" class="st5" d="M-119.5,325.7l-3.2-7.7c-9.5,6.8-18.2,3.4-23,0.3l-3.4,7.7
					C-144.1,329.8-132.3,336.3-119.5,325.7z"/>
				<path id="XMLID_21_" class="st7" d="M-134.2,280.1l-15.3,35.2c0,0,0.4,0.5,1.3,1.1c0.6,0.5,1.5,1.2,2.5,1.8
					c4.8,3.1,13.5,6.5,23-0.3c0.7-0.5,1.3-1,2-1.6c0.4-0.3,0.8-0.7,1.2-1.1L-134.2,280.1z"/>
			</g>
			<g id="XMLID_9_">
				<path id="XMLID_19_" class="st7" d="M-148.2,316.5l6.7-15.5l-0.9-2l-7.1,16.3C-149.5,315.3-149,315.8-148.2,316.5z"/>
				<path id="XMLID_18_" class="st5" d="M-148.2,316.5l-3.3,7.5c0,0,0.9,0.9,2.4,2.1l3.4-7.7C-146.7,317.6-147.6,317-148.2,316.5z"
					/>
				<path id="XMLID_17_" class="st8" d="M-148.2,316.5l-3.3,7.5c0,0,0.9,0.9,2.4,2.1l3.4-7.7C-146.7,317.6-147.6,317-148.2,316.5z"
					/>
				<path id="XMLID_16_" class="st7" d="M-139.8,304.7l-1.7-3.8l-6.7,15.5c0.6,0.5,1.5,1.2,2.5,1.8L-139.8,304.7z"/>
				<path id="XMLID_15_" class="st3" d="M-149.1,326l-2.4,5.6c0,0,11.8,12.2,26.2,5.7l-3-6.8C-137.5,333.4-145.3,328.9-149.1,326z"
					/>
				<path id="XMLID_14_" class="st8" d="M-149.1,326l-2.4,5.6c0,0,11.8,12.2,26.2,5.7l-3-6.8C-137.5,333.4-145.3,328.9-149.1,326z"
					/>
				<path id="XMLID_13_" class="st5" d="M-128.3,330.6l-3.9-8.8c-5.6,0.6-10.4-1.5-13.5-3.5l-3.4,7.7
					C-145.3,328.9-137.5,333.4-128.3,330.6z"/>
				<path id="XMLID_12_" class="st8" d="M-128.3,330.6l-3.9-8.8c-5.6,0.6-10.4-1.5-13.5-3.5l-3.4,7.7
					C-145.3,328.9-137.5,333.4-128.3,330.6z"/>
				<path id="XMLID_11_" class="st7" d="M-132.2,321.8l-7.6-17.1l-5.9,13.6C-142.6,320.3-137.8,322.5-132.2,321.8z"/>
				<path id="XMLID_10_" class="st8" d="M-139.8,304.7l-1.7-3.8l-0.9-2l-7.1,16.3c0,0,0.4,0.5,1.3,1.1c0.6,0.5,1.5,1.2,2.5,1.8
					c3.1,2,7.9,4.2,13.5,3.5L-139.8,304.7z"/>
			</g>
		</g>
		<g id="tree_x5F_3">
			<ellipse id="XMLID_47_" class="st5" cx="75.1" cy="368.3" rx="9.8" ry="5.5"/>
			<path id="XMLID_46_" class="st6" d="M76.3,369.8h-1.6c-1.3,0-2.4-1.1-2.4-2.4v-10.5c0-1.3,1.1-2.4,2.4-2.4h1.6
				c1.3,0,2.4,1.1,2.4,2.4v10.5C78.7,368.7,77.6,369.8,76.3,369.8z"/>
			<g id="XMLID_40_">
				<path id="XMLID_45_" class="st5" d="M61.8,337.5l-3.3,7.5c0,0,0.9,0.9,2.4,2.1l3.4-7.7C63.3,338.6,62.4,338,61.8,337.5z"/>
				<path id="XMLID_44_" class="st5" d="M90.5,346.7c0.6-0.5,1.3-1.1,1.9-1.7l-3.2-7.6c-0.7,0.6-1.3,1.1-2,1.6L90.5,346.7z"/>
				<path id="XMLID_43_" class="st3" d="M90.5,346.7c-12.8,10.6-24.6,4.1-29.5,0.3l-2.4,5.6c0,0,16.6,17.1,34.4,0L90.5,346.7z"/>
				<path id="XMLID_42_" class="st5" d="M90.5,346.7l-3.2-7.7c-9.5,6.8-18.2,3.4-23,0.3l-3.4,7.7C65.9,350.8,77.7,357.3,90.5,346.7z
					"/>
				<path id="XMLID_41_" class="st7" d="M75.8,301.1l-15.3,35.2c0,0,0.4,0.5,1.3,1.1c0.6,0.5,1.5,1.2,2.5,1.8
					c4.8,3.1,13.5,6.5,23-0.3c0.7-0.5,1.3-1,2-1.6c0.4-0.3,0.8-0.7,1.2-1.1L75.8,301.1z"/>
			</g>
			<g id="XMLID_29_">
				<path id="XMLID_39_" class="st7" d="M61.8,337.5l6.7-15.5l-0.9-2l-7.1,16.3C60.5,336.3,61,336.8,61.8,337.5z"/>
				<path id="XMLID_38_" class="st5" d="M61.8,337.5l-3.3,7.5c0,0,0.9,0.9,2.4,2.1l3.4-7.7C63.3,338.6,62.4,338,61.8,337.5z"/>
				<path id="XMLID_37_" class="st8" d="M61.8,337.5l-3.3,7.5c0,0,0.9,0.9,2.4,2.1l3.4-7.7C63.3,338.6,62.4,338,61.8,337.5z"/>
				<path id="XMLID_36_" class="st7" d="M70.2,325.7l-1.7-3.8l-6.7,15.5c0.6,0.5,1.5,1.2,2.5,1.8L70.2,325.7z"/>
				<path id="XMLID_35_" class="st3" d="M60.9,347l-2.4,5.6c0,0,11.8,12.2,26.2,5.7l-3-6.8C72.5,354.4,64.7,349.9,60.9,347z"/>
				<path id="XMLID_34_" class="st8" d="M60.9,347l-2.4,5.6c0,0,11.8,12.2,26.2,5.7l-3-6.8C72.5,354.4,64.7,349.9,60.9,347z"/>
				<path id="XMLID_33_" class="st5" d="M81.7,351.6l-3.9-8.8c-5.6,0.6-10.4-1.5-13.5-3.5l-3.4,7.7
					C64.7,349.9,72.5,354.4,81.7,351.6z"/>
				<path id="XMLID_32_" class="st8" d="M81.7,351.6l-3.9-8.8c-5.6,0.6-10.4-1.5-13.5-3.5l-3.4,7.7
					C64.7,349.9,72.5,354.4,81.7,351.6z"/>
				<path id="XMLID_31_" class="st7" d="M77.8,342.8l-7.6-17.1l-5.9,13.6C67.4,341.3,72.2,343.5,77.8,342.8z"/>
				<path id="XMLID_30_" class="st8" d="M70.2,325.7l-1.7-3.8l-0.9-2l-7.1,16.3c0,0,0.4,0.5,1.3,1.1c0.6,0.5,1.5,1.2,2.5,1.8
					c3.1,2,7.9,4.2,13.5,3.5L70.2,325.7z"/>
			</g>
		</g>
		<g id="XMLID_49_">
			<path id="XMLID_50_" class="st13" d="M-45.7,252.7l0.1,160l18.4-10.7l-0.6-63c-0.3-18.4,10.3-29.2,14.1-32.5
				c0.9-0.7,0.7-0.9,1.8-1.2c18.7-5.6,19.2,16,19.2,16l-0.4,61l16.3-9.5l0.2-160L-45.7,252.7z"/>
		</g>
		<path id="XMLID_570_" class="st14" d="M14.3,377.7l-7.5,4.4l0.1-61.5c0,0,1.5-20.1-18.6-16c0,0,20.5-11,25,3.5L14.3,377.7z"/>
		<g id="XMLID_110_">
			<g id="XMLID_109_">
				<path id="XMLID_106_" class="st15" d="M-31.2,402.8l44.3-24.2l-0.6-67.3c0,0-2.2-9.1-10.8-10.7l-1.6-0.2
					c-1.4,0.2-2.9,0.5-4.6,0.9c-2,0.5-3.7,1.1-5.2,1.7c-7,5.5-9.4,7.7-10,8.5c0,0.1-1.3,1.7-1.3,1.7l0,0c0,0-9.5,15.1-9.9,25.3
					L-31.2,402.8z"/>
				<g id="XMLID_108_">
					<g id="XMLID_99_">
						<path id="XMLID_105_" class="st16" d="M-18.2,312.8c0,0-3.8,5-6.6,12.9c-1.7,4.7-2.7,10.6-2.9,16.5c-0.6,14-0.2,52.8-0.2,60.7
							l10.9-6.4L-18.2,312.8z"/>
						<path id="XMLID_104_" class="st16" d="M-8.2,303.9c0,0-7.8,6.2-9,8.3l0.6,84l9.5-5.5L-8.2,303.9z"/>
						<path id="XMLID_103_" class="st16" d="M1.6,301.1c0,0-7,1-8.9,2.6l0.8,86.6l9.8-5.7L1.6,301.1z"/>
						<path id="XMLID_100_" class="st16" d="M12.5,311.5c0,0-1.9-9.6-9.9-10.6L4,383.7l9.1-5.3L12.5,311.5z"/>
					</g>
					<g id="XMLID_52_">
						<g id="XMLID_92_">
							<path id="XMLID_143_" class="st17" d="M-27.8,346.2c0.1-1.5,0.3-6.5,0.4-7.4l39.7-22.4l-0.1,6.8
								C-2.8,332.1-25.2,345.4-27.8,346.2z"/>
							<g id="XMLID_138_">
								<path id="XMLID_139_" class="st18" d="M12,316.8v6.2c-14.4,8.7-35.9,21.3-39.5,22.8c0.1-1.8,0.3-5.8,0.3-6.9L12,316.8
									 M12.5,315.9L12.5,315.9L12.5,315.9z M12.5,315.9l-40.2,22.7c0,0-0.3,6.6-0.4,7.8c0,0,0,0,0.1,0c1.9,0,40.5-23.2,40.5-23.2
									V315.9L12.5,315.9z"/>
							</g>
						</g>
						<g id="XMLID_91_">
							<path id="XMLID_135_" class="st17" d="M-28.2,382.8c0.1-1.5,0.3-6.5,0.4-7.4l40.7-22.5l-0.1,6.8
								C-2.6,368.8-25.6,382-28.2,382.8z"/>
							<g id="XMLID_130_">
								<path id="XMLID_131_" class="st18" d="M12.6,353.4v6.2c-14.8,8.7-36.8,21.3-40.5,22.8c0.1-1.7,0.3-5.8,0.3-6.9L12.6,353.4
									 M13.1,352.5L13.1,352.5L13.1,352.5z M13.1,352.5l-41.2,22.7c0,0-0.3,6.6-0.4,7.8c0,0,0,0,0.1,0c1.9,0,41.4-23.2,41.4-23.2
									L13.1,352.5L13.1,352.5z"/>
							</g>
						</g>
					</g>
				</g>
			</g>
			<g id="XMLID_93_">
				<g id="XMLID_95_">
					<path id="XMLID_98_" class="st19" d="M7.6,352.8L7.6,352.8c-0.7,0-1.3-0.6-1.3-1.3V339c0-0.7,0.6-1.3,1.3-1.3l0,0
						c0.7,0,1.3,0.6,1.3,1.3v12.5C8.9,352.2,8.3,352.8,7.6,352.8z"/>
					<rect id="XMLID_97_" x="7.6" y="337.6" class="st19" width="1" height="0.9"/>
					<rect id="XMLID_96_" x="7.5" y="351.9" class="st19" width="1" height="0.9"/>
				</g>
				<path id="XMLID_94_" class="st20" d="M8.5,352.8L8.5,352.8c-0.7,0-1.3-0.6-1.3-1.3V339c0-0.7,0.6-1.3,1.3-1.3l0,0
					c0.7,0,1.3,0.6,1.3,1.3v12.5C9.8,352.2,9.2,352.8,8.5,352.8z"/>
			</g>
		</g>
		<g id="XMLID_3_">
			<g id="XMLID_564_">
				<g id="XMLID_488_">
					<polygon id="XMLID_490_" class="st21" points="-114.6,371.6 -45.8,411.6 -45.7,251.7 -114.9,211.6 					"/>
				</g>
				<g id="XMLID_65_">
					<polygon id="XMLID_548_" class="st22" points="-75.1,235.7 -91.1,226 -91,239.7 -81,258.2 -75.3,255 					"/>
					<polygon id="XMLID_547_" class="st14" points="-81,258.2 -91.1,226 -99.5,221.7 -88.3,254 					"/>
				</g>
			</g>
			<g id="XMLID_4_">
				<polygon id="XMLID_565_" class="st23" points="-89.1,297.4 -89.3,297.3 -92.1,298.7 -77.7,306.6 -75.4,304.9 				"/>
				<path id="XMLID_567_" class="st23" d="M-88.3,269.8l-1,27.5l-2.8,1.4V274C-92.1,274-91.3,269.8-88.3,269.8z"/>
				<path id="XMLID_566_" class="st24" d="M-89.3,297.3l13.9,7.5l0.4-24c0,0-4.2-12.9-14.2-10.8L-89.3,297.3L-89.3,297.3z"/>
				<polygon id="XMLID_64_" class="st25" points="-89.3,297.3 -75.4,290.2 -75.4,304.9 				"/>
			</g>
		</g>
		<g id="XMLID_7_">
			<path id="XMLID_111_" class="st13" d="M-24.8,320.2c-7-2.2-13.7-3.1-21-3.5v95.9l18.4-10.7l-0.6-63
				C-28.1,331.5-27,325.1-24.8,320.2z"/>
		</g>
		<g id="XMLID_53_">
			<polygon id="XMLID_54_" class="st14" points="-45.9,329 -54.2,324.3 -54.2,314.9 -46,319.2 			"/>
			<polygon id="XMLID_55_" class="st26" points="-46,329 -37.7,324.3 -37.7,314.9 -45.9,319.2 			"/>
			<polygon id="XMLID_56_" class="st22" points="-54.2,314.9 -52.7,314.2 -46,317.7 -46,319.2 			"/>
			<polygon id="XMLID_57_" class="st14" points="-37.7,314.9 -39.2,314.2 -46,317.7 -46,319.2 			"/>
		</g>
		<g id="XMLID_58_">
			<polygon id="XMLID_114_" class="st14" points="-45.6,345 -53.9,340.2 -53.9,330.9 -45.7,335.2 			"/>
			<polygon id="XMLID_113_" class="st26" points="-45.7,345 -37.4,340.2 -37.4,330.9 -45.6,335.2 			"/>
			<polygon id="XMLID_90_" class="st22" points="-53.9,330.9 -52.4,330.2 -45.7,333.7 -45.7,335.2 			"/>
			<polygon id="XMLID_59_" class="st14" points="-37.5,330.9 -39,330.2 -45.7,333.7 -45.7,335.2 			"/>
		</g>
		<g id="XMLID_115_">
			<polygon id="XMLID_119_" class="st14" points="-45.7,360.1 -54,355.4 -54,346.1 -45.8,350.4 			"/>
			<polygon id="XMLID_118_" class="st26" points="-45.8,360.1 -37.5,355.4 -37.5,346.1 -45.7,350.4 			"/>
			<polygon id="XMLID_117_" class="st22" points="-54,346.1 -52.5,345.4 -45.8,348.9 -45.8,350.4 			"/>
			<polygon id="XMLID_116_" class="st14" points="-37.5,346.1 -39,345.4 -45.7,348.9 -45.7,350.4 			"/>
		</g>
		<path id="XMLID_137_" class="st22" d="M-109.2,296.9"/>
		<g id="XMLID_66_">
			<polygon id="XMLID_68_" class="st22" points="-45.7,252.7 -62.1,243 -62,256.7 -52,275.2 -45.7,271.8 			"/>
			<polygon id="XMLID_67_" class="st14" points="-52,275.2 -62.1,243 -70.5,238.4 -59.3,271 			"/>
		</g>
		<g id="XMLID_69_">
			<polygon id="XMLID_71_" class="st22" points="-102.7,219.9 -119.1,210.5 -119,222.7 -109,241.2 -102.7,237.8 			"/>
			<polygon id="XMLID_70_" class="st14" points="-109,241.2 -119.1,210.5 -127,205.9 -116.3,237 			"/>
		</g>
		<g id="XMLID_72_">
			<polygon id="XMLID_120_" class="st14" points="-45.7,252.7 -29.4,243 -29.6,256.7 -39.5,275.2 -45.7,271.8 			"/>
			<polygon id="XMLID_73_" class="st26" points="-39.5,275.2 -29.4,243 -21.1,238.5 -32.3,271 			"/>
		</g>
		<g id="XMLID_121_">
			<polygon id="XMLID_123_" class="st14" points="11.7,219.6 27.6,210.5 27.5,223.7 17.7,242.2 11.7,238.8 			"/>
			<polygon id="XMLID_122_" class="st26" points="17.5,242.2 27.6,210.5 35.9,205.7 24.7,238 			"/>
		</g>
		<g id="XMLID_124_">
			<polygon id="XMLID_126_" class="st14" points="-16.3,235.6 -0.4,226.5 -0.5,239.7 -10.3,258.2 -16.3,254.8 			"/>
			<polygon id="XMLID_125_" class="st26" points="-10.5,258.2 -0.4,226.5 7.9,221.7 -3.3,254 			"/>
		</g>
	</g>
</g>
<g id="Ebene_2">
	<polygon id="XMLID_89_" class="st27" points="-62.5,143.1 -117.5,174.2 -104.4,182.9 -84.5,172 -48.5,151 	"/>
	<polygon id="XMLID_86_" class="st21" points="-34.7,116.2 -34.4,142.9 -48.5,151 -48.7,123.2 	"/>
	<polygon id="XMLID_85_" class="st26" points="-48.7,109.2 -62.7,116.2 -48.7,123.2 -34.7,116.2 	"/>
	<polygon id="XMLID_88_" class="st27" points="-48.6,123.2 -62.7,116.2 -62.5,143.1 -48.5,151 	"/>
	<g>
		<line id="XMLID_683_" class="st28" x1="-56.8" y1="149.8" x2="-56.5" y2="58.8"/>
		<ellipse id="XMLID_61_" class="st25" cx="-56.6" cy="149.8" rx="1.9" ry="0.7"/>
		<ellipse id="XMLID_127_" class="st16" cx="-56.4" cy="57.9" rx="2.4" ry="2.1"/>
		<g id="XMLID_144_">
			<polygon id="XMLID_146_" class="st29" points="30.1,56.3 -29.5,56.3 -29.7,85.3 30.1,85.3 12.3,70.8 			"/>
		</g>
		<polygon id="XMLID_62_" class="st25" points="-15.8,61.3 -29.7,56.3 -29.7,61.3 		"/>
		<g id="flag_x5F_0">
			<rect id="XMLID_679_" x="-59.8" y="61.3" class="st30" width="44" height="29"/>
			<text id="XMLID_680_" transform="matrix(1 0 0 1 -46.6884 85.3699)" class="st1 st31 st32">H</text>
		</g>
		<text id="XMLID_145_" transform="matrix(1 0 0 1 -11.591 77.8372)" class="st1 st31 st33">18</text>
	</g>
	<polygon id="XMLID_154_" class="st27" points="12.8,184.5 -12.5,172 -48.5,151 -34.4,142.9 23.8,173.2 	"/>
	<polygon id="XMLID_153_" class="st25" points="-104.4,182.9 -48.5,151 20,188 -46.1,224.2 	"/>
	<polygon id="XMLID_152_" class="st34" points="-48.5,182.4 -48.5,151 -104.4,182.9 -48.5,222.5 	"/>
	<path id="XMLID_147_" class="st35" d="M23.8,214.6"/>
	<path id="XMLID_142_" class="st14" d="M-104.4,182.9"/>
	<polygon id="XMLID_141_" class="st35" points="-45.6,216.2 -104.4,182.9 -118.5,191 -45.5,233 	"/>
	<polygon id="XMLID_140_" class="st27" points="13,183.5 -45.9,216.8 -45.5,233 27.5,191 	"/>
	<path id="XMLID_132_" class="st14" d="M-104.4,182.9"/>
	<polygon id="XMLID_84_" class="st27" points="-132.3,203.2 -45.1,253.4 -45.5,233 -132.1,182.9 	"/>
	<polygon id="XMLID_83_" class="st21" points="-45.1,253.4 41.3,202.8 41.3,183 -45.5,233 	"/>
	<polygon id="XMLID_82_" class="st27" points="-86.9,130.2 -86.7,157.1 -72.7,165 -72.8,137.2 	"/>
	<polygon id="XMLID_81_" class="st21" points="-58.9,130.2 -58.6,156.9 -72.7,165 -72.9,137.2 	"/>
	<polygon id="XMLID_80_" class="st26" points="-72.9,123.2 -86.9,130.2 -72.9,137.2 -58.9,130.2 	"/>
	<polygon id="XMLID_112_" class="st27" points="-35.2,184.3 -35.4,210.7 -21,218.7 -21.1,191.3 	"/>
	<polygon id="XMLID_151_" class="st27" points="-38.6,129.2 -38.4,156.1 -24.4,164 -24.5,136.2 	"/>
	<polygon id="XMLID_150_" class="st21" points="-10.6,129.2 -10.3,155.9 -24.4,164 -24.6,136.2 	"/>
	<polygon id="XMLID_149_" class="st26" points="-24.6,122.2 -38.6,129.2 -24.6,136.2 -10.6,129.2 	"/>
	<polygon id="XMLID_161_" class="st27" points="-14.8,142.4 -14.6,169.3 -0.6,177.2 -0.7,149.4 	"/>
	<polygon id="XMLID_160_" class="st21" points="13.2,142.4 13.5,169.1 -0.6,177.2 -0.8,149.4 	"/>
	<polygon id="XMLID_60_" class="st26" points="-0.8,135.4 -14.8,142.4 -0.8,149.4 13.2,142.4 	"/>
	<g>
		<rect x="1" y="176.4" class="st27" width="8.6" height="7.8"/>
		<path d="M9.1,176.9v6.8H1.5v-6.8H9.1 M10.1,175.9H0.5v8.8h9.6V175.9L10.1,175.9z"/>
	</g>
	<polygon id="XMLID_133_" class="st26" points="27.3,149.2 13.3,156.2 27.3,163.2 41.3,156.2 	"/>
	<polygon id="XMLID_102_" class="st27" points="13.3,156.2 12.8,183.4 27.5,191 27.4,163.2 	"/>
	<polygon id="XMLID_101_" class="st21" points="41.3,156.2 41.3,184 27.5,191 27.3,163.2 	"/>
	<polygon id="XMLID_159_" class="st26" points="3.7,162.7 -10.3,169.7 3.7,176.7 17.7,169.7 	"/>
	<polygon id="XMLID_158_" class="st27" points="-10.3,169.7 -10.5,196.1 3.9,204.1 3.8,176.7 	"/>
	<polygon id="XMLID_157_" class="st21" points="17.7,169.7 18,196.4 3.9,204.5 3.7,176.7 	"/>
	<polygon id="XMLID_134_" class="st26" points="-21.2,177.3 -35.2,184.3 -21.2,191.3 -7.2,184.3 	"/>
	<polygon id="XMLID_107_" class="st21" points="-7.2,184.3 -6.9,211 -21,219.1 -21.2,191.3 	"/>
	<polygon id="XMLID_164_" class="st27" points="-110.9,144.2 -110.7,171.1 -96.7,179 -96.8,151.2 	"/>
	<polygon id="XMLID_163_" class="st21" points="-82.9,144.2 -82.6,170.9 -96.7,179 -96.9,151.2 	"/>
	<polygon id="XMLID_162_" class="st26" points="-96.9,137.2 -110.9,144.2 -96.9,151.2 -82.9,144.2 	"/>
	<polygon id="XMLID_76_" class="st27" points="-132.3,156 -132.1,182.9 -118.3,190.9 -118.2,163 	"/>
	<polygon id="XMLID_75_" class="st21" points="-104.3,156 -104,182.7 -118.3,190.9 -118.3,163 	"/>
	<polygon id="XMLID_74_" class="st26" points="-118.2,149 -132.3,156 -118.2,163 -104.2,156 	"/>
	<polygon id="XMLID_79_" class="st27" points="-108.7,169.7 -108.9,196.3 -94.5,204.7 -94.6,176.7 	"/>
	<polygon id="XMLID_78_" class="st21" points="-80.7,169.7 -80.4,196.4 -94.5,204.7 -94.7,176.7 	"/>
	<polygon id="XMLID_77_" class="st26" points="-94.7,162.7 -108.7,169.7 -94.7,176.7 -80.7,169.7 	"/>
	<polygon id="XMLID_156_" class="st27" points="-84.3,184.3 -84.5,210.7 -70.1,218.9 -70.2,191.3 	"/>
	<polygon id="XMLID_155_" class="st21" points="-56.3,184.3 -56,211 -70.1,218.9 -70.3,191.3 	"/>
	<polygon id="XMLID_148_" class="st26" points="-70.3,177.3 -84.3,184.3 -70.3,191.3 -56.3,184.3 	"/>
	<polygon id="XMLID_136_" class="st26" points="-45.7,191.2 -59.7,198.2 -45.7,205.2 -31.7,198.2 	"/>
	<polygon id="XMLID_129_" class="st27" points="-59.7,198.2 -59.9,224.6 -45.5,233 -45.6,205.2 	"/>
	<polygon id="XMLID_128_" class="st21" points="-31.7,198.2 -31.4,224.9 -45.5,233 -45.7,205.2 	"/>
</g>
</svg>
