<?xml version="1.0" encoding="utf-8"?>
<!-- Generator: Adobe Illustrator 19.0.0, SVG Export Plug-In . SVG Version: 6.00 Build 0)  -->
<svg version="1.1" id="Ebene_1" xmlns="http://www.w3.org/2000/svg" xmlns:xlink="http://www.w3.org/1999/xlink" x="0px" y="0px"
	 viewBox="0 0 401 141" style="enable-background:new 0 0 401 141;" xml:space="preserve">
<style type="text/css">
	.st0{clip-path:url(#SVGID_2_);}
	.st1{fill:#FFFFFF;}
	.st2{clip-path:url(#SVGID_2_);fill:#FFFFFF;}
</style>
<g>
	<defs>
		<rect id="SVGID_1_" width="401" height="141"/>
	</defs>
	<clipPath id="SVGID_2_">
		<use xlink:href="#SVGID_1_"  style="overflow:visible;"/>
	</clipPath>
	<g class="st0">
		<path class="st1" d="M150.5,76.8c5.1,0,7-2.3,7-7.6c0-5-2-7.3-7.1-7.3h-2.3v14.9H150.5 M143,57.6h7.2c7.1,0,12.5,3,12.5,11.5
			c0,8.8-5.5,11.8-12.5,11.8H143V57.6z"/>
		<path class="st1" d="M175.4,76v-3.1c-4,0.4-5.7,1.4-5.7,3c0,1.1,0.8,1.6,1.9,1.6C173.3,77.4,174.5,76.8,175.4,76 M164.7,76.7
			c0-3.9,3.3-6,10.7-6.6v-0.4c0-1.2-0.6-2-2.3-2c-2.1,0-4,0.9-5.5,2.1l-2.1-2.9c1.7-1.5,4.2-3,8.4-3c4.6,0,6.5,2.3,6.5,6.6v6.5
			c0,2,0.1,3.2,0.5,4.1h-5c-0.2-0.7-0.4-1.5-0.4-2.5c-1.5,1.7-3.4,2.7-5.9,2.7C166.9,81.2,164.7,79.5,164.7,76.7"/>
		<path class="st1" d="M182.8,78.7l2-2.8c1.5,1.3,3.8,2.2,5.8,2.2c1.6,0,2.7-0.5,2.7-1.6c0-1.2-0.9-1.6-3.2-2
			c-3.2-0.6-6.6-1.3-6.6-5.3c0-3.4,2.8-5.3,6.5-5.3c3.4,0,5.5,0.9,7.4,2.4l-2,2.9c-1.7-1.2-3.4-1.8-4.9-1.8c-1.5,0-2.3,0.6-2.3,1.5
			c0,1,0.9,1.4,3,1.8c3.3,0.6,6.8,1.3,6.8,5.1c0,4.1-3.5,5.7-7.4,5.7C187,81.3,184.5,80.2,182.8,78.7"/>
		<path class="st1" d="M209.8,57.6h6.8l5.2,17.2h0.1l4.9-17.2h6.9V81h-5V65h-0.1c-0.3,2-0.8,3.5-1.3,5.2L223.9,81h-4.5l-3.5-10.7
			c-0.5-1.8-0.9-2.8-1.4-5.5h-0.1V81h-4.6V57.6"/>
		<path class="st1" d="M248.7,70.9c-0.3-2.4-1.3-3.5-3.2-3.5c-1.6,0-2.9,1-3.3,3.5H248.7 M237.1,72.6c0-6.5,5-8.8,8.4-8.8
			c3.5,0,7.7,1.7,7.7,9.4v0.8h-11.1c0.3,2.8,1.8,3.8,3.9,3.8c2,0,3.8-1,5-2l2,3c-2,1.7-4.4,2.5-7.3,2.5
			C241.3,81.3,237.1,79.1,237.1,72.6"/>
		<path class="st1" d="M266.9,75.8v-6.2c-1.1-1-2-1.5-3.3-1.5c-2.1,0-3.2,1.6-3.2,4.7c0,2.8,1,4.7,3.3,4.7
			C264.9,77.4,266.1,76.6,266.9,75.8 M255.3,72.7c0-5.8,2.7-8.9,6.5-8.9c2.3,0,3.9,0.8,5.1,2.5v-8.6h5.1v19.2c0,2,0.1,3.2,0.5,4.1
			h-5.2c-0.2-0.4-0.4-1.7-0.4-2.5c-1.1,1.5-2.7,2.8-5.2,2.8C257.9,81.2,255.3,78.5,255.3,72.7"/>
		<path class="st1" d="M276,64.2h5V81h-5V64.2z M276,57.8h5.1v4.1H276V57.8z"/>
		<path class="st1" d="M295.8,70.9c-0.3-2.4-1.3-3.5-3.2-3.5c-1.6,0-2.9,1-3.3,3.5H295.8 M284.2,72.6c0-6.5,5-8.8,8.5-8.8
			c3.5,0,7.7,1.7,7.7,9.4v0.8h-11.1c0.3,2.8,1.8,3.8,3.9,3.8c2,0,3.8-1,5-2l2,3c-2,1.7-4.4,2.5-7.3,2.5
			C288.4,81.3,284.2,79.1,284.2,72.6"/>
		<path class="st1" d="M303.3,64.2h5.1v2.6c1-1.3,2.9-3,5.8-3c2.8,0,4.9,1.4,4.9,4.9V81h-5V70.3c0-1.5-0.6-2.3-2-2.3
			c-1.4,0-2.5,0.7-3.7,1.7V81h-5.1V64.2"/>
		<path class="st1" d="M322.8,57.6h5.1v9.2c1-1.3,2.9-3,5.8-3c2.9,0,4.9,1.4,4.9,4.9V81h-5.1V70.3c0-1.5-0.6-2.3-2-2.3
			c-1.4,0-2.6,0.7-3.7,1.7V81h-5.1V57.6"/>
		<path class="st1" d="M351.8,76v-3.1c-4,0.4-5.7,1.4-5.7,3c0,1.1,0.8,1.6,1.9,1.6C349.8,77.4,351,76.8,351.8,76 M341.2,76.7
			c0-3.9,3.3-6,10.7-6.6v-0.4c0-1.2-0.6-2-2.3-2c-2.1,0-4,0.9-5.5,2.1l-2.1-2.9c1.7-1.5,4.2-3,8.4-3c4.6,0,6.5,2.3,6.5,6.6v6.5
			c0,2,0.1,3.2,0.5,4.1h-5c-0.2-0.7-0.4-1.5-0.4-2.5c-1.5,1.7-3.4,2.7-5.9,2.7C343.4,81.2,341.2,79.5,341.2,76.7"/>
		<path class="st1" d="M360.3,76.4V64.2h5.1v10.8c0,1.5,0.6,2.3,2,2.3c1.4,0,2.5-0.7,3.7-1.7V64.2h5.1V81H371v-2.6
			c-1,1.3-2.9,3-5.8,3C362.4,81.3,360.3,79.9,360.3,76.4"/>
		<path class="st1" d="M378.7,78.7l2-2.8c1.5,1.3,3.8,2.2,5.8,2.2c1.6,0,2.7-0.5,2.7-1.6c0-1.2-0.9-1.6-3.2-2
			c-3.2-0.6-6.6-1.3-6.6-5.3c0-3.4,2.8-5.3,6.5-5.3c3.4,0,5.5,0.9,7.4,2.4l-2,2.9c-1.7-1.2-3.4-1.8-4.9-1.8c-1.5,0-2.3,0.6-2.3,1.5
			c0,1,0.9,1.4,3,1.8c3.3,0.6,6.8,1.3,6.8,5.1c0,4.1-3.5,5.7-7.4,5.7C382.9,81.3,380.4,80.2,378.7,78.7"/>
	</g>
	<path class="st2" d="M64.6,22.3c-26.1,0-47.2,21.1-47.2,47.2s21.1,47.2,47.2,47.2c26.1,0,47.2-21.1,47.2-47.2S90.7,22.3,64.6,22.3
		 M64.6,113.9c-24.5,0-44.4-19.9-44.4-44.4c0-24.5,19.9-44.4,44.4-44.4c24.5,0,44.4,19.9,44.4,44.4C109,94,89.1,113.9,64.6,113.9"/>
	<path class="st2" d="M49.4,40.2c-4.3,1.8-5.4,2.2-9.7,3.1l-0.3,52c2.2-0.1,3.8-0.2,5-0.2c1.1,0,2.8,0.1,5.1,0.2l0.1-44.5l1-0.8
		c2-1.8,3.3-2.4,4.8-2.4c1.3,0,2.7,0.8,3.5,2c0.7,1.2,0.9,1.5,0.9,3.8l-0.1,41.9c2.1-0.1,3.7-0.2,4.8-0.2c1.1,0,2.8,0.1,5,0.2V51.5
		c1.2-1.3,1.6-1.8,2.7-2.5c1-0.7,2.4-1.3,3.3-1.3c1.6,0,3.1,1.2,3.7,2.9c0.3,1.2,0.5,2,0.5,4.7v0.2L79.4,84c0,0.4,0.1,1,0.1,1.6
		c0.1,1.6,0.3,2.9,0.5,3.7c0.8,3.9,4.8,6.9,9.2,6.9c2.9,0,5.6-1.3,8.2-3.8c0.2-0.2,0.5-0.5,0.8-0.9v-3.9c-1.4,1.2-2.1,1.6-3.5,1.6
		c-2.2,0-4.6-1.9-4.9-4.3c-0.1-0.5-0.2-1.6-0.2-3.1c-0.1-0.7-0.1-1.2-0.1-1.6l0.1-25.6c0-1.7-0.3-4.9-0.5-6.4
		c-0.1-1.3-0.6-2.6-1.4-3.7c-1.4-2.2-3.8-3.7-6.2-3.7c-1.2,0-2.7,0.4-4.5,1.4c-2.1,1.1-3.3,1.8-7,4.8l-1.2,1.1
		c-1.2-3.5-1.7-4.3-3.1-5.7c-1.2-1-2.6-1.6-4.2-1.6c-2.4,0-4.8,1.1-8.2,3.5l-2.7,1.9l-1,0.7L49.4,40.2"/>
</g>
</svg>
