<svg id="Ebene_1" data-name="Ebene 1" xmlns="http://www.w3.org/2000/svg" viewBox="0 0 261.32 85.72"><defs><style>.cls-1{font-size:28.57px;}.cls-1,.cls-4{font-family:DINAlternate-Bold, DIN Alternate;font-weight:700;}.cls-2{letter-spacing:-0.02em;}.cls-3{letter-spacing:-0.13em;}.cls-4{font-size:75.07px;}</style></defs><title>ratisbona_coding</title><text class="cls-1" transform="translate(142.31 41.65)"><tspan class="cls-2">r</tspan><tspan x="10.6" y="0">atisbona</tspan><tspan x="-6.86" y="25.57">coding e.</tspan><tspan class="cls-3" x="99.95" y="25.57">V</tspan><tspan x="112.16" y="25.57">.</tspan></text><text class="cls-4" transform="translate(0 65.12)"><tspan xml:space="preserve">{    }</tspan></text><rect x="34.56" y="16.58" width="2.41" height="54.36"/><rect x="36.96" y="9.43" width="2.4" height="9.43"/><rect x="39.36" y="3.58" width="2.4" height="9.43"/><rect x="48.96" y="16.58" width="2.27" height="54.73"/><rect x="279.24" y="456.7" width="2.4" height="9.43" transform="translate(328.2 475.56) rotate(-180)"/><rect x="276.84" y="450.85" width="2.4" height="9.43" transform="translate(323.4 463.85) rotate(-180)"/><rect x="41.76" width="2.4" height="6.83"/><rect x="60.96" y="16.88" width="2.4" height="54.31"/><rect x="63.36" y="9.75" width="2.4" height="9.43"/><rect x="65.76" y="3.9" width="2.4" height="9.43"/><rect x="75.36" y="16.88" width="2.4" height="54.31"/><rect x="305.64" y="457.03" width="2.4" height="9.43" transform="translate(381 476.21) rotate(-180)"/><rect x="303.24" y="451.18" width="2.4" height="9.43" transform="translate(376.2 464.5) rotate(-180)"/><rect x="68.16" y="0.33" width="2.4" height="6.83"/><rect x="50.48" y="37.71" width="3.28" height="6.83"/><rect x="53.76" y="35.43" width="2.4" height="6.83"/><rect x="56.16" y="35.43" width="2.4" height="6.83"/><rect x="58.56" y="37.71" width="2.4" height="6.83"/><rect x="261.81" y="487.96" width="2.28" height="10.63" transform="translate(-463 308.95) rotate(-90)"/><rect x="24.96" y="45.39" width="2.25" height="25.55"/><rect x="315.43" y="495.6" width="2.28" height="9.01" transform="translate(-416.22 369.39) rotate(-90)"/><rect x="85.99" y="52.54" width="2.4" height="18.77"/><rect x="40.72" y="23.65" width="4.5" height="4.5"/><rect x="40.72" y="32.65" width="4.5" height="4.5"/><rect x="40.72" y="41.29" width="4.5" height="4.5"/><rect x="66.99" y="22.14" width="4.5" height="4.5"/><rect x="66.99" y="31.15" width="4.5" height="4.5"/><rect x="66.99" y="39.78" width="4.5" height="4.5"/><rect x="29.84" y="49.17" width="2.25" height="2.25"/><rect x="29.84" y="54.05" width="2.25" height="2.25"/><rect x="29.84" y="58.93" width="2.25" height="2.25"/><rect x="80.88" y="55.92" width="2.25" height="2.25"/><rect x="80.88" y="60.8" width="2.25" height="2.25"/><rect x="80.88" y="65.68" width="2.25" height="2.25"/><rect x="53.86" y="57.05" width="4.5" height="14.26"/><rect x="77.92" y="49.49" width="2.4" height="6.83"/><rect x="32.13" y="41.99" width="2.4" height="6.83"/></svg>