<?xml version="1.0" encoding="utf-8"?>
<svg
  xmlns="http://www.w3.org/2000/svg"
  xmlns:xlink="http://www.w3.org/1999/xlink"
  xml:space="preserve"
  width="1000"
  height="1000"
  viewBox="0 0 1000 1000"
>
  <!--
    python3 -c "import random; print(\"\\n\".join(['<circle cx=\"%d\" cy=\"%d\" r=\"%d\" fill=\"white\" />' % i for i in sorted([(random.randint(0, 1000), random.randint(0, 1000), random.randint(1, 2)) for i in range(15)])]))"
  -->
  <rect x="0" y="0" width="100%" height="100%" fill="#040b1a" />
  <circle cx="22" cy="945" r="2" fill="white" />
  <circle cx="69" cy="173" r="2" fill="white" />
  <circle cx="73" cy="463" r="1.75" fill="white" />
  <circle cx="714" cy="634" r="1.8" fill="white" />
  <circle cx="312" cy="759" r="2" fill="white" />
  <circle cx="385" cy="992" r="1.1" fill="white" />
  <circle cx="470" cy="244" r="0.9" fill="white" />
  <circle cx="386" cy="525" r="1" fill="white" />
  <circle cx="530" cy="446" r="1.2" fill="white" />
  <circle cx="490" cy="130" r="2" fill="white" />
  <circle cx="759" cy="840" r="1.6" fill="white" />
  <circle cx="707" cy="95" r="2" fill="white" />
  <circle cx="781" cy="442" r="2" fill="white" />
  <circle cx="894" cy="304" r="2" fill="white" />
  <circle cx="958" cy="48" r="0.6" fill="white" />
  <circle cx="158" cy="148" r="0.6" fill="white" />
  <circle cx="454" cy="837" r="0.6" fill="white" />
  <circle cx="761" cy="274" r="0.6" fill="white" />
</svg>
