<?xml version="1.0" encoding="UTF-8" standalone="no"?>
<!-- Created with Inkscape (http://www.inkscape.org/) -->

<svg
   version="1.1"
   id="svg2"
   width="941.73334"
   height="793.70667"
   viewBox="0 0 941.73334 793.70667"
   xmlns="http://www.w3.org/2000/svg"
   xmlns:svg="http://www.w3.org/2000/svg">
  <defs
     id="defs6" />
  <g
     id="g10"
     transform="matrix(1.3333333,0,0,-1.3333333,0,793.70667)">
    <g
       id="g12"
       transform="scale(0.1)">
      <path
         d="M 7062.99,5952.79 H 1047.21 L 0,0 h 6018.59 l 1044.4,5952.79"
         style="fill:#009865;fill-opacity:1;fill-rule:nonzero;stroke:none"
         id="path14" />
      <path
         d="m 1320.2,1345.39 c 0,-86.8 -35,-186.19 -135.79,-242.19 47.6,-32.21 82.6,-91 82.6,-173.61 0,-188.988 -142.81,-307.988 -327.596,-307.988 -303.809,0 -417.207,1.398 -417.207,1.398 l 170.801,953.4 h 364.002 c 162.4,0 263.19,-88.2 263.19,-231.01 v 0"
         style="fill:#ffffff;fill-opacity:1;fill-rule:nonzero;stroke:none"
         id="path16" />
      <path
         d="M 828.809,1019.2 790.996,814.801 h 138.613 c 67.188,0 103.591,58.789 103.591,118.988 0,36.402 -16.79,85.411 -64.391,85.411 h -140"
         style="fill:#009865;fill-opacity:1;fill-rule:nonzero;stroke:none"
         id="path18" />
      <path
         d="m 893.203,1384.59 -35,-191.8 h 127.402 c 78.395,0 99.395,81.21 99.395,114.8 0,32.21 -12.6,77 -58.79,77 H 893.203"
         style="fill:#009865;fill-opacity:1;fill-rule:nonzero;stroke:none"
         id="path20" />
      <path
         d="m 2602.6,1248.79 c 11.19,89.61 -15.41,145.6 -81.21,145.6 -46.19,0 -72.8,-20.99 -91,-44.8 -25.19,-32.19 -47.6,-113.4 -72.79,-252 -8.4,-50.39 -18.21,-133 -18.21,-184.801 0,-60.199 26.61,-111.988 86.8,-111.988 65.8,0 109.2,54.59 126,145.597 H 2791.6 C 2746.8,698.59 2595.59,600.602 2413.59,600.602 c -221.19,0 -309.39,146.988 -309.39,291.187 0,39.203 2.79,121.801 16.8,205.801 26.6,154.01 64.39,298.21 140,382.21 75.6,83.99 176.4,114.79 271.6,114.79 190.39,0 306.6,-114.79 306.6,-299.59 0,-18.21 0,-32.21 -1.41,-46.21 H 2602.6"
         style="fill:#ffffff;fill-opacity:1;fill-rule:nonzero;stroke:none"
         id="path22" />
      <path
         d="m 3592.4,623 h -245 l 65.8,377.99 H 3161.19 L 3093.98,623 H 2853.2 l 166.59,949.2 h 240.8 l -65.8,-365.41 h 252.01 l 65.8,365.41 h 243.59 L 3592.4,623"
         style="fill:#ffffff;fill-opacity:1;fill-rule:nonzero;stroke:none"
         id="path24" />
      <path
         d="M 4503.79,1366.4 H 4286.8 L 4157.99,623 h -249.2 l 133.01,743.4 h -225.41 l 35,205.8 h 687.4 l -35,-205.8"
         style="fill:#ffffff;fill-opacity:1;fill-rule:nonzero;stroke:none"
         id="path26" />
      <path
         d="m 5040,623 h -571.21 l 169.41,949.2 H 4886 L 4751.6,828.789 H 5075 L 5040,623"
         style="fill:#ffffff;fill-opacity:1;fill-rule:nonzero;stroke:none"
         id="path28" />
      <path
         d="m 5877.19,1370.6 h -372.4 l -32.19,-168.01 h 319.2 l -35,-201.6 h -317.82 l -32.18,-176.4 h 376.6 L 5749.79,623 h -611.8 L 5306,1572.2 h 604.8 l -33.61,-201.6"
         style="fill:#ffffff;fill-opacity:1;fill-rule:nonzero;stroke:none"
         id="path30" />
      <path
         d="M 2073.4,1370.6 H 1701 l -32.21,-168.01 h 319.2 l -35,-201.6 H 1635.2 l -32.21,-176.4 h 376.6 L 1946,623 h -611.8 l 168.01,949.2 h 604.78 l -33.59,-201.6"
         style="fill:#ffffff;fill-opacity:1;fill-rule:nonzero;stroke:none"
         id="path32" />
    </g>
  </g>
</svg>
