<svg id="Positive" xmlns="http://www.w3.org/2000/svg" viewBox="0 0 355.21 64.58"><defs><style>.cls-1{fill:#025fa9;}.cls-2{fill:#67aede;}</style></defs><path class="cls-1" d="M87.19,40.23H81L70.45,53.69V40.23H65V71.1h5.49V56.92C71.44,58.24,81,71.1,81,71.1h7.29L75.56,55.15,87.83,40.23Z" transform="translate(-16.62 -23.58)"/><path class="cls-1" d="M93,40.23l-.28,0V71.1h5.49V58.33l9.19,12.77h6.9l-8.35-11-1.69-2.14-.55-.7c5.06-.75,8.31-4.1,8.31-8.68,0-5.65-3.66-8.51-10.88-8.51-3.64,0-6.08.05-8.14.18Zm7.46,4.41c4,0,5.85,1.38,5.85,4.46,0,2.91-2.31,4.72-6,4.72l-2.08-.08v-9l2.25-.08Z" transform="translate(-16.62 -23.58)"/><path class="cls-1" d="M116.91,56c0,10,5,15.55,13.94,15.55,8.73,0,14.83-6.69,14.83-16.26,0-9.86-5.08-15.51-13.93-15.51S116.91,46.45,116.91,56Zm5.81-.58c0-7.41,4.31-10.73,8.58-10.73,5.53,0,8.58,3.94,8.58,11.09,0,7.43-4.5,10.82-8.67,10.82-5.48,0-8.49-4-8.49-11.18Z" transform="translate(-16.62 -23.58)"/><path class="cls-1" d="M176.45,40.23h-5.06V49.5c0,4,.11,9.48.26,13-1-1.88-2-3.8-3.06-5.64L158.5,40.23h-6.88V71.1H157V60.62c0-3.81-.07-8.77-.2-12a55.19,55.19,0,0,0,2.73,5.08L170,71.1h6.79V40.23Z" transform="translate(-16.62 -23.58)"/><path class="cls-1" d="M201.65,40.23H185.38V71.1H202V66.33H190.87V57.52h10.54v-4.6H190.87v-8H202V40.23Z" transform="translate(-16.62 -23.58)"/><path class="cls-1" d="M207.61,48.92c0,5.61,4.18,7.25,7.86,8.7,2.88,1.13,5.37,2.11,5.37,4.75,0,3.94-4,4.36-5.71,4.36a19.14,19.14,0,0,1-6.17-1.1l-.38-.14-.31,5.27.24.07a26.13,26.13,0,0,0,6.18.72c7.12,0,11.91-4,11.91-9.9,0-5.46-4.2-7.15-7.9-8.64-2.86-1.15-5.33-2.15-5.33-4.63s2-4,5.4-4a18.89,18.89,0,0,1,5.38.84l.37.11.31-5-.27,0a32.72,32.72,0,0,0-5.52-.54c-6.94,0-11.43,3.59-11.43,9.14Z" transform="translate(-16.62 -23.58)"/><path class="cls-1" d="M19.76,39.19,16.7,41.27a.15.15,0,0,0-.07.11.18.18,0,0,0,0,.13,38.55,38.55,0,0,1,6.93,22.15,38.58,38.58,0,0,1-6.92,22.11.13.13,0,0,0,0,.12.14.14,0,0,0,.07.11l3.06,2.13a.14.14,0,0,0,.14,0,.14.14,0,0,0,.11-.09l12-24.33a.19.19,0,0,0,0-.15L20,39.25a.2.2,0,0,0-.11-.09.17.17,0,0,0-.14,0Z" transform="translate(-16.62 -23.58)"/><path class="cls-1" d="M46.38,23.58a.15.15,0,0,0-.12.08L31.34,46.34a.19.19,0,0,0,0,.15l9,25.61a.16.16,0,0,0,.1.11.23.23,0,0,0,.14,0l3.29-1.74a.22.22,0,0,0,.09-.1.2.2,0,0,0,0-.13,38.84,38.84,0,0,1,5.4-43.92.16.16,0,0,0,0-.13.18.18,0,0,0-.05-.12l-2.79-2.44a.15.15,0,0,0-.13,0Z" transform="translate(-16.62 -23.58)"/><path class="cls-2" d="M238.39,68.44a3,3,0,0,1,.93-2.47,3.79,3.79,0,0,1,4.47,0,3.64,3.64,0,0,1,0,4.93,3.71,3.71,0,0,1-4.47,0A3,3,0,0,1,238.39,68.44Z" transform="translate(-16.62 -23.58)"/><path class="cls-2" d="M258,71.52a7.82,7.82,0,0,1-6.34-2.93c-1.63-2-2.44-4.86-2.44-8.71s.82-6.81,2.46-8.78a8,8,0,0,1,6.44-3,7.87,7.87,0,0,1,4.1,1,8.25,8.25,0,0,1,2.56,2.33H265c-.08-.39-.17-1-.25-1.77a22.55,22.55,0,0,1-.13-2.27v-7.9h5.25V71.11H265.8l-1-3h-.21a8.21,8.21,0,0,1-2.53,2.4A7.78,7.78,0,0,1,258,71.52Zm1.58-4.24c1.94,0,3.31-.55,4.1-1.66a8.86,8.86,0,0,0,1.22-5v-.66a11.07,11.07,0,0,0-1.14-5.56q-1.14-1.94-4.26-1.93a4.14,4.14,0,0,0-3.69,2A10.33,10.33,0,0,0,254.53,60a9.6,9.6,0,0,0,1.29,5.45A4.25,4.25,0,0,0,259.56,67.28Z" transform="translate(-16.62 -23.58)"/><path class="cls-2" d="M279,39.87a3.49,3.49,0,0,1,2,.6,2.4,2.4,0,0,1,.88,2.14,2.44,2.44,0,0,1-.88,2.16,3.38,3.38,0,0,1-2,.63,3.34,3.34,0,0,1-2.06-.63,2.49,2.49,0,0,1-.86-2.16,2.45,2.45,0,0,1,.86-2.14A3.46,3.46,0,0,1,279,39.87Zm2.62,8.69V71.11h-5.25V48.56Z" transform="translate(-16.62 -23.58)"/><path class="cls-2" d="M295.67,48.14a7.66,7.66,0,0,1,6.69,3.33h.21l.5-2.91h4.37V71.27q0,4.83-2.7,7.33c-1.81,1.66-4.52,2.49-8.16,2.49a29.23,29.23,0,0,1-4.45-.31,17,17,0,0,1-3.87-1.06V75.39a20.44,20.44,0,0,0,4.1,1.29,21.81,21.81,0,0,0,4.55.46,5.16,5.16,0,0,0,3.92-1.44,5.83,5.83,0,0,0,1.37-4.18v-.58c0-.42,0-.9,0-1.46s.07-1,.12-1.33h-.16a7.15,7.15,0,0,1-2.85,2.56,8.66,8.66,0,0,1-3.81.81,7.64,7.64,0,0,1-6.45-3.08q-2.32-3.07-2.33-8.56c0-3.67.79-6.54,2.35-8.62A7.76,7.76,0,0,1,295.67,48.14ZM297,52.43q-4.91,0-4.91,7.53t5,7.4a5.08,5.08,0,0,0,4.06-1.51q1.31-1.53,1.31-5.14v-.79q0-4-1.31-5.74A4.82,4.82,0,0,0,297,52.43Z" transform="translate(-16.62 -23.58)"/><path class="cls-2" d="M316.55,39.87a3.5,3.5,0,0,1,2,.6,2.43,2.43,0,0,1,.87,2.14,2.47,2.47,0,0,1-.87,2.16,3.65,3.65,0,0,1-4.1,0,2.48,2.48,0,0,1-.85-2.16,2.44,2.44,0,0,1,.85-2.14A3.48,3.48,0,0,1,316.55,39.87Zm2.62,8.69V71.11h-5.24V48.56Z" transform="translate(-16.62 -23.58)"/><path class="cls-2" d="M334.4,67.32a9.32,9.32,0,0,0,1.89-.19A16.6,16.6,0,0,0,338,66.7v3.91a7.91,7.91,0,0,1-2.16.66,14.85,14.85,0,0,1-2.79.25,9.5,9.5,0,0,1-3.51-.62,5,5,0,0,1-2.48-2.21,8.93,8.93,0,0,1-.91-4.45V52.51h-3V50.22l3.33-1.83,1.66-4.78h3.29v5h6.41v3.95H331.4V64.2a3,3,0,0,0,.85,2.35A3.07,3.07,0,0,0,334.4,67.32Z" transform="translate(-16.62 -23.58)"/><path class="cls-2" d="M351.33,48.14q4.37,0,6.63,1.92t2.27,5.9V71.11h-3.7l-1-3.12h-.17a9.94,9.94,0,0,1-3.08,2.68,9.53,9.53,0,0,1-4.41.85,7.51,7.51,0,0,1-5-1.7q-2-1.71-2-5.29a5.92,5.92,0,0,1,2.56-5.24c1.71-1.16,4.29-1.81,7.76-1.95l3.91-.13V56.09A3.94,3.94,0,0,0,354,53a4.26,4.26,0,0,0-2.91-.91,11.39,11.39,0,0,0-3.27.47,25.62,25.62,0,0,0-3.1,1.19l-1.66-3.66a18,18,0,0,1,3.8-1.42A18.26,18.26,0,0,1,351.33,48.14ZM355,60.46l-2.75.08c-2.3.08-3.89.48-4.78,1.19a3.43,3.43,0,0,0-1.33,2.85,2.69,2.69,0,0,0,.93,2.31,4.16,4.16,0,0,0,2.48.68,5.9,5.9,0,0,0,3.87-1.31A4.77,4.77,0,0,0,355,62.37Z" transform="translate(-16.62 -23.58)"/><path class="cls-2" d="M371.84,71.11h-5.25V39.49h5.25Z" transform="translate(-16.62 -23.58)"/></svg>