<?xml version="1.0" encoding="UTF-8" standalone="no"?>
<!DOCTYPE svg PUBLIC "-//W3C//DTD SVG 1.1//EN" "http://www.w3.org/Graphics/SVG/1.1/DTD/svg11.dtd">
<svg width="100%" height="100%" viewBox="0 0 500 400" version="1.1" xmlns="http://www.w3.org/2000/svg" xmlns:xlink="http://www.w3.org/1999/xlink" xml:space="preserve" xmlns:serif="http://www.serif.com/" style="fill-rule:evenodd;clip-rule:evenodd;stroke-linejoin:round;stroke-miterlimit:2;">
    <g transform="matrix(0.211922,0,0,-0.211922,-177.832,499.228)">
        <g id="g10">
            <g id="g12">
                <rect id="path14" x="2541.09" y="1758.48" width="346.02" height="60"/>
                <rect id="path16" x="2531.09" y="1358.48" width="356.02" height="60" style="fill:rgb(23,23,23);"/>
                <rect id="path18" x="2578.12" y="1558.48" width="497.969" height="60" style="fill:rgb(151,127,40);"/>
                <rect id="path20" x="1140.12" y="1758.48" width="355.98" height="60" style="fill:rgb(171,151,43);"/>
                <rect id="path22" x="1140.12" y="1358.48" width="355.98" height="60" style="fill:rgb(156,130,43);"/>
                <rect id="path24" x="951.09" y="1558.48" width="485" height="60"/>
                <path id="path26" d="M1483.59,1588.48C1484.26,1663.48 1498.79,1733.48 1527.11,1798.48C1555.43,1863.48 1594.77,1920.31 1645.12,1968.98C1695.43,2017.66 1753.44,2055.16 1819.1,2081.48L1819.1,2145.51C1761.45,2125.16 1708.44,2096.84 1660.12,2060.51C1612.11,2024.49 1570.43,1982.15 1535.12,1933.48C1499.77,1884.49 1472.46,1830.98 1453.12,1773.01C1433.79,1714.65 1423.95,1653.16 1423.59,1588.48C1423.95,1523.83 1433.79,1462.5 1453.12,1404.49C1472.46,1346.17 1499.77,1292.5 1535.12,1243.48C1570.43,1194.84 1612.27,1152.5 1660.62,1116.48C1708.59,1080.16 1761.45,1051.84 1819.1,1031.48L1819.1,1095.51C1753.12,1121.84 1695.12,1159.34 1645.12,1208.01C1594.77,1256.64 1555.43,1313.48 1527.11,1378.48C1498.79,1443.48 1484.26,1513.48 1483.59,1588.48" style="fill:rgb(151,127,40);"/>
                <path id="path28" d="M2604.1,1588.48C2603.79,1654.49 2593.59,1716.99 2573.59,1775.98C2553.28,1835.31 2524.77,1889.65 2488.12,1938.98C2451.45,1988.32 2408.28,2030.98 2358.59,2066.99C2308.95,2103.01 2254.26,2130.66 2194.61,2150L2194.61,2086.48C2262.93,2061.17 2323.28,2024.14 2375.62,1975.51C2427.93,1926.48 2468.95,1868.98 2498.59,1803.01C2528.28,1736.64 2543.44,1665.16 2544.1,1588.48C2543.44,1511.84 2528.28,1440.31 2498.59,1373.98C2468.95,1308.01 2427.93,1250.51 2375.62,1201.48C2323.28,1152.5 2262.93,1115.31 2194.61,1090L2194.61,1026.99C2254.26,1046.33 2308.95,1073.98 2358.59,1110C2408.28,1145.98 2451.45,1188.67 2488.12,1238.01C2524.77,1287.34 2553.12,1341.64 2573.12,1400.98C2593.44,1460 2603.79,1522.5 2604.1,1588.48" style="fill:rgb(33,33,33);"/>
                <path id="path30" d="M1656.99,1382.03C1612.54,1382.03 1590.35,1408.16 1590.35,1460.51C1590.35,1483.83 1594.38,1508.36 1602.42,1534.02C1610.47,1559.69 1622.23,1585.51 1637.66,1611.41C1653.28,1637.66 1671.09,1661.21 1691.17,1682.03C1711.21,1702.89 1732.62,1720.62 1755.39,1735.16C1778.16,1749.73 1801.99,1760.9 1826.88,1768.63C1851.72,1776.33 1876.88,1780.2 1902.34,1780.2C1919.53,1780.2 1934.88,1778.52 1948.32,1775.16C1961.76,1771.76 1973.16,1766.88 1982.5,1760.55C1991.84,1754.18 1998.91,1746.33 2003.75,1736.99C2008.59,1727.66 2010.98,1717.11 2010.98,1705.35C2010.98,1691.33 2007.81,1678.05 2001.45,1665.51C1995.08,1652.97 1986.45,1641.88 1975.51,1632.3C1964.53,1622.73 1951.76,1615 1937.11,1609.14C1922.46,1603.24 1906.84,1600.08 1890.23,1599.57C1910.39,1595.9 1925.12,1589.84 1934.45,1581.48C1943.79,1573.09 1948.44,1561.91 1948.44,1547.89C1948.44,1540.04 1947.23,1531.56 1944.84,1522.54C1942.42,1513.55 1939.73,1504.3 1936.72,1494.77C1933.75,1485.27 1931.05,1475.7 1928.63,1466.05C1926.25,1456.41 1925.04,1447.15 1925.04,1438.28C1925.04,1424.1 1928.59,1413.24 1935.78,1405.66C1942.93,1398.12 1953.2,1394.34 1966.56,1394.34C1975.9,1394.34 1984.69,1396.17 1992.89,1399.88C2001.09,1403.59 2009.57,1409.96 2018.36,1418.95C2027.11,1427.97 2036.56,1440.08 2046.6,1455.31C2056.68,1470.51 2068.2,1489.65 2081.25,1512.66L2093.83,1534.88L2100.35,1530.27L2087.77,1508.05C2077.97,1490.86 2069.06,1475.74 2061.09,1462.77C2053.12,1449.84 2045.62,1438.67 2038.63,1429.34C2031.64,1420 2025,1412.3 2018.71,1406.29C2012.42,1400.23 2006.09,1395.47 1999.65,1391.91C1993.2,1388.36 1986.52,1385.86 1979.61,1384.41C1972.66,1382.97 1965.2,1382.27 1957.15,1382.27C1946.21,1382.27 1936.29,1383.63 1927.42,1386.37C1918.59,1389.1 1911.02,1393.05 1904.73,1398.2C1898.48,1403.36 1893.63,1409.57 1890.23,1416.91C1886.88,1424.22 1885.2,1432.42 1885.2,1441.41C1885.2,1450.43 1886.56,1460.23 1889.3,1470.86C1892.03,1481.48 1895.08,1492.03 1898.48,1502.5C1901.84,1512.97 1904.88,1522.97 1907.66,1532.46C1910.39,1541.95 1911.76,1550.16 1911.76,1557.07C1911.76,1561.76 1911.02,1566.33 1909.57,1570.86C1908.12,1575.35 1906.09,1579.45 1903.52,1583.16C1900.94,1586.88 1897.93,1590 1894.49,1592.58C1891.02,1595.16 1887.34,1596.84 1883.48,1597.66C1882.85,1597.5 1881.72,1597.42 1880.12,1597.42C1878.16,1597.42 1876.6,1597.7 1875.39,1598.24C1874.18,1598.83 1873.59,1599.57 1873.59,1600.55C1873.59,1601.37 1874.18,1602.11 1875.39,1602.85C1876.6,1603.55 1878.01,1603.95 1879.61,1603.95C1881.41,1603.95 1882.77,1603.83 1883.75,1603.55C1884.69,1603.32 1885.82,1602.81 1887.11,1601.99C1900.16,1604.88 1912.3,1609.96 1923.59,1617.23C1934.84,1624.45 1944.57,1633.09 1952.81,1643.05C1961.02,1653.05 1967.5,1664.14 1972.23,1676.37C1976.99,1688.59 1979.38,1701.17 1979.38,1714.06C1979.38,1742.07 1966.09,1759.77 1939.53,1767.19C1930.66,1763.63 1921.99,1758.36 1913.55,1751.37C1905.12,1744.34 1897.89,1736.41 1891.95,1727.58C1890.16,1725 1888.52,1722.34 1886.99,1719.61C1885.47,1716.88 1883.75,1713.36 1881.8,1709.1C1879.88,1704.84 1877.62,1699.45 1875.04,1692.93C1872.46,1686.41 1869.3,1678.2 1865.51,1668.28C1861.72,1658.4 1857.3,1646.48 1852.23,1632.54C1847.15,1618.63 1841.05,1601.99 1833.98,1582.7C1821.6,1548.4 1808.71,1518.63 1795.35,1493.44C1781.99,1468.28 1767.97,1447.42 1753.32,1430.9C1738.67,1414.41 1723.4,1402.15 1707.46,1394.1C1691.52,1386.05 1674.69,1382.03 1656.99,1382.03ZM1840.27,1688.44C1851.68,1707.77 1865.23,1724.38 1880.82,1738.32C1896.45,1752.23 1912.97,1762.5 1930.35,1769.1C1926.64,1769.77 1922.62,1770.23 1918.28,1770.55C1913.91,1770.86 1909.34,1771.02 1904.49,1771.02C1880.35,1771.02 1856.29,1767.27 1832.3,1759.69C1808.32,1752.11 1785.23,1741.29 1763.12,1727.19C1740.98,1713.12 1720.2,1695.98 1700.82,1675.78C1681.41,1655.59 1664.14,1632.89 1649.02,1607.81C1634.22,1583.32 1622.97,1558.59 1615.31,1533.55C1607.7,1508.52 1603.87,1484.06 1603.87,1460.23C1603.87,1436.76 1608.24,1419.61 1617.03,1408.83C1625.78,1398.05 1637.81,1392.66 1653.12,1392.66C1661.48,1392.66 1669.34,1393.63 1676.68,1395.66C1683.98,1397.66 1690.98,1401.05 1697.66,1405.78C1704.34,1410.55 1710.9,1416.8 1717.34,1424.53C1723.79,1432.23 1730.31,1441.8 1736.91,1453.12C1743.52,1464.49 1750.31,1477.85 1757.3,1493.2C1764.34,1508.59 1771.84,1526.25 1779.88,1546.21C1787.15,1564.57 1793.48,1580.39 1798.87,1593.67C1804.26,1606.95 1808.87,1618.4 1812.73,1627.97C1816.6,1637.54 1819.84,1645.47 1822.5,1651.76C1825.16,1658.01 1827.54,1663.36 1829.65,1667.81C1831.72,1672.23 1833.59,1676.02 1835.2,1679.14C1836.8,1682.3 1838.48,1685.39 1840.27,1688.44Z" style="fill:rgb(179,135,48);"/>
                <path id="path32" d="M2147.77,1359.02C2127.93,1359.02 2110.2,1362.11 2094.61,1368.28C2079.02,1374.45 2065.94,1383.4 2055.27,1395.16C2044.61,1406.88 2036.48,1421.29 2030.82,1438.36C2025.2,1455.47 2022.38,1474.96 2022.38,1496.8C2022.38,1508.79 2023.24,1521.48 2024.92,1534.92C2026.64,1548.36 2029.26,1561.95 2032.85,1575.74C2038.4,1597.58 2045.66,1618.32 2054.61,1637.93C2063.55,1657.5 2073.91,1675.66 2085.62,1692.3C2097.34,1708.95 2110.23,1724.02 2124.3,1737.54C2138.36,1751.05 2153.16,1762.58 2168.75,1772.07C2184.3,1781.56 2200.51,1788.83 2217.34,1793.95C2234.18,1799.06 2251.29,1801.6 2268.63,1801.6C2276.88,1801.6 2285.2,1800.62 2293.59,1798.63C2302.03,1796.68 2309.61,1793.4 2316.29,1788.83C2323.01,1784.26 2328.48,1778.2 2332.7,1770.59C2336.91,1762.97 2338.98,1753.52 2338.98,1742.27C2338.98,1732.23 2337.54,1722.97 2334.57,1714.45C2331.6,1705.94 2327.5,1698.16 2322.23,1691.09C2316.91,1684.02 2310.78,1677.54 2303.83,1671.6C2296.84,1665.7 2289.3,1660.43 2281.25,1655.78L2276.41,1662.5C2290.94,1674.14 2301.64,1686.95 2308.52,1701.02C2315.43,1715.08 2318.87,1729.8 2318.87,1745.2C2318.87,1761.33 2315.16,1773.05 2307.7,1780.39C2300.27,1787.73 2289.41,1791.41 2275.08,1791.41C2256.84,1791.41 2238.24,1785.98 2219.38,1775.16C2200.47,1764.3 2182.34,1749.41 2164.96,1730.43C2147.62,1711.45 2131.68,1689.1 2117.19,1663.44C2102.66,1637.73 2090.66,1610.04 2081.17,1580.31C2075.12,1561.13 2070.43,1542.3 2067.23,1523.79C2063.98,1505.23 2062.38,1487.93 2062.38,1471.8C2062.38,1405.39 2092.19,1372.19 2151.8,1372.19C2185.82,1372.19 2217.15,1382.97 2245.82,1404.53C2274.45,1426.09 2301.48,1459.3 2326.91,1504.02L2340.86,1528.75L2348.12,1523.63L2334.18,1498.95C2320.55,1474.96 2306.68,1454.18 2292.54,1436.64C2278.4,1419.1 2263.71,1404.57 2248.48,1393.12C2233.28,1381.68 2217.34,1373.12 2200.7,1367.46C2184.02,1361.84 2166.41,1359.02 2147.77,1359.02Z"/>
                <g id="path34" transform="matrix(0.560755,0,0,0.560755,901.311,421.196)">
                    <path d="M35.078,689.18L76.801,689.18C99.379,689.18 115.898,693.59 126.328,702.461C136.719,711.41 141.949,724.648 141.949,742.148C141.949,759.648 136.641,772.379 126.02,780.43C115.469,788.551 98.441,792.621 74.922,792.621L35.078,792.621L35.078,689.18ZM35.078,659.488L35.078,544.488L0.078,544.488L0.078,822.93L76.801,822.93C111.25,822.93 136.801,816.371 153.359,803.238C169.922,790.121 178.199,770.309 178.199,743.871C178.199,706.879 159.609,681.988 122.422,669.18L198.828,544.488L157.891,544.488L90.391,659.488L35.078,659.488ZM272.422,544.488L238.199,544.488L238.199,753.551L272.422,753.551L272.422,544.488ZM235.551,810.121C235.551,817.699 237.461,823.238 241.328,826.68C245.16,830.121 249.961,831.84 255.699,831.84C261.02,831.84 265.621,830.121 269.609,826.68C273.672,823.238 275.699,817.699 275.699,810.121C275.699,802.621 273.672,797.07 269.609,793.551C265.621,790 261.02,788.238 255.699,788.238C249.961,788.238 245.16,790 241.328,793.551C237.461,797.07 235.551,802.621 235.551,810.121Z" style="fill:rgb(24,48,48);fill-rule:nonzero;"/>
                </g>
                <g id="path36" transform="matrix(0.560755,0,0,0.560755,901.311,421.196)">
                    <path d="M418.441,568.711C439.449,568.711 454.77,574.379 464.379,585.738C473.949,597.07 478.75,615.309 478.75,640.43L478.75,648.711C478.75,676.602 473.91,696.91 464.219,709.648C454.609,722.34 439.102,728.711 417.66,728.711C400.039,728.711 386.449,721.719 376.879,707.77C367.27,693.91 362.5,674.059 362.5,648.238C362.5,622.379 367.191,602.66 376.559,589.02C385.941,575.469 399.879,568.711 418.441,568.711ZM478.281,546.371L479.531,572.148L477.969,572.148C463.91,551.211 442.34,540.738 413.281,540.738C386.172,540.738 365.039,550.16 349.84,569.02C334.73,587.852 327.191,614.41 327.191,648.711C327.191,682.34 334.77,708.871 350,728.238C365.309,747.699 386.25,757.461 412.809,757.461C441.129,757.461 462.969,746.879 478.281,725.738L480.469,725.738L485,753.551L512.191,753.551L512.191,541.051C512.191,511.051 504.57,488.52 489.379,473.398C474.262,458.32 450.699,450.738 418.75,450.738C388.199,450.738 363.16,455.23 343.59,464.18L343.59,495.738C363.91,484.801 389.57,479.34 420.621,479.34C438.441,479.34 452.5,484.57 462.809,494.961C473.121,505.391 478.281,519.801 478.281,538.238L478.281,546.371Z" style="fill:rgb(24,48,48);fill-rule:nonzero;"/>
                </g>
                <g id="path38" transform="matrix(0.560755,0,0,0.560755,901.311,421.196)">
                    <path d="M721.211,544.488L721.211,678.238C721.211,695.199 717.379,707.852 709.801,716.211C702.301,724.531 690.469,728.711 674.34,728.711C653.09,728.711 637.5,722.77 627.621,710.898C617.809,699.102 612.93,679.648 612.93,652.461L612.93,544.488L578.711,544.488L578.711,840.738L612.93,840.738L612.93,754.02C612.93,742.539 612.301,732.77 611.051,724.648L613.398,724.648C619.648,734.73 628.441,742.66 639.801,748.398C651.25,754.102 664.18,756.988 678.551,756.988C703.871,756.988 722.93,750.898 735.738,738.711C748.629,726.602 755.121,707.23 755.121,680.59L755.121,544.488L721.211,544.488Z" style="fill:rgb(24,48,48);fill-rule:nonzero;"/>
                </g>
                <g id="path40" transform="matrix(0.560755,0,0,0.560755,901.311,421.196)">
                    <rect x="820.16" y="544.488" width="34.219" height="296.25" style="fill:rgb(24,48,48);fill-rule:nonzero;"/>
                </g>
                <g id="path42" transform="matrix(0.560755,0,0,0.560755,901.311,421.196)">
                    <path d="M1009.61,540.738C978.238,540.738 953.672,550.199 935.859,569.18C918.051,588.121 909.141,614.219 909.141,647.461C909.141,680.98 917.422,707.699 933.98,727.621C950.621,747.5 973.121,757.461 1001.48,757.461C1027.73,757.461 1048.67,748.949 1064.3,731.988C1079.92,715 1087.73,692.031 1087.73,663.09L1087.73,642.301L944.449,642.301C945.16,618.629 951.211,600.621 962.578,588.238C974.02,575.941 990.23,569.801 1011.17,569.801C1022.3,569.801 1032.89,570.781 1042.89,572.77C1052.97,574.73 1064.77,578.59 1078.2,584.34L1078.2,554.18C1066.64,549.262 1055.74,545.82 1045.55,543.871C1035.43,541.801 1023.44,540.738 1009.61,540.738ZM1001.02,729.34C984.648,729.34 971.68,724.059 962.109,713.551C952.621,703.012 946.988,688.398 945.23,669.648L1051.8,669.648C1051.48,689.102 1046.95,703.91 1038.2,714.02C1029.45,724.219 1017.03,729.34 1001.02,729.34Z" style="fill:rgb(24,48,48);fill-rule:nonzero;"/>
                </g>
                <g id="path44" transform="matrix(0.560755,0,0,0.560755,901.311,421.196)">
                    <path d="M1104.22,753.551L1141.09,753.551L1186.25,634.488C1195.7,608.629 1201.56,589.691 1203.75,577.621L1205.16,577.621C1206.29,582.301 1208.91,591.09 1212.97,604.02C1217.03,616.91 1220.47,627.23 1223.28,634.961L1265.78,753.551L1302.66,753.551L1212.66,515.59C1203.91,492.461 1193.48,475.898 1181.41,465.898C1169.3,455.82 1154.41,450.738 1136.72,450.738C1127.11,450.738 1117.66,451.84 1108.28,454.02L1108.28,481.211C1114.61,479.77 1122.23,479.02 1131.09,479.02C1142.03,479.02 1151.29,482.07 1158.91,488.09C1166.48,494.141 1172.73,503.398 1177.66,515.898L1188.44,543.711L1104.22,753.551Z" style="fill:rgb(24,48,48);fill-rule:nonzero;"/>
                </g>
                <g id="path46" transform="matrix(0.560755,0,0,0.560755,901.311,421.196)">
                    <path d="M1561.05,796.051C1531.13,796.051 1507.62,785.98 1490.43,765.898C1473.32,745.898 1464.8,718.48 1464.8,683.711C1464.8,647.77 1473.09,620.039 1489.65,600.59C1506.29,581.09 1530,571.371 1560.74,571.371C1580.51,571.371 1602.81,575.039 1627.62,582.461L1627.62,551.988C1615.74,547.621 1604.34,544.648 1593.4,543.09C1582.54,541.52 1570,540.738 1555.74,540.738C1514.8,540.738 1483.24,553.16 1461.05,578.09C1438.87,603.09 1427.77,638.398 1427.77,684.02C1427.77,712.77 1433.09,737.93 1443.71,759.488C1454.34,781.051 1469.73,797.66 1489.96,809.34C1510.27,820.98 1534.1,826.84 1561.52,826.84C1590.98,826.84 1616.6,821.41 1638.4,810.59L1624.34,780.738C1602.15,790.941 1581.05,796.051 1561.05,796.051Z" style="fill:rgb(24,48,48);fill-rule:nonzero;"/>
                </g>
                <g id="path48" transform="matrix(0.560755,0,0,0.560755,901.311,421.196)">
                    <path d="M1865.66,649.488C1865.66,615.309 1856.99,588.629 1839.73,569.488C1822.42,550.309 1798.55,540.738 1768.16,540.738C1749.18,540.738 1732.42,545.121 1717.85,553.871C1703.24,562.699 1691.99,575.352 1684.1,591.84C1676.29,608.398 1672.38,627.621 1672.38,649.488C1672.38,683.441 1680.86,709.879 1697.85,728.871C1714.8,747.93 1738.67,757.461 1769.41,757.461C1798.87,757.461 1822.27,747.77 1839.57,728.398C1856.95,709.02 1865.66,682.699 1865.66,649.488ZM1707.7,649.488C1707.7,623.121 1712.85,603.121 1723.16,589.488C1733.55,575.82 1748.87,569.02 1769.1,569.02C1788.98,569.02 1804.14,575.82 1814.57,589.488C1824.96,603.121 1830.2,623.121 1830.2,649.488C1830.2,675.738 1824.92,695.469 1814.41,708.711C1803.98,722.031 1788.67,728.711 1768.48,728.711C1727.93,728.711 1707.7,702.301 1707.7,649.488Z" style="fill:rgb(24,48,48);fill-rule:nonzero;"/>
                </g>
                <g id="path50" transform="matrix(0.560755,0,0,0.560755,901.311,421.196)">
                    <path d="M2101.8,649.488C2101.8,615.309 2093.12,588.629 2075.86,569.488C2058.55,550.309 2034.69,540.738 2004.3,540.738C1985.31,540.738 1968.55,545.121 1953.98,553.871C1939.38,562.699 1928.12,575.352 1920.23,591.84C1912.42,608.398 1908.52,627.621 1908.52,649.488C1908.52,683.441 1916.99,709.879 1933.98,728.871C1950.94,747.93 1974.8,757.461 2005.55,757.461C2035,757.461 2058.4,747.77 2075.7,728.398C2093.09,709.02 2101.8,682.699 2101.8,649.488ZM1943.83,649.488C1943.83,623.121 1948.98,603.121 1959.3,589.488C1969.69,575.82 1985,569.02 2005.23,569.02C2025.12,569.02 2040.27,575.82 2050.7,589.488C2061.09,603.121 2066.33,623.121 2066.33,649.488C2066.33,675.738 2061.05,695.469 2050.55,708.711C2040.12,722.031 2024.8,728.711 2004.61,728.711C1964.06,728.711 1943.83,702.301 1943.83,649.488Z" style="fill:rgb(24,48,48);fill-rule:nonzero;"/>
                </g>
                <g id="path52" transform="matrix(0.560755,0,0,0.560755,901.311,421.196)">
                    <path d="M2255.27,540.738C2227.15,540.738 2205.51,550.781 2190.43,570.898L2188.24,570.898L2189.02,563.09C2189.96,553.16 2190.43,544.41 2190.43,536.68L2190.43,450.738L2156.21,450.738L2156.21,753.551L2184.34,753.551L2189.02,724.961L2190.43,724.961C2198.55,736.41 2207.93,744.691 2218.55,749.801C2229.26,754.879 2241.6,757.461 2255.59,757.461C2282.77,757.461 2303.87,748.012 2318.87,729.18C2333.95,710.309 2341.52,683.75 2341.52,649.488C2341.52,615.309 2333.95,588.629 2318.87,569.488C2303.75,550.309 2282.54,540.738 2255.27,540.738ZM2249.49,728.711C2228.87,728.711 2213.91,722.809 2204.65,711.051C2195.47,699.379 2190.74,681.051 2190.43,656.051L2190.43,649.488C2190.43,621.129 2195.12,600.621 2204.49,587.93C2213.95,575.309 2229.22,569.02 2250.27,569.02C2267.77,569.02 2281.41,576.09 2291.21,590.27C2301.09,604.531 2306.05,624.379 2306.05,649.801C2306.05,675.309 2301.09,694.84 2291.21,708.398C2281.41,721.91 2267.5,728.711 2249.49,728.711Z" style="fill:rgb(24,48,48);fill-rule:nonzero;"/>
                </g>
                <g id="path54" transform="matrix(0.560755,0,0,0.560755,901.311,421.196)">
                    <path d="M2485.08,540.738C2453.71,540.738 2429.14,550.199 2411.33,569.18C2393.52,588.121 2384.61,614.219 2384.61,647.461C2384.61,680.98 2392.89,707.699 2409.45,727.621C2426.09,747.5 2448.59,757.461 2476.95,757.461C2503.2,757.461 2524.14,748.949 2539.77,731.988C2555.39,715 2563.2,692.031 2563.2,663.09L2563.2,642.301L2419.92,642.301C2420.62,618.629 2426.68,600.621 2438.05,588.238C2449.49,575.941 2465.7,569.801 2486.64,569.801C2497.77,569.801 2508.36,570.781 2518.36,572.77C2528.44,574.73 2540.23,578.59 2553.67,584.34L2553.67,554.18C2542.11,549.262 2531.21,545.82 2521.02,543.871C2510.9,541.801 2498.91,540.738 2485.08,540.738ZM2476.48,729.34C2460.12,729.34 2447.15,724.059 2437.58,713.551C2428.09,703.012 2422.46,688.398 2420.7,669.648L2527.27,669.648C2526.95,689.102 2522.42,703.91 2513.67,714.02C2504.92,724.219 2492.5,729.34 2476.48,729.34Z" style="fill:rgb(24,48,48);fill-rule:nonzero;"/>
                </g>
                <g id="path56" transform="matrix(0.560755,0,0,0.560755,901.311,421.196)">
                    <path d="M2713.79,757.461C2723.05,757.461 2731.21,756.68 2738.32,755.121L2734.1,723.551C2726.37,725.309 2718.83,726.211 2711.45,726.211C2700.39,726.211 2690.12,723.121 2680.66,716.988C2671.29,710.941 2663.87,702.539 2658.48,691.84C2653.16,681.09 2650.51,669.18 2650.51,656.051L2650.51,544.488L2616.29,544.488L2616.29,753.551L2644.41,753.551L2648.32,715.27L2649.88,715.27C2657.77,729.102 2667.23,739.57 2678.16,746.68C2689.1,753.871 2700.98,757.461 2713.79,757.461Z" style="fill:rgb(24,48,48);fill-rule:nonzero;"/>
                </g>
                <g id="path58" transform="matrix(0.560755,0,0,0.560755,901.311,421.196)">
                    <path d="M3004.73,691.52L3100.98,691.52L3100.98,554.961C3086.29,550.27 3071.29,546.719 3055.98,544.34C3040.74,541.949 3023.09,540.738 3003.01,540.738C2960.59,540.738 2927.77,553.281 2904.57,578.398C2881.33,603.48 2869.73,638.59 2869.73,683.711C2869.73,712.77 2875.51,738.121 2887.07,759.801C2898.63,781.559 2915.27,798.16 2937.07,809.648C2958.83,821.09 2984.49,826.84 3014.1,826.84C3043.79,826.84 3071.48,821.41 3097.23,810.59L3083.79,780.121C3059.3,790.738 3035.39,796.051 3012.07,796.051C2978.95,796.051 2953.01,785.98 2934.26,765.898C2915.59,745.898 2906.29,718.48 2906.29,683.711C2906.29,646.84 2915.23,618.789 2933.16,599.648C2951.05,580.469 2977.11,570.898 3011.29,570.898C3029.92,570.898 3048.16,573.121 3065.98,577.621L3065.98,660.27L3004.73,660.27L3004.73,691.52Z" style="fill:rgb(24,48,48);fill-rule:nonzero;"/>
                </g>
                <g id="path60" transform="matrix(0.560755,0,0,0.560755,901.311,421.196)">
                    <path d="M3429.3,544.488L3429.3,679.18C3429.3,712.191 3415.12,728.711 3386.8,728.711C3367.3,728.711 3352.97,723.012 3343.83,711.68C3334.77,700.43 3330.23,683.16 3330.23,659.961L3330.23,544.488L3296.17,544.488L3296.17,679.18C3296.17,695.621 3292.66,707.969 3285.7,716.211C3278.83,724.531 3268.05,728.711 3253.36,728.711C3233.98,728.711 3219.8,722.77 3210.86,710.898C3201.88,699.102 3197.42,679.73 3197.42,652.77L3197.42,544.488L3163.2,544.488L3163.2,753.551L3190.86,753.551L3196.02,724.961L3197.89,724.961C3203.83,735.16 3212.19,743.121 3223.05,748.871C3233.98,754.57 3246.17,757.461 3259.61,757.461C3292.3,757.461 3313.59,745.738 3323.52,722.301L3325.39,722.301C3332.15,733.551 3341.33,742.191 3352.89,748.238C3364.53,754.379 3377.73,757.461 3392.42,757.461C3416.05,757.461 3433.75,751.371 3445.55,739.18C3457.3,726.988 3463.2,707.461 3463.2,680.59L3463.2,544.488L3429.3,544.488Z" style="fill:rgb(24,48,48);fill-rule:nonzero;"/>
                </g>
                <g id="path62" transform="matrix(0.560755,0,0,0.560755,901.311,421.196)">
                    <path d="M3627.15,756.988C3654.65,756.988 3675.9,747.5 3690.9,728.551C3705.9,709.57 3713.4,683.09 3713.4,649.02C3713.4,614.531 3705.74,587.852 3690.43,569.02C3675.2,550.16 3654.1,540.738 3627.15,540.738C3613.09,540.738 3600.47,543.238 3589.34,548.238C3578.28,553.32 3569.26,560.898 3562.3,570.898L3559.65,570.898C3555.78,555.66 3553.44,546.879 3552.62,544.488L3528.09,544.488L3528.09,840.738L3562.3,840.738L3562.3,768.871C3562.3,754.488 3561.68,740.121 3560.43,725.738L3562.3,725.738C3576.45,746.559 3598.09,756.988 3627.15,756.988ZM3621.37,728.711C3600.31,728.711 3585.2,722.699 3576.05,710.738C3566.88,698.75 3562.3,678.551 3562.3,650.121L3562.3,648.711C3562.3,620.039 3566.99,599.57 3576.37,587.301C3585.74,575.121 3600.98,569.02 3622.15,569.02C3640.98,569.02 3655,575.898 3664.18,589.648C3673.32,603.48 3677.93,623.441 3677.93,649.488C3677.93,675.82 3673.28,695.621 3664.02,708.871C3654.73,722.07 3640.51,728.711 3621.37,728.711Z" style="fill:rgb(24,48,48);fill-rule:nonzero;"/>
                </g>
                <g id="path64" transform="matrix(0.560755,0,0,0.560755,901.311,421.196)">
                    <path d="M3985.66,544.488L3950.66,544.488L3950.66,674.34L3807.85,674.34L3807.85,544.488L3772.85,544.488L3772.85,822.93L3807.85,822.93L3807.85,705.27L3950.66,705.27L3950.66,822.93L3985.66,822.93L3985.66,544.488Z" style="fill:rgb(24,48,48);fill-rule:nonzero;"/>
                </g>
            </g>
        </g>
    </g>
</svg>
