<?xml version="1.0" encoding="utf-8"?>
<!-- Generator: Adobe Illustrator 26.0.3, SVG Export Plug-In . SVG Version: 6.00 Build 0)  -->
<svg version="1.1" id="Ebene_1" xmlns="http://www.w3.org/2000/svg" xmlns:xlink="http://www.w3.org/1999/xlink" x="0px" y="0px"
	 viewBox="0 0 425.2 120.7" style="enable-background:new 0 0 425.2 120.7;" xml:space="preserve">
<style type="text/css">
	.st0{fill:#677477;}
	.st1{fill:#23BAE2;}
</style>
<g>
	<path class="st0" d="M115.6,52c6.2-28.5,27.8-42.3,56.7-42.3c9.6,0,26.2,1.6,36.9,5.3c-2,9.3-3.3,10.9-8.5,17.6
		c-9.1-3.1-24.2-4.2-32.9-4.2c-14,0-28.7,7.6-31.8,22l-4.6,19.5c-3.6,16.9,8,23.8,22,23.8c8.7,0,25.6-1.3,36-4.2c2.2,4,2,9.3,0,18.6
		c-12.2,3.8-29.6,4.4-39.1,4.4c-28.9,0-45.4-10.5-38.5-42L115.6,52z"/>
	<path class="st0" d="M231.3,52.4l-3.7,17.4c-3.8,18-0.2,24,22.5,24c22.9,0,26.5-6,30.3-24l3.7-17.4c3.8-18,2.9-24.5-20-24.5
		C241.3,28,235,34.4,231.3,52.4 M207.5,70.3l3.7-18.3c5.6-25.4,12.3-42.3,56.8-42.3c44.9,0,41.6,16.9,36,42.3l-3.7,18.3
		c-5.3,25.4-9.3,42.3-54.3,42.3C201.6,112.6,202.2,95.7,207.5,70.3"/>
	<path class="st1" d="M71,85.6c7.1-1.1,9.9-1.1,11.7-1.1c1.8,0,5.5,0,11.5,0.9l-5.3,24.9c-6.2,1.1-9.9,1.1-11.7,1.1
		c-1.8,0-4.6,0-11.3-1.3L71,85.6z"/>
	<g>
		<path class="st0" d="M383.2,10.9h-51.7l-21.1,99.5c4.7,1.1,8,1.1,9.8,1.1c1.8,0,5.3,0,10.2-1.1l7.6-36h0l2.1-10.4h0l2.3-10.8l0,0
			l5-23.6H379c7.9,0,17.9,1.3,14.6,17.7l-13.4,63.2c4.7,1.1,8,1.1,9.8,1.1c1.8,0,5.3,0,10.2-1.1l7.6-36h0l2.1-10.4h0l2.3-10.8l0,0
			l0.1-0.4c0.4-1.5,0.8-3.1,1.1-4.7C421.3,11.7,404.1,10.9,383.2,10.9"/>
	</g>
	<line class="st0" x1="97.6" y1="29.5" x2="95.9" y2="29.5"/>
	<path class="st0" d="M12.5,10.9c-0.8,2-1.7,4.7-2.5,7.6c-1.2,4.8-1.9,9-1.7,11.1h35.5l-17.1,80.8c4.7,1.1,8,1.1,10,1.1
		c1.3,0,4.9,0,10-1.1l17.1-80.8h33.7c1.1-1.8,2.6-5.7,3.8-10.4c0.8-3.2,1.4-6.1,1.6-8.3H12.5z"/>
</g>
</svg>
