<?xml version="1.0" encoding="utf-8"?>
<!-- Generator: Adobe Illustrator 25.4.1, SVG Export Plug-In . SVG Version: 6.00 Build 0)  -->
<svg version="1.1" id="Ebene_1" xmlns="http://www.w3.org/2000/svg" xmlns:xlink="http://www.w3.org/1999/xlink" x="0px" y="0px"
	 viewBox="0 0 637.02 197.52" style="enable-background:new 0 0 637.02 197.52;" xml:space="preserve">
<style type="text/css">
	.st0{fill:url(#SVGID_1_);}
	.st1{fill:#3C3C3B;}
	.st2{fill:url(#SVGID_00000008860140175932906920000002723543884964572046_);}
	.st3{fill:#4ABED8;}
	.st4{fill:#28788F;}
</style>
<g>
	<linearGradient id="SVGID_1_" gradientUnits="userSpaceOnUse" x1="138.0842" y1="58.905" x2="67.1572" y2="129.832">
		<stop  offset="0" style="stop-color:#4CBED8"/>
		<stop  offset="1" style="stop-color:#2A798F"/>
	</linearGradient>
	<path class="st0" d="M95.02,43.04c-32.54,0-58.92,26.38-58.92,58.92c0,32.54,26.38,58.92,58.92,58.92
		c32.54,0,58.92-26.38,58.92-58.92C153.95,69.42,127.57,43.04,95.02,43.04z M98.84,153.15c-28.27,0-51.19-22.92-51.19-51.19
		c0-28.27,22.92-51.19,51.19-51.19s51.19,22.92,51.19,51.19C150.03,130.24,127.11,153.15,98.84,153.15z"/>
</g>
<g>
	<path class="st1" d="M196.59,127.29c-0.79,0.1-1.67,0.2-2.62,0.28c-0.95,0.08-1.8,0.12-2.54,0.12c-1.8,0-3.39-0.15-4.77-0.44
		c-1.38-0.29-2.5-0.84-3.38-1.63s-1.54-1.88-1.99-3.26c-0.45-1.38-0.68-3.15-0.68-5.32V89.32l-7.71-0.87
		c-1.01-0.11-1.51-0.58-1.51-1.43v-2.14c0-0.95,0.5-1.43,1.51-1.43h7.71v-7.79c0-0.9,0.48-1.43,1.43-1.59l4.13-0.64h0.24
		c0.32,0,0.6,0.12,0.83,0.36c0.24,0.24,0.36,0.57,0.36,0.99v8.66h8.58c0.42,0,0.79,0.16,1.11,0.48c0.32,0.32,0.48,0.69,0.48,1.11
		v2.7c0,0.42-0.16,0.79-0.48,1.11c-0.32,0.32-0.69,0.48-1.11,0.48h-8.58v27.66c0,2.17,0.32,3.54,0.95,4.12
		c0.64,0.58,1.75,0.87,3.34,0.87h4.45c1.11,0,1.67,0.38,1.67,1.13v2.82C198.02,126.67,197.55,127.13,196.59,127.29z"/>
	<path class="st1" d="M223.37,89c-1.85,0-3.64,0.25-5.36,0.75c-1.72,0.5-3.59,1.36-5.6,2.58v33.22c0,0.42-0.16,0.79-0.48,1.11
		c-0.32,0.32-0.69,0.47-1.11,0.47h-3.89c-0.42,0-0.78-0.16-1.07-0.48c-0.29-0.32-0.44-0.69-0.44-1.11V85.03
		c0-0.42,0.15-0.79,0.44-1.11c0.29-0.32,0.65-0.48,1.07-0.48h3.73c0.42,0,0.78,0.16,1.07,0.48c0.29,0.32,0.44,0.7,0.44,1.13v1.69
		c2.01-1.39,3.93-2.39,5.76-2.98c1.83-0.59,3.64-0.89,5.44-0.89c1.11,0,1.67,0.48,1.67,1.45v3.3C225.03,88.55,224.48,89,223.37,89z"
		/>
	<path class="st1" d="M240.13,75.97c-0.32,0.32-0.69,0.48-1.11,0.48h-4.05c-0.42,0-0.79-0.16-1.11-0.48
		c-0.32-0.32-0.48-0.69-0.48-1.11v-6.36c0-0.42,0.16-0.79,0.48-1.11c0.32-0.32,0.69-0.48,1.11-0.48h4.05c0.42,0,0.79,0.16,1.11,0.48
		c0.32,0.32,0.48,0.69,0.48,1.11v6.36C240.6,75.29,240.45,75.66,240.13,75.97z M239.97,126.66c-0.32,0.32-0.69,0.48-1.11,0.48h-3.81
		c-0.42,0-0.79-0.16-1.11-0.48c-0.32-0.32-0.48-0.69-0.48-1.11V85.03c0-0.42,0.16-0.79,0.48-1.11c0.32-0.32,0.69-0.48,1.11-0.48
		h3.81c0.42,0,0.79,0.16,1.11,0.48c0.32,0.32,0.48,0.69,0.48,1.11v40.52C240.45,125.97,240.29,126.34,239.97,126.66z"/>
	<path class="st1" d="M283.32,126.66c-0.32,0.32-0.69,0.48-1.11,0.48h-3.81c-0.43,0-0.79-0.16-1.11-0.47
		c-0.32-0.32-0.48-0.69-0.48-1.11V99.47c0-2.01-0.17-3.69-0.52-5.03c-0.35-1.35-0.87-2.42-1.59-3.21c-0.71-0.79-1.62-1.36-2.7-1.7
		c-1.09-0.34-2.4-0.51-3.93-0.51c-1.7,0-3.44,0.29-5.24,0.87c-1.8,0.58-3.63,1.32-5.48,2.22v33.45c0,0.42-0.16,0.79-0.48,1.11
		c-0.32,0.32-0.69,0.47-1.11,0.47h-3.89c-0.42,0-0.78-0.16-1.07-0.48c-0.29-0.32-0.44-0.69-0.44-1.11V85.03
		c0-0.42,0.15-0.79,0.44-1.11c0.29-0.32,0.65-0.48,1.07-0.48h3.97c0.42,0,0.78,0.16,1.07,0.48c0.29,0.32,0.44,0.7,0.44,1.13v1.53
		c2.22-1.23,4.29-2.16,6.2-2.78c1.91-0.62,4.05-0.93,6.43-0.93c4.82,0,8.33,1.43,10.53,4.29c2.2,2.86,3.3,6.94,3.3,12.23v26.14
		C283.8,125.97,283.64,126.34,283.32,126.66z"/>
	<path class="st1" d="M326.75,126.66c-0.32,0.32-0.69,0.48-1.11,0.48h-3.81c-0.43,0-0.79-0.16-1.11-0.47
		c-0.32-0.32-0.48-0.69-0.48-1.11V99.47c0-2.01-0.17-3.69-0.52-5.03c-0.35-1.35-0.87-2.42-1.59-3.21c-0.71-0.79-1.62-1.36-2.7-1.7
		c-1.09-0.34-2.4-0.51-3.93-0.51c-1.7,0-3.44,0.29-5.24,0.87c-1.8,0.58-3.63,1.32-5.48,2.22v33.45c0,0.42-0.16,0.79-0.48,1.11
		c-0.32,0.32-0.69,0.47-1.11,0.47h-3.89c-0.42,0-0.78-0.16-1.07-0.48c-0.29-0.32-0.44-0.69-0.44-1.11V85.03
		c0-0.42,0.15-0.79,0.44-1.11c0.29-0.32,0.65-0.48,1.07-0.48h3.97c0.42,0,0.78,0.16,1.07,0.48c0.29,0.32,0.44,0.7,0.44,1.13v1.53
		c2.22-1.23,4.29-2.16,6.2-2.78c1.91-0.62,4.05-0.93,6.43-0.93c4.82,0,8.33,1.43,10.53,4.29c2.2,2.86,3.3,6.94,3.3,12.23v26.14
		C327.22,125.97,327.07,126.34,326.75,126.66z"/>
	<path class="st1" d="M371.21,116.25c-0.74,2.38-1.85,4.42-3.34,6.12c-1.48,1.69-3.34,3.01-5.56,3.93c-2.22,0.93-4.79,1.39-7.7,1.39
		c-2.91,0-5.47-0.46-7.67-1.39c-2.2-0.93-4.04-2.24-5.52-3.93c-1.48-1.69-2.6-3.73-3.34-6.12c-0.74-2.38-1.11-5.03-1.11-7.95v-6.04
		c0-2.91,0.37-5.56,1.11-7.94c0.74-2.38,1.85-4.42,3.34-6.12c1.48-1.69,3.32-3.01,5.52-3.93c2.2-0.93,4.75-1.39,7.67-1.39
		c2.91,0,5.48,0.46,7.7,1.39c2.23,0.93,4.08,2.24,5.56,3.93c1.48,1.7,2.6,3.73,3.34,6.12c0.74,2.38,1.11,5.03,1.11,7.94v6.04
		C372.33,111.22,371.95,113.87,371.21,116.25z M365.33,102.27c0-4.08-0.85-7.31-2.54-9.69c-1.7-2.38-4.42-3.57-8.18-3.57
		c-3.71,0-6.41,1.18-8.1,3.54c-1.7,2.36-2.54,5.6-2.54,9.73v6.04c0,4.08,0.83,7.31,2.5,9.69c1.67,2.38,4.38,3.58,8.14,3.58
		c3.71,0,6.42-1.18,8.14-3.54c1.72-2.36,2.58-5.6,2.58-9.73V102.27z"/>
	<path class="st1" d="M413.08,84.79c0,0.21-0.03,0.4-0.08,0.56l-10.72,37.81c-0.53,1.8-1.43,3.01-2.7,3.61
		c-1.27,0.61-2.76,0.91-4.45,0.91c-1.69,0-3.18-0.31-4.45-0.91c-1.27-0.61-2.17-1.81-2.7-3.61l-10.72-37.81
		c-0.05-0.16-0.08-0.34-0.08-0.56c0-0.9,0.42-1.35,1.27-1.35h4.37c0.69,0,1.19,0.51,1.51,1.51l9.14,34.71
		c0.26,0.96,0.5,1.58,0.71,1.87c0.21,0.29,0.53,0.44,0.95,0.44c0.37,0,0.68-0.15,0.92-0.44c0.24-0.29,0.49-0.92,0.75-1.87
		l9.14-34.71c0.32-1.01,0.82-1.51,1.51-1.51h4.37C412.65,83.44,413.08,83.89,413.08,84.79z"/>
	<path class="st1" d="M450.3,126.66c-0.32,0.32-0.69,0.48-1.11,0.48h-3.66c-0.42,0-0.79-0.16-1.11-0.48
		c-0.32-0.32-0.48-0.69-0.48-1.11v-1.75c-1.91,1.11-3.87,2.04-5.88,2.78c-2.01,0.74-4.13,1.11-6.36,1.11c-1.69,0-3.32-0.2-4.89-0.6
		c-1.56-0.4-2.94-1.1-4.13-2.11c-1.19-1.01-2.14-2.33-2.86-3.97c-0.71-1.64-1.07-3.71-1.07-6.2v-0.95c0-2.17,0.33-4.05,0.99-5.64
		c0.66-1.59,1.75-2.93,3.26-4.01c1.51-1.09,3.48-1.89,5.92-2.42c2.44-0.53,5.43-0.79,8.98-0.79h5.88v-3.18
		c0-3.34-0.63-5.67-1.91-6.99c-1.27-1.32-3.47-1.99-6.59-1.99c-2.6,0-4.87,0.07-6.83,0.2c-1.96,0.13-3.73,0.28-5.32,0.44h-0.4
		c-0.37,0-0.7-0.08-0.99-0.24c-0.29-0.16-0.44-0.5-0.44-1.03v-2.78c0-0.85,0.56-1.35,1.67-1.51c1.64-0.26,3.43-0.5,5.36-0.71
		c1.93-0.21,4.25-0.32,6.95-0.32c5.51,0,9.47,1.31,11.88,3.93c2.41,2.62,3.61,6.29,3.61,11v27.73
		C450.77,125.97,450.61,126.34,450.3,126.66z M443.78,106h-5.88c-2.38,0-4.37,0.15-5.96,0.44c-1.59,0.29-2.83,0.74-3.73,1.35
		c-0.9,0.61-1.54,1.4-1.91,2.38c-0.37,0.98-0.56,2.19-0.56,3.62v0.95c0,2.86,0.64,4.78,1.91,5.76c1.27,0.98,3.07,1.47,5.4,1.47
		c1.85,0,3.63-0.26,5.32-0.8c1.69-0.53,3.5-1.32,5.4-2.38V106z"/>
	<path class="st1" d="M481.18,127.29c-0.8,0.1-1.67,0.2-2.62,0.28c-0.95,0.08-1.8,0.12-2.54,0.12c-1.8,0-3.39-0.15-4.77-0.44
		c-1.38-0.29-2.5-0.84-3.38-1.63c-0.87-0.79-1.54-1.88-1.99-3.26c-0.45-1.38-0.67-3.15-0.67-5.32V89.32l-7.71-0.87
		c-1.01-0.11-1.51-0.58-1.51-1.43v-2.14c0-0.95,0.5-1.43,1.51-1.43h7.71v-7.79c0-0.9,0.48-1.43,1.43-1.59l4.13-0.64h0.24
		c0.32,0,0.6,0.12,0.83,0.36c0.24,0.24,0.36,0.57,0.36,0.99v8.66h8.58c0.42,0,0.8,0.16,1.11,0.48c0.32,0.32,0.48,0.69,0.48,1.11v2.7
		c0,0.42-0.16,0.79-0.48,1.11c-0.32,0.32-0.69,0.48-1.11,0.48h-8.58v27.66c0,2.17,0.32,3.54,0.95,4.12s1.75,0.87,3.34,0.87h4.45
		c1.11,0,1.67,0.38,1.67,1.13v2.82C482.61,126.67,482.13,127.13,481.18,127.29z"/>
	<path class="st1" d="M498.31,75.97c-0.32,0.32-0.69,0.48-1.11,0.48h-4.05c-0.42,0-0.79-0.16-1.11-0.48
		c-0.32-0.32-0.48-0.69-0.48-1.11v-6.36c0-0.42,0.16-0.79,0.48-1.11c0.32-0.32,0.69-0.48,1.11-0.48h4.05c0.42,0,0.8,0.16,1.11,0.48
		c0.32,0.32,0.48,0.69,0.48,1.11v6.36C498.79,75.29,498.63,75.66,498.31,75.97z M498.15,126.66c-0.32,0.32-0.69,0.48-1.11,0.48
		h-3.81c-0.42,0-0.79-0.16-1.11-0.48c-0.32-0.32-0.48-0.69-0.48-1.11V85.03c0-0.42,0.16-0.79,0.48-1.11
		c0.32-0.32,0.69-0.48,1.11-0.48h3.81c0.42,0,0.79,0.16,1.11,0.48c0.32,0.32,0.48,0.69,0.48,1.11v40.52
		C498.63,125.97,498.47,126.34,498.15,126.66z"/>
	<path class="st1" d="M544.33,84.79c0,0.21-0.03,0.4-0.08,0.56l-10.72,37.81c-0.53,1.8-1.43,3.01-2.7,3.61
		c-1.27,0.61-2.75,0.91-4.45,0.91c-1.69,0-3.18-0.31-4.45-0.91c-1.27-0.61-2.17-1.81-2.7-3.61L508.5,85.35
		c-0.05-0.16-0.08-0.34-0.08-0.56c0-0.9,0.42-1.35,1.27-1.35h4.37c0.69,0,1.19,0.51,1.51,1.51l9.14,34.71
		c0.26,0.96,0.5,1.58,0.71,1.87c0.21,0.29,0.53,0.44,0.95,0.44c0.37,0,0.68-0.15,0.91-0.44c0.24-0.29,0.49-0.92,0.75-1.87
		l9.14-34.71c0.32-1.01,0.82-1.51,1.51-1.51h4.37C543.9,83.44,544.33,83.89,544.33,84.79z"/>
	<path class="st1" d="M583.18,107.51h-26.61v1.11c0,4.71,0.93,8.05,2.78,10.01c1.85,1.96,4.61,2.94,8.26,2.94
		c2.33,0,4.81-0.08,7.43-0.24c2.62-0.16,4.86-0.37,6.71-0.64h0.4c0.32,0,0.61,0.08,0.87,0.24c0.26,0.16,0.4,0.45,0.4,0.87v2.7
		c0,0.53-0.11,0.94-0.32,1.23c-0.21,0.29-0.64,0.49-1.27,0.6c-2.28,0.42-4.54,0.75-6.79,0.99c-2.25,0.24-4.73,0.36-7.43,0.36
		c-2.28,0-4.5-0.31-6.67-0.91c-2.17-0.61-4.09-1.64-5.76-3.1c-1.67-1.46-3.02-3.4-4.05-5.84c-1.03-2.44-1.55-5.51-1.55-9.22v-7.15
		c0-5.72,1.51-10.25,4.53-13.58c3.02-3.34,7.39-5.01,13.11-5.01c2.91,0,5.45,0.44,7.63,1.31c2.17,0.87,3.99,2.12,5.44,3.73
		c1.46,1.62,2.55,3.57,3.3,5.88c0.74,2.3,1.11,4.86,1.11,7.67v4.29C584.69,106.93,584.19,107.51,583.18,107.51z M577.7,101.47
		c0-4.5-0.86-7.71-2.59-9.61c-1.73-1.91-4.35-2.86-7.86-2.86c-3.46,0-6.1,1.01-7.93,3.02c-1.83,2.01-2.75,5.16-2.75,9.45v0.71h21.13
		V101.47z"/>
</g>
<g>
	
		<linearGradient id="SVGID_00000025438472891034068560000014514004914303564180_" gradientUnits="userSpaceOnUse" x1="87.9632" y1="84.523" x2="87.9632" y2="126.4793">
		<stop  offset="0" style="stop-color:#4CBED8"/>
		<stop  offset="1" style="stop-color:#2A798F"/>
	</linearGradient>
	<path style="fill:url(#SVGID_00000025438472891034068560000014514004914303564180_);" d="M80.32,84.64h-0.14v36.93
		c0,9.09,6.79,16.59,15.58,17.71V84.64H80.32z"/>
</g>
<rect x="100.3" y="84.64" class="st3" width="15.58" height="15.58"/>
<g>
	<path class="st4" d="M104.6,139.28h-4.3v-15.44h15.44v4.3C115.74,134.3,110.75,139.28,104.6,139.28"/>
	<path class="st3" d="M91.45,64.65h4.3v15.44H80.32v-4.3C80.32,69.64,85.3,64.65,91.45,64.65"/>
</g>
<rect x="590.96" y="116.29" class="st4" width="11.4" height="11.4"/>
</svg>
