<?xml version="1.0" encoding="utf-8"?>
<!-- Generator: Adobe Illustrator 23.0.1, SVG Export Plug-In . SVG Version: 6.00 Build 0)  -->
<svg version="1.1" xmlns="http://www.w3.org/2000/svg" xmlns:xlink="http://www.w3.org/1999/xlink" x="0px" y="0px"
	 viewBox="0 0 375.83 192.98" style="enable-background:new 0 0 375.83 192.98;" xml:space="preserve">
<style type="text/css">
	.st0{fill:#4B4B46;}
</style>
<g id="Vitesco_Technologies">
	<path class="st0" d="M280.92,102.56c-3.76,4.23-9.14,6.66-14.74,6.66h-1.96c-10.97,0-19.89-9.09-19.89-20.26V83.3
		c0-11.17,8.92-20.26,19.89-20.26h1.96c5.58,0,10.94,2.41,14.71,6.62c1.25,1.4,1.13,3.55-0.27,4.81c-1.4,1.25-3.55,1.13-4.81-0.27
		c-2.47-2.76-5.98-4.35-9.63-4.35h-1.96c-7.21,0-13.08,6.03-13.08,13.45v5.66c0,7.42,5.87,13.45,13.08,13.45h1.96
		c3.66,0,7.18-1.6,9.66-4.38c1.25-1.4,3.4-1.53,4.8-0.28C282.04,99,282.17,101.15,280.92,102.56z M227.86,83.47l-15.9-3.17
		c-2.98-0.61-3.66-3.14-3.8-3.91c-0.13-0.75-0.37-3.31,2.17-4.88c1.77-1.09,3.8-1.67,5.87-1.67h6.19c2.76,0,5.94,1.73,7.73,4.21
		c1.1,1.52,3.23,1.87,4.75,0.76c1.52-1.1,1.87-3.23,0.76-4.75c-3.09-4.27-8.29-7.03-13.25-7.03h-6.19c-3.34,0-6.6,0.93-9.45,2.68
		c-4.11,2.54-6.14,7.09-5.29,11.86c0.84,4.74,4.43,8.42,9.15,9.39l15.9,3.17c2.24,0.46,3.87,2.07,4.34,4.33
		c0.46,2.21-0.35,4.3-2.18,5.59c-2.18,1.54-4.74,2.35-7.39,2.35h-5.14c-3.66,0-7.18-1.6-9.66-4.38c-1.25-1.4-3.4-1.53-4.8-0.28
		c-1.4,1.25-1.53,3.4-0.28,4.8c3.76,4.23,9.14,6.66,14.74,6.66h5.14c4.07,0,7.98-1.24,11.32-3.6c4.06-2.86,5.94-7.67,4.91-12.55
		C236.48,88.15,232.78,84.47,227.86,83.47z M186.25,82.72h-18.23c-1.88,0-3.4,1.52-3.4,3.4c0,1.88,1.52,3.4,3.4,3.4h18.23
		c3.94,0,7.14-3.2,7.14-7.14c0-10.67-8.71-19.35-19.41-19.35h-2.99c-10.71,0-19.41,8.68-19.41,19.35v7.41
		c0,10.71,8.71,19.41,19.41,19.41h5.26c5.63,0,10.97-2.44,14.66-6.69c1.23-1.42,1.08-3.57-0.34-4.8c-1.42-1.23-3.57-1.08-4.8,0.34
		c-2.4,2.76-5.87,4.34-9.52,4.34h-5.26c-6.95,0-12.61-5.66-12.61-12.61v-7.41c0-6.92,5.66-12.54,12.61-12.54h2.99
		c6.95,0,12.61,5.63,12.61,12.54C186.59,82.57,186.44,82.72,186.25,82.72z M144.62,102.41c-2.07,0-4.1-0.58-5.87-1.67
		c-1.51-0.93-2.24-2.32-2.24-4.23V49.59c0-1.88-1.52-3.4-3.4-3.4s-3.4,1.52-3.4,3.4v15.39c-2.52-1.28-5.24-1.94-8.11-1.94h-3.4
		c-1.88,0-3.4,1.52-3.4,3.4c0,1.88,1.52,3.4,3.4,3.4h3.4c2.1,0,4.08,0.56,5.87,1.67c1.51,0.93,2.24,2.32,2.24,4.23v20.76
		c0,4.29,1.94,7.85,5.47,10.03c2.84,1.75,6.11,2.68,9.45,2.68c1.88,0,3.4-1.52,3.4-3.4C148.02,103.93,146.5,102.41,144.62,102.41z
		 M113.86,102.41c-2.07,0-4.1-0.58-5.87-1.67c-1.49-0.92-2.24-2.34-2.24-4.23V66.44c0-1.88-1.52-3.41-3.41-3.41
		c-1.88,0-3.41,1.52-3.41,3.41v30.07c0,4.29,1.94,7.85,5.47,10.03c2.84,1.75,6.11,2.68,9.45,2.68c1.88,0,3.41-1.52,3.41-3.41
		S115.74,102.41,113.86,102.41z M86.73,63.24c-1.77-0.64-3.72,0.27-4.37,2.03l-13.11,35.97c-0.39,1.05-1.29,1.16-1.67,1.16
		c0,0,0,0,0,0c-0.37,0-1.28-0.11-1.67-1.17L52.79,65.27c-0.65-1.77-2.6-2.67-4.37-2.03c-1.77,0.65-2.68,2.6-2.03,4.37l13.14,35.96
		c1.25,3.42,4.41,5.64,8.06,5.64c0,0,0.01,0,0.01,0c3.64,0,6.8-2.21,8.06-5.63l13.11-35.98C89.41,65.84,88.5,63.89,86.73,63.24z
		 M326.24,79.89c-1.88,0-3.4,1.52-3.4,3.4v5.66c0,7.42-5.87,13.45-13.08,13.45h-1.96c-7.21,0-13.08-6.03-13.08-13.45V83.3
		c0-7.42,5.87-13.45,13.08-13.45h6.43c1.88,0,3.4-1.52,3.4-3.4s-1.52-3.4-3.4-3.4h-6.43c-10.97,0-19.89,9.09-19.89,20.26v5.66
		c0,11.17,8.92,20.26,19.89,20.26h1.96c10.97,0,19.89-9.09,19.89-20.26V83.3C329.65,81.42,328.12,79.89,326.24,79.89z M82.46,127.74
		H67.58v2.78h5.88v15.74h3.15v-15.74h5.85V127.74z M92.47,143.58v-5.54h9.23v-2.71h-9.23v-4.92h10.14v-2.68H89.32v18.52h13.53v-2.68
		H92.47z M117.53,146.78c1.47,0,2.77-0.27,3.89-0.82c1.12-0.55,2.02-1.34,2.69-2.38c0.68-1.04,1.09-2.28,1.25-3.72h-3.04
		c-0.19,1.3-0.68,2.32-1.47,3.06c-0.79,0.74-1.84,1.11-3.16,1.11c-1.14,0-2.13-0.29-2.95-0.86c-0.82-0.57-1.45-1.39-1.89-2.44
		c-0.43-1.06-0.65-2.3-0.65-3.72c0-1.39,0.22-2.6,0.65-3.64c0.43-1.04,1.06-1.84,1.89-2.41c0.82-0.56,1.81-0.85,2.95-0.85
		c1.2,0,2.19,0.31,2.97,0.92c0.78,0.62,1.29,1.48,1.53,2.59h3.07c-0.14-1.27-0.56-2.37-1.25-3.32c-0.69-0.94-1.6-1.67-2.71-2.19
		c-1.11-0.51-2.37-0.77-3.77-0.77c-1.66,0-3.14,0.4-4.42,1.2c-1.28,0.8-2.29,1.93-3,3.39c-0.72,1.47-1.08,3.15-1.08,5.06
		c0,1.92,0.36,3.63,1.07,5.11c0.71,1.48,1.71,2.63,3,3.45C114.38,146.38,115.86,146.78,117.53,146.78z M144.27,127.74v7.39h-8.48
		v-7.39h-3.15v18.52h3.15v-8.35h8.48v8.35h3.15v-18.52H144.27z M167.63,127.74v13.53l-8.53-13.53h-3.23v18.52h3.07v-13.47
		l8.48,13.47h3.28v-18.52H167.63z M185.99,146.78c1.68,0,3.19-0.41,4.53-1.24c1.34-0.82,2.38-1.98,3.15-3.46
		c0.76-1.48,1.14-3.19,1.14-5.11c0-1.91-0.38-3.59-1.14-5.05c-0.76-1.46-1.81-2.58-3.15-3.38c-1.34-0.8-2.84-1.2-4.53-1.2
		c-1.66,0-3.16,0.4-4.49,1.2c-1.33,0.8-2.37,1.92-3.12,3.38c-0.75,1.46-1.13,3.14-1.13,5.05c0,1.93,0.38,3.63,1.13,5.12
		c0.75,1.49,1.79,2.65,3.12,3.46C182.83,146.38,184.33,146.78,185.99,146.78z M186.02,144.03c-1.11,0-2.09-0.29-2.94-0.87
		c-0.85-0.58-1.5-1.4-1.96-2.47c-0.46-1.07-0.69-2.3-0.69-3.71c0-1.37,0.23-2.57,0.69-3.6c0.46-1.03,1.11-1.83,1.96-2.41
		c0.85-0.57,1.83-0.86,2.94-0.86c1.11,0,2.09,0.28,2.94,0.85c0.85,0.56,1.51,1.37,1.98,2.41c0.47,1.04,0.7,2.25,0.7,3.62
		c0,1.4-0.23,2.64-0.7,3.71s-1.13,1.89-1.98,2.47C188.11,143.74,187.13,144.03,186.02,144.03z M204.02,143.48v-15.74h-3.15v18.52
		h12.49v-2.78H204.02z M226.16,146.78c1.68,0,3.19-0.41,4.53-1.24c1.34-0.82,2.38-1.98,3.15-3.46c0.76-1.48,1.14-3.19,1.14-5.11
		c0-1.91-0.38-3.59-1.14-5.05c-0.76-1.46-1.81-2.58-3.15-3.38c-1.34-0.8-2.84-1.2-4.53-1.2c-1.66,0-3.16,0.4-4.49,1.2
		c-1.33,0.8-2.37,1.92-3.12,3.38c-0.75,1.46-1.13,3.14-1.13,5.05c0,1.93,0.38,3.63,1.13,5.12c0.75,1.49,1.79,2.65,3.12,3.46
		C223,146.38,224.49,146.78,226.16,146.78z M226.18,144.03c-1.11,0-2.09-0.29-2.94-0.87c-0.85-0.58-1.5-1.4-1.96-2.47
		c-0.46-1.07-0.69-2.3-0.69-3.71c0-1.37,0.23-2.57,0.69-3.6c0.46-1.03,1.11-1.83,1.96-2.41c0.85-0.57,1.83-0.86,2.94-0.86
		c1.11,0,2.09,0.28,2.94,0.85c0.85,0.56,1.51,1.37,1.98,2.41c0.47,1.04,0.7,2.25,0.7,3.62c0,1.4-0.23,2.64-0.7,3.71
		s-1.13,1.89-1.98,2.47C228.27,143.74,227.29,144.03,226.18,144.03z M249.18,136.3v2.68h5.02v0.31c-0.16,0.99-0.47,1.84-0.94,2.55
		c-0.47,0.71-1.07,1.25-1.79,1.63c-0.73,0.37-1.56,0.56-2.5,0.56c-1.18,0-2.19-0.29-3.04-0.87c-0.85-0.58-1.5-1.4-1.95-2.46
		c-0.45-1.06-0.68-2.29-0.68-3.69c0-1.4,0.23-2.63,0.68-3.67c0.45-1.04,1.11-1.84,1.98-2.41c0.87-0.56,1.91-0.85,3.12-0.85
		c1.23,0,2.26,0.3,3.1,0.88c0.83,0.59,1.35,1.45,1.56,2.58l3.07-0.21c-0.19-1.23-0.63-2.3-1.33-3.2c-0.69-0.9-1.6-1.59-2.71-2.07
		c-1.11-0.48-2.39-0.72-3.85-0.72c-1.75,0-3.29,0.39-4.62,1.18c-1.33,0.79-2.35,1.91-3.08,3.36s-1.09,3.14-1.09,5.09
		c0,1.96,0.37,3.67,1.12,5.14c0.75,1.47,1.77,2.59,3.08,3.38c1.31,0.79,2.78,1.18,4.41,1.18c1.27,0,2.37-0.24,3.32-0.72
		c0.94-0.48,1.69-1.14,2.25-1.99l0.6,2.29h2.13v-9.96H249.18z M264.88,146.26h3.15v-18.52h-3.15V146.26z M278.9,143.58v-5.54h9.23
		v-2.71h-9.23v-4.92h10.14v-2.68h-13.29v18.52h13.53v-2.68H278.9z M301.94,146.76c1.58,0,2.91-0.24,4.01-0.73
		c1.09-0.49,1.91-1.15,2.46-2c0.55-0.85,0.82-1.83,0.82-2.94c0-1.44-0.45-2.59-1.35-3.45c-0.9-0.86-2.18-1.48-3.82-1.86l-3.49-0.81
		c-0.92-0.21-1.6-0.51-2.03-0.9c-0.43-0.39-0.65-0.9-0.65-1.52c0-0.81,0.32-1.46,0.96-1.94c0.64-0.48,1.53-0.72,2.65-0.72
		c1.23,0,2.22,0.29,2.95,0.86c0.74,0.57,1.17,1.38,1.29,2.42h3.04c-0.09-1.2-0.43-2.24-1.04-3.12c-0.61-0.88-1.44-1.56-2.5-2.03
		c-1.06-0.47-2.3-0.7-3.72-0.7c-1.46,0-2.69,0.24-3.69,0.73c-1.01,0.49-1.76,1.15-2.28,1.99c-0.51,0.84-0.77,1.78-0.77,2.82
		c0,1.34,0.42,2.41,1.27,3.24c0.85,0.82,2.05,1.41,3.59,1.76l3.02,0.7c0.8,0.17,1.44,0.38,1.92,0.62c0.49,0.24,0.85,0.54,1.08,0.88
		c0.23,0.35,0.35,0.77,0.35,1.27c0,0.9-0.35,1.6-1.04,2.09c-0.69,0.49-1.7,0.74-3.02,0.74c-1.42,0-2.53-0.32-3.33-0.95
		c-0.8-0.63-1.24-1.58-1.33-2.85h-3.07c0.12,2.06,0.85,3.64,2.19,4.73C297.76,146.21,299.59,146.76,301.94,146.76z"/>
</g>
<g id="Guides">
</g>
</svg>
