<?xml version="1.0" encoding="utf-8"?>
<!-- Generator: Adobe Illustrator 26.0.3, SVG Export Plug-In . SVG Version: 6.00 Build 0)  -->
<svg version="1.1" id="Ebene_3" xmlns="http://www.w3.org/2000/svg" xmlns:xlink="http://www.w3.org/1999/xlink" x="0px" y="0px"
	 viewBox="0 0 311.7 110.6" style="enable-background:new 0 0 311.7 110.6;" xml:space="preserve">
<style type="text/css">
	.st0{fill:#E3000F;}
</style>
<g>
	<g>
		<path class="st0" d="M148.4,71.6V16.3c0-2.8-11.7-2.8-11.7,0v55.3C136.7,74.7,148.4,74.7,148.4,71.6z"/>
		<path class="st0" d="M166.7,71.6V16.3c0-2.8-11.7-2.8-11.7,0v55.3C155.1,74.7,166.7,74.7,166.7,71.6z"/>
		<path class="st0" d="M90,73.9h36.1c3,0,3.9-1,3.9-3.9v-1.3V36.1v-3c0-3.1-0.9-3.8-3.9-3.8H90c-3,0-3.8,0.7-3.8,3.8v3v32.6V70
			C86.2,72.9,87,73.9,90,73.9z M97.9,41h1.6h17h1.8v1.8v17.4v1.8h-1.8h-17h-1.6V41z"/>
		<path class="st0" d="M185.1,71.6V41h2.4c0.1,0,0.2,0,0.2,0h14.6c0.1,0,0.2,0,0.2,0h1.9v30.6c0,1.1,1.6,1.9,3.5,2.2
			c3.3,0.7,8.1,0,8.1-2.2v0V36.1v-3c0-3.1-0.8-3.8-4-3.8h-35c-3.1,0-3.8,0.7-3.8,3.8v3v32.6v2.8C173.4,74.7,185.1,74.7,185.1,71.6z"
			/>
		<path class="st0" d="M280.4,71.6V41h4.3h8.5h1.8c3.3,0,3.3-11.6,0-11.6h-22.4c-3.1,0-3.9,0.7-3.9,3.8v2.1v36v0.3
			C268.8,74.7,280.4,74.7,280.4,71.6z"/>
		<path class="st0" d="M294.1,85h-45.3H33.5l46.7-46.5c2-2,1.1-9.1-2.5-9.1H35.2c-4.6,0-4.5,11.6,0,11.6h26.3
			c-1.6,2.5-43.4,43.4-46.1,46.4c-2.7,3.1-0.9,9,2.3,9h231h45.3C298.6,96.4,298.6,85,294.1,85z"/>
		<path class="st0" d="M225.9,73.9h34c3,0,3-10.7,0-10.7h-24.1c0,0-0.1,0-0.1,0h-1.6v-6.8h1.7h12.8h9.7c2.9,0,3.7-1.6,3.7-3.2v-20
			c0-3.1-0.8-3.8-3.7-3.8h-32.1c-3,0-3.7,0.7-3.7,3.8v0.1v35.4V70C222.4,72.9,222.9,73.9,225.9,73.9z M249.2,40h1.1v6.7h-1.1h-13.4
			h-1.7V40h1.7H249.2z"/>
	</g>
</g>
</svg>
