<?xml version="1.0" encoding="utf-8"?>
<!-- Generator: Adobe Illustrator 26.0.3, SVG Export Plug-In . SVG Version: 6.00 Build 0)  -->
<svg version="1.1" id="Layer_1" xmlns="http://www.w3.org/2000/svg" xmlns:xlink="http://www.w3.org/1999/xlink" x="0px" y="0px"
	 viewBox="0 0 48 48" style="enable-background:new 0 0 48 48;" xml:space="preserve">
<style type="text/css">
	.st0{fill:#FFFFFF;}
</style>
<path class="st0" d="M24,31c2.2,0,4.1-0.8,5.6-2.4c1.6-1.6,2.4-3.5,2.4-5.6s-0.8-4.1-2.4-5.6C28.1,15.8,26.2,15,24,15
	s-4.1,0.8-5.6,2.4C16.8,18.9,16,20.8,16,23s0.8,4.1,2.4,5.6C19.9,30.2,21.8,31,24,31z M22.5,46v-4h-4v-3h4v-5
	c-2.7-0.5-5-1.7-6.8-3.8S13,25.7,13,23c0-1.2,0.2-2.4,0.6-3.5s0.9-2.2,1.6-3.1l-2.1-2.1L10.3,17l-2.1-2.1l2.8-2.8l-5-5V13H3V2h11v3
	H8.1l5,5l2.8-2.8L18,9.3l-2.8,2.8l2.2,2.2c1-0.7,2-1.3,3.1-1.7c1.1-0.4,2.3-0.6,3.5-0.6c1.2,0,2.4,0.2,3.5,0.6s2.2,0.9,3.1,1.6
	L39.8,5H34V2h11v11h-3V7.2l-9.2,9.2c0.7,1,1.3,2,1.7,3.1c0.4,1.1,0.5,2.3,0.5,3.5c0,2.7-0.9,5.1-2.7,7.2c-1.8,2.1-4.1,3.3-6.8,3.8v5
	h4v3h-4v4H22.5z"/>
</svg>
