<?xml version="1.0" encoding="utf-8"?>
<!-- Generator: Adobe Illustrator 26.0.3, SVG Export Plug-In . SVG Version: 6.00 Build 0)  -->
<svg version="1.1" id="Layer_1" xmlns="http://www.w3.org/2000/svg" xmlns:xlink="http://www.w3.org/1999/xlink" x="0px" y="0px"
	 viewBox="0 0 48 48" style="enable-background:new 0 0 48 48;" xml:space="preserve">
<style type="text/css">
	.st0{fill:#FFFFFF;}
</style>
<path class="st0" d="M18.4,18.4l4.4-7.4l-3-4.9c-0.4-0.7-1-1-1.7-1s-1.3,0.3-1.7,1l-4.9,8.1L18.4,18.4z M37.8,32l-4.5-7.4l7-4
	l3.2,5.4c0.4,0.6,0.6,1.2,0.6,1.9c0,0.7-0.1,1.3-0.5,2c-0.3,0.7-0.8,1.2-1.5,1.6C41.5,31.8,40.8,32,40,32H37.8z M32,46l-8-8l8-8v4
	h9.5l-2.9,5.8c-0.4,0.7-0.9,1.2-1.5,1.6C36.5,41.8,35.8,42,35,42h-3V46z M12.6,42c-0.7,0-1.3-0.2-1.8-0.5c-0.5-0.4-1-0.8-1.2-1.4
	c-0.3-0.5-0.4-1.1-0.4-1.7c0-0.6,0.2-1.1,0.5-1.6l1.7-2.8H20v8H12.6z M7.7,36.3l-3.2-6.5C4.1,29.2,4,28.6,4,27.9
	c0-0.7,0.2-1.3,0.6-1.9l0.8-1.4L2,22.5l10.9-2.8l2.8,11l-3.4-2.1L7.7,36.3z M34.7,19.2l-11-2.8l3.5-2.1L21,4h7c0.7,0,1.4,0.2,2,0.5
	c0.6,0.3,1.1,0.8,1.5,1.4l2.6,4.3l3.4-2.1L34.7,19.2z"/>
</svg>
