<?xml version="1.0" encoding="utf-8"?>
<!-- Generator: Adobe Illustrator 26.0.3, SVG Export Plug-In . SVG Version: 6.00 Build 0)  -->
<svg version="1.1" id="Layer_1" xmlns="http://www.w3.org/2000/svg" xmlns:xlink="http://www.w3.org/1999/xlink" x="0px" y="0px"
	 viewBox="0 0 48 48" style="enable-background:new 0 0 48 48;" xml:space="preserve">
<style type="text/css">
	.st0{fill:#FFFFFF;}
</style>
<path class="st0" d="M24,37.6c0.5,0,0.9-0.1,1.2-0.3s0.4-0.5,0.4-0.8c0-0.4-0.1-0.7-0.4-0.8c-0.3-0.2-0.7-0.3-1.3-0.3
	c-1.4,0-2.8-0.4-4.3-1.3s-2.4-2.4-2.8-4.7c-0.1-0.3-0.2-0.5-0.5-0.7s-0.5-0.3-0.8-0.3c-0.4,0-0.6,0.1-0.9,0.4s-0.3,0.6-0.2,0.9
	c0.5,2.8,1.7,4.8,3.6,6.1C20,37,22,37.6,24,37.6z M24,44c-4.6,0-8.4-1.6-11.4-4.7c-3-3.1-4.6-7-4.6-11.7c0-3.3,1.3-7,4-10.9
	S18.6,8.6,24,4c5.4,4.6,9.4,8.8,12,12.7c2.6,3.9,4,7.5,4,10.9c0,4.7-1.5,8.6-4.6,11.7C32.4,42.4,28.6,44,24,44z M24,41
	c3.7,0,6.8-1.3,9.3-3.8c2.5-2.5,3.7-5.7,3.7-9.6c0-2.6-1.1-5.6-3.3-9S28.2,11.7,24,8c-4.2,3.7-7.5,7.3-9.7,10.6S11,25,11,27.6
	c0,3.8,1.2,7,3.7,9.6C17.2,39.7,20.3,41,24,41z"/>
</svg>
